<?xml version="1.0" encoding="UTF-8"?>
<svg width="30px" height="30px" viewBox="0 0 30 30" version="1.1" xmlns="http://www.w3.org/2000/svg" xmlns:xlink="http://www.w3.org/1999/xlink">
    <!-- Generator: Sketch 49 (51002) - http://www.bohemiancoding.com/sketch -->
    <title>github - FontAwesome</title>
    <desc>Created with Sketch.</desc>
    <defs></defs>
    <g id="Home-page-design" stroke="none" stroke-width="1" fill="none" fill-rule="evenodd">
        <g id="Home-Page---Desktop" transform="translate(-1206.000000, -3583.000000)" fill="#FFCC00">
            <path d="M1221,3583 C1229.28125,3583 1236,3589.71875 1236,3598 C1236,3604.62109 1231.70312,3610.24609 1225.74609,3612.23828 C1224.98438,3612.375 1224.71094,3611.90625 1224.71094,3611.51562 C1224.71094,3611.02734 1224.73047,3609.40625 1224.73047,3607.39453 C1224.73047,3605.98828 1224.26172,3605.08984 1223.71484,3604.62109 C1227.05469,3604.25 1230.57031,3602.98047 1230.57031,3597.21875 C1230.57031,3595.57812 1229.98438,3594.25 1229.02734,3593.19531 C1229.18359,3592.80469 1229.69141,3591.28125 1228.87109,3589.21094 C1227.62109,3588.82031 1224.75,3590.75391 1224.75,3590.75391 C1223.55859,3590.42188 1222.26953,3590.24609 1221,3590.24609 C1219.73047,3590.24609 1218.44141,3590.42188 1217.25,3590.75391 C1217.25,3590.75391 1214.37891,3588.82031 1213.12891,3589.21094 C1212.30859,3591.28125 1212.81641,3592.80469 1212.97266,3593.19531 C1212.01562,3594.25 1211.42969,3595.57812 1211.42969,3597.21875 C1211.42969,3602.96094 1214.92578,3604.25 1218.26562,3604.62109 C1217.83594,3605.01172 1217.44531,3605.67578 1217.30859,3606.63281 C1216.44922,3607.02344 1214.26172,3607.6875 1212.95312,3605.38281 C1212.13281,3603.95703 1210.64844,3603.83984 1210.64844,3603.83984 C1209.18359,3603.82031 1210.55078,3604.75781 1210.55078,3604.75781 C1211.52734,3605.20703 1212.21094,3606.94531 1212.21094,3606.94531 C1213.08984,3609.62109 1217.26953,3608.72266 1217.26953,3608.72266 C1217.26953,3609.97266 1217.28906,3611.14453 1217.28906,3611.51562 C1217.28906,3611.90625 1217.01562,3612.375 1216.25391,3612.23828 C1210.29688,3610.24609 1206,3604.62109 1206,3598 C1206,3589.71875 1212.71875,3583 1221,3583 Z M1211.68359,3604.54297 C1211.64453,3604.62109 1211.52734,3604.64062 1211.42969,3604.58203 C1211.3125,3604.52344 1211.25391,3604.42578 1211.29297,3604.34766 C1211.33203,3604.28906 1211.42969,3604.26953 1211.54688,3604.30859 C1211.66406,3604.36719 1211.72266,3604.46484 1211.68359,3604.54297 Z M1212.28906,3605.20703 C1212.21094,3605.28516 1212.07422,3605.24609 1211.97656,3605.14844 C1211.87891,3605.03125 1211.85938,3604.89453 1211.9375,3604.83594 C1212.01562,3604.75781 1212.15234,3604.79688 1212.25,3604.89453 C1212.34766,3605.01172 1212.36719,3605.14844 1212.28906,3605.20703 Z M1212.875,3606.08594 C1212.79688,3606.14453 1212.64062,3606.08594 1212.54297,3605.94922 C1212.44531,3605.8125 1212.44531,3605.65625 1212.54297,3605.59766 C1212.64062,3605.51953 1212.79688,3605.57812 1212.875,3605.71484 C1212.97266,3605.85156 1212.97266,3606.00781 1212.875,3606.08594 Z M1213.69531,3606.90625 C1213.61719,3607.00391 1213.44141,3606.98438 1213.30469,3606.84766 C1213.16797,3606.73047 1213.12891,3606.55469 1213.22656,3606.47656 C1213.30469,3606.37891 1213.48047,3606.39844 1213.61719,3606.53516 C1213.73438,3606.65234 1213.77344,3606.82812 1213.69531,3606.90625 Z M1214.80859,3607.39453 C1214.76953,3607.51172 1214.59375,3607.57031 1214.4375,3607.51172 C1214.26172,3607.47266 1214.14453,3607.33594 1214.18359,3607.21875 C1214.22266,3607.10156 1214.39844,3607.04297 1214.55469,3607.08203 C1214.73047,3607.14062 1214.84766,3607.27734 1214.80859,3607.39453 Z M1216.03906,3607.49219 C1216.03906,3607.60938 1215.90234,3607.70703 1215.72656,3607.70703 C1215.53125,3607.72656 1215.39453,3607.62891 1215.39453,3607.49219 C1215.39453,3607.375 1215.53125,3607.27734 1215.70703,3607.27734 C1215.88281,3607.25781 1216.03906,3607.35547 1216.03906,3607.49219 Z M1217.17188,3607.29688 C1217.19141,3607.41406 1217.07422,3607.53125 1216.89844,3607.57031 C1216.72266,3607.60938 1216.56641,3607.53125 1216.54688,3607.41406 C1216.52734,3607.27734 1216.64453,3607.16016 1216.82031,3607.12109 C1216.99609,3607.10156 1217.15234,3607.17969 1217.17188,3607.29688 Z" id="github---FontAwesome"></path>
        </g>
    </g>
</svg>