<?xml version="1.0" encoding="UTF-8"?>
<svg width="30px" height="25px" viewBox="0 0 30 25" version="1.1" xmlns="http://www.w3.org/2000/svg" xmlns:xlink="http://www.w3.org/1999/xlink">
    <!-- Generator: Sketch 49 (51002) - http://www.bohemiancoding.com/sketch -->
    <title></title>
    <desc>Created with Sketch.</desc>
    <defs></defs>
    <g id="Home-page-design" stroke="none" stroke-width="1" fill="none" fill-rule="evenodd">
        <g id="Home-Page---Desktop" transform="translate(-1153.000000, -3585.000000)" fill="#FFCC00">
            <path d="M1183,3587.8934 C1182.16244,3589.11168 1181.11548,3590.1967 1179.91624,3591.07234 C1179.93528,3591.33883 1179.93528,3591.60533 1179.93528,3591.87183 C1179.93528,3600 1173.74873,3609.36548 1162.44162,3609.36548 C1158.95812,3609.36548 1155.72208,3608.3566 1153,3606.60533 C1153.49492,3606.66244 1153.97081,3606.68147 1154.48477,3606.68147 C1157.35914,3606.68147 1160.00508,3605.71066 1162.11802,3604.05457 C1159.41497,3603.99746 1157.14975,3602.22716 1156.36929,3599.79061 C1156.75,3599.84772 1157.13071,3599.88579 1157.53046,3599.88579 C1158.08249,3599.88579 1158.63452,3599.80964 1159.14848,3599.6764 C1156.33122,3599.10533 1154.21827,3596.63071 1154.21827,3593.64213 L1154.21827,3593.56599 C1155.0368,3594.02284 1155.98858,3594.30838 1156.99746,3594.34645 C1155.34137,3593.24239 1154.25635,3591.35787 1154.25635,3589.22589 C1154.25635,3588.08376 1154.56091,3587.0368 1155.09391,3586.1231 C1158.12056,3589.85406 1162.67005,3592.29061 1167.77157,3592.55711 C1167.6764,3592.10025 1167.61929,3591.62437 1167.61929,3591.14848 C1167.61929,3587.76015 1170.36041,3585 1173.76777,3585 C1175.53807,3585 1177.13706,3585.74239 1178.26015,3586.94162 C1179.64975,3586.67513 1180.98223,3586.16117 1182.16244,3585.45685 C1181.70558,3586.88452 1180.73477,3588.08376 1179.45939,3588.84518 C1180.6967,3588.71193 1181.89594,3588.36929 1183,3587.8934 Z" id=""></path>
        </g>
    </g>
</svg>