<?xml version="1.0" encoding="utf-8"?>
<!-- Generator: Adobe Illustrator 21.1.0, SVG Export Plug-In . SVG Version: 6.00 Build 0)  -->
<svg version="1.1" id="Layer_1" xmlns="http://www.w3.org/2000/svg" xmlns:xlink="http://www.w3.org/1999/xlink" x="0px" y="0px"
	 viewBox="0 0 45 45" style="enable-background:new 0 0 45 45;" xml:space="preserve">
<style type="text/css">
	.st0{fill:#C1C1C0;}
	.st1{clip-path:url(#SVGID_2_);}
</style>
<g>
	<path class="st0" d="M42,1c1.1,0,2,0.9,2,2v39c0,1.1-0.9,2-2,2H3c-1.1,0-2-0.9-2-2V3c0-1.1,0.9-2,2-2H42 M42,0H3C1.3,0,0,1.3,0,3
		v39c0,1.7,1.3,3,3,3h39c1.7,0,3-1.3,3-3V3C45,1.3,43.7,0,42,0L42,0z"/>
</g>
<g>
	<defs>
		<path id="SVGID_1_" d="M29.7,23.6l0.5-2.2h-2.1l-0.5,2.2H29.7z M25.5,25.3h-1.4l0.3-1.7h1.4l0.5-2.2h-1.4l0.3-1.7h1.4l0.8-3.8
			l1.8,0.4l-0.7,3.4h2.1l0.8-3.8l1.8,0.4l-0.7,3.4h1.4l-0.4,1.7h-1.3l-0.5,2.2h1.3l-0.3,1.7h-1.3l-0.8,3.8l-1.8-0.4l0.7-3.4h-2.1
			l-0.8,3.8l-1.8-0.4L25.5,25.3z M22.9,18.3l-1.6,1.5c-0.5-0.6-0.8-0.8-1.1-1c-0.6-0.5-1.5-0.7-2.3-0.7c-2.5,0-4.4,1.9-4.4,4.5
			c0,2.5,1.9,4.5,4.4,4.5c0.9,0,1.7-0.3,2.4-0.8c0.3-0.2,0.3-0.3,1-1l1.6,1.5c-1.7,1.7-3.1,2.4-5,2.4c-3.7,0-6.6-2.9-6.6-6.6
			c0-3.7,3-6.6,6.7-6.6C19.8,15.9,21.3,16.6,22.9,18.3z"/>
	</defs>
	<clipPath id="SVGID_2_">
		<use xlink:href="#SVGID_1_"  style="overflow:visible;"/>
	</clipPath>
	<rect x="5.6" y="10.3" class="st1" width="33.8" height="24.4"/>
</g>
</svg>
