<?xml version="1.0" encoding="utf-8"?>
<!-- Generator: Adobe Illustrator 21.1.0, SVG Export Plug-In . SVG Version: 6.00 Build 0)  -->
<svg version="1.1" id="Layer_1" xmlns="http://www.w3.org/2000/svg" xmlns:xlink="http://www.w3.org/1999/xlink" x="0px" y="0px"
	 viewBox="0 0 45 45" style="enable-background:new 0 0 45 45;" xml:space="preserve">
<style type="text/css">
	.st0{fill:#C1C1C0;}
	.st1{clip-path:url(#SVGID_5_);}
	.st2{clip-path:url(#SVGID_7_);fill:#FFFFFF;}
</style>
<g>
	<path class="st0" d="M42,1c1.1,0,2,0.9,2,2v39c0,1.1-0.9,2-2,2H3c-1.1,0-2-0.9-2-2V3c0-1.1,0.9-2,2-2H42 M42,0H3C1.3,0,0,1.3,0,3
		v39c0,1.7,1.3,3,3,3h39c1.7,0,3-1.3,3-3V3C45,1.3,43.7,0,42,0L42,0z"/>
</g>
<g>
	<defs>
		<rect id="SVGID_1_" x="11.2" y="10" width="22.5" height="25"/>
	</defs>
	<linearGradient id="SVGID_2_" gradientUnits="userSpaceOnUse" x1="11.248" y1="22.5" x2="33.752" y2="22.5">
		<stop  offset="0" style="stop-color:#7C2829"/>
		<stop  offset="1" style="stop-color:#B91319"/>
	</linearGradient>
	<use xlink:href="#SVGID_1_"  style="overflow:visible;fill:url(#SVGID_2_);"/>
	<clipPath id="SVGID_3_">
		<use xlink:href="#SVGID_1_"  style="overflow:visible;"/>
	</clipPath>
</g>
<g>
	<g>
		<defs>
			<path id="SVGID_4_" d="M16,29.2v-1.6l0.2,0c1.2-0.1,1.7-0.4,2.5-1.2c0.9-1,1.4-2.2,2.4-5c0.6-1.9,1.2-3,2-4.3
				c0.7-1.1,1.9-2,3.1-2.5c0.6-0.2,1.5-0.4,2-0.4h0.2v1.6v1.6l-0.2,0c-0.6,0.1-1.2,0.2-1.7,0.6c-0.7,0.4-1.5,1.5-1.9,2.6
				c-0.2,0.4-0.2,0.3,1.1,0.3h1.1v1.6v1.6l-1.8,0l-1.8,0l-0.2,0.5c-0.5,1.2-1.1,2.3-1.6,3.2c-1.1,1.7-2.5,2.6-4.6,2.9
				c-0.2,0-0.5,0.1-0.7,0.1l-0.3,0V29.2L16,29.2z"/>
		</defs>
		<use xlink:href="#SVGID_4_"  style="overflow:visible;fill:#FFFFFF;"/>
		<clipPath id="SVGID_5_">
			<use xlink:href="#SVGID_4_"  style="overflow:visible;"/>
		</clipPath>
		<g class="st1">
			<defs>
				<rect id="SVGID_6_" x="-28.5" y="-899.9" width="240" height="1651.1"/>
			</defs>
			<use xlink:href="#SVGID_6_"  style="overflow:visible;fill:#FFFFFF;"/>
			<clipPath id="SVGID_7_">
				<use xlink:href="#SVGID_6_"  style="overflow:visible;"/>
			</clipPath>
			<rect x="12.3" y="10.5" class="st2" width="20" height="24"/>
		</g>
	</g>
</g>
</svg>
