<?xml version="1.0" encoding="utf-8"?>
<!-- Generator: Adobe Illustrator 21.1.0, SVG Export Plug-In . SVG Version: 6.00 Build 0)  -->
<svg version="1.1" id="Layer_1" xmlns="http://www.w3.org/2000/svg" xmlns:xlink="http://www.w3.org/1999/xlink" x="0px" y="0px"
	 viewBox="0 0 45 45" style="enable-background:new 0 0 45 45;" xml:space="preserve">
<style type="text/css">
	.st0{fill:#1A1C19;}
	.st1{fill:#FFFFFF;}
	.st2{fill:#C1C1C0;}
</style>
<g>
	<path class="st0" d="M33.8,39.2H11.2c-3,0-5.4-2.4-5.4-5.4V11.2c0-3,2.4-5.4,5.4-5.4h22.6c3,0,5.4,2.4,5.4,5.4v22.6
		C39.2,36.8,36.8,39.2,33.8,39.2z"/>
	<polygon class="st1" points="13,24.4 26.3,9.2 23.3,20.6 32,20.6 18.7,35.8 21.7,24.4 	"/>
</g>
<path class="st2" d="M42,1c1.1,0,2,0.9,2,2v39c0,1.1-0.9,2-2,2H3c-1.1,0-2-0.9-2-2V3c0-1.1,0.9-2,2-2H42 M42,0H3C1.3,0,0,1.3,0,3v39
	c0,1.7,1.3,3,3,3h39c1.7,0,3-1.3,3-3V3C45,1.3,43.7,0,42,0z"/>
</svg>
