<?xml version="1.0" encoding="utf-8"?>
<!-- Generator: Adobe Illustrator 21.1.0, SVG Export Plug-In . SVG Version: 6.00 Build 0)  -->
<svg version="1.1" id="Layer_1" xmlns="http://www.w3.org/2000/svg" xmlns:xlink="http://www.w3.org/1999/xlink" x="0px" y="0px"
	 viewBox="0 0 45 45" style="enable-background:new 0 0 45 45;" xml:space="preserve">
<style type="text/css">
	.st0{fill:#C1C1C0;}
	.st1{fill:#02303A;}
	.st2{fill:#FFFFFF;}
</style>
<g>
	<path class="st0" d="M42,1c1.1,0,2,0.9,2,2v39c0,1.1-0.9,2-2,2H3c-1.1,0-2-0.9-2-2V3c0-1.1,0.9-2,2-2H42 M42,0H3C1.3,0,0,1.3,0,3
		v39c0,1.7,1.3,3,3,3h39c1.7,0,3-1.3,3-3V3C45,1.3,43.7,0,42,0L42,0z"/>
</g>
<g>
	<defs>
		<path id="SVGID_1_" d="M21.6,36.3c0,0.6-1.6,1.2-4.1,1.5s-5.6,0.3-8.1,0c-2.5-0.3-4.1-0.9-4.1-1.5c0-0.6,1.6-1.2,4.1-1.5
			c2.5-0.3,5.6-0.3,8.1,0C20,35.1,21.6,35.7,21.6,36.3z"/>
	</defs>
	<clipPath id="SVGID_2_">
		<use xlink:href="#SVGID_1_"  style="overflow:visible;"/>
	</clipPath>
</g>
<g>
	<path class="st1" d="M37.5,17.9C37.5,17.9,37.5,17.9,37.5,17.9c0-0.5-0.1-1-0.3-1.4c-0.3-0.9-1.1-1.9-1.9-2.4c0,0,0,0,0,0
		c-0.7-0.6-1.8-1.1-2.2-0.7c-0.1,0.1-0.5,0.4-0.7,0.7c0,0,0,0,0,0c-0.1,0.1-0.1,0.2-0.2,0.3c0,0,0,0.1,0,0.1c0,0.1,0.1,0.1,0.2,0.2
		c0,0,0,0,0,0c0.1,0.1,0.2,0.2,0.4,0.3c0.5,0.3,1.2,0.8,1.6,1.8c0.2,0.5,0.7,1.8-0.1,2.6c-0.3,0.3-0.7,0.5-1.1,0.5
		c-0.9,0-2.3-0.8-5.1-3.5c-2.8-2.6-6.2-3-8.9-2.7c-1.7,0.2-3.1,0.6-3.9,0.8c-1.5,0.5-2.4,1-2.5,1.9c0,0.2,0,0.5,0.2,0.7
		c0,0.1,0.1,0.2,0.1,0.3c1.1,2.1,0.7,1.5,1.8,3.2c1.7,2.8,5.4-1.3,5.4-1.3c-2.7,4.1-5.1,3.1-6,1.7c-0.8-1.3-1.4-2.8-1.4-2.8
		c-7,2.5-5.1,13.6-5.1,13.6h3.5c0.9-4.1,4-3.9,4.6,0h2.6c2.3-8,7.3,0,7.3,0h3c0-4.2-0.4-5.8,1.7-6.1c3.7-0.5,5.4-2.2,6.6-4.9
		c0.1-0.3,0.2-0.6,0.3-0.9C37.5,19.2,37.5,18.6,37.5,17.9z"/>
	<g>
		<path class="st2" d="M24.9,19.1c0,0,1.6,0.5,3.7,1.2c-0.1,0.6-1.2,1.7-2.6,1.2C24.3,20.9,24.9,19.1,24.9,19.1z"/>
		<ellipse transform="matrix(0.9944 -0.1056 0.1056 0.9944 -1.9842 2.9392)" class="st1" cx="26.8" cy="20.2" rx="1" ry="0.9"/>
	</g>
</g>
</svg>
