<?xml version="1.0" encoding="utf-8"?>
<!-- Generator: Adobe Illustrator 21.1.0, SVG Export Plug-In . SVG Version: 6.00 Build 0)  -->
<svg version="1.1" id="Layer_1" xmlns="http://www.w3.org/2000/svg" xmlns:xlink="http://www.w3.org/1999/xlink" x="0px" y="0px"
	 viewBox="0 0 45 45" style="enable-background:new 0 0 45 45;" xml:space="preserve">
<style type="text/css">
	.st0{fill:#C1C1C0;}
	.st1{fill:url(#SVGID_1_);}
	.st2{fill:url(#SVGID_2_);}
	.st3{fill:url(#SVGID_3_);}
	.st4{fill:url(#SVGID_4_);}
	.st5{fill:#FFFFFF;}
</style>
<g>
	<path class="st0" d="M42,1c1.1,0,2,0.9,2,2v39c0,1.1-0.9,2-2,2H3c-1.1,0-2-0.9-2-2V3c0-1.1,0.9-2,2-2H42 M42,0H3C1.3,0,0,1.3,0,3
		v39c0,1.7,1.3,3,3,3h39c1.7,0,3-1.3,3-3V3C45,1.3,43.7,0,42,0L42,0z"/>
</g>
<g>
	<g>
		
			<linearGradient id="SVGID_1_" gradientUnits="userSpaceOnUse" x1="10.2857" y1="20.6786" x2="21.8929" y2="20.6786" gradientTransform="matrix(1 0 0 -1 0 45)">
			<stop  offset="0.2581" style="stop-color:#F97A12"/>
			<stop  offset="0.4591" style="stop-color:#B07B58"/>
			<stop  offset="0.7241" style="stop-color:#577BAE"/>
			<stop  offset="0.9105" style="stop-color:#1E7CE5"/>
			<stop  offset="1" style="stop-color:#087CFA"/>
		</linearGradient>
		<polygon class="st1" points="16.3,29.5 10.3,24.7 13.3,19.1 21.9,22.5 		"/>
		
			<linearGradient id="SVGID_2_" gradientUnits="userSpaceOnUse" x1="19.1984" y1="26.1066" x2="38.3615" y2="15.5031" gradientTransform="matrix(1 0 0 -1 0 45)">
			<stop  offset="0" style="stop-color:#F97A12"/>
			<stop  offset="7.179946e-02" style="stop-color:#CB7A3E"/>
			<stop  offset="0.1541" style="stop-color:#9E7B6A"/>
			<stop  offset="0.242" style="stop-color:#757B91"/>
			<stop  offset="0.3344" style="stop-color:#537BB1"/>
			<stop  offset="0.4324" style="stop-color:#387CCC"/>
			<stop  offset="0.5381" style="stop-color:#237CE0"/>
			<stop  offset="0.6552" style="stop-color:#147CEF"/>
			<stop  offset="0.7925" style="stop-color:#0B7CF7"/>
			<stop  offset="1" style="stop-color:#087CFA"/>
		</linearGradient>
		<polygon class="st2" points="35,16.7 34.5,31.1 24.9,35 19.1,31.3 27.6,22.5 23.9,14.4 27.2,10.4 		"/>
		
			<linearGradient id="SVGID_3_" gradientUnits="userSpaceOnUse" x1="32.5844" y1="19.6741" x2="27.2496" y2="35.615" gradientTransform="matrix(1 0 0 -1 0 45)">
			<stop  offset="0" style="stop-color:#FE315D"/>
			<stop  offset="7.840246e-02" style="stop-color:#CB417E"/>
			<stop  offset="0.1601" style="stop-color:#9E4E9B"/>
			<stop  offset="0.2474" style="stop-color:#755BB4"/>
			<stop  offset="0.3392" style="stop-color:#5365CA"/>
			<stop  offset="0.4365" style="stop-color:#386DDB"/>
			<stop  offset="0.5414" style="stop-color:#2374E9"/>
			<stop  offset="0.6576" style="stop-color:#1478F3"/>
			<stop  offset="0.794" style="stop-color:#0B7BF8"/>
			<stop  offset="1" style="stop-color:#087CFA"/>
		</linearGradient>
		<polygon class="st3" points="35,16.7 27.4,25.7 23.9,14.4 27.2,10.4 		"/>
		
			<linearGradient id="SVGID_4_" gradientUnits="userSpaceOnUse" x1="13.8182" y1="29.1104" x2="29.8194" y2="2.6436" gradientTransform="matrix(1 0 0 -1 0 45)">
			<stop  offset="0" style="stop-color:#FE315D"/>
			<stop  offset="4.023279e-02" style="stop-color:#F63462"/>
			<stop  offset="0.1037" style="stop-color:#DF3A71"/>
			<stop  offset="0.1667" style="stop-color:#C24383"/>
			<stop  offset="0.2912" style="stop-color:#AD4A91"/>
			<stop  offset="0.5498" style="stop-color:#755BB4"/>
			<stop  offset="0.9175" style="stop-color:#1D76ED"/>
			<stop  offset="1" style="stop-color:#087CFA"/>
		</linearGradient>
		<polygon class="st4" points="22,30.8 12,34.4 13.6,28.8 15.7,21.8 10,19.9 13.6,10 21.5,11 29.2,19.8 		"/>
	</g>
	<g>
		<rect x="14.9" y="14.8" width="15.4" height="15.4"/>
		<rect x="16.3" y="27.4" class="st5" width="5.8" height="1"/>
		<polygon class="st5" points="20.5,18 20.5,16.8 17.3,16.8 17.3,18 18.2,18 18.2,22 17.3,22 17.3,23.2 20.5,23.2 20.5,22 19.6,22 
			19.6,18 		"/>
		<path class="st5" d="M23.6,23.3c-0.5,0-0.9-0.1-1.2-0.3c-0.3-0.2-0.6-0.4-0.8-0.7l0.9-1c0.2,0.2,0.4,0.4,0.5,0.5
			c0.2,0.1,0.4,0.2,0.6,0.2c0.2,0,0.5-0.1,0.6-0.2c0.1-0.2,0.2-0.4,0.2-0.8v-4.1h1.4V21c0,0.4,0,0.7-0.1,1c-0.1,0.3-0.2,0.5-0.5,0.7
			c-0.2,0.2-0.4,0.4-0.7,0.4C24.2,23.2,23.9,23.3,23.6,23.3"/>
	</g>
</g>
</svg>
