<?xml version="1.0" encoding="utf-8"?>
<!-- Generator: Adobe Illustrator 21.1.0, SVG Export Plug-In . SVG Version: 6.00 Build 0)  -->
<svg version="1.1" id="Layer_1" xmlns="http://www.w3.org/2000/svg" xmlns:xlink="http://www.w3.org/1999/xlink" x="0px" y="0px"
	 viewBox="0 0 45 45" style="enable-background:new 0 0 45 45;" xml:space="preserve">
<style type="text/css">
	.st0{fill:#C1C1C0;}
	.st1{clip-path:url(#SVGID_2_);fill:#D9262A;}
	.st2{clip-path:url(#SVGID_4_);fill:#1E80B4;}
	.st3{clip-path:url(#SVGID_6_);fill:#D9262A;}
	.st4{clip-path:url(#SVGID_8_);fill:#1E80B4;}
	.st5{clip-path:url(#SVGID_10_);fill:#1E80B4;}
	.st6{clip-path:url(#SVGID_12_);fill:#1E80B4;}
	.st7{clip-path:url(#SVGID_14_);fill:#1E80B4;}
	.st8{clip-path:url(#SVGID_16_);fill:#1E80B4;}
</style>
<g>
	<path class="st0" d="M42,1c1.1,0,2,0.9,2,2v39c0,1.1-0.9,2-2,2H3c-1.1,0-2-0.9-2-2V3c0-1.1,0.9-2,2-2H42 M42,0H3C1.3,0,0,1.3,0,3
		v39c0,1.7,1.3,3,3,3h39c1.7,0,3-1.3,3-3V3C45,1.3,43.7,0,42,0L42,0z"/>
</g>
<g>
	<g>
		<defs>
			<path id="SVGID_1_" d="M21.7,23.9L21.1,23c-0.2-0.3-0.4-0.6-0.6-0.9c-0.3-0.6-0.7-1.3-0.9-2.1c-0.3-1.3,0.5-2.2,1.2-3.1
				c0.1-0.1,0.2-0.3,0.4-0.4c0.8-0.8,1.8-1.8,2.6-2.6c0.8-0.8,1.3-1.7,1.4-3c0.1-0.7-0.1-2.2-0.6-2.4c0.1,1,0.2,1.7-0.2,2.8
				c-0.5,1.2-1.3,1.9-2.2,2.6c-0.7,0.6-2,1.6-2.6,2.2c-0.4,0.4-1.1,1.1-1.4,1.8c-0.4,1,0,1.7,0.5,2.4c0.2,0.3,0.4,0.6,0.7,0.9
				c0.3,0.4,0.5,0.6,0.7,0.9c0.2,0.3,0.5,0.6,0.8,0.8C21,23.3,21.5,23.8,21.7,23.9"/>
		</defs>
		<clipPath id="SVGID_2_">
			<use xlink:href="#SVGID_1_"  style="overflow:visible;"/>
		</clipPath>
		<rect x="13" y="3.5" class="st1" width="17.3" height="25.4"/>
	</g>
	<g>
		<defs>
			<path id="SVGID_3_" d="M31.2,33c0.3,0.5,0,0.7-0.4,0.9c-1.8,0.8-7.8,1-9.7,1c-1.9,0-3.8,0-5.7-0.4c-0.3-0.1-1.6-0.3-1.7-0.6
				c0-0.2,0.2-0.4,0.3-0.5c0.4-0.3,1.2-0.4,1.7-0.5c0.2,0,0.5-0.1,0.6-0.1c-0.9-0.1-3.7,0.3-4.4,1.2c-0.4,0.6,0.3,0.8,0.7,1
				c1.6,0.5,5,0.6,6.8,0.7c2.7,0,9.1,0,11.5-1.6c0.1-0.1,0.4-0.3,0.4-0.5C31.7,33.3,31.4,33.1,31.2,33"/>
		</defs>
		<clipPath id="SVGID_4_">
			<use xlink:href="#SVGID_3_"  style="overflow:visible;"/>
		</clipPath>
		<rect x="7" y="27.7" class="st2" width="29.7" height="13"/>
	</g>
	<g>
		<defs>
			<path id="SVGID_5_" d="M23,25.3c0.3-0.1,1.1-0.8,1.4-1c0.3-0.3,0.8-0.9,0.8-1.5c0-0.6-0.4-1.4-0.6-1.8c-0.8-1.2-1.4-1.9-0.4-3.2
				c0.4-0.4,0.8-0.8,1.2-1.2c0.5-0.5,1.4-1.1,2.1-1.5l0.7-0.5c-0.4,0.1-1.4,0.5-1.8,0.6c-0.5,0.2-1.2,0.5-1.6,0.8
				c-1.6,0.9-3.2,2.4-2.6,4.5c0.4,1.4,1.7,2.2,1.6,3.2C23.8,24.4,23.2,25,23,25.3"/>
		</defs>
		<clipPath id="SVGID_6_">
			<use xlink:href="#SVGID_5_"  style="overflow:visible;"/>
		</clipPath>
		<rect x="17" y="9.6" class="st3" width="16.3" height="20.8"/>
	</g>
	<g>
		<defs>
			<path id="SVGID_7_" d="M26.6,32.1c-0.5-0.2-0.9-0.4-1.3-0.7c-0.3-0.2-0.2-0.1-0.5-0.1c-1.4,0.3-3.6,0.3-5,0.3
				c-0.4,0-1.4,0-1.6-0.4c-0.1-0.2,0-0.4,0.1-0.5c-0.9,0.2-1.9,1-0.6,1.6c1.5,0.7,4.5,0.7,6.1,0.4C24.3,32.7,26.3,32.2,26.6,32.1"/>
		</defs>
		<clipPath id="SVGID_8_">
			<use xlink:href="#SVGID_7_"  style="overflow:visible;"/>
		</clipPath>
		<rect x="12" y="25.7" class="st4" width="19.6" height="12.3"/>
	</g>
	<g>
		<defs>
			<path id="SVGID_9_" d="M26.8,29c-0.4-0.1-0.7-0.3-1-0.5c-0.2-0.2-0.1-0.1-0.6-0.1c-1.6,0.3-6.4,0.7-7.7,0.2
				c-0.2-0.1-0.4-0.2-0.4-0.4c0-0.2,0.2-0.4,0.3-0.5c-1.1,0.1-2.1,1.2-0.7,1.7c1.7,0.6,5.2,0.6,7,0.4C24.3,29.7,26.4,29.3,26.8,29"
				/>
		</defs>
		<clipPath id="SVGID_10_">
			<use xlink:href="#SVGID_9_"  style="overflow:visible;"/>
		</clipPath>
		<rect x="11" y="22.7" class="st5" width="20.9" height="12.3"/>
	</g>
	<g>
		<defs>
			<path id="SVGID_11_" d="M28.2,24.7c-0.2,0-0.5,0.1-0.7,0.1c-0.2,0-0.5,0.1-0.7,0.1c-1.5,0.2-3.1,0.4-4.6,0.5
				c-1.1,0.1-5.5,0.2-6.1-0.4c0-0.3,0.3-0.4,0.5-0.5c0.7-0.4,1.5-0.5,2.3-0.8c-1-0.1-3.5,0.6-4.5,1.2c-1,0.6,0.7,0.9,1.3,0.9
				c3.6,0.5,7,0.2,10.6-0.3c0.6-0.1,0.7,0,1.1-0.3C27.6,25.1,27.9,24.9,28.2,24.7"/>
		</defs>
		<clipPath id="SVGID_12_">
			<use xlink:href="#SVGID_11_"  style="overflow:visible;"/>
		</clipPath>
		<rect x="9" y="18.6" class="st6" width="24.2" height="12.5"/>
	</g>
	<g>
		<defs>
			<path id="SVGID_13_" d="M16,35.6c1,0.4,3.2,0.7,4.3,0.8c1.6,0.1,3.4,0.1,5,0c2.1-0.1,4.5-0.4,6.4-1.3c0.4-0.2,1.2-0.8,1.3-1.3
				c-0.1,0.1-0.2,0.2-0.4,0.3c-3.2,2.2-10.6,2-14.4,1.7L16,35.6"/>
		</defs>
		<clipPath id="SVGID_14_">
			<use xlink:href="#SVGID_13_"  style="overflow:visible;"/>
		</clipPath>
		<rect x="11" y="28.7" class="st7" width="27" height="12.7"/>
	</g>
	<g>
		<defs>
			<path id="SVGID_15_" d="M28.7,24.1c0.8-0.2,1.7-0.1,2.2,0.4c0.5,0.5,0.5,1.4,0.2,2.1c-0.5,0.9-1.6,1.8-2.5,2.4
				c-0.2,0.1-0.3,0.2-0.4,0.3c0.6-0.1,2-0.7,2.5-1c0.7-0.4,1.4-1,1.7-1.8c0.4-1.1-0.2-2-0.9-2.4c-0.4-0.2-0.9-0.4-1.4-0.3
				C29.6,23.7,28.9,23.9,28.7,24.1"/>
		</defs>
		<clipPath id="SVGID_16_">
			<use xlink:href="#SVGID_15_"  style="overflow:visible;"/>
		</clipPath>
		<rect x="23.1" y="18.6" class="st8" width="14.4" height="15.6"/>
	</g>
</g>
</svg>
