<?xml version="1.0" encoding="utf-8"?>
<!-- Generator: Adobe Illustrator 21.1.0, SVG Export Plug-In . SVG Version: 6.00 Build 0)  -->
<svg version="1.1" id="Layer_1" xmlns="http://www.w3.org/2000/svg" xmlns:xlink="http://www.w3.org/1999/xlink" x="0px" y="0px"
	 viewBox="0 0 45 45" style="enable-background:new 0 0 45 45;" xml:space="preserve">
<style type="text/css">
	.st0{fill:#C1C1C0;}
	.st1{clip-path:url(#SVGID_2_);}
</style>
<g>
	<path class="st0" d="M42,1c1.1,0,2,0.9,2,2v39c0,1.1-0.9,2-2,2H3c-1.1,0-2-0.9-2-2V3c0-1.1,0.9-2,2-2H42 M42,0H3C1.3,0,0,1.3,0,3
		v39c0,1.7,1.3,3,3,3h39c1.7,0,3-1.3,3-3V3C45,1.3,43.7,0,42,0L42,0z"/>
</g>
<g>
	<defs>
		<path id="SVGID_1_" d="M27.5,21.5c-1.6,0-2.7,1-2.7,2.4c0,1.5,0.9,2.2,2.2,2.7l0.5,0.2c0.8,0.4,1.2,0.6,1.2,1.2
			c0,0.5-0.4,0.9-1.1,0.9c-0.9,0-1.3-0.6-1.7-1.2l-1.4,1c0.5,1.1,1.5,1.9,3.2,1.9c1.7,0,3-0.9,3-2.5c0-1.5-0.9-2.2-2.4-2.9L27.7,25
			c-0.8-0.3-1.1-0.6-1.1-1.1c0-0.4,0.3-0.8,0.9-0.8c0.5,0,0.9,0.2,1.2,0.8l1.4-0.9C29.5,21.9,28.6,21.5,27.5,21.5z M21.5,21.5v6
			c0,0.9-0.3,1.2-1,1.2c-0.6,0-1.1-0.4-1.4-0.9l-1.5,0.9c0.4,0.9,1.5,1.9,3,1.9c1.6,0,2.7-0.9,2.7-2.8v-6.3H21.5z M13.8,13.5h17.5
			c0.2,0,0.3,0.1,0.3,0.3v17.5c0,0.2-0.1,0.3-0.3,0.3H13.8c-0.2,0-0.3-0.1-0.3-0.3V13.8C13.5,13.6,13.6,13.5,13.8,13.5z M13.8,12.5
			c-0.7,0-1.3,0.6-1.3,1.3v17.5c0,0.7,0.6,1.3,1.3,1.3h17.5c0.7,0,1.3-0.6,1.3-1.3V13.8c0-0.7-0.6-1.3-1.3-1.3H13.8z"/>
	</defs>
	<use xlink:href="#SVGID_1_"  style="overflow:visible;"/>
	<clipPath id="SVGID_2_">
		<use xlink:href="#SVGID_1_"  style="overflow:visible;"/>
	</clipPath>
	<rect x="7.5" y="7.5" class="st1" width="30" height="30"/>
</g>
</svg>
