<svg id="Layer_1" data-name="Layer 1" xmlns="http://www.w3.org/2000/svg" xmlns:xlink="http://www.w3.org/1999/xlink" viewBox="0 0 45 45"><defs><style>.cls-1{fill:#c1c1c0;}.cls-2{isolation:isolate;}.cls-3{fill:url(#linear-gradient);}.cls-4{fill:url(#linear-gradient-2);}</style><linearGradient id="linear-gradient" x1="2503.76" y1="-2834.75" x2="2545.91" y2="-2876.9" gradientTransform="matrix(0.1, 0, 0, -0.1, -227.15, -262.23)" gradientUnits="userSpaceOnUse"><stop offset="0"/><stop offset="1" stop-color="#fff"/></linearGradient><linearGradient id="linear-gradient-2" x1="2547.82" y1="-2874.99" x2="2505.67" y2="-2832.84" xlink:href="#linear-gradient"/></defs><title>JSON</title><path class="cls-1" d="M42,1a2,2,0,0,1,2,2V42a2,2,0,0,1-2,2H3a2,2,0,0,1-2-2V3A2,2,0,0,1,3,1H42m0-1H3A3,3,0,0,0,0,3V42a3,3,0,0,0,3,3H42a3,3,0,0,0,3-3V3a3,3,0,0,0-3-3Z"/><g id="layer3"><g id="g856"><g id="text3349"><path id="path3389" d="M4.79,22.73a1.78,1.78,0,0,1-.13.72,1,1,0,0,1-.51.46.94.94,0,0,1,.51.46,1.76,1.76,0,0,1,.13.71V26.8a1,1,0,0,0,.17.66.75.75,0,0,0,.6.2h.78a.21.21,0,0,1,.24.24v.25a.21.21,0,0,1-.24.24H5.56A1.71,1.71,0,0,1,4.33,28,1.69,1.69,0,0,1,4,26.8V25.09a.89.89,0,0,0-.17-.62.78.78,0,0,0-.6-.19H2.42A.21.21,0,0,1,2.18,24v-.25a.21.21,0,0,1,.24-.24h.77a.78.78,0,0,0,.6-.19A.93.93,0,0,0,4,22.73V21a1.69,1.69,0,0,1,.37-1.23,1.71,1.71,0,0,1,1.23-.37h.78a.21.21,0,0,1,.24.24v.25a.21.21,0,0,1-.24.24H5.56a.75.75,0,0,0-.6.2,1,1,0,0,0-.17.66Z"/><path id="path3391" d="M12.57,19.34a.21.21,0,0,1,.24.24v.64a.21.21,0,0,1-.24.24h-.63a.21.21,0,0,1-.24-.24v-.64a.21.21,0,0,1,.24-.24Zm0,2.51a.21.21,0,0,1,.24.24v3.43a2.74,2.74,0,0,1-.67,2.06,2.29,2.29,0,0,1-1.68.65A3.68,3.68,0,0,1,9,27.93a.21.21,0,0,1-.15-.2.26.26,0,0,1,0-.12l.1-.23a.21.21,0,0,1,.2-.15l.11,0a3.4,3.4,0,0,0,1.17.22A1.43,1.43,0,0,0,11.58,27,2.22,2.22,0,0,0,12,25.52V22.6H9.29A.21.21,0,0,1,9,22.36v-.27a.21.21,0,0,1,.24-.24Z"/><path id="path3393" d="M20,22.4a.23.23,0,0,1-.29.17,5.91,5.91,0,0,0-.87-.09,1.8,1.8,0,0,0-.81.16.48.48,0,0,0-.33.44.55.55,0,0,0,.26.44,1.52,1.52,0,0,0,.72.25,2.2,2.2,0,0,1,1.28.5,1.28,1.28,0,0,1,.43,1,1.32,1.32,0,0,1-.53,1.09,2.38,2.38,0,0,1-1.5.42,8.16,8.16,0,0,1-1.3-.11q-.2,0-.2-.21a.25.25,0,0,1,0-.08l.06-.25a.22.22,0,0,1,.28-.19,6.81,6.81,0,0,0,1.16.1,1.56,1.56,0,0,0,.89-.21.64.64,0,0,0,.32-.55.61.61,0,0,0-.24-.48,1.3,1.3,0,0,0-.73-.25,2.18,2.18,0,0,1-1.26-.47,1.25,1.25,0,0,1-.45-1,1.16,1.16,0,0,1,.49-1,2.21,2.21,0,0,1,1.37-.38,6.21,6.21,0,0,1,1.14.11.2.2,0,0,1,.19.21.25.25,0,0,1,0,.08Z"/><path id="path3397" d="M32.19,22.13a.25.25,0,0,1,.22-.26,11.08,11.08,0,0,1,1.64-.12,2.24,2.24,0,0,1,1.56.45,2,2,0,0,1,.48,1.5v2.73a.21.21,0,0,1-.24.24h-.34a.21.21,0,0,1-.24-.24V23.7a1.29,1.29,0,0,0-.28-.95,1.34,1.34,0,0,0-.95-.27q-.46,0-1,0v3.91a.21.21,0,0,1-.24.24h-.34a.21.21,0,0,1-.24-.24Z"/><path id="path3399" d="M40.21,21a1,1,0,0,0-.17-.66.75.75,0,0,0-.6-.2h-.78a.21.21,0,0,1-.24-.24v-.25a.21.21,0,0,1,.24-.24h.78a1.68,1.68,0,0,1,1.22.37A1.66,1.66,0,0,1,41,21v1.7a.93.93,0,0,0,.17.63.78.78,0,0,0,.6.19h.77a.21.21,0,0,1,.24.24V24a.21.21,0,0,1-.24.24h-.77a.78.78,0,0,0-.6.19.89.89,0,0,0-.17.62V26.8a1.35,1.35,0,0,1-1.59,1.59h-.78a.21.21,0,0,1-.24-.24V27.9a.21.21,0,0,1,.24-.24h.78a.75.75,0,0,0,.6-.2,1,1,0,0,0,.17-.66V25.09a1.76,1.76,0,0,1,.13-.71.94.94,0,0,1,.51-.46,1,1,0,0,1-.51-.46,1.78,1.78,0,0,1-.13-.72Z"/></g><g id="g3383"><path id="path7508" class="cls-3" d="M26.15,25.58c1.33,1.81,2.63-.51,2.63-1.9a2.77,2.77,0,0,0-2.63-2.57,3,3,0,0,0,0,6c-.3,0-1.29-.26-1.31-2.55,0-1.55.51-2.17,1.31-1.9a1.65,1.65,0,0,1,0,2.91Z"/><path id="path7510" class="cls-4" d="M26.15,22.67c-.88-.3-2,.42-2,1.87,0,2.36,1.75,2.58,2,2.58a3,3,0,0,0,0-6c.37-.05,2,.4,2,2.59,0,1.43-1.2,2.21-2,1.88a1.65,1.65,0,0,1,0-2.92Z"/></g></g></g></svg>