<?xml version="1.0" encoding="utf-8"?>
<!-- Generator: Adobe Illustrator 21.1.0, SVG Export Plug-In . SVG Version: 6.00 Build 0)  -->
<svg version="1.1" id="Layer_1" xmlns="http://www.w3.org/2000/svg" xmlns:xlink="http://www.w3.org/1999/xlink" x="0px" y="0px"
	 viewBox="0 0 45 45" style="enable-background:new 0 0 45 45;" xml:space="preserve">
<style type="text/css">
	.st0{fill:#C1C1C0;}
	.st1{fill:url(#SVGID_1_);}
	.st2{fill:none;}
	.st3{fill:#BE202E;}
	.st4{opacity:0.35;fill:#BE202E;enable-background:new    ;}
	.st5{fill:url(#SVGID_2_);}
	.st6{fill:url(#SVGID_3_);}
	.st7{fill:url(#SVGID_4_);}
	.st8{fill:url(#SVGID_5_);}
	.st9{fill:url(#SVGID_6_);}
	.st10{fill:url(#SVGID_7_);}
	.st11{fill:url(#SVGID_8_);}
	.st12{fill:url(#SVGID_9_);}
	.st13{fill:url(#SVGID_10_);}
</style>
<g>
	<path class="st0" d="M42,1c1.1,0,2,0.9,2,2v39c0,1.1-0.9,2-2,2H3c-1.1,0-2-0.9-2-2V3c0-1.1,0.9-2,2-2H42 M42,0H3C1.3,0,0,1.3,0,3
		v39c0,1.7,1.3,3,3,3h39c1.7,0,3-1.3,3-3V3C45,1.3,43.7,0,42,0L42,0z"/>
</g>
<g>
	
		<linearGradient id="SVGID_1_" gradientUnits="userSpaceOnUse" x1="-5511.4585" y1="915.2535" x2="-5506.5151" y2="909.4729" gradientTransform="matrix(0.4226 -0.9063 -0.9063 -0.4226 3185.5942 -4600.2812)">
		<stop  offset="0" style="stop-color:#F69923"/>
		<stop  offset="0.3123" style="stop-color:#F79A23"/>
		<stop  offset="0.8383" style="stop-color:#E97826"/>
	</linearGradient>
	<path class="st1" d="M28.7,5.2c-0.5,0.3-1.5,1.2-2.5,2.6l1,1.9c0.7-1,1.4-1.9,2.1-2.7c0.1-0.1,0.1-0.1,0.1-0.1c0,0-0.1,0.1-0.1,0.1
		c-0.2,0.3-0.9,1.1-2,2.7c1-0.1,2.6-0.3,3.9-0.5c0.4-2.1-0.4-3.1-0.4-3.1S29.8,4.5,28.7,5.2z"/>
	<path class="st2" d="M27,15.9C27,15.9,27,15.9,27,15.9l-0.1,0c0,0,0,0,0,0C26.9,16,26.9,15.9,27,15.9z"/>
	<path class="st2" d="M25.9,19.3c-0.1,0-0.2,0-0.3,0C25.8,19.4,25.9,19.3,25.9,19.3z"/>
	<path class="st2" d="M19,26.9C19,26.9,19,26.8,19,26.9c0.3-0.7,0.5-1.2,0.7-1.8c0.2-0.6,0.5-1.2,0.7-1.8c0.2-0.6,0.5-1.2,0.7-1.8
		c0.3-0.6,0.5-1.2,0.8-1.7c0.2-0.5,0.4-0.9,0.6-1.3c0.1-0.1,0.1-0.3,0.2-0.4c0.1-0.3,0.3-0.5,0.4-0.8c0.1-0.2,0.2-0.5,0.3-0.7
		c0-0.1,0.1-0.2,0.1-0.2c0,0,0,0,0,0l-0.1,0l-0.1-0.2c0,0,0,0,0,0.1c-0.2,0.3-0.3,0.7-0.5,1.1c-0.1,0.2-0.2,0.4-0.3,0.6
		c-0.3,0.6-0.5,1.2-0.8,1.7c-0.3,0.6-0.5,1.2-0.8,1.8c-0.3,0.6-0.5,1.2-0.7,1.7c-0.2,0.6-0.5,1.2-0.7,1.7c-0.2,0.6-0.5,1.2-0.7,1.8
		c-0.1,0.1-0.1,0.3-0.2,0.4c-0.2,0.5-0.4,0.9-0.5,1.4l0.2,0.3l0.1,0c0,0,0,0,0,0C18.6,28.1,18.8,27.5,19,26.9z"/>
	<path class="st2" d="M25.6,19.4L25.6,19.4C25.6,19.4,25.6,19.4,25.6,19.4C25.6,19.4,25.6,19.4,25.6,19.4z"/>
	<path class="st3" d="M25.3,21c-0.1,0-0.3,0-0.4,0.1c0,0,0,0,0,0c0.1,0,0.1,0,0.2,0C25.2,21,25.2,21,25.3,21z"/>
	<path class="st4" d="M25.3,21c-0.1,0-0.3,0-0.4,0.1c0,0,0,0,0,0c0.1,0,0.1,0,0.2,0C25.2,21,25.2,21,25.3,21z"/>
	<path class="st3" d="M25.6,19.4C25.6,19.4,25.6,19.4,25.6,19.4C25.6,19.4,25.6,19.4,25.6,19.4C25.7,19.4,25.7,19.4,25.6,19.4
		c0.1,0,0.2,0,0.3-0.1C25.8,19.3,25.7,19.4,25.6,19.4L25.6,19.4L25.6,19.4z"/>
	<path class="st4" d="M25.6,19.4C25.6,19.4,25.6,19.4,25.6,19.4C25.6,19.4,25.6,19.4,25.6,19.4C25.7,19.4,25.7,19.4,25.6,19.4
		c0.1,0,0.2,0,0.3-0.1C25.8,19.3,25.7,19.4,25.6,19.4L25.6,19.4L25.6,19.4z"/>
	
		<linearGradient id="SVGID_2_" gradientUnits="userSpaceOnUse" x1="-5548.0459" y1="915.892" x2="-5512.7769" y2="915.892" gradientTransform="matrix(0.4226 -0.9063 -0.9063 -0.4226 3185.5942 -4600.2812)">
		<stop  offset="0.3233" style="stop-color:#9E2064"/>
		<stop  offset="0.6302" style="stop-color:#C92037"/>
		<stop  offset="0.7514" style="stop-color:#CD2335"/>
		<stop  offset="1" style="stop-color:#E97826"/>
	</linearGradient>
	<path class="st5" d="M24.2,14.5c0.3-0.6,0.6-1.1,0.9-1.7c0.3-0.6,0.7-1.1,1-1.6c0,0,0-0.1,0.1-0.1c0.3-0.5,0.7-1,1-1.5l-1-1.9
		C26,7.8,26,7.9,25.9,8c-0.3,0.4-0.6,0.7-0.9,1.2c-0.3,0.5-0.7,1-1.1,1.5c-0.3,0.5-0.7,1-1,1.5c-0.3,0.4-0.6,0.9-0.9,1.4
		c0,0,0,0,0,0.1l1.3,2.6C23.6,15.6,23.9,15,24.2,14.5z"/>
	
		<linearGradient id="SVGID_3_" gradientUnits="userSpaceOnUse" x1="-5543.7886" y1="912.3539" x2="-5522.7715" y2="912.3539" gradientTransform="matrix(0.4226 -0.9063 -0.9063 -0.4226 3185.5942 -4600.2812)">
		<stop  offset="0" style="stop-color:#282662"/>
		<stop  offset="9.548389e-02" style="stop-color:#662E8D"/>
		<stop  offset="0.7882" style="stop-color:#9F2064"/>
		<stop  offset="0.9487" style="stop-color:#CD2032"/>
	</linearGradient>
	<path class="st6" d="M18.2,29c-0.2,0.5-0.3,1-0.5,1.4c0,0,0,0,0,0c0,0.1,0,0.1-0.1,0.2c-0.1,0.3-0.2,0.6-0.5,1.3
		c0.4,0.2,0.7,0.6,1,1.2c0-0.5-0.3-1-0.7-1.4c1.9,0.1,3.5-0.4,4.4-1.8c0.1-0.1,0.1-0.3,0.2-0.4c-0.4,0.5-0.9,0.7-1.8,0.6
		c0,0,0,0,0,0c0,0,0,0,0,0c1.3-0.6,2-1.2,2.6-2.1c0.1-0.2,0.3-0.5,0.4-0.7c-1.2,1.2-2.5,1.5-3.9,1.3l-1.1,0.1
		C18.3,28.8,18.3,28.9,18.2,29z"/>
	
		<linearGradient id="SVGID_4_" gradientUnits="userSpaceOnUse" x1="-5546.0649" y1="916.2217" x2="-5510.7959" y2="916.2217" gradientTransform="matrix(0.4226 -0.9063 -0.9063 -0.4226 3185.5942 -4600.2812)">
		<stop  offset="0.3233" style="stop-color:#9E2064"/>
		<stop  offset="0.6302" style="stop-color:#C92037"/>
		<stop  offset="0.7514" style="stop-color:#CD2335"/>
		<stop  offset="1" style="stop-color:#E97826"/>
	</linearGradient>
	<path class="st7" d="M18.7,26.6c0.2-0.6,0.5-1.2,0.7-1.8c0.2-0.6,0.5-1.2,0.7-1.7c0.2-0.6,0.5-1.2,0.7-1.7c0.3-0.6,0.5-1.2,0.8-1.8
		c0.3-0.6,0.5-1.2,0.8-1.7c0.1-0.2,0.2-0.4,0.3-0.6c0.2-0.4,0.3-0.7,0.5-1.1c0,0,0,0,0-0.1L22,13.6c0,0,0,0.1-0.1,0.1
		c-0.3,0.5-0.6,1-0.9,1.5c-0.3,0.5-0.6,1.1-0.9,1.6c-0.2,0.5-0.5,0.9-0.7,1.4c0,0.1-0.1,0.2-0.1,0.3c-0.3,0.6-0.5,1.1-0.8,1.7
		c-0.3,0.6-0.5,1.2-0.7,1.8c-0.1,0.4-0.3,0.7-0.4,1.1c-0.1,0.3-0.2,0.6-0.3,0.9c-0.2,0.7-0.4,1.4-0.5,2l1.3,2.6
		c0.2-0.5,0.4-0.9,0.5-1.4C18.6,26.9,18.7,26.8,18.7,26.6z"/>
	
		<linearGradient id="SVGID_5_" gradientUnits="userSpaceOnUse" x1="-5543.4927" y1="915.7433" x2="-5524.958" y2="915.7433" gradientTransform="matrix(0.4226 -0.9063 -0.9063 -0.4226 3185.5942 -4600.2812)">
		<stop  offset="0" style="stop-color:#282662"/>
		<stop  offset="9.548389e-02" style="stop-color:#662E8D"/>
		<stop  offset="0.7882" style="stop-color:#9F2064"/>
		<stop  offset="0.9487" style="stop-color:#CD2032"/>
	</linearGradient>
	<path class="st8" d="M16.7,25.9c-0.2,0.8-0.3,1.6-0.3,2.5c0,0,0,0.1,0,0.1c-0.4-0.7-1.5-1.3-1.5-1.3c0.8,1.1,1.4,2.3,1.5,3.4
		c-0.4,0.1-1,0-1.7-0.3c0.7,0.6,1.2,0.8,1.4,0.9c-0.6,0-1.3,0.5-2,1c1-0.4,1.8-0.6,2.3-0.4c-0.9,2.5-1.8,5.3-2.7,8.3
		c0.3-0.1,0.4-0.3,0.5-0.5c0.2-0.5,1.2-4.1,2.9-8.7c0-0.1,0.1-0.3,0.1-0.4c0,0,0-0.1,0-0.1c0.2-0.5,0.4-1,0.5-1.5
		c0-0.1,0.1-0.2,0.1-0.3c0,0,0,0,0,0L16.7,25.9C16.7,25.9,16.7,25.9,16.7,25.9z"/>
	
		<linearGradient id="SVGID_6_" gradientUnits="userSpaceOnUse" x1="-5546.0649" y1="912.5699" x2="-5510.7959" y2="912.5699" gradientTransform="matrix(0.4226 -0.9063 -0.9063 -0.4226 3185.5942 -4600.2812)">
		<stop  offset="0.3233" style="stop-color:#9E2064"/>
		<stop  offset="0.6302" style="stop-color:#C92037"/>
		<stop  offset="0.7514" style="stop-color:#CD2335"/>
		<stop  offset="1" style="stop-color:#E97826"/>
	</linearGradient>
	<path class="st9" d="M23.5,16.3c0,0.1-0.1,0.2-0.1,0.2c-0.1,0.2-0.2,0.5-0.3,0.7c-0.1,0.3-0.3,0.5-0.4,0.8
		c-0.1,0.1-0.1,0.3-0.2,0.4c-0.2,0.4-0.4,0.9-0.6,1.3c-0.2,0.6-0.5,1.1-0.8,1.7c-0.2,0.6-0.5,1.2-0.7,1.8c-0.2,0.6-0.5,1.2-0.7,1.8
		c-0.2,0.6-0.4,1.1-0.7,1.7c0,0,0,0.1,0,0.1c-0.2,0.6-0.4,1.2-0.7,1.8c0,0,0,0,0,0l1.1-0.1c0,0,0,0-0.1,0c1.3-0.2,2.9-1.1,4-2.3
		c0.5-0.5,1-1.2,1.4-1.9c0.3-0.5,0.6-1.2,0.9-1.8c0.2-0.6,0.5-1.2,0.7-1.9c-0.3,0.2-0.6,0.3-1,0.3c-0.1,0-0.1,0-0.2,0
		c-0.1,0-0.1,0-0.2,0l0,0l0,0c0,0,0,0,0,0c1.2-0.5,1.9-1.3,2.5-2.4c-0.3,0.2-0.8,0.5-1.4,0.6c-0.1,0-0.2,0-0.3,0c0,0,0,0-0.1,0l0,0
		l0,0c0,0,0,0,0,0c0,0,0,0,0,0l0,0c0.4-0.2,0.8-0.4,1-0.6c0.1,0,0.1-0.1,0.2-0.1c0.1-0.1,0.2-0.2,0.3-0.2c0.1-0.1,0.1-0.1,0.2-0.2
		c0.1-0.1,0.2-0.3,0.3-0.5c0,0,0.1-0.1,0.1-0.2c0-0.1,0.1-0.1,0.1-0.2c0.2-0.3,0.3-0.6,0.4-0.9c0.1-0.1,0.1-0.2,0.1-0.4
		c0,0,0-0.1,0-0.1c0-0.1,0.1-0.2,0.1-0.3c0-0.1,0.1-0.3,0.1-0.3l0,0l0,0c0,0-0.1,0.1-0.1,0.1c-0.4,0.2-1,0.4-1.5,0.5l1-0.1l-1,0.1
		c0,0,0,0,0,0c0,0-0.1,0-0.1,0c0,0,0,0,0,0L23.5,16.3C23.5,16.3,23.5,16.3,23.5,16.3z"/>
	
		<linearGradient id="SVGID_7_" gradientUnits="userSpaceOnUse" x1="-5548.2529" y1="912.7503" x2="-5512.9839" y2="912.7503" gradientTransform="matrix(0.4226 -0.9063 -0.9063 -0.4226 3185.5942 -4600.2812)">
		<stop  offset="0.3233" style="stop-color:#9E2064"/>
		<stop  offset="0.6302" style="stop-color:#C92037"/>
		<stop  offset="0.7514" style="stop-color:#CD2335"/>
		<stop  offset="1" style="stop-color:#E97826"/>
	</linearGradient>
	<path class="st10" d="M27.2,9.7c-0.3,0.5-0.6,1-1,1.5c0,0,0,0.1-0.1,0.1c-0.3,0.5-0.6,1.1-0.9,1.7c-0.3,0.5-0.6,1.1-0.9,1.7
		c-0.3,0.5-0.6,1.1-0.8,1.7l3.3-0.4c1-0.4,1.4-0.8,1.8-1.4c0.1-0.2,0.2-0.3,0.3-0.5c0.3-0.5,0.7-1.1,1-1.7c0.3-0.6,0.5-1.1,0.7-1.6
		c0.1-0.3,0.2-0.6,0.3-0.9c0.1-0.2,0.1-0.4,0.1-0.7C29.8,9.4,28.3,9.6,27.2,9.7z"/>
	<path class="st3" d="M25.1,21.1c-0.1,0-0.1,0-0.2,0l0,0C25,21.1,25,21.1,25.1,21.1z"/>
	<path class="st4" d="M25.1,21.1c-0.1,0-0.1,0-0.2,0l0,0C25,21.1,25,21.1,25.1,21.1z"/>
	
		<linearGradient id="SVGID_8_" gradientUnits="userSpaceOnUse" x1="-5546.0649" y1="911.4844" x2="-5510.7959" y2="911.4844" gradientTransform="matrix(0.4226 -0.9063 -0.9063 -0.4226 3185.5942 -4600.2812)">
		<stop  offset="0.3233" style="stop-color:#9E2064"/>
		<stop  offset="0.6302" style="stop-color:#C92037"/>
		<stop  offset="0.7514" style="stop-color:#CD2335"/>
		<stop  offset="1" style="stop-color:#E97826"/>
	</linearGradient>
	<path class="st11" d="M25.1,21.1c-0.1,0-0.1,0-0.2,0l0,0C25,21.1,25,21.1,25.1,21.1z"/>
	<path class="st3" d="M25.6,19.4C25.7,19.4,25.7,19.4,25.6,19.4C25.7,19.4,25.7,19.4,25.6,19.4L25.6,19.4z"/>
	<path class="st4" d="M25.6,19.4C25.7,19.4,25.7,19.4,25.6,19.4C25.7,19.4,25.7,19.4,25.6,19.4L25.6,19.4z"/>
	
		<linearGradient id="SVGID_9_" gradientUnits="userSpaceOnUse" x1="-5546.0649" y1="911.6088" x2="-5510.7959" y2="911.6088" gradientTransform="matrix(0.4226 -0.9063 -0.9063 -0.4226 3185.5942 -4600.2812)">
		<stop  offset="0.3233" style="stop-color:#9E2064"/>
		<stop  offset="0.6302" style="stop-color:#C92037"/>
		<stop  offset="0.7514" style="stop-color:#CD2335"/>
		<stop  offset="1" style="stop-color:#E97826"/>
	</linearGradient>
	<path class="st12" d="M25.6,19.4C25.7,19.4,25.7,19.4,25.6,19.4C25.7,19.4,25.7,19.4,25.6,19.4L25.6,19.4z"/>
	<path class="st3" d="M25.6,19.4C25.6,19.4,25.6,19.4,25.6,19.4L25.6,19.4L25.6,19.4L25.6,19.4C25.6,19.4,25.6,19.4,25.6,19.4z"/>
	<path class="st4" d="M25.6,19.4C25.6,19.4,25.6,19.4,25.6,19.4L25.6,19.4L25.6,19.4L25.6,19.4C25.6,19.4,25.6,19.4,25.6,19.4z"/>
	
		<linearGradient id="SVGID_10_" gradientUnits="userSpaceOnUse" x1="-5526.2515" y1="911.6333" x2="-5518.4556" y2="911.6333" gradientTransform="matrix(0.4226 -0.9063 -0.9063 -0.4226 3185.5942 -4600.2812)">
		<stop  offset="0.3233" style="stop-color:#9E2064"/>
		<stop  offset="0.6302" style="stop-color:#C92037"/>
		<stop  offset="0.7514" style="stop-color:#CD2335"/>
		<stop  offset="1" style="stop-color:#E97826"/>
	</linearGradient>
	<path class="st13" d="M25.6,19.4C25.6,19.4,25.6,19.4,25.6,19.4L25.6,19.4L25.6,19.4L25.6,19.4C25.6,19.4,25.6,19.4,25.6,19.4z"/>
</g>
</svg>
