<?xml version="1.0" encoding="utf-8"?>
<!-- Generator: Adobe Illustrator 21.1.0, SVG Export Plug-In . SVG Version: 6.00 Build 0)  -->
<svg version="1.1" id="Layer_1" xmlns="http://www.w3.org/2000/svg" xmlns:xlink="http://www.w3.org/1999/xlink" x="0px" y="0px"
	 viewBox="0 0 45 45" style="enable-background:new 0 0 45 45;" xml:space="preserve">
<style type="text/css">
	.st0{fill:#C1C1C0;}
	.st1{fill-rule:evenodd;clip-rule:evenodd;fill:url(#SVGID_1_);}
	.st2{fill-rule:evenodd;clip-rule:evenodd;fill:url(#SVGID_2_);}
	.st3{fill-rule:evenodd;clip-rule:evenodd;fill:url(#SVGID_3_);}
	.st4{fill-rule:evenodd;clip-rule:evenodd;fill:url(#SVGID_4_);}
	.st5{fill-rule:evenodd;clip-rule:evenodd;fill:url(#SVGID_5_);}
	.st6{fill-rule:evenodd;clip-rule:evenodd;fill:url(#SVGID_6_);}
	.st7{fill-rule:evenodd;clip-rule:evenodd;fill:url(#SVGID_7_);}
	.st8{fill-rule:evenodd;clip-rule:evenodd;fill:url(#SVGID_8_);}
	.st9{fill-rule:evenodd;clip-rule:evenodd;fill:#FFFFFF;}
	.st10{fill-rule:evenodd;clip-rule:evenodd;fill:url(#SVGID_9_);}
	.st11{fill-rule:evenodd;clip-rule:evenodd;fill:url(#SVGID_10_);}
	.st12{fill-rule:evenodd;clip-rule:evenodd;fill:url(#SVGID_11_);}
	.st13{fill-rule:evenodd;clip-rule:evenodd;fill:url(#SVGID_12_);}
	.st14{fill-rule:evenodd;clip-rule:evenodd;fill:#AA3E35;}
	.st15{fill-rule:evenodd;clip-rule:evenodd;fill:url(#SVGID_13_);}
	.st16{fill-rule:evenodd;clip-rule:evenodd;fill:url(#SVGID_14_);}
	.st17{fill-rule:evenodd;clip-rule:evenodd;fill:url(#SVGID_15_);}
	.st18{fill-rule:evenodd;clip-rule:evenodd;fill:url(#SVGID_16_);}
</style>
<g>
	<path class="st0" d="M42,1c1.1,0,2,0.9,2,2v39c0,1.1-0.9,2-2,2H3c-1.1,0-2-0.9-2-2V3c0-1.1,0.9-2,2-2H42 M42,0H3C1.3,0,0,1.3,0,3
		v39c0,1.7,1.3,3,3,3h39c1.7,0,3-1.3,3-3V3C45,1.3,43.7,0,42,0L42,0z"/>
</g>
<g>
	<linearGradient id="SVGID_1_" gradientUnits="userSpaceOnUse" x1="29.9415" y1="34.418" x2="25.7103" y2="26.9476">
		<stop  offset="0" style="stop-color:#F68F71"/>
		<stop  offset="0" style="stop-color:#F68F71"/>
		<stop  offset="0.41" style="stop-color:#DC5242"/>
		<stop  offset="0.99" style="stop-color:#A72C32"/>
		<stop  offset="1" style="stop-color:#A72C32"/>
	</linearGradient>
	<polygon class="st1" points="16.4,32.6 31.2,31.6 32.4,16.6 27.9,25.8 	"/>
	<linearGradient id="SVGID_2_" gradientUnits="userSpaceOnUse" x1="32.0494" y1="28.1432" x2="26.5965" y2="24.484">
		<stop  offset="0" style="stop-color:#9B3F34"/>
		<stop  offset="0" style="stop-color:#9B3F34"/>
		<stop  offset="0.99" style="stop-color:#A23E36"/>
		<stop  offset="1" style="stop-color:#A23E36"/>
	</linearGradient>
	<polygon class="st2" points="26.5,27.4 31.3,31.6 30,22.8 	"/>
	<linearGradient id="SVGID_3_" gradientUnits="userSpaceOnUse" x1="27.6866" y1="34.6446" x2="22.2337" y2="30.9854">
		<stop  offset="0" style="stop-color:#9B3F34"/>
		<stop  offset="0" style="stop-color:#9B3F34"/>
		<stop  offset="0.99" style="stop-color:#A23E36"/>
		<stop  offset="1" style="stop-color:#A23E36"/>
	</linearGradient>
	<polygon class="st3" points="16.5,32.6 31.3,31.6 21.9,30.9 	"/>
	<linearGradient id="SVGID_4_" gradientUnits="userSpaceOnUse" x1="16.2383" y1="25.4946" x2="17.0836" y2="30.9884">
		<stop  offset="0" style="stop-color:#FFFFFF"/>
		<stop  offset="0" style="stop-color:#FFFFFF"/>
		<stop  offset="0.23" style="stop-color:#E28B6F"/>
		<stop  offset="0.46" style="stop-color:#DA6144"/>
		<stop  offset="0.99" style="stop-color:#A60003"/>
		<stop  offset="1" style="stop-color:#A60003"/>
	</linearGradient>
	<polygon class="st4" points="13.7,26 16.5,32.6 18.8,24.9 	"/>
	<linearGradient id="SVGID_5_" gradientUnits="userSpaceOnUse" x1="22.0522" y1="20.3645" x2="22.3637" y2="25.9713">
		<stop  offset="0" style="stop-color:#FFFFFF"/>
		<stop  offset="0" style="stop-color:#FFFFFF"/>
		<stop  offset="0.23" style="stop-color:#E08A6D"/>
		<stop  offset="0.56" style="stop-color:#C14435"/>
		<stop  offset="0.99" style="stop-color:#B13430"/>
		<stop  offset="1" style="stop-color:#B13430"/>
	</linearGradient>
	<polygon class="st5" points="18.2,24.7 26.5,27.4 24.4,19 	"/>
	<linearGradient id="SVGID_6_" gradientUnits="userSpaceOnUse" x1="27.2118" y1="15.1831" x2="28.1442" y2="19.2013">
		<stop  offset="0" style="stop-color:#FFFFFF"/>
		<stop  offset="0" style="stop-color:#FFFFFF"/>
		<stop  offset="0.18" style="stop-color:#DF8063"/>
		<stop  offset="0.4" style="stop-color:#C94D37"/>
		<stop  offset="0.99" style="stop-color:#B13430"/>
		<stop  offset="1" style="stop-color:#B13430"/>
	</linearGradient>
	<polygon class="st6" points="24.5,19.6 31.9,19.1 26.1,14.4 	"/>
	<linearGradient id="SVGID_7_" gradientUnits="userSpaceOnUse" x1="24.3646" y1="13.7678" x2="28.3826" y2="11.7588">
		<stop  offset="0" style="stop-color:#FFFFFF"/>
		<stop  offset="0" style="stop-color:#FFFFFF"/>
		<stop  offset="0.54" style="stop-color:#C94838"/>
		<stop  offset="0.99" style="stop-color:#C12D2F"/>
		<stop  offset="1" style="stop-color:#C12D2F"/>
	</linearGradient>
	<polygon class="st7" points="23.6,12.7 29.2,12.7 25.8,14.6 	"/>
	<linearGradient id="SVGID_8_" gradientUnits="userSpaceOnUse" x1="12.7164" y1="24.0941" x2="13.0471" y2="27.4052">
		<stop  offset="0" style="stop-color:#FFFFFF"/>
		<stop  offset="0" style="stop-color:#FFFFFF"/>
		<stop  offset="0.31" style="stop-color:#DA6548"/>
		<stop  offset="0.99" style="stop-color:#C14433"/>
		<stop  offset="1" style="stop-color:#C14433"/>
	</linearGradient>
	<polygon class="st8" points="12.6,22.9 12.3,28.6 13.8,26 	"/>
	<path class="st9" d="M12.5,22.8l1.2,3.3l5.1-1.1l5.8-5.4l1.6-5.2l-2.6-1.8l-4.4,1.6c-1.4,1.3-4,3.8-4.1,3.9
		C15,18.1,13.3,21.3,12.5,22.8z"/>
	<linearGradient id="SVGID_9_" gradientUnits="userSpaceOnUse" x1="10.4424" y1="28.3004" x2="25.9879" y2="12.3152">
		<stop  offset="0" style="stop-color:#BD0012"/>
		<stop  offset="0" style="stop-color:#BD0012"/>
		<stop  offset="7.000000e-02" style="stop-color:#FFFFFF"/>
		<stop  offset="0.17" style="stop-color:#FFFFFF"/>
		<stop  offset="0.27" style="stop-color:#C95841"/>
		<stop  offset="0.33" style="stop-color:#983734"/>
		<stop  offset="0.46" style="stop-color:#AE4231"/>
		<stop  offset="0.72" style="stop-color:#B93E2F"/>
		<stop  offset="0.99" style="stop-color:#DE4E2B"/>
		<stop  offset="1" style="stop-color:#DE4E2B"/>
	</linearGradient>
	<path class="st10" d="M16.6,16.9c3-3,6.8-4.7,8.3-3.2c1.5,1.5-0.1,5.1-3.1,8.1s-6.8,4.8-8.2,3.3C12.1,23.5,13.6,19.8,16.6,16.9z"/>
	<linearGradient id="SVGID_10_" gradientUnits="userSpaceOnUse" x1="22.3502" y1="29.9123" x2="17.6682" y2="28.7567">
		<stop  offset="0" style="stop-color:#9F3633"/>
		<stop  offset="0" style="stop-color:#9F3633"/>
		<stop  offset="0.54" style="stop-color:#A73532"/>
		<stop  offset="0.99" style="stop-color:#B13439"/>
		<stop  offset="1" style="stop-color:#B13439"/>
	</linearGradient>
	<path class="st11" d="M16.5,32.6l2.3-7.7l7.7,2.5C23.7,30,20.6,32.2,16.5,32.6z"/>
	<linearGradient id="SVGID_11_" gradientUnits="userSpaceOnUse" x1="30.3924" y1="24.2924" x2="26.2327" y2="20.5641">
		<stop  offset="0" style="stop-color:#923C36"/>
		<stop  offset="0" style="stop-color:#923C36"/>
		<stop  offset="0.99" style="stop-color:#AA3531"/>
		<stop  offset="1" style="stop-color:#AA3531"/>
	</linearGradient>
	<path class="st12" d="M24.5,19.6l2,7.8c2.3-2.4,4.4-5.1,5.4-8.3L24.5,19.6z"/>
	<linearGradient id="SVGID_12_" gradientUnits="userSpaceOnUse" x1="31.9207" y1="17.4519" x2="29.8486" y2="15.2367">
		<stop  offset="0" style="stop-color:#8D3E36"/>
		<stop  offset="0" style="stop-color:#8D3E36"/>
		<stop  offset="0.99" style="stop-color:#AA3E37"/>
		<stop  offset="1" style="stop-color:#AA3E37"/>
	</linearGradient>
	<path class="st13" d="M31.9,19.1c0.8-2.4,1-5.8-2.8-6.4l-3.1,1.7L31.9,19.1z"/>
	<path class="st14" d="M12.3,28.6c0.1,3.9,2.9,4,4.2,4l-2.8-6.5L12.3,28.6z"/>
	<radialGradient id="SVGID_13_" cx="26.8804" cy="20.6357" r="5.0977" gradientUnits="userSpaceOnUse">
		<stop  offset="0" style="stop-color:#B13430"/>
		<stop  offset="0" style="stop-color:#B13430"/>
		<stop  offset="0.99" style="stop-color:#923834"/>
		<stop  offset="1" style="stop-color:#923834"/>
	</radialGradient>
	<path class="st15" d="M24.5,19.6c1.8,1.1,5.4,3.3,5.5,3.3c0.1,0.1,1.5-2.4,1.9-3.8L24.5,19.6z"/>
	<radialGradient id="SVGID_14_" cx="19.821" cy="27.353" r="6.7767" gradientUnits="userSpaceOnUse">
		<stop  offset="0" style="stop-color:#AE3531"/>
		<stop  offset="0" style="stop-color:#AE3531"/>
		<stop  offset="0.99" style="stop-color:#953A36"/>
		<stop  offset="1" style="stop-color:#953A36"/>
	</radialGradient>
	<path class="st16" d="M18.8,24.9l3.1,6c1.8-1,3.3-2.2,4.6-3.5L18.8,24.9z"/>
	<linearGradient id="SVGID_15_" gradientUnits="userSpaceOnUse" x1="15.021" y1="32.5751" x2="13.3324" y2="26.8461">
		<stop  offset="0" style="stop-color:#994939"/>
		<stop  offset="0" style="stop-color:#994939"/>
		<stop  offset="0.43" style="stop-color:#AA3A36"/>
		<stop  offset="0.99" style="stop-color:#B83936"/>
		<stop  offset="1" style="stop-color:#B83936"/>
	</linearGradient>
	<path class="st17" d="M13.7,26.1l-0.4,5.2c0.8,1.1,2,1.2,3.2,1.1C15.5,30.3,13.8,26,13.7,26.1z"/>
	<linearGradient id="SVGID_16_" gradientUnits="userSpaceOnUse" x1="27.9749" y1="13.5913" x2="31.7607" y2="15.2625">
		<stop  offset="0" style="stop-color:#B9392F"/>
		<stop  offset="0" style="stop-color:#B9392F"/>
		<stop  offset="0.44" style="stop-color:#A23A36"/>
		<stop  offset="0.99" style="stop-color:#8D463A"/>
		<stop  offset="1" style="stop-color:#8D463A"/>
	</linearGradient>
	<path class="st18" d="M26.1,14.4l6.1,0.9c-0.3-1.4-1.3-2.3-3.1-2.6L26.1,14.4z"/>
</g>
</svg>
