<?xml version="1.0" encoding="utf-8"?>
<!-- Generator: Adobe Illustrator 21.1.0, SVG Export Plug-In . SVG Version: 6.00 Build 0)  -->
<svg version="1.1" id="Layer_1" xmlns="http://www.w3.org/2000/svg" xmlns:xlink="http://www.w3.org/1999/xlink" x="0px" y="0px"
	 viewBox="0 0 45 45" style="enable-background:new 0 0 45 45;" xml:space="preserve">
<style type="text/css">
	.st0{fill:#C1C1C0;}
	.st1{fill:#BB005F;}
</style>
<g>
	<path class="st0" d="M42,1c1.1,0,2,0.9,2,2v39c0,1.1-0.9,2-2,2H3c-1.1,0-2-0.9-2-2V3c0-1.1,0.9-2,2-2H42 M42,0H3C1.3,0,0,1.3,0,3
		v39c0,1.7,1.3,3,3,3h39c1.7,0,3-1.3,3-3V3C45,1.3,43.7,0,42,0L42,0z"/>
</g>
<g>
	<path class="st1" d="M6.7,21c-0.3-0.5-0.5-0.6-0.9-0.6c-0.4,0-0.7,0.3-0.7,0.7c0,0.3,0.2,0.5,0.6,0.6l0.5,0.2
		c0.9,0.3,1.3,0.8,1.3,1.5c0,1-0.8,1.7-1.8,1.7c-0.7,0-1.3-0.4-1.6-1C4,23.8,4,23.8,3.9,23.4l0.9-0.2c0.1,0.4,0.1,0.4,0.2,0.5
		c0.2,0.3,0.4,0.4,0.7,0.4c0.5,0,0.8-0.4,0.8-0.8c0-0.3-0.2-0.5-0.8-0.7l-0.5-0.2c-0.8-0.3-1.2-0.8-1.2-1.4c0-0.9,0.7-1.5,1.7-1.5
		c0.5,0,0.9,0.2,1.2,0.5c0.1,0.1,0.2,0.2,0.4,0.5L6.7,21z"/>
	<path class="st1" d="M9.3,24.9H8.4v-5.3h1.2c0.7,0,1.1,0.1,1.4,0.4c0.3,0.3,0.5,0.8,0.5,1.2c0,0.5-0.2,0.9-0.5,1.2
		c-0.3,0.3-0.7,0.4-1.4,0.4H9.3V24.9z M9.7,22c0.4,0,0.6-0.1,0.7-0.2c0.1-0.1,0.2-0.4,0.2-0.6c0-0.2-0.1-0.5-0.2-0.6
		c-0.2-0.1-0.4-0.2-0.7-0.2H9.3V22H9.7z"/>
	<path class="st1" d="M13.1,20.4v1.3h1.8v0.9h-1.8V24h2.1v0.9h-3v-5.3h3v0.9H13.1z"/>
	<path class="st1" d="M20,21.1c-0.2-0.2-0.3-0.3-0.5-0.4c-0.3-0.2-0.6-0.3-1-0.3c-1.1,0-1.9,0.8-1.9,1.9c0,1.1,0.8,1.9,1.8,1.9
		c0.4,0,0.7-0.1,1-0.3c0.1-0.1,0.1-0.1,0.4-0.4l0.7,0.6c-0.7,0.7-1.3,1-2.1,1c-1.6,0-2.8-1.2-2.8-2.8c0-1.6,1.3-2.8,2.8-2.8
		c0.8,0,1.4,0.3,2.1,1L20,21.1z"/>
	<path class="st1" d="M23.2,24.9h-0.9v-4.5H21v-0.9h3.5v0.9h-1.3V24.9z"/>
	<path class="st1" d="M25.6,23.6l-0.5,1.3h-1l2-5.3h1.2l2,5.3h-1l-0.5-1.3H25.6z M26.7,20.6l-0.8,2.1h1.6L26.7,20.6z"/>
	<path class="st1" d="M33.6,21.1c-0.2-0.2-0.3-0.3-0.5-0.4c-0.3-0.2-0.6-0.3-1-0.3c-1.1,0-1.9,0.8-1.9,1.9c0,1.1,0.8,1.9,1.8,1.9
		c0.4,0,0.7-0.1,1-0.3c0.1-0.1,0.1-0.1,0.4-0.4l0.7,0.6c-0.7,0.7-1.3,1-2.1,1c-1.6,0-2.8-1.2-2.8-2.8c0-1.6,1.3-2.8,2.8-2.8
		c0.8,0,1.4,0.3,2.1,1L33.6,21.1z"/>
	<path class="st1" d="M36,24h2v0.9H35v-5.3H36V24z"/>
	<path class="st1" d="M39.4,20.4v1.3h1.8v0.9h-1.8V24h2.1v0.9h-3v-5.3h3v0.9H39.4z"/>
</g>
</svg>
