<?xml version="1.0" encoding="utf-8"?>
<!-- Generator: Adobe Illustrator 21.1.0, SVG Export Plug-In . SVG Version: 6.00 Build 0)  -->
<svg version="1.1" id="Layer_1" xmlns="http://www.w3.org/2000/svg" xmlns:xlink="http://www.w3.org/1999/xlink" x="0px" y="0px"
	 viewBox="0 0 45 45" style="enable-background:new 0 0 45 45;" xml:space="preserve">
<style type="text/css">
	.st0{fill:#C1C1C0;}
	.st1{clip-path:url(#SVGID_4_);fill:#016EC5;}
</style>
<g>
	<path class="st0" d="M42,1c1.1,0,2,0.9,2,2v39c0,1.1-0.9,2-2,2H3c-1.1,0-2-0.9-2-2V3c0-1.1,0.9-2,2-2H42 M42,0H3C1.3,0,0,1.3,0,3
		v39c0,1.7,1.3,3,3,3h39c1.7,0,3-1.3,3-3V3C45,1.3,43.7,0,42,0L42,0z"/>
</g>
<g>
	<defs>
		<path id="SVGID_1_" d="M21.6,36.3c0,0.6-1.6,1.2-4.1,1.5s-5.6,0.3-8.1,0c-2.5-0.3-4.1-0.9-4.1-1.5c0-0.6,1.6-1.2,4.1-1.5
			c2.5-0.3,5.6-0.3,8.1,0C20,35.1,21.6,35.7,21.6,36.3z"/>
	</defs>
	<clipPath id="SVGID_2_">
		<use xlink:href="#SVGID_1_"  style="overflow:visible;"/>
	</clipPath>
</g>
<g>
	<defs>
		<path id="SVGID_3_" d="M22.5,17.5v7l-5-3.5L22.5,17.5z M22.3,12.5l-6.9,6.9l-4.2-3.2l-1.7,0.6l4.3,4.2l-4.3,4.2l1.7,0.6l4.2-3.2h0
			l6.9,6.9l4.2-1.8V14.3L22.3,12.5z M30,7.5v25.8L7.5,29.9L30,37.5l7.5-3.1V11.1l0,0l0,0v-0.5L30,7.5z"/>
	</defs>
	<clipPath id="SVGID_4_">
		<use xlink:href="#SVGID_3_"  style="overflow:visible;"/>
	</clipPath>
	<rect x="2.5" y="2.5" class="st1" width="40" height="40"/>
</g>
</svg>
