<?xml version="1.0" encoding="utf-8"?>
<!-- Generator: Adobe Illustrator 21.1.0, SVG Export Plug-In . SVG Version: 6.00 Build 0)  -->
<svg version="1.1" id="Layer_1" xmlns="http://www.w3.org/2000/svg" xmlns:xlink="http://www.w3.org/1999/xlink" x="0px" y="0px"
	 viewBox="0 0 45 45" style="enable-background:new 0 0 45 45;" xml:space="preserve">
<style type="text/css">
	.st0{fill:#C1C1C0;}
</style>
<g>
	<path class="st0" d="M42,1c1.1,0,2,0.9,2,2v39c0,1.1-0.9,2-2,2H3c-1.1,0-2-0.9-2-2V3c0-1.1,0.9-2,2-2H42 M42,0H3C1.3,0,0,1.3,0,3
		v39c0,1.7,1.3,3,3,3h39c1.7,0,3-1.3,3-3V3C45,1.3,43.7,0,42,0L42,0z"/>
</g>
<g>
	<path d="M17.9,27.2H16l-2.1-3.4l-2.1,3.4H9.9l3.1-4.9l-2.8-4.5H12l1.9,3l1.9-3h1.8l-2.8,4.5L17.9,27.2z"/>
	<path d="M18.8,17.8h1.6l3.1,5.5l3.1-5.5h1.6v9.3h-1.7v-6.1l-2.3,4.2h-1.3l-2.3-4.2v6.1h-1.7V17.8z"/>
	<path d="M31.7,25.6h3.4v1.5h-5.1v-9.3h1.7V25.6z"/>
</g>
</svg>
