<?xml version="1.0" encoding="utf-8"?>
<!-- Generator: Adobe Illustrator 21.1.0, SVG Export Plug-In . SVG Version: 6.00 Build 0)  -->
<svg version="1.1" id="Layer_1" xmlns="http://www.w3.org/2000/svg" xmlns:xlink="http://www.w3.org/1999/xlink" x="0px" y="0px"
	 viewBox="0 0 30 30" style="enable-background:new 0 0 30 30;" xml:space="preserve">
<style type="text/css">
	.st0{fill:#0C544C;}
	.st1{fill:#073551;}
</style>
<g>
	<path id="path4177" class="st0" d="M25.7,7.4c-0.6,0-1-0.5-1-1c0-0.6,0.5-1,1-1c0.6,0,1,0.5,1,1C26.7,7,26.2,7.4,25.7,7.4
		 M15.7,24.6c-0.6,0-1-0.5-1-1c0-0.6,0.5-1,1-1c0.6,0,1,0.5,1,1C16.7,24.2,16.2,24.6,15.7,24.6 M25.7,4.6c-1,0-1.8,0.8-1.8,1.8
		c0,0.2,0.1,0.4,0.1,0.6l-8.6,14.8c-0.8,0.2-1.5,0.9-1.5,1.8c0,1,0.8,1.8,1.8,1.8c1,0,1.8-0.8,1.8-1.8c0-0.2-0.1-0.4-0.1-0.6
		l8.7-14.9c0.8-0.2,1.4-0.9,1.4-1.8C27.5,5.4,26.7,4.6,25.7,4.6"/>
	<path id="path4179" class="st1" d="M18.1,7.4c-0.6,0-1-0.5-1-1c0-0.6,0.5-1,1-1c0.6,0,1,0.5,1,1C19.1,7,18.7,7.4,18.1,7.4
		 M8.1,24.6c-0.6,0-1-0.5-1-1c0-0.6,0.5-1,1-1c0.6,0,1,0.5,1,1C9.1,24.2,8.7,24.6,8.1,24.6 M18.1,4.6c-1,0-1.8,0.8-1.8,1.8
		c0,0.2,0.1,0.4,0.1,0.6L7.7,21.8c-0.8,0.2-1.5,0.9-1.5,1.8c0,1,0.8,1.8,1.8,1.8c1,0,1.8-0.8,1.8-1.8c0-0.2-0.1-0.4-0.1-0.6
		l8.7-14.9C19.3,8,20,7.3,20,6.4C20,5.4,19.1,4.6,18.1,4.6"/>
	<path id="path4181" class="st1" d="M4.3,10.5c0.6,0,1,0.5,1,1s-0.5,1-1,1c-0.6,0-1-0.5-1-1S3.8,10.5,4.3,10.5 M4.3,13.3
		c1,0,1.8-0.8,1.8-1.8c0-0.2-0.1-0.4-0.1-0.6c-0.2-0.7-0.9-1.3-1.7-1.3c-0.1,0-0.2,0-0.4,0.1c-0.8,0.2-1.5,0.9-1.5,1.8
		C2.5,12.5,3.3,13.3,4.3,13.3"/>
	<path id="path4183" class="st1" d="M3.3,17.9c0-0.6,0.5-1,1-1c0.6,0,1,0.5,1,1c0,0.6-0.5,1-1,1S3.3,18.5,3.3,17.9 M6.2,17.9
		c0-0.2-0.1-0.4-0.1-0.6c-0.2-0.7-0.9-1.3-1.7-1.3c-0.1,0-0.2,0-0.4,0.1c-0.8,0.2-1.5,0.9-1.5,1.8c0,1,0.8,1.8,1.8,1.8
		C5.4,19.8,6.2,19,6.2,17.9"/>
</g>
</svg>
