<?xml version="1.0" encoding="utf-8"?>
<!-- Generator: Adobe Illustrator 21.1.0, SVG Export Plug-In . SVG Version: 6.00 Build 0)  -->
<svg version="1.1" id="Layer_1" xmlns="http://www.w3.org/2000/svg" xmlns:xlink="http://www.w3.org/1999/xlink" x="0px" y="0px"
	 viewBox="0 0 25 25" style="enable-background:new 0 0 25 25;" xml:space="preserve">
<style type="text/css">
	.st0{clip-path:url(#SVGID_2_);}
	.st1{clip-path:url(#SVGID_4_);fill:#AA002D;}
	.st2{clip-path:url(#SVGID_6_);}
	.st3{clip-path:url(#SVGID_8_);fill:#AA002D;}
	.st4{clip-path:url(#SVGID_10_);}
	.st5{clip-path:url(#SVGID_12_);fill:#AA002D;}
</style>
<g>
	<defs>
		<path id="SVGID_1_" d="M13.2,1.2l-0.1,0L13.2,1.2L13.2,1.2 M12.8,1c0.2,0,0.4,0.1,0.4,0.1C13.4,1.1,13.5,1.1,12.8,1 M16.9,11.5
			c0-0.8-0.1-0.5-0.2-0.2C16.8,11.3,16.8,11.8,16.9,11.5 M16.2,13.7c0.2-0.3,0.4-0.7,0.4-1.1c0,0.3-0.2,0.5-0.3,0.8
			c-0.7,0.5-0.1-0.3,0-0.6C15.6,13.8,16.2,13.4,16.2,13.7 M14.2,14.3c-0.4,0,0.1,0.2,0.5,0.3c0.1-0.1,0.2-0.2,0.4-0.4
			C14.8,14.3,14.5,14.3,14.2,14.3"/>
	</defs>
	<clipPath id="SVGID_2_">
		<use xlink:href="#SVGID_1_"  style="overflow:visible;"/>
	</clipPath>
	<g class="st0">
		<defs>
			<rect id="SVGID_3_" x="2.7" width="19.2" height="25.3"/>
		</defs>
		<clipPath id="SVGID_4_">
			<use xlink:href="#SVGID_3_"  style="overflow:visible;"/>
		</clipPath>
		<rect x="9" y="-2.8" class="st1" width="11.7" height="21.2"/>
	</g>
</g>
<g>
	<defs>
		<path id="SVGID_5_" d="M19.7,10.7c0,0.7-0.2,1-0.4,1.6L19,12.5c-0.3,0.6,0,0.4-0.2,0.8c-0.4,0.4-1.3,1.3-1.6,1.4
			c-0.2,0,0.1-0.3,0.2-0.4c-0.6,0.4-0.5,0.6-1.4,0.9l0-0.1c-2.2,1.1-5.3-1.1-5.3-4c0,0.2-0.1,0.1-0.1,0.2c-0.1-1.5,0.7-3.1,2-3.7
			c1.3-0.7,2.8-0.4,3.7,0.5c-0.5-0.7-1.5-1.4-2.7-1.4c-1.2,0-2.3,0.8-2.7,1.7c-0.6,0.4-0.7,1.5-0.9,1.7c-0.4,2.7,0.7,3.9,2.4,5.3
			c0.3,0.2,0.1,0.2,0.1,0.4c-0.6-0.3-1.1-0.7-1.5-1.2c0.2,0.4,0.5,0.7,0.8,1c-0.5-0.2-1.3-1.4-1.5-1.4c0.9,1.7,3.8,3.1,5.3,2.4
			c-0.7,0-1.6,0-2.3-0.3c-0.3-0.2-0.8-0.5-0.7-0.6c2,0.8,4.1,0.6,5.9-0.9c0.4-0.4,0.9-1,1.1-1c-0.2,0.3,0,0.2-0.1,0.5
			c0.4-0.8-0.2-0.3,0.5-1.3l0.2,0.3c-0.1-0.6,0.7-1.4,0.7-2.4c0.2-0.3,0.2,0.3,0,1c0.3-0.8,0.1-0.9,0.1-1.5c0.1,0.2,0.2,0.4,0.2,0.7
			c-0.2-0.7,0.2-1.3,0.3-1.7c-0.1,0-0.3,0.3-0.3-0.6c0-0.4,0.1-0.2,0.1-0.3c-0.1,0-0.3-0.3-0.4-0.9C21,7.5,21.1,8,21.2,8
			C21.1,7.5,21,7.2,21,6.9c-0.3-0.7-0.1,0.1-0.4-0.3c-0.4-1.1,0.3-0.3,0.3-0.8c0.5,0.8,0.8,2.1,1,2.6c-0.1-0.6-0.3-1.2-0.5-1.8
			c0.2,0.1-0.3-1.3,0.2-0.4c-0.5-1.9-2.2-3.8-3.7-4.6c0.2,0.2,0.4,0.4,0.3,0.4c-0.8-0.5-0.6-0.5-0.7-0.7c-0.6-0.3-0.7,0-1.1,0
			c-1.2-0.6-1.4-0.6-2.5-1l0,0.2c-0.8-0.3-0.9,0.1-1.7,0c-0.1,0,0.3-0.1,0.5-0.2c-0.7,0.1-0.7-0.2-1.4,0C11.7,0.2,11.8,0.1,12,0
			c-0.6,0-1.4,0.4-1.2,0.1c-1,0.5-2.7,1.1-3.7,2.1l0-0.2C6.6,2.5,5.1,3.6,5,4.4l-0.1,0C4.6,4.8,4.5,5.3,4.3,5.7C4,6.3,3.9,5.9,3.9,6
			C3.3,7.3,3,8.4,2.7,9.2c0.2,0.3,0,1.7,0.1,2.9c-0.3,5.7,3.8,11.3,8.4,12.6c0.7,0.2,1.7,0.2,2.5,0.3c-1-0.3-1.1-0.2-2.1-0.5
			c-0.7-0.3-0.9-0.7-1.3-1.2l0.2,0.4c-1-0.4-0.6-0.4-1.4-0.7l0.2-0.3c-0.3,0-0.8-0.6-1-0.8l-0.3,0c-0.4-0.5-0.6-0.9-0.6-1.2
			l-0.1,0.2c-0.1-0.2-1.5-2-0.8-1.6C6.3,19.1,6.2,19,6,18.7l0.1-0.2c-0.3-0.5-0.6-1.1-0.6-1.3c0.2,0.3,0.3,0.3,0.4,0.4
			c-0.9-2.3-0.9-0.1-1.6-2.3l0.1,0c-0.1-0.2-0.2-0.4-0.3-0.5l0.1-0.6c-0.6-0.8-0.2-3.3-0.1-4.6c0.1-0.6,0.5-1.1,0.9-2.1l-0.2,0
			c0.4-0.8,2.3-3,3.2-2.9c0.4-0.6-0.1,0-0.2-0.1c1-1,1.3-0.7,1.9-0.9C10.5,3,9.2,3.6,9.6,3.2c1.2-0.3,0.9-0.7,2.4-0.9
			c0.2,0.1-0.4,0.2-0.5,0.3c1-0.5,3.2-0.4,4.6,0.3c1.6,0.8,3.5,3.2,3.5,5.4l0.1,0c0,0.9,0.1,1.9-0.2,2.8L19.7,10.7"/>
	</defs>
	<clipPath id="SVGID_6_">
		<use xlink:href="#SVGID_5_"  style="overflow:visible;"/>
	</clipPath>
	<g class="st2">
		<defs>
			<rect id="SVGID_7_" x="2.7" width="19.2" height="25.3"/>
		</defs>
		<clipPath id="SVGID_8_">
			<use xlink:href="#SVGID_7_"  style="overflow:visible;"/>
		</clipPath>
		<rect x="-1.1" y="-3.8" class="st3" width="26.9" height="32.7"/>
	</g>
</g>
<g>
	<defs>
		<path id="SVGID_9_" d="M2.8,8.4C2.9,8,2.9,7.7,2.9,7.5C2.6,8,2.8,8.1,2.8,8.4 M3.4,5.5C3.4,6.1,3,6.4,3.5,6
			C3.8,5.3,3.4,5.8,3.4,5.5 M12.5,0.1C12.8,0,13.2,0.1,13.5,0c-0.4,0-0.7,0.1-1.1,0.1L12.5,0.1 M20.9,11.6l-0.1,0.2
			c-0.1,0.8-0.3,1.6-0.7,2.4C20.6,13.4,20.8,12.5,20.9,11.6 M10.3,14.2c-0.1-0.2-0.2-0.4-0.3-0.6c0.1,0.3,0.3,0.6,0.4,0.9L10.3,14.2
			 M9.7,14.2l-0.1,0.3c0.3,0.4,0.5,0.8,0.8,1.1C10.2,15.1,10,14.9,9.7,14.2"/>
	</defs>
	<clipPath id="SVGID_10_">
		<use xlink:href="#SVGID_9_"  style="overflow:visible;"/>
	</clipPath>
	<g class="st4">
		<defs>
			<rect id="SVGID_11_" x="2.7" width="19.2" height="25.3"/>
		</defs>
		<clipPath id="SVGID_12_">
			<use xlink:href="#SVGID_11_"  style="overflow:visible;"/>
		</clipPath>
		<rect x="-1.1" y="-3.8" class="st5" width="25.9" height="23.3"/>
	</g>
</g>
</svg>
