<?xml version="1.0" encoding="utf-8"?>
<!-- Generator: Adobe Illustrator 21.1.0, SVG Export Plug-In . SVG Version: 6.00 Build 0)  -->
<svg version="1.1" id="Layer_1" xmlns="http://www.w3.org/2000/svg" xmlns:xlink="http://www.w3.org/1999/xlink" x="0px" y="0px"
	 viewBox="0 0 25 25" style="enable-background:new 0 0 25 25;" xml:space="preserve">
<style type="text/css">
	.st0{fill:#FFFFFF;}
	.st1{fill:#999999;}
	.st2{fill:url(#SVGID_3_);}
</style>
<g>
	<path class="st0" d="M12.5,24.9c-6.8,0-12.4-5.6-12.4-12.4c0-6.8,5.6-12.4,12.4-12.4c6.8,0,12.4,5.6,12.4,12.4
		C24.9,19.3,19.3,24.9,12.5,24.9z"/>
	<path class="st1" d="M12.5,0.2c6.8,0,12.2,5.5,12.2,12.2s-5.5,12.2-12.2,12.2S0.2,19.3,0.2,12.5S5.7,0.2,12.5,0.2 M12.5,0
		C5.6,0,0,5.6,0,12.5S5.6,25,12.5,25S25,19.4,25,12.5S19.4,0,12.5,0L12.5,0z"/>
</g>
<g>
	<defs>
		<rect id="SVGID_1_" x="-1" y="-1" width="27" height="27"/>
	</defs>
	<clipPath id="SVGID_2_">
		<use xlink:href="#SVGID_1_"  style="overflow:visible;"/>
	</clipPath>
</g>
<linearGradient id="SVGID_3_" gradientUnits="userSpaceOnUse" x1="-0.4852" y1="25.2687" x2="-0.4852" y2="25.2026" gradientTransform="matrix(121.799 0 0 -163.12 71.601 4128.9404)">
	<stop  offset="0" style="stop-color:#58B0E3"/>
	<stop  offset="1" style="stop-color:#F44C26"/>
</linearGradient>
<path class="st2" d="M18.2,4.8h-0.8l-5,7.2h0l-5-7.2H6.8l5.3,7.7l-5.3,7.7h0.8l4.9-7.2h0l4.9,7.2h0.8l-5.3-7.7L18.2,4.8L18.2,4.8z"
	/>
</svg>
