<?xml version="1.0" encoding="utf-8"?>
<!-- Generator: Adobe Illustrator 21.1.0, SVG Export Plug-In . SVG Version: 6.00 Build 0)  -->
<svg version="1.1" id="Layer_1" xmlns="http://www.w3.org/2000/svg" xmlns:xlink="http://www.w3.org/1999/xlink" x="0px" y="0px"
	 viewBox="0 0 25 25" style="enable-background:new 0 0 25 25;" xml:space="preserve">
<style type="text/css">
	.st0{clip-path:url(#SVGID_2_);}
	.st1{clip-path:url(#SVGID_4_);fill:#FFFFFF;}
	.st2{clip-path:url(#SVGID_6_);}
	.st3{clip-path:url(#SVGID_8_);}
	.st4{clip-path:url(#SVGID_10_);}
	.st5{clip-path:url(#SVGID_12_);}
	.st6{clip-path:url(#SVGID_14_);}
	.st7{clip-path:url(#SVGID_16_);fill:#E93442;}
</style>
<g>
	<defs>
		<path id="SVGID_1_" d="M23,19.3c-0.5-0.1-1-0.2-1.5-0.2c-0.9,0-1.7,0.2-2.3,0.4c-0.1,0-0.1,0.1-0.1,0.2c0,0,0,0.1,0,0.1
			c0.1,0.2,0,0.4-0.6,0.6c-0.9,0.2-1.4,1.1-1.7,1.4c-0.4,0.3-1.4,0.6-1.2,0.3c0.1-0.2,0.6-0.7,0.9-1.2c0.3-0.5,0.5-0.6,0.8-1.1
			c0.1-0.1,0.4-0.6,0.5-1c0.1-0.4,0.1-0.8,0.1-1c0.1-0.3,0.3-0.9,0.3-1.2c0-0.2-0.8,0.3-1.2,0.3c-0.4,0-0.7-0.2-1.1-0.2
			c-0.4,0-0.7,0.3-1.1,0.3c-0.2,0-0.4-0.2-0.8-0.2c-0.5,0-1.2,0.3-2.4,0.3c-1.2,0-2.3-1.5-2.5-1.8C9,14.8,8.8,14.8,8.6,15
			c-0.2,0.2-0.5,0-0.6-0.1c-0.2-0.3-0.6-1.1-1.2-1.3c-0.9-0.2-1.4,0.5-1.3,1.1c0.1,0.6,0.4,0.8,0.6,1.1c0.2,0.3,0.3,0.5,0.6,0.7
			C6.9,16.6,7,16.8,6.9,17c-0.1,0.2-0.3,0.2-0.5,0.2c-0.3,0-0.6-0.1-0.8-0.2c-0.2-0.1-0.4-0.3-0.6-0.6c-0.2-0.3-0.5-0.5-0.9-0.5
			c-0.2,0-0.4,0-0.5,0.1c-0.6,0.3-1.3,0.5-2.1,0.5l-0.9,0C2.4,21.4,7,25,12.5,25C16.9,25,20.8,22.7,23,19.3"/>
	</defs>
	<clipPath id="SVGID_2_">
		<use xlink:href="#SVGID_1_"  style="overflow:visible;"/>
	</clipPath>
	<g class="st0">
		<defs>
			<rect id="SVGID_3_" width="25" height="25"/>
		</defs>
		<clipPath id="SVGID_4_">
			<use xlink:href="#SVGID_3_"  style="overflow:visible;"/>
		</clipPath>
		<rect x="-4.3" y="8.6" class="st1" width="32.3" height="21.4"/>
	</g>
</g>
<g>
	<defs>
		<path id="SVGID_5_" d="M23,19.3c-0.5-0.1-1-0.2-1.5-0.2c-0.9,0-1.7,0.2-2.3,0.4c-0.1,0-0.1,0.1-0.1,0.2c0,0,0,0.1,0,0.1
			c0.1,0.2,0,0.4-0.6,0.6c-0.9,0.2-1.4,1.1-1.7,1.4c-0.4,0.3-1.4,0.6-1.2,0.3c0.1-0.2,0.6-0.7,0.9-1.2c0.3-0.5,0.5-0.6,0.8-1.1
			c0.1-0.1,0.4-0.6,0.5-1c0.1-0.4,0.1-0.8,0.1-1c0.1-0.3,0.3-0.9,0.3-1.2c0-0.2-0.8,0.3-1.2,0.3c-0.4,0-0.7-0.2-1.1-0.2
			c-0.4,0-0.7,0.3-1.1,0.3c-0.2,0-0.4-0.2-0.8-0.2c-0.5,0-1.2,0.3-2.4,0.3c-1.2,0-2.3-1.5-2.5-1.8C9,14.8,8.8,14.8,8.5,15
			c-0.2,0.2-0.5,0-0.6-0.1c-0.2-0.3-0.6-1.1-1.2-1.3c-0.9-0.2-1.4,0.5-1.3,1.1c0.1,0.6,0.4,0.8,0.6,1.1c0.2,0.3,0.3,0.5,0.6,0.7
			c0.2,0.1,0.3,0.2,0.3,0.4c-0.1,0.2-0.3,0.2-0.5,0.2c-0.3,0-0.6-0.1-0.8-0.2c-0.2-0.1-0.4-0.3-0.6-0.6c-0.2-0.3-0.5-0.5-0.9-0.5
			c-0.2,0-0.4,0-0.5,0.1c-0.6,0.3-1.3,0.5-2.1,0.5H0.7c-0.4-1.3-0.7-2.6-0.7-4C0,5.6,5.6,0,12.5,0C19.4,0,25,5.6,25,12.5
			C25,15,24.3,17.3,23,19.3"/>
	</defs>
	<clipPath id="SVGID_6_">
		<use xlink:href="#SVGID_5_"  style="overflow:visible;"/>
	</clipPath>
	<g class="st2">
		<defs>
			<rect id="SVGID_7_" width="25" height="25"/>
		</defs>
		<clipPath id="SVGID_8_">
			<use xlink:href="#SVGID_7_"  style="overflow:visible;"/>
		</clipPath>
		<rect x="-5" y="-5" class="st3" width="35" height="32.1"/>
	</g>
</g>
<g>
	<defs>
		<path id="SVGID_9_" d="M15.2,18.1c0.1,0.1,0.2,0.3,0,0.5c-0.1,0.1-0.2,0.2-0.3,0.3c-0.2,0.1-0.5,0.3-1,0c-0.2-0.2-0.3-0.2-0.6-0.2
			c-0.2,0-0.3-0.2-0.3-0.4c0.1-0.2,0.4-0.4,0.9-0.1c0.2,0.1,0.5,0.4,0.8,0.1C15,18.4,15,18.3,15.2,18.1
			C15.2,18.1,15.2,18.1,15.2,18.1C15.2,18.1,15.2,18.1,15.2,18.1"/>
	</defs>
	<clipPath id="SVGID_10_">
		<use xlink:href="#SVGID_9_"  style="overflow:visible;"/>
	</clipPath>
	<g class="st4">
		<defs>
			<rect id="SVGID_11_" width="25" height="25"/>
		</defs>
		<clipPath id="SVGID_12_">
			<use xlink:href="#SVGID_11_"  style="overflow:visible;"/>
		</clipPath>
		<rect x="8.1" y="13.1" class="st5" width="12.2" height="11"/>
	</g>
</g>
<g>
	<defs>
		<path id="SVGID_13_" d="M19.5,9.1c-0.1,0.4-0.3,0.9-1.1,1.3c-0.1,0.1-0.2,0-0.1-0.1c0.3-0.5,0.3-0.6,0.4-0.8
			C18.9,9.2,19,8.8,18.7,8c-0.5-1.7-1.4-3.9-2.2-4.7c-0.7-0.7-1.9-0.9-3.1-0.6c-0.4,0.1-1.2,0.5-2.7,0.2c-2.6-0.6-3,0.7-3.1,1.3
			C7.5,4.7,7.1,6.3,7.1,6.3C7,7,6.9,8.1,10.9,8.9c1.9,0.4,2,0.8,2.1,1.2c0.1,0.6,0.4,1,0.7,1.2c0.3,0.2,0,0.3-0.3,0.4
			c-0.8,0.1-3.8-0.8-5.5-1.8C6.4,9,6.4,8.2,6.7,7.5C4.5,7.3,2.9,7.7,2.6,8.7c-0.5,1.8,3.9,4.7,8.8,6.3c5.2,1.6,10.6,0.5,11.2-2.8
			C22.9,10.7,21.7,9.6,19.5,9.1 M13,3.5L13,3.5C13,3.5,13,3.5,13,3.5C13,3.5,13,3.5,13,3.5c0.3-0.2,0.7-0.3,1.1-0.4
			c0.1,0,0.3,0,0.4,0h0.1c0.8,0,1.4,0.3,1.4,0.7c0,0.4-0.7,0.7-1.5,0.6c-0.3,0-0.5,0-0.7-0.1c0,0,0,0,0-0.1c0,0,0,0,0-0.1
			c0.5-0.1,0.8-0.3,0.8-0.5c0-0.2-0.7-0.4-1.5-0.3C13.2,3.5,13.1,3.5,13,3.5 M11.5,5.9C10.1,6,9.9,6.2,9.7,6.5
			C9.3,6.9,8.8,5.9,8.8,5.9c-0.3-0.1-0.7-0.5-0.5-1C8.5,4.5,8.9,4.6,9,4.8c0.1,0.2,0.4,0.4,0.8,0.4c0.4,0,0.8-0.1,1.4-0.1
			c0.6,0,1,0.2,1.1,0.4C12.3,5.7,12.2,5.9,11.5,5.9"/>
	</defs>
	<clipPath id="SVGID_14_">
		<use xlink:href="#SVGID_13_"  style="overflow:visible;"/>
	</clipPath>
	<g class="st6">
		<defs>
			<rect id="SVGID_15_" width="25" height="25"/>
		</defs>
		<clipPath id="SVGID_16_">
			<use xlink:href="#SVGID_15_"  style="overflow:visible;"/>
		</clipPath>
		<rect x="-2.4" y="-2.4" class="st7" width="30.1" height="23.1"/>
	</g>
</g>
</svg>
