<?xml version="1.0" encoding="utf-8"?>
<!-- Generator: Adobe Illustrator 21.1.0, SVG Export Plug-In . SVG Version: 6.00 Build 0)  -->
<svg version="1.1" id="Layer_1" xmlns="http://www.w3.org/2000/svg" xmlns:xlink="http://www.w3.org/1999/xlink" x="0px" y="0px"
	 viewBox="0 0 30 30" style="enable-background:new 0 0 30 30;" xml:space="preserve">
<style type="text/css">
	.st0{clip-path:url(#SVGID_2_);}
	.st1{clip-path:url(#SVGID_4_);fill:#D9262A;}
	.st2{clip-path:url(#SVGID_6_);}
	.st3{clip-path:url(#SVGID_8_);fill:#1E80B4;}
	.st4{clip-path:url(#SVGID_10_);}
	.st5{clip-path:url(#SVGID_12_);fill:#D9262A;}
	.st6{clip-path:url(#SVGID_14_);}
	.st7{clip-path:url(#SVGID_16_);fill:#1E80B4;}
	.st8{clip-path:url(#SVGID_18_);}
	.st9{clip-path:url(#SVGID_20_);fill:#1E80B4;}
	.st10{clip-path:url(#SVGID_22_);}
	.st11{clip-path:url(#SVGID_24_);fill:#1E80B4;}
	.st12{clip-path:url(#SVGID_26_);}
	.st13{clip-path:url(#SVGID_28_);fill:#1E80B4;}
	.st14{clip-path:url(#SVGID_30_);}
	.st15{clip-path:url(#SVGID_32_);fill:#1E80B4;}
</style>
<g>
	<defs>
		<path id="SVGID_1_" d="M13.4,16.5l-0.6-0.9c-0.2-0.3-0.4-0.6-0.6-1c-0.4-0.6-0.8-1.4-1-2.2c-0.4-1.4,0.5-2.3,1.3-3.3
			c0.1-0.1,0.3-0.3,0.4-0.4c0.8-0.9,2-1.9,2.9-2.8C16.7,5,17.2,4,17.3,2.6c0.1-0.7-0.1-2.3-0.6-2.6c0.2,1.1,0.2,1.9-0.3,3
			c-0.5,1.3-1.4,2.1-2.4,2.8c-0.8,0.6-2.1,1.8-2.8,2.4c-0.5,0.4-1.2,1.2-1.5,1.9c-0.5,1.1,0,1.8,0.5,2.6c0.2,0.4,0.5,0.7,0.7,1
			c0.3,0.4,0.6,0.6,0.8,0.9c0.3,0.3,0.6,0.6,0.8,0.9C12.7,15.8,13.3,16.4,13.4,16.5"/>
	</defs>
	<clipPath id="SVGID_2_">
		<use xlink:href="#SVGID_1_"  style="overflow:visible;"/>
	</clipPath>
	<g class="st0">
		<defs>
			<rect id="SVGID_3_" x="2.9" width="23" height="30.4"/>
		</defs>
		<clipPath id="SVGID_4_">
			<use xlink:href="#SVGID_3_"  style="overflow:visible;"/>
		</clipPath>
		<rect x="4.9" y="-4.6" class="st1" width="17.1" height="25.7"/>
	</g>
</g>
<g>
	<defs>
		<path id="SVGID_5_" d="M23.8,26.3c0.3,0.5,0,0.7-0.4,0.9c-1.9,0.9-8.5,1.1-10.5,1.1c-2.1,0-4.2-0.1-6.2-0.4
			c-0.3-0.1-1.8-0.3-1.8-0.7c0-0.2,0.2-0.4,0.3-0.5c0.5-0.3,1.3-0.5,1.9-0.6c0.2,0,0.6-0.1,0.7-0.1c-1-0.1-4.1,0.4-4.7,1.3
			c-0.4,0.6,0.3,0.9,0.8,1c1.8,0.6,5.5,0.7,7.4,0.7c2.9,0,10,0,12.5-1.7c0.2-0.1,0.4-0.3,0.5-0.5C24.3,26.6,24,26.4,23.8,26.3"/>
	</defs>
	<clipPath id="SVGID_6_">
		<use xlink:href="#SVGID_5_"  style="overflow:visible;"/>
	</clipPath>
	<g class="st2">
		<defs>
			<rect id="SVGID_7_" x="2.9" width="23" height="30.4"/>
		</defs>
		<clipPath id="SVGID_8_">
			<use xlink:href="#SVGID_7_"  style="overflow:visible;"/>
		</clipPath>
		<rect x="-1.7" y="21.4" class="st3" width="30.6" height="12.3"/>
	</g>
</g>
<g>
	<defs>
		<path id="SVGID_9_" d="M14.9,18c0.3-0.1,1.2-0.9,1.5-1.1c0.3-0.3,0.9-0.9,0.9-1.7c0-0.6-0.4-1.5-0.7-1.9c-0.9-1.3-1.6-2.1-0.4-3.5
			C16.6,9.4,17,9,17.5,8.6c0.6-0.5,1.6-1.2,2.3-1.6l0.8-0.5c-0.4,0.1-1.5,0.5-2,0.7C18,7.4,17.4,7.7,16.8,8c-1.8,1-3.5,2.6-2.8,4.8
			c0.5,1.5,1.9,2.4,1.8,3.5C15.8,17,15.1,17.7,14.9,18"/>
	</defs>
	<clipPath id="SVGID_10_">
		<use xlink:href="#SVGID_9_"  style="overflow:visible;"/>
	</clipPath>
	<g class="st4">
		<defs>
			<rect id="SVGID_11_" x="2.9" width="23" height="30.4"/>
		</defs>
		<clipPath id="SVGID_12_">
			<use xlink:href="#SVGID_11_"  style="overflow:visible;"/>
		</clipPath>
		<rect x="9.3" y="1.9" class="st5" width="16" height="20.7"/>
	</g>
</g>
<g>
	<defs>
		<path id="SVGID_13_" d="M18.7,25.3c-0.5-0.2-1-0.4-1.4-0.7c-0.3-0.2-0.2-0.2-0.5-0.1c-1.5,0.4-3.9,0.4-5.4,0.3
			c-0.4,0-1.5,0-1.7-0.4c-0.1-0.2,0.1-0.4,0.1-0.5c-1,0.2-2.1,1-0.6,1.7c1.6,0.8,4.9,0.8,6.7,0.5C16.2,26,18.5,25.5,18.7,25.3"/>
	</defs>
	<clipPath id="SVGID_14_">
		<use xlink:href="#SVGID_13_"  style="overflow:visible;"/>
	</clipPath>
	<g class="st6">
		<defs>
			<rect id="SVGID_15_" x="2.9" width="23" height="30.4"/>
		</defs>
		<clipPath id="SVGID_16_">
			<use xlink:href="#SVGID_15_"  style="overflow:visible;"/>
		</clipPath>
		<rect x="3.8" y="19.3" class="st7" width="19.6" height="11.6"/>
	</g>
</g>
<g>
	<defs>
		<path id="SVGID_17_" d="M19,22.1c-0.4-0.1-0.8-0.4-1.1-0.6c-0.2-0.2-0.1-0.1-0.6-0.1c-1.7,0.3-6.9,0.8-8.4,0.2
			c-0.2-0.1-0.4-0.2-0.4-0.4c0-0.3,0.2-0.4,0.3-0.6c-1.2,0.1-2.3,1.3-0.7,1.8c1.8,0.6,5.7,0.6,7.6,0.4C16.3,22.8,18.5,22.3,19,22.1"
			/>
	</defs>
	<clipPath id="SVGID_18_">
		<use xlink:href="#SVGID_17_"  style="overflow:visible;"/>
	</clipPath>
	<g class="st8">
		<defs>
			<rect id="SVGID_19_" x="2.9" width="23" height="30.4"/>
		</defs>
		<clipPath id="SVGID_20_">
			<use xlink:href="#SVGID_19_"  style="overflow:visible;"/>
		</clipPath>
		<rect x="2.7" y="16" class="st9" width="20.9" height="11.6"/>
	</g>
</g>
<g>
	<defs>
		<path id="SVGID_21_" d="M20.5,17.4c-0.2,0-0.5,0.1-0.8,0.1c-0.3,0-0.5,0.1-0.8,0.1c-1.6,0.2-3.4,0.4-5,0.5
			c-1.2,0.1-5.9,0.2-6.7-0.4c-0.1-0.3,0.3-0.5,0.5-0.6c0.8-0.4,1.7-0.6,2.5-0.8c-1.1-0.1-3.9,0.7-4.9,1.3c-1.1,0.7,0.7,0.9,1.4,1
			c3.9,0.5,7.6,0.3,11.5-0.3c0.6-0.1,0.8-0.1,1.2-0.3C19.8,17.8,20.2,17.6,20.5,17.4"/>
	</defs>
	<clipPath id="SVGID_22_">
		<use xlink:href="#SVGID_21_"  style="overflow:visible;"/>
	</clipPath>
	<g class="st10">
		<defs>
			<rect id="SVGID_23_" x="2.9" width="23" height="30.4"/>
		</defs>
		<clipPath id="SVGID_24_">
			<use xlink:href="#SVGID_23_"  style="overflow:visible;"/>
		</clipPath>
		<rect x="0.5" y="11.7" class="st11" width="24.6" height="11.8"/>
	</g>
</g>
<g>
	<defs>
		<path id="SVGID_25_" d="M7.3,29.1c1.1,0.5,3.5,0.7,4.7,0.8c1.7,0.1,3.7,0.1,5.4,0c2.3-0.2,4.9-0.4,6.9-1.4
			c0.5-0.2,1.3-0.8,1.4-1.4c-0.1,0.1-0.3,0.2-0.4,0.3c-3.5,2.4-11.5,2.2-15.7,1.9L7.3,29.1"/>
	</defs>
	<clipPath id="SVGID_26_">
		<use xlink:href="#SVGID_25_"  style="overflow:visible;"/>
	</clipPath>
	<g class="st12">
		<defs>
			<rect id="SVGID_27_" x="2.9" width="23" height="30.4"/>
		</defs>
		<clipPath id="SVGID_28_">
			<use xlink:href="#SVGID_27_"  style="overflow:visible;"/>
		</clipPath>
		<rect x="2.7" y="22.5" class="st13" width="27.7" height="12.1"/>
	</g>
</g>
<g>
	<defs>
		<path id="SVGID_29_" d="M21.1,16.8c0.9-0.3,1.8-0.1,2.4,0.4c0.6,0.5,0.6,1.5,0.2,2.3c-0.6,1-1.8,1.9-2.7,2.5
			c-0.2,0.1-0.3,0.2-0.5,0.3c0.6-0.1,2.1-0.7,2.7-1.1c0.7-0.4,1.6-1.1,1.9-1.9c0.5-1.2-0.2-2.1-1-2.6c-0.4-0.2-0.9-0.4-1.6-0.4
			C22.1,16.3,21.3,16.5,21.1,16.8"/>
	</defs>
	<clipPath id="SVGID_30_">
		<use xlink:href="#SVGID_29_"  style="overflow:visible;"/>
	</clipPath>
	<g class="st14">
		<defs>
			<rect id="SVGID_31_" x="2.9" width="23" height="30.4"/>
		</defs>
		<clipPath id="SVGID_32_">
			<use xlink:href="#SVGID_31_"  style="overflow:visible;"/>
		</clipPath>
		<rect x="15.8" y="11.7" class="st15" width="14" height="15.2"/>
	</g>
</g>
</svg>
