<?xml version="1.0" encoding="UTF-8"?>
<svg width="16px" height="10px" viewBox="0 0 16 10" version="1.1" xmlns="http://www.w3.org/2000/svg" xmlns:xlink="http://www.w3.org/1999/xlink">
    <!-- Generator: Sketch 49 (51002) - http://www.bohemiancoding.com/sketch -->
    <title>angle-up - FontAwesome Copy</title>
    <desc>Created with Sketch.</desc>
    <defs></defs>
    <g id="Plugins-page--designs" stroke="none" stroke-width="1" fill="none" fill-rule="evenodd">
        <g id="plugins_language-runners_COLOR-ICONS" transform="translate(-255.000000, -520.000000)" fill="#000000">
            <path d="M270.796895,528.499993 C270.796895,528.624994 270.734395,528.765619 270.640645,528.859369 L269.859394,529.64062 C269.765644,529.73437 269.640644,529.79687 269.500018,529.79687 C269.375018,529.79687 269.234393,529.73437 269.140643,529.64062 L263.000011,523.499987 L256.859378,529.64062 C256.765628,529.73437 256.625003,529.79687 256.500003,529.79687 C256.375003,529.79687 256.234378,529.73437 256.140628,529.64062 L255.359377,528.859369 C255.265627,528.765619 255.203126,528.624994 255.203126,528.499993 C255.203126,528.374993 255.265627,528.234368 255.359377,528.140618 L262.640635,520.859359 C262.734385,520.765609 262.875011,520.703109 263.000011,520.703109 C263.125011,520.703109 263.265636,520.765609 263.359386,520.859359 L270.640645,528.140618 C270.734395,528.234368 270.796895,528.374993 270.796895,528.499993 Z" id="angle-up---FontAwesome-Copy"></path>
        </g>
    </g>
</svg>