<?xml version="1.0" encoding="UTF-8"?>
<svg width="16px" height="10px" viewBox="0 0 16 10" version="1.1" xmlns="http://www.w3.org/2000/svg" xmlns:xlink="http://www.w3.org/1999/xlink">
    <!-- Generator: Sketch 49 (51002) - http://www.bohemiancoding.com/sketch -->
    <title>angle-down - FontAwesome Copy 3</title>
    <desc>Created with Sketch.</desc>
    <defs></defs>
    <g id="Plugins-page--designs" stroke="none" stroke-width="1" fill="none" fill-rule="evenodd">
        <g id="plugins_language-runners_COLOR-ICONS" transform="translate(-255.000000, -1661.000000)" fill="#1E1E1E">
            <path d="M270.796895,1662.49999 C270.796895,1662.62499 270.734395,1662.76561 270.640645,1662.85936 L263.359386,1670.14062 C263.265636,1670.23437 263.125011,1670.29687 263.000011,1670.29687 C262.875011,1670.29687 262.734385,1670.23437 262.640635,1670.14062 L255.359377,1662.85936 C255.265627,1662.76561 255.203126,1662.62499 255.203126,1662.49999 C255.203126,1662.37498 255.265627,1662.23436 255.359377,1662.14061 L256.140628,1661.35936 C256.234378,1661.26561 256.359378,1661.20311 256.500003,1661.20311 C256.625003,1661.20311 256.765628,1661.26561 256.859378,1661.35936 L263.000011,1667.49999 L269.140643,1661.35936 C269.234393,1661.26561 269.375018,1661.20311 269.500018,1661.20311 C269.625019,1661.20311 269.765644,1661.26561 269.859394,1661.35936 L270.640645,1662.14061 C270.734395,1662.23436 270.796895,1662.37498 270.796895,1662.49999 Z" id="angle-down---FontAwesome-Copy-3"></path>
        </g>
    </g>
</svg>