<?xml version="1.0" encoding="utf-8"?>
<!-- Generator: Adobe Illustrator 19.2.1, SVG Export Plug-In . SVG Version: 6.00 Build 0)  -->
<svg version="1.1" id="Layer_1" xmlns="http://www.w3.org/2000/svg" xmlns:xlink="http://www.w3.org/1999/xlink" x="0px" y="0px"
	 viewBox="0 0 1374.8 525.5" style="enable-background:new 0 0 1374.8 525.5;" xml:space="preserve">
<style type="text/css">
	.st0{fill:#FFFFFF;}
</style>
<g>
	<path class="st0" d="M562.1,427.2c-4.2,11.3-10.2,21-18,29.1c-7.8,8.1-17.1,14.4-28,18.8c-10.9,4.4-22.9,6.7-36,6.7
		c-20.4,0-37.9-5.1-52.4-15.2c-14.5-10.1-24-23.9-28.5-41.5h29.6c2.9,6.4,6.5,11.6,11,15.5c4.4,3.9,9.2,6.8,14.2,8.8
		c5,2,9.8,3.3,14.5,4s8.5,1,11.7,1c10.9,0,20.1-1.9,27.8-5.8c7.7-3.9,13.9-8.9,18.6-15s8.2-13,10.3-20.8c2.1-7.8,3.2-15.5,3.2-23.3
		v-18c-6.2,8.4-14.4,15.6-24.5,21.5c-10.1,5.9-21.4,8.8-33.8,8.8s-23.9-2.3-34.3-7s-19.5-11.1-27.1-19.3c-7.7-8.2-13.7-17.8-18-28.6
		c-4.3-10.9-6.5-22.5-6.5-35s2.2-24.1,6.5-35.1c4.3-11,10.3-20.5,18-28.6s16.7-14.5,27.1-19.3s21.9-7.2,34.3-7.2
		c12.7,0,24.2,3.1,34.6,9.3c10.4,6.2,18.6,13.7,24.6,22.3v-27.3h27.3v163.5C568.4,403.4,566.3,415.9,562.1,427.2z M535.5,287.4
		c-3.1-7.8-7.3-14.6-12.7-20.5c-5.3-5.9-11.5-10.5-18.5-13.8c-7-3.3-14.5-5-22.5-5s-15.5,1.7-22.6,5c-7.1,3.3-13.2,7.9-18.3,13.8
		c-5.1,5.9-9.2,12.7-12.2,20.5c-3,7.8-4.5,16.1-4.5,25c0,8.7,1.5,16.9,4.5,24.6c3,7.8,7,14.5,12.2,20.3c5.1,5.8,11.2,10.3,18.3,13.7
		c7.1,3.3,14.7,5,22.6,5s15.5-1.7,22.5-5c7-3.3,13.2-7.9,18.5-13.7c5.3-5.8,9.5-12.5,12.7-20.3s4.7-16,4.7-24.6
		C540.1,303.5,538.6,295.1,535.5,287.4z"/>
	<path class="st0" d="M733.6,397.6V370c-6,8.9-14.2,16.4-24.6,22.6c-10.4,6.2-22,9.3-34.6,9.3c-12.4,0-23.9-2.3-34.3-7
		s-19.5-11.1-27.1-19.3c-7.7-8.2-13.7-17.8-18-28.6c-4.3-10.9-6.5-22.5-6.5-35s2.2-24.1,6.5-35.1c4.3-11,10.3-20.5,18-28.6
		s16.7-14.5,27.1-19.3s21.9-7.2,34.3-7.2c12.7,0,24.2,3.1,34.6,9.3c10.4,6.2,18.6,13.7,24.6,22.3v-27.3h27.3v171.5H733.6z
		 M727.9,287.7c-3.1-7.8-7.3-14.5-12.7-20.3c-5.3-5.8-11.5-10.3-18.5-13.7c-7-3.3-14.5-5-22.5-5s-15.5,1.7-22.6,5
		c-7.1,3.3-13.2,7.9-18.3,13.7c-5.1,5.8-9.2,12.5-12.2,20.3c-3,7.8-4.5,16-4.5,24.6s1.5,16.8,4.5,24.3c3,7.5,7,14.2,12.2,19.8
		c5.1,5.7,11.2,10.2,18.3,13.5c7.1,3.3,14.7,5,22.6,5s15.5-1.7,22.5-5c7-3.3,13.2-7.8,18.5-13.5c5.3-5.7,9.5-12.3,12.7-19.8
		c3.1-7.5,4.7-15.7,4.7-24.3S731,295.5,727.9,287.7z"/>
	<path class="st0" d="M904.8,397.6V379c-5.8,7.1-12.9,12.7-21.3,16.7s-18,6-28.6,6c-10.4,0-19.8-1.8-28-5.3
		c-8.2-3.6-15.2-8.5-20.8-15c-5.7-6.4-9.9-14-12.8-22.8c-2.9-8.8-4.3-18.5-4.3-29.1V226.1h28v104.6c0,13.8,3.6,24.8,10.8,33
		c7.2,8.2,17.7,12.3,31.5,12.3c6.2,0,12-1.1,17.5-3.3c5.4-2.2,10.2-5.3,14.2-9.3s7.2-8.7,9.5-14.2c2.3-5.4,3.5-11.4,3.5-17.8V226.1
		h28.3v171.5H904.8z"/>
	<path class="st0" d="M1120.9,427.2c-4.2,11.3-10.2,21-18,29.1c-7.8,8.1-17.1,14.4-28,18.8c-10.9,4.4-22.9,6.7-36,6.7
		c-20.4,0-37.9-5.1-52.4-15.2c-14.5-10.1-24-23.9-28.5-41.5h29.6c2.9,6.4,6.5,11.6,11,15.5c4.4,3.9,9.2,6.8,14.2,8.8
		c5,2,9.8,3.3,14.5,4c4.7,0.7,8.5,1,11.7,1c10.9,0,20.1-1.9,27.8-5.8s13.9-8.9,18.6-15c4.8-6.1,8.2-13,10.3-20.8
		c2.1-7.8,3.2-15.5,3.2-23.3v-18c-6.2,8.4-14.4,15.6-24.5,21.5c-10.1,5.9-21.4,8.8-33.8,8.8c-12.4,0-23.9-2.3-34.3-7
		s-19.5-11.1-27.1-19.3c-7.7-8.2-13.7-17.8-18-28.6s-6.5-22.5-6.5-35s2.2-24.1,6.5-35.1c4.3-11,10.3-20.5,18-28.6
		c7.7-8.1,16.7-14.5,27.1-19.3s21.9-7.2,34.3-7.2c12.7,0,24.2,3.1,34.6,9.3c10.4,6.2,18.6,13.7,24.6,22.3v-27.3h27.3v163.5
		C1127.2,403.4,1125.1,415.9,1120.9,427.2z M1094.2,287.4c-3.1-7.8-7.3-14.6-12.7-20.5s-11.5-10.5-18.5-13.8c-7-3.3-14.5-5-22.5-5
		c-8,0-15.5,1.7-22.6,5c-7.1,3.3-13.2,7.9-18.3,13.8s-9.2,12.7-12.2,20.5s-4.5,16.1-4.5,25c0,8.7,1.5,16.9,4.5,24.6
		s7,14.5,12.2,20.3s11.2,10.3,18.3,13.7c7.1,3.3,14.7,5,22.6,5c8,0,15.5-1.7,22.5-5c7-3.3,13.2-7.9,18.5-13.7s9.5-12.5,12.7-20.3
		c3.1-7.8,4.7-16,4.7-24.6C1098.9,303.5,1097.3,295.1,1094.2,287.4z"/>
	<path class="st0" d="M1286,386.8c-14,9.9-31,14.8-50.9,14.8c-12.4,0-24-2.3-34.6-7s-19.9-11-27.8-19s-14.1-17.4-18.6-28.3
		c-4.6-10.9-6.8-22.6-6.8-35.3c0-12.4,2.3-24.1,6.8-35.1c4.6-11,10.7-20.5,18.5-28.6s16.9-14.5,27.3-19.3s21.6-7.2,33.6-7.2
		c11.1,0,21.9,2.2,32.3,6.7c10.4,4.4,19.7,10.9,27.8,19.3c8.1,8.4,14.5,18.6,19.3,30.6c4.8,12,7.2,25.6,7.2,41h-144.2
		c0.9,8.9,3.2,16.8,6.8,23.8c3.7,7,8.2,12.9,13.7,17.8c5.4,4.9,11.5,8.6,18.1,11.2s13.5,3.8,20.6,3.8c12.2,0,22.6-2.8,31.1-8.3
		c8.5-5.5,15.2-13.3,19.8-23.3h30C1310,362.7,1300,376.9,1286,386.8z M1280.5,275.1c-3.7-5.8-7.9-10.7-12.8-14.8
		c-4.9-4.1-10.3-7.3-16.2-9.5c-5.9-2.2-11.9-3.3-18.1-3.3c-6,0-11.9,1.1-17.8,3.2s-11.3,5.2-16.3,9.2c-5,4-9.4,8.9-13.3,14.7
		c-3.9,5.8-6.7,12.3-8.5,19.6h111.2C1286.9,287.2,1284.2,280.8,1280.5,275.1z"/>
</g>
<g>
	<path class="st0" d="M311.8,442.7H85c-15.7,0-28.3-12.7-28.3-28.3v-99.2c0-15.7,12.7-28.3,28.3-28.3s28.3,12.7,28.3,28.3V386h130
		L65,207.7c-11.1-11.1-11.1-29,0-40.1s29-11.1,40.1,0l226.8,226.8c8.1,8.1,10.5,20.3,6.1,30.9S323.3,442.7,311.8,442.7z"/>
	<path class="st0" d="M311.8,301c-7.3,0-14.5-2.8-20-8.3l-85-85c-11.1-11.1-11.1-29,0-40.1s29-11.1,40.1,0l85,85
		c11.1,11.1,11.1,29,0,40.1C326.3,298.2,319.1,301,311.8,301z"/>
</g>
<g>
	<path class="st0" d="M1317.9,176.6h-4.9v14.8h-2.8v-14.8h-5V174h12.7V176.6z M1334.6,191.5v-12.6l-4.6,12.6h-2.8l-4.6-12.6v12.6
		h-2.8V174h3.7l5.1,14l5.1-14h3.7v17.4H1334.6z"/>
</g>
<g>
	<path class="st0" d="M491.9,68.5c4.1-3.4,9.2-6.1,14.7-6.1c5.3,0,12.9,3.2,12.9,15.4v34.8h-13V83c0-3.9,0.3-10.2-5.4-10.2
		c-3.8,0-6.8,2.7-9.2,5.3v34.4h-13V44.3h13V68.5z"/>
	<path class="st0" d="M525.5,88c0-13.1,7.2-25.6,21.6-25.6c14.4,0,21.6,12.5,21.6,25.6c0,13-7.3,25.6-21.6,25.6
		C532.8,113.6,525.5,101,525.5,88 M555.4,88c0-6.1-1.2-16-8.2-16c-7,0-8.2,9.9-8.2,16c0,6.1,1.2,16,8.2,16
		C554.1,104,555.4,94.1,555.4,88"/>
	<path class="st0" d="M602.3,107.4c-4.1,3.4-9.2,6.1-14.6,6.1c-5.4,0-12.9-3.2-12.9-15.3V63.4h13V93c0,3.9-0.3,10.2,5.4,10.2
		c3.8,0,6.7-2.7,9.2-5.4V63.4h13v49.1h-13V107.4z"/>
	<path class="st0" d="M637.1,96.4c-1.5,0-3.7,0.8-3.7,3.1c0,6.4,34-4.7,34,14.5c0,7.3-4.9,15-24.4,15c-16.9,0-22.7-6-22.7-12.4
		c0-3.8,2.4-5.7,5.3-7.5c-2.1-1.6-3.9-3.4-3.9-6.2c0-4.8,2.6-7.4,6.4-9.8c-3.6-3.5-6.1-7.9-6.1-13.5c0-10.9,9.2-17.2,19.8-17.2
		c4.3,0,8.4,1.2,12.1,3.4c2.6-2.4,5-4,8.9-4c1.2,0,2.5,0.1,3.8,0.3v9.1c-1.3-0.5-2.7-1-4.1-1c-1.4,0-2.3,0.4-3.5,1
		c1.4,2.6,2.5,5.5,2.6,8.3c0,10.9-9.1,17.2-19.7,17.2L637.1,96.4z M632.9,112.6c-1.2,0.8-2,1.5-2,3.1c0,4.6,9.2,4.8,12.3,4.8
		c2.2,0,13.6-0.3,13.6-4.2c0-2.5-1.8-2.3-9.5-2.7L632.9,112.6z M641.9,88.1c5.4,0,7-4.5,7-9.1c0-4.5-2.1-8.2-7-8.2
		c-5.4,0-7.1,4.6-7.1,9.2C634.8,84.5,636.9,88.1,641.9,88.1"/>
	<path class="st0" d="M685.1,68.5c4.1-3.4,9.2-6.1,14.7-6.1c5.3,0,12.9,3.2,12.9,15.4v34.8h-13V83c0-3.9,0.3-10.2-5.4-10.2
		c-3.8,0-6.8,2.7-9.2,5.3v34.4h-13V44.3h13V68.5z"/>
	<path class="st0" d="M737,63.4h10.1v10.8H737v25c0,2.4,0.7,4.8,4.9,4.8c2.2,0,3.6-0.9,5.2-1.8v9.9c-2.7,0.8-5.5,1.5-8.3,1.5
		c-8.1,0-14.7-4.5-14.7-15.2V74.2H718V63.4h6.1V51.1h13V63.4z"/>
	<polygon class="st0" points="802.7,112.5 795.7,112.5 784.1,56.8 783.9,56.8 771.7,112.5 764.7,112.5 750.4,44.3 757.2,44.3 
		768.5,99.4 768.7,99.4 780.9,44.3 787.7,44.3 799.3,99.4 799.5,99.4 811.5,44.3 818.3,44.3 	"/>
	<path class="st0" d="M814.5,88.3c0-18.1,8.6-25.6,19.4-25.6c10.8,0,19.4,7.5,19.4,25.6c0,18.2-8.6,25.6-19.4,25.6
		C823.1,113.9,814.5,106.5,814.5,88.3 M846.4,88.3c0-8.2-2-19.8-12.5-19.8c-10.5,0-12.5,11.6-12.5,19.8c0,8.3,2,19.8,12.5,19.8
		C844.4,108.1,846.4,96.6,846.4,88.3"/>
	<path class="st0" d="M865.7,74.6h0.2c2.7-5.8,6.2-11.1,13.4-11.1h2.6v6.2c-8.9-1.2-13.6,8.4-16.2,15.4v27.5h-6.8V64.1h6.8V74.6z"/>
	<polygon class="st0" points="892.9,86.6 910.9,64.1 918.5,64.1 905.2,80.7 920.6,112.5 913.2,112.5 900.8,86.2 892.9,96 
		892.9,112.5 886.1,112.5 886.1,44.3 892.9,44.3 	"/>
	<path class="st0" d="M950.4,74.9c-2.7-4-6-6.4-11.1-6.4c-4.5,0-8.7,2.3-8.7,7.2c0,11.8,25.5,6.7,25.5,23c0,9.5-6.8,15.2-15.9,15.2
		c-7.8,0-14.1-3.4-18.1-10.2l5.4-3.4c2.6,5,6.8,7.8,12.6,7.8c5,0,9.5-2.7,9.5-8.2c0-12.2-25.5-6.4-25.5-23.8
		c0-8.3,6.8-13.4,14.8-13.4c6.8,0,12.4,2.8,16.1,8.4L950.4,74.9z"/>
	<path class="st0" d="M967.7,49.7c0-1.6-1-2.6-2.7-2.6h-3.8v8.4h1.2v-3.3h2.2l1.8,3.3h1.4l-1.9-3.4C967,51.8,967.7,50.8,967.7,49.7
		 M962.4,48.3h2.6c1,0,1.5,0.5,1.5,1.3c0,1-0.8,1.3-1.4,1.3h-2.6V48.3z"/>
	<path class="st0" d="M964.1,43.9c-4.1,0-7.4,3.3-7.4,7.4c0,4.1,3.3,7.4,7.4,7.4c4.1,0,7.4-3.3,7.4-7.4
		C971.5,47.2,968.1,43.9,964.1,43.9 M964.1,57.5c-3.4,0-6.1-2.8-6.1-6.2c0-3.4,2.8-6.2,6.1-6.2c3.4,0,6.2,2.8,6.2,6.2
		C970.2,54.7,967.5,57.5,964.1,57.5"/>
	<polygon class="st0" points="473.5,55.7 455.8,55.7 455.8,112.4 442.1,112.4 442.1,55.7 424.4,55.7 424.4,44.1 473.5,44.1 	"/>
</g>
<g>
	<g>
		<path class="st0" d="M87.2,101.5c-1.5,2.1-3.2,3.8-5.2,5.3c-2,1.4-4.2,2.6-6.6,3.3s-4.9,1.2-7.6,1.2c-3.4,0-6.6-0.7-9.6-2.1
			c-3-1.4-5.7-3.2-7.9-5.6c-2.2-2.4-4-5.1-5.3-8.3c-1.3-3.2-1.9-6.6-1.9-10.2s0.6-7,1.9-10.1c1.3-3.1,3.1-5.9,5.3-8.2
			c2.2-2.4,4.9-4.2,7.9-5.6c3-1.4,6.2-2.1,9.6-2.1c2.8,0,5.5,0.4,7.9,1.2c2.4,0.8,4.6,2,6.6,3.4c1.9,1.5,3.6,3.2,5,5.3
			s2.5,4.3,3.3,6.7h-6.4c-1.4-3.2-3.5-5.8-6.2-7.8c-2.8-2-6.2-3-10.3-3c-2.6,0-5,0.5-7.3,1.6c-2.3,1.1-4.2,2.5-5.9,4.4
			c-1.7,1.8-3,4-4,6.4c-1,2.4-1.5,5-1.5,7.8s0.5,5.3,1.5,7.8c1,2.4,2.3,4.6,4,6.4c1.7,1.8,3.7,3.3,5.9,4.4c2.3,1.1,4.7,1.6,7.3,1.6
			c3.7,0,7-1,9.9-2.9c2.9-1.9,5.1-4.6,6.6-7.9h6.4C89.9,97.1,88.7,99.4,87.2,101.5z"/>
		<path class="st0" d="M111.3,78.9c-1.4,0.4-2.7,1-3.8,1.9s-1.9,2-2.6,3.3c-0.6,1.3-1,3-1,4.8v21.5h-6.1V73.3h5.9v4.2
			c0.7-1,1.5-1.9,2.5-2.6c0.9-0.7,1.9-1.2,3-1.7s2.2-0.7,3.3-0.8s2.2-0.1,3.3,0v6C114.2,78.4,112.7,78.6,111.3,78.9z"/>
		<path class="st0" d="M149.9,108.1c-3,2.1-6.7,3.2-11,3.2c-2.7,0-5.2-0.5-7.5-1.5c-2.3-1-4.3-2.4-6-4.1c-1.7-1.7-3-3.8-4-6.1
			c-1-2.4-1.5-4.9-1.5-7.6c0-2.7,0.5-5.2,1.5-7.6c1-2.4,2.3-4.4,4-6.2c1.7-1.8,3.6-3.1,5.9-4.2c2.3-1,4.7-1.5,7.3-1.5
			c2.4,0,4.7,0.5,7,1.4s4.3,2.4,6,4.2c1.8,1.8,3.1,4,4.2,6.6c1,2.6,1.5,5.5,1.5,8.9h-31.2c0.2,1.9,0.7,3.6,1.5,5.1
			c0.8,1.5,1.8,2.8,3,3.9c1.2,1.1,2.5,1.9,3.9,2.4c1.4,0.6,2.9,0.8,4.5,0.8c2.6,0,4.9-0.6,6.7-1.8c1.8-1.2,3.3-2.9,4.3-5h6.5
			C155.1,102.9,153,105.9,149.9,108.1z M148.8,83.9c-0.8-1.2-1.7-2.3-2.8-3.2c-1.1-0.9-2.2-1.6-3.5-2.1c-1.3-0.5-2.6-0.7-3.9-0.7
			c-1.3,0-2.6,0.2-3.9,0.7s-2.4,1.1-3.5,2s-2,1.9-2.9,3.2c-0.8,1.2-1.5,2.7-1.8,4.2h24C150.1,86.5,149.5,85.2,148.8,83.9z"/>
		<path class="st0" d="M189.6,108.5c-0.2-0.7-0.3-1.5-0.3-2.4c-1.3,1.6-3.1,2.9-5.2,3.8c-2.1,0.9-4.6,1.3-7.5,1.3
			c-1.9,0-3.8-0.2-5.5-0.6c-1.8-0.4-3.3-1.1-4.6-2.1c-1.3-0.9-2.4-2.1-3.2-3.6s-1.2-3.2-1.2-5.2c0-3.8,1.3-6.7,4-8.5
			c2.6-1.8,6.4-2.9,11.2-3.1c2.3-0.1,4.2-0.3,5.7-0.5c1.5-0.3,2.8-0.6,3.7-1c0.9-0.4,1.6-0.9,2-1.5c0.4-0.6,0.6-1.2,0.6-1.9
			c0-1.5-0.7-2.7-2.2-3.7c-1.4-1-3.7-1.5-6.9-1.5c-1,0-2,0.1-3.1,0.3c-1.1,0.2-2.1,0.5-3,1c-0.9,0.5-1.7,1.2-2.4,2s-1.1,2-1.2,3.3
			h-6.3c0.2-3.7,1.8-6.7,4.6-8.9s6.6-3.3,11.4-3.3c5,0,8.7,1.1,11.2,3.2c2.5,2.1,3.7,4.9,3.7,8.4v20.4c0,1,0.1,2,0.3,3.2
			c0.2,1.2,0.5,2.1,0.8,2.8h-6C190,109.9,189.8,109.3,189.6,108.5z M184.4,92.7c-2,0.4-4.1,0.6-6.3,0.8c-2,0.1-3.7,0.4-4.9,0.8
			s-2.3,0.9-3,1.4c-0.7,0.6-1.2,1.2-1.5,1.9c-0.3,0.7-0.4,1.5-0.4,2.2c0,1,0.2,1.9,0.7,2.6c0.5,0.7,1.1,1.3,1.9,1.8
			c0.8,0.5,1.7,0.8,2.7,1c1,0.2,2.1,0.3,3.3,0.3c1.6,0,3.1-0.2,4.6-0.5c1.5-0.4,2.8-0.9,4-1.7c1.2-0.7,2.1-1.7,2.8-2.9
			c0.7-1.2,1.1-2.6,1.1-4.3v-5.7C188,91.6,186.4,92.3,184.4,92.7z"/>
		<path class="st0" d="M215.3,110c-1.8-0.5-3.3-1.3-4.6-2.5c-1.3-1.2-2.3-2.7-3-4.5s-1.1-3.9-1.1-6.2V79.2h-5v-5.8h5v-7.9h6v7.9h8.4
			v5.8h-8.4v17.7c0,1.6,0.2,3,0.7,4s1.1,1.9,1.9,2.5c0.8,0.6,1.7,1,2.7,1.2c1,0.2,2.1,0.3,3.3,0.2v5.6
			C219.1,110.6,217.1,110.5,215.3,110z"/>
		<path class="st0" d="M255.4,108.1c-3,2.1-6.7,3.2-11,3.2c-2.7,0-5.2-0.5-7.5-1.5c-2.3-1-4.3-2.4-6-4.1c-1.7-1.7-3-3.8-4-6.1
			c-1-2.4-1.5-4.9-1.5-7.6c0-2.7,0.5-5.2,1.5-7.6c1-2.4,2.3-4.4,4-6.2c1.7-1.8,3.6-3.1,5.9-4.2c2.3-1,4.7-1.5,7.3-1.5
			c2.4,0,4.7,0.5,7,1.4s4.3,2.4,6,4.2c1.8,1.8,3.1,4,4.2,6.6c1,2.6,1.5,5.5,1.5,8.9h-31.2c0.2,1.9,0.7,3.6,1.5,5.1
			c0.8,1.5,1.8,2.8,3,3.9c1.2,1.1,2.5,1.9,3.9,2.4c1.4,0.6,2.9,0.8,4.5,0.8c2.6,0,4.9-0.6,6.7-1.8c1.8-1.2,3.3-2.9,4.3-5h6.5
			C260.6,102.9,258.4,105.9,255.4,108.1z M254.2,83.9c-0.8-1.2-1.7-2.3-2.8-3.2c-1.1-0.9-2.2-1.6-3.5-2.1c-1.3-0.5-2.6-0.7-3.9-0.7
			c-1.3,0-2.6,0.2-3.9,0.7s-2.4,1.1-3.5,2s-2,1.9-2.9,3.2s-1.5,2.7-1.8,4.2h24C255.6,86.5,255,85.2,254.2,83.9z"/>
		<path class="st0" d="M298.9,110.4v-6c-1.3,1.9-3.1,3.6-5.3,4.9c-2.3,1.3-4.8,2-7.5,2c-2.7,0-5.2-0.5-7.4-1.5
			c-2.3-1-4.2-2.4-5.9-4.2c-1.7-1.8-3-3.8-3.9-6.2c-0.9-2.4-1.4-4.9-1.4-7.6c0-2.7,0.5-5.2,1.4-7.6c0.9-2.4,2.2-4.4,3.9-6.2
			s3.6-3.1,5.9-4.2c2.3-1,4.7-1.5,7.4-1.5s5.1,0.6,7.3,1.9c2.2,1.3,3.9,2.8,5.3,4.6V56.8h6.1v53.6H298.9z M297.7,86.6
			c-0.7-1.7-1.6-3.2-2.7-4.4c-1.2-1.3-2.5-2.3-4-3c-1.5-0.7-3.1-1.1-4.9-1.1c-1.7,0-3.4,0.4-4.9,1.1c-1.5,0.7-2.9,1.7-4,3
			c-1.1,1.3-2,2.7-2.6,4.4c-0.6,1.7-1,3.5-1,5.4c0,1.9,0.3,3.6,1,5.3c0.6,1.7,1.5,3.1,2.6,4.4c1.1,1.2,2.4,2.2,4,3
			c1.5,0.7,3.2,1.1,4.9,1.1c1.7,0,3.3-0.4,4.9-1.1c1.5-0.7,2.8-1.7,4-3c1.2-1.2,2.1-2.7,2.7-4.4c0.7-1.7,1-3.5,1-5.3
			C298.7,90.1,298.4,88.3,297.7,86.6z"/>
		<path class="st0" d="M372.4,99.5c-0.9,2.4-2.2,4.4-3.9,6.2c-1.6,1.8-3.6,3.2-5.9,4.2s-4.7,1.5-7.4,1.5c-2.7,0-5.2-0.7-7.5-2
			c-2.3-1.3-4-3-5.3-4.9v6h-5.9V56.8h6.1v22.1c1.3-1.8,3.1-3.4,5.3-4.6c2.2-1.3,4.6-1.9,7.3-1.9c2.6,0,5.1,0.5,7.4,1.5
			c2.3,1,4.2,2.4,5.9,4.2c1.6,1.8,2.9,3.8,3.9,6.2c0.9,2.4,1.4,4.9,1.4,7.6C373.8,94.6,373.3,97.1,372.4,99.5z M366.7,86.6
			c-0.6-1.7-1.5-3.2-2.6-4.4c-1.1-1.3-2.4-2.3-3.9-3c-1.5-0.7-3.1-1.1-4.9-1.1c-1.7,0-3.3,0.4-4.9,1.1c-1.5,0.7-2.8,1.7-4,3
			c-1.2,1.3-2.1,2.7-2.7,4.4c-0.7,1.7-1,3.5-1,5.4c0,1.9,0.3,3.6,1,5.3c0.7,1.7,1.6,3.1,2.7,4.4s2.5,2.2,4,3
			c1.5,0.7,3.1,1.1,4.9,1.1c1.7,0,3.3-0.4,4.9-1.1c1.5-0.7,2.8-1.7,3.9-3c1.1-1.2,2-2.7,2.6-4.4c0.6-1.7,1-3.5,1-5.3
			C367.7,90.1,367.3,88.3,366.7,86.6z"/>
		<path class="st0" d="M389.8,124.9c-2.2,1.4-5.1,2-8.9,1.6v-5.6c1.2,0.1,2.2,0.1,3.1-0.1c0.9-0.2,1.7-0.5,2.3-0.9
			c0.6-0.4,1.2-1,1.7-1.7c0.5-0.7,0.9-1.6,1.3-2.7l1.9-5.2l-14.2-36.9h6.6l10.8,29.5l10.6-29.5h6.6L395,117.5
			C393.7,121,392,123.4,389.8,124.9z"/>
	</g>
</g>
</svg>
