<?xml version="1.0" encoding="UTF-8"?>
<svg width="144px" height="35px" viewBox="0 0 144 35" version="1.1" xmlns="http://www.w3.org/2000/svg" xmlns:xlink="http://www.w3.org/1999/xlink">
    <!-- Generator: Sketch 52.5 (67469) - http://www.bohemiancoding.com/sketch -->
    <title>TAIKO</title>
    <desc>Created with Sketch.</desc>
    <g id="Page-1" stroke="none" stroke-width="1" fill="none" fill-rule="evenodd">
        <g id="Gauge+Taiko_Landing-Page_banner_2" transform="translate(-895.000000, -500.000000)" fill="#1E1E1E">
            <g id="Section-_2_intro+CTA" transform="translate(128.000000, 455.000000)">
                <g id="Gauge-and-Taiko-intro">
                    <path d="M790,46 L790,52.0854573 L781.87638,52.0854573 L781.87638,79 L775.12362,79 L775.12362,52.0854573 L767,52.0854573 L767,46 L790,46 Z M813.125191,71.3313343 L799.874809,71.3313343 L797.053435,79 L790,79 L802.545038,46 L810.454962,46 L823,79 L815.896183,79 L813.125191,71.3313343 Z M812,65 L807,53 L802,65 L812,65 Z M835,46 L835,79 L829,79 L829,46 L835,46 Z M860.438306,60.0014993 L873.690608,79 L865.543278,79 L855.745856,64.8005997 L852.858195,67.8185907 L852.858195,79 L846,79 L846,46 L852.858195,46 L852.858195,58.8635682 L865.285451,46 L874,46 L860.438306,60.0014993 Z M893.5,45 C903.09517,45 911,52.9113019 911,62.5250358 C911,72.0386266 903.09517,80 893.549716,80 C883.805398,80 876,72.1387697 876,62.2746781 C876,52.9613734 884.053977,45 893.5,45 Z M892.949309,51 C886.815668,51 882,55.9487751 882,62.1714922 C882,68.0512249 887.018433,73 893,73 C899.032258,73 904,68.0512249 904,62.0244989 C904,55.8507795 899.082949,51 892.949309,51 Z" id="TAIKO"></path>
                </g>
            </g>
        </g>
    </g>
</svg>