<?xml version="1.0" encoding="UTF-8"?>
<svg width="145px" height="34px" viewBox="0 0 145 34" version="1.1" xmlns="http://www.w3.org/2000/svg" xmlns:xlink="http://www.w3.org/1999/xlink">
    <!-- Generator: Sketch 52.4 (67378) - http://www.bohemiancoding.com/sketch -->
    <title>TAIKO</title>
    <desc>Created with Sketch.</desc>
    <g id="Page-1" stroke="none" stroke-width="1" fill="none" fill-rule="evenodd">
        <g id="Gauge+Taiko_Landing-Page_banner_2" transform="translate(-895.000000, -505.000000)" fill="#1E1E1E">
            <path d="M916.717,506.651 L916.717,512.432 L909.197,512.432 L909.197,538 L902.946,538 L902.946,512.432 L895.426,512.432 L895.426,506.651 L916.717,506.651 Z M940.611,530.715 L928.25,530.715 L925.618,538 L919.038,538 L930.741,506.651 L938.12,506.651 L949.823,538 L943.196,538 L940.611,530.715 Z M938.543,524.887 L934.407,513.325 L930.271,524.887 L938.543,524.887 Z M963.941,506.651 L963.941,538 L957.69,538 L957.69,506.651 L963.941,506.651 Z M988.399,519.952 L1000.478,538 L993.052,538 L984.122,524.511 L981.49,527.378 L981.49,538 L975.239,538 L975.239,506.651 L981.49,506.651 L981.49,518.871 L992.817,506.651 L1000.76,506.651 L988.399,519.952 Z M1023.385,505.899 C1032.456,505.899 1039.929,513.325 1039.929,522.349 C1039.929,531.279 1032.456,538.752 1023.432,538.752 C1014.22,538.752 1006.841,531.373 1006.841,522.114 C1006.841,513.372 1014.455,505.899 1023.385,505.899 Z M1023.338,511.774 C1017.651,511.774 1013.186,516.521 1013.186,522.49 C1013.186,528.13 1017.839,532.877 1023.385,532.877 C1028.978,532.877 1033.584,528.13 1033.584,522.349 C1033.584,516.427 1029.025,511.774 1023.338,511.774 Z" id="TAIKO"></path>
        </g>
    </g>
</svg>