<?xml version="1.0" encoding="UTF-8" standalone="no"?>
<svg width="16px" height="12px" viewBox="0 0 16 12" version="1.1" xmlns="http://www.w3.org/2000/svg" xmlns:xlink="http://www.w3.org/1999/xlink">
    <!-- Generator: Sketch 50.2 (55047) - http://www.bohemiancoding.com/sketch -->
    <title>ion-social-markdown - Ionicons</title>
    <desc>Created with Sketch.</desc>
    <defs></defs>
    <g id="Home-page-design" stroke="none" stroke-width="1" fill="none" fill-rule="evenodd">
        <path d="M14.625,0.625 C14.9531266,0.625 15.2226552,0.730467695 15.4335938,0.94140625 C15.6445323,1.1523448 15.75,1.42187336 15.75,1.75 L15.75,10.75 C15.75,11.0781266 15.6445323,11.3476552 15.4335938,11.5585938 C15.2226552,11.7695323 14.9531266,11.875 14.625,11.875 L1.125,11.875 C0.796873359,11.875 0.527344805,11.7695323 0.31640625,11.5585938 C0.105467695,11.3476552 0,11.0781266 0,10.75 L0,1.75 C0,1.42187336 0.105467695,1.1523448 0.31640625,0.94140625 C0.527344805,0.730467695 0.796873359,0.625 1.125,0.625 L14.625,0.625 Z M8.859375,9.625 L8.859375,2.875 L6.890625,2.875 L5.4140625,5.265625 L3.9375,2.875 L1.96875,2.875 L1.96875,9.625 L3.9375,9.625 L3.9375,6.25 L5.4140625,8.1484375 L6.890625,6.25 L6.890625,9.625 L8.859375,9.625 Z M11.8125,9.625 L14.2734375,6.25 L12.796875,6.25 L12.796875,2.875 L10.828125,2.875 L10.828125,6.25 L9.3515625,6.25 L11.8125,9.625 Z" id="ion-social-markdown---Ionicons" fill="#1A1C19"></path>
    </g>
</svg>