<?xml version="1.0" encoding="UTF-8" standalone="no"?>
<svg width="53px" height="61px" viewBox="0 0 53 61" version="1.1" xmlns="http://www.w3.org/2000/svg" xmlns:xlink="http://www.w3.org/1999/xlink">
    <!-- Generator: Sketch 50.2 (55047) - http://www.bohemiancoding.com/sketch -->
    <title>Group 5</title>
    <desc>Created with Sketch.</desc>
    <defs></defs>
    <g id="Final-design---desktop" stroke="none" stroke-width="1" fill="none" fill-rule="evenodd">
        <g id="FINAL---home-option2b-Copy-2" transform="translate(-194.000000, -2918.000000)">
            <g id="Group-5" transform="translate(195.000000, 2918.000000)">
                <g id="Group-3" transform="translate(0.000000, 24.000000)">
                    <path d="M14,20 L14,32 C14,32.5522847 13.5522847,33 13,33 L8,33 C7.44771525,33 7,32.5522847 7,32 L7,26 L7,20 C7,19.4477153 7.44771525,19 8,19 L13,19 C13.5522847,19 14,19.4477153 14,20 Z" id="Path" fill="#1A1C19"></path>
                    <path d="M25,7 L25,32 C25,32.5522847 24.5522847,33 24,33 L19,33 C18.4477153,33 18,32.5522847 18,32 L18,7 C18,6.44771525 18.4477153,6 19,6 L24,6 C24.5522847,6 25,6.44771525 25,7 Z" id="Path" fill="#1A1C19"></path>
                    <path d="M35,13 L35,32 C35,32.5522847 34.5522847,33 34,33 L29,33 C28.4477153,33 28,32.5522847 28,32 L28,13 C28,12.4477153 28.4477153,12 29,12 L34,12 C34.5522847,12 35,12.4477153 35,13 Z" id="Path" fill="#FFCC00"></path>
                    <path d="M45,3 L45,32 C45,32.5522847 44.5522847,33 44,33 L39,33 C38.4477153,33 38,32.5522847 38,32 L38,3 C38,2.44771525 38.4477153,2 39,2 L44,2 C44.5522847,2 45,2.44771525 45,3 Z" id="Path" fill="#1A1C19"></path>
                    <polyline id="Path-7" stroke="#1A1C19" stroke-width="2" stroke-linecap="round" points="0 0 0 36 51 36"></polyline>
                </g>
                <circle id="Oval-5" fill="#FFCC00" cx="30" cy="14" r="14"></circle>
            </g>
        </g>
    </g>
</svg>