<?xml version="1.0" encoding="UTF-8" standalone="no"?>
<svg width="12px" height="12px" viewBox="0 0 12 12" version="1.1" xmlns="http://www.w3.org/2000/svg" xmlns:xlink="http://www.w3.org/1999/xlink">
    <!-- Generator: Sketch 50.2 (55047) - http://www.bohemiancoding.com/sketch -->
    <title></title>
    <desc>Created with Sketch.</desc>
    <defs></defs>
    <g id="Home-page-design" stroke="none" stroke-width="1" fill="none" fill-rule="evenodd">
        <path d="M5.60156918,9.89843619 L9.14844841,6.35155696 C9.34376114,6.15624423 9.34376114,5.84374385 9.14844841,5.64843112 L5.60156918,2.10155189 C5.40625644,1.90623916 5.09375607,1.90623916 4.89844334,2.10155189 L4.10156739,2.89842784 C3.90625466,3.09374058 3.90625466,3.40624095 4.10156739,3.60155368 L6.50000775,5.99999404 L4.10156739,8.3984344 C3.90625466,8.59374713 3.90625466,8.9062475 4.10156739,9.10156024 L4.89844334,9.89843619 C5.09375607,10.0937489 5.40625644,10.0937489 5.60156918,9.89843619 Z M12.0000143,5.99999404 C12.0000143,9.31249799 9.3125111,12.0000012 6.00000715,12.0000012 C2.6875032,12.0000012 0,9.31249799 0,5.99999404 C0,2.68749009 2.6875032,-1.31130219e-05 6.00000715,-1.31130219e-05 C9.3125111,-1.31130219e-05 12.0000143,2.68749009 12.0000143,5.99999404 Z" id="" fill="#1A1C19"></path>
    </g>
</svg>