<?xml version="1.0" encoding="UTF-8" standalone="no"?>
<svg width="18px" height="18px" viewBox="0 0 18 18" version="1.1" xmlns="http://www.w3.org/2000/svg" xmlns:xlink="http://www.w3.org/1999/xlink">
    <!-- Generator: Sketch 50.2 (55047) - http://www.bohemiancoding.com/sketch -->
    <title></title>
    <desc>Created with Sketch.</desc>
    <defs></defs>
    <g id="Home-page-design" stroke="none" stroke-width="1" fill="none" fill-rule="evenodd">
        <path d="M8.40234435,14.8476437 L13.7226568,9.52733123 C14.0156256,9.23436248 14.0156256,8.76561248 13.7226568,8.47264373 L8.40234435,3.15233123 C8.1093756,2.85936248 7.6406256,2.85936248 7.34765685,3.15233123 L6.15234435,4.34764373 C5.8593756,4.64061248 5.8593756,5.10936248 6.15234435,5.40233123 L9.7500006,8.99998748 L6.15234435,12.5976437 C5.8593756,12.8906125 5.8593756,13.3593625 6.15234435,13.6523312 L7.34765685,14.8476437 C7.6406256,15.1406125 8.1093756,15.1406125 8.40234435,14.8476437 Z M18.0000006,8.99998748 C18.0000006,13.9687375 13.9687506,17.9999875 9.0000006,17.9999875 C4.0312506,17.9999875 5.96046448e-07,13.9687375 5.96046448e-07,8.99998748 C5.96046448e-07,4.03123748 4.0312506,-1.25169754e-05 9.0000006,-1.25169754e-05 C13.9687506,-1.25169754e-05 18.0000006,4.03123748 18.0000006,8.99998748 Z" id="" fill="#1A1C19"></path>
    </g>
</svg>