<?xml version="1.0" encoding="UTF-8"?>
<svg width="296px" height="148px" viewBox="0 0 296 148" version="1.1" xmlns="http://www.w3.org/2000/svg" xmlns:xlink="http://www.w3.org/1999/xlink">
    <!-- Generator: Sketch 49 (51002) - http://www.bohemiancoding.com/sketch -->
    <title>rocket icon</title>
    <desc>Created with Sketch.</desc>
    <defs></defs>
    <g id="Home-page-design" stroke="none" stroke-width="1" fill="none" fill-rule="evenodd">
        <g id="Home-Page---Desktop" transform="translate(-535.000000, -3514.000000)">
            <g id="Group-2" transform="translate(0.000000, 3262.000000)">
                <g id="rocket-icon" transform="translate(535.000000, 252.000000)">
                    <path d="M287,145.743141 C287,69.6697048 224.991438,8 148.5,8 C72.0085622,8 10,69.6697048 10,145.743141 C10,148.743141 287,145.743141 287,145.743141 Z" id="Oval-5" fill="#FFFFFF"></path>
                    <path d="M296,148 C295.942803,144.091746 295.857796,141.171364 295.744979,139.238853 C291.211318,61.5790097 226.796933,0 148,0 C69.5275402,0 5.31942251,61.0729083 0.31407093,138.280301 C0.17520359,140.422325 0.07051328,143.662225 0,148 L296,148 Z" id="Oval-6" fill="#FFFFFF"></path>
                    <g id="launch-icon-copy" transform="translate(115.000000, 20.000000)" stroke-width="2">
                        <g id="Group-18">
                            <g id="Group-13">
                                <g id="Group-10">
                                    <g id="Group-9" stroke="#000000">
                                        <g id="Page-1">
                                            <path d="M55.6875,64.3074529 L55.6875,88.5336845 L64.0661965,94.7111204 C64.8017987,95.253458 65.9690628,94.823311 65.9690628,94.0104252 L65.9690628,75.143283 C65.9690628,74.2872088 65.5994543,73.460175 64.9253028,72.8086253 C62.3537072,70.3233044 55.904084,64.1289903 55.6875,64.3074529 Z" id="Stroke-5" fill="#FFFFFF"></path>
                                            <path d="M33.7143292,1.14852113 L33.5452607,1.02069328 L33.3758908,1.14852113 C9.17498674,21.2666388 11.1115895,39.586231 11.1115895,39.586231 L11.1115895,88.2352761 L33.7143292,88.2352761 L55.9786306,88.2352761 L55.9786306,39.586231 C55.9786306,39.586231 57.9155347,21.2666388 33.7143292,1.14852113 Z" id="Stroke-1" fill="#FFCC00"></path>
                                            <path d="M11.0747283,64.3074529 L11.0747283,88.5336845 L2.69182415,94.7111204 C1.95618032,95.253458 0.788372096,94.823311 0.788372096,94.0104252 L0.788372096,75.143283 C0.788372096,74.2872088 1.15815292,73.460175 1.83261867,72.8086253 C4.40541319,70.3233044 10.8580433,64.1289903 11.0747283,64.3074529 Z" id="Stroke-7" fill="#FFFFFF"></path>
                                            <path d="M33.975661,19.7768859 C39.2562637,19.7768859 43.5239298,17.9696731 46.921875,15.0688497 C43.7385051,10.6829893 39.4824469,5.45740847 33.6849949,0.638174487 L33.515625,0.510346639 L33.3462551,0.638174487 C27.5491045,5.45740847 23.7146199,10.6829893 20.53125,15.0688497 C23.9294966,17.9696731 28.6950582,19.7768859 33.975661,19.7768859 Z" id="Stroke-9" fill="#FFFFFF"></path>
                                            <path d="M44.9877717,47.5807107 C44.9877717,53.8620988 39.8487904,58.9541501 33.5095109,58.9541501 C27.1702314,58.9541501 22.03125,53.8620988 22.03125,47.5807107 C22.03125,41.2993226 27.1702314,36.2072713 33.5095109,36.2072713 C39.8487904,36.2072713 44.9877717,41.2993226 44.9877717,47.5807107 Z" id="Stroke-11" fill="#FFFFFF"></path>
                                            <path d="M19.0136437,88.7638618 L48.5478903,88.7638618 L50.6297533,93.3934638 C51.0815067,94.3977191 50.1792054,95.465516 48.8787944,95.465516 L18.6827396,95.465516 C17.3823286,95.465516 16.4800273,94.3977191 16.9317807,93.3934638 L19.0136437,88.7638618 Z" id="Stroke-13" fill="#FFCC00"></path>
                                        </g>
                                    </g>
                                    <g id="Group-16" transform="translate(26.857337, 101.959968)" stroke="#1A1C19" stroke-linecap="round">
                                        <path d="M0.717391304,0.299301036 L0.717391304,11.0907534" id="Line-8"></path>
                                        <path d="M7.89130435,0.318652396 L7.89130435,18.481839" id="Line-8-Copy"></path>
                                        <path d="M15.0652174,0.299301036 L15.0652174,11.0907534" id="Line-8-Copy-2"></path>
                                    </g>
                                </g>
                                <g id="Group-12" transform="translate(25.422554, 42.249411)" stroke="#1A1C19" stroke-linecap="round">
                                    <g id="Group-19">
                                        <polyline id="Path-2" points="4.0511509 2.84335984 0.721195683 5.78346823 3.83199687 8.53007953"></polyline>
                                        <polyline id="Path-2-Copy" transform="translate(14.033232, 5.686720) scale(-1, 1) translate(-14.033232, -5.686720) " points="15.6982097 2.84335984 12.3682545 5.78346823 15.4790557 8.53007953"></polyline>
                                        <path d="M10.1278772,0.710839961 L6.07672634,10.6625994" id="Path-3"></path>
                                    </g>
                                </g>
                            </g>
                        </g>
                    </g>
                </g>
            </g>
        </g>
    </g>
</svg>