<?xml version="1.0" encoding="UTF-8" standalone="no"?>
<svg width="11px" height="18px" viewBox="0 0 11 18" version="1.1" xmlns="http://www.w3.org/2000/svg" xmlns:xlink="http://www.w3.org/1999/xlink">
    <!-- Generator: Sketch 50.2 (55047) - http://www.bohemiancoding.com/sketch -->
    <title>angle-down - FontAwesome</title>
    <desc>Created with Sketch.</desc>
    <defs></defs>
    <g id="get-started-page-designs" stroke="none" stroke-width="1" fill="none" fill-rule="evenodd">
        <g id="Tablet-Get-started" transform="translate(-638.000000, -1303.000000)" fill="#1E1E1E">
            <path d="M652.196451,1308.21427 C652.196451,1308.35713 652.125023,1308.51784 652.01788,1308.62498 L643.696441,1316.94642 C643.589298,1317.05356 643.428584,1317.12499 643.285727,1317.12499 C643.142869,1317.12499 642.982155,1317.05356 642.875012,1316.94642 L634.553573,1308.62498 C634.44643,1308.51784 634.375002,1308.35713 634.375002,1308.21427 C634.375002,1308.07141 634.44643,1307.9107 634.553573,1307.80355 L635.446431,1306.9107 C635.553574,1306.80355 635.696432,1306.73212 635.857146,1306.73212 C636.000004,1306.73212 636.160718,1306.80355 636.267861,1306.9107 L643.285727,1313.92856 L650.303592,1306.9107 C650.410735,1306.80355 650.57145,1306.73212 650.714307,1306.73212 C650.857164,1306.73212 651.017879,1306.80355 651.125022,1306.9107 L652.01788,1307.80355 C652.125023,1307.9107 652.196451,1308.07141 652.196451,1308.21427 Z" id="angle-down---FontAwesome" transform="translate(643.285727, 1311.928559) rotate(-90.000000) translate(-643.285727, -1311.928559) "></path>
        </g>
    </g>
</svg>