<?xml version="1.0" encoding="UTF-8" standalone="no"?>
<svg width="60px" height="62px" viewBox="0 0 60 62" version="1.1" xmlns="http://www.w3.org/2000/svg" xmlns:xlink="http://www.w3.org/1999/xlink">
    <!-- Generator: Sketch 50.2 (55047) - http://www.bohemiancoding.com/sketch -->
    <title>reports icon copy</title>
    <desc>Created with Sketch.</desc>
    <defs></defs>
    <g id="Final-design---desktop" stroke="none" stroke-width="1" fill="none" fill-rule="evenodd">
        <g id="FINAL---home-option2b-Copy-2" transform="translate(-195.000000, -2616.000000)">
            <g id="reports-icon-copy" transform="translate(195.000000, 2616.000000)">
                <rect id="Rectangle-4" stroke="#1A1C19" stroke-width="2" x="1" y="1" width="58" height="56.0952381" rx="3"></rect>
                <path d="M0,9.59000015 L60,9.59000015 L60,58 C60,59.6568542 58.6568542,61 57,61 L3,61 C1.34314575,61 2.02906125e-16,59.6568542 0,58 L0,9.59000015 Z" id="Rectangle-4" fill="#FFCC00"></path>
                <path d="M1,10.6825397 L1,58.0925395 C1,59.197109 1.8954305,60.0925395 3,60.0925395 L57,60.0925395 C58.1045695,60.0925395 59,59.197109 59,58.0925395 L59,10.6825397 L1,10.6825397 Z" id="Rectangle-4" stroke="#1A1C19" stroke-width="2"></path>
                <g id="Group-4" transform="translate(10.000000, 21.396825)" fill="#1A1C19">
                    <rect id="Rectangle-8" x="0" y="1.42108547e-13" width="40" height="1.93650794" rx="0.968253968"></rect>
                    <rect id="Rectangle-8" x="12" y="12.5238095" width="28" height="1.93650794" rx="0.968253968"></rect>
                    <rect id="Rectangle-8" x="12" y="25.1428571" width="28" height="1.93650794" rx="0.968253968"></rect>
                    <ellipse id="Oval-2-Copy" cx="2.5" cy="13.0079365" rx="2.5" ry="2.42063492"></ellipse>
                    <ellipse id="Oval-2-Copy-2" cx="2.5" cy="25.6269841" rx="2.5" ry="2.42063492"></ellipse>
                </g>
            </g>
        </g>
    </g>
</svg>