<?xml version="1.0" encoding="UTF-8" standalone="no"?>
<svg width="13px" height="12px" viewBox="0 0 13 12" version="1.1" xmlns="http://www.w3.org/2000/svg" xmlns:xlink="http://www.w3.org/1999/xlink">
    <!-- Generator: Sketch 50.2 (55047) - http://www.bohemiancoding.com/sketch -->
    <title>download - FontAwesome</title>
    <desc>Created with Sketch.</desc>
    <defs></defs>
    <g id="get-started-page-designs" stroke="none" stroke-width="1" fill="none" fill-rule="evenodd">
        <path d="M10.0000119,10.4999982 C10.0000119,10.2265604 9.77344915,9.99999762 9.50001132,9.99999762 C9.2265735,9.99999762 9.00001073,10.2265604 9.00001073,10.4999982 C9.00001073,10.773436 9.2265735,10.9999988 9.50001132,10.9999988 C9.77344915,10.9999988 10.0000119,10.773436 10.0000119,10.4999982 Z M12.0000143,10.4999982 C12.0000143,10.2265604 11.7734515,9.99999762 11.5000137,9.99999762 C11.2265759,9.99999762 11.0000131,10.2265604 11.0000131,10.4999982 C11.0000131,10.773436 11.2265759,10.9999988 11.5000137,10.9999988 C11.7734515,10.9999988 12.0000143,10.773436 12.0000143,10.4999982 Z M13.0000155,8.74999613 L13.0000155,11.2499991 C13.0000155,11.6640621 12.6640776,12 12.2500146,12 L0.750000894,12 C0.3359379,12 0,11.6640621 0,11.2499991 L0,8.74999613 C0,8.33593313 0.3359379,7.99999523 0.750000894,7.99999523 L4.38281772,7.99999523 L5.43750648,9.0624965 C5.72656933,9.34374683 6.10156977,9.49999702 6.50000775,9.49999702 C6.89844572,9.49999702 7.27344617,9.34374683 7.56250902,9.0624965 L8.62501028,7.99999523 L12.2500146,7.99999523 C12.6640776,7.99999523 13.0000155,8.33593313 13.0000155,8.74999613 Z M10.46095,4.30467833 C10.5390751,4.49217855 10.5000125,4.71092881 10.3515748,4.85155398 L6.85157067,8.35155815 C6.75782056,8.45312077 6.6250079,8.49999583 6.50000775,8.49999583 C6.3750076,8.49999583 6.24219494,8.45312077 6.14844483,8.35155815 L2.64844066,4.85155398 C2.50000298,4.71092881 2.46094043,4.49217855 2.53906553,4.30467833 C2.61719062,4.12499061 2.79687833,3.99999046 3.00000358,3.99999046 L5.00000596,3.99999046 L5.00000596,0.499986291 C5.00000596,0.226548465 5.22656873,-1.43051147e-05 5.50000656,-1.43051147e-05 L7.50000894,-1.43051147e-05 C7.77344677,-1.43051147e-05 8.00000954,0.226548465 8.00000954,0.499986291 L8.00000954,3.99999046 L10.0000119,3.99999046 C10.2031372,3.99999046 10.3828249,4.12499061 10.46095,4.30467833 Z" id="download---FontAwesome" fill="#000000"></path>
    </g>
</svg>