<?xml version="1.0" encoding="utf-8"?>
<!-- Generator: Adobe Illustrator 19.1.0, SVG Export Plug-In . SVG Version: 6.00 Build 0)  -->
<svg version="1.1" id="Layer_1" xmlns="http://www.w3.org/2000/svg" xmlns:xlink="http://www.w3.org/1999/xlink" x="0px" y="0px"
	 viewBox="-277 368 45 65" style="enable-background:new -277 368 45 65;" xml:space="preserve">
<style type="text/css">
	.st0{fill:#D33833;}
	.st1{fill:#EF3D3A;}
	.st2{fill:#231F20;}
	.st3{fill:#F0D6B7;}
	.st4{fill:#335061;}
	.st5{fill:#6D6B6D;}
	.st6{fill:#DCD9D8;}
	.st7{fill:#F7E4CD;}
	.st8{fill:#49728B;}
	.st9{fill:#FFFFFF;}
	.st10{fill:none;stroke:#D33833;stroke-width:2;}
	.st11{fill:#81B0C4;}
	.st12{fill:#1D1919;}
</style>
<g id="Home-page-design">
	<g id="Home-Page---Desktop" transform="translate(-995.000000, -2375.000000)">
		<g id="logo-section" transform="translate(0.000000, 2332.000000)">
			<g id="logos" transform="translate(131.000000, 42.567568)">
				<g id="jenkins" transform="translate(864.000000, 0.000000)">
					<g id="Page-1">
						<path id="Fill-1" class="st0" d="M-232.7,400c0,12.5-9.8,22.6-21.8,22.6s-21.8-10.1-21.8-22.6s9.8-22.6,21.8-22.6
							S-232.7,387.6-232.7,400"/>
						<path id="Fill-3" class="st1" d="M-275.4,405.6c0,0-1.6-23.6,19.9-24.3l-1.5-2.5l-11.6,4l-3.4,3.9l-2.9,5.6l-1.7,6.6l0.5,4.4"
							/>
						<path id="Fill-5" class="st2" d="M-270.4,416.6c-4.1-4.2-6.6-10-6.6-16.5c0-6.4,2.5-12.3,6.6-16.5c4.1-4.2,9.7-6.8,15.9-6.8
							c6.2,0,11.8,2.6,15.9,6.8c4.1,4.2,6.6,10,6.6,16.5c0,6.4-2.5,12.3-6.6,16.5c-4.1,4.2-9.7,6.8-15.9,6.8
							C-260.7,423.4-266.3,420.8-270.4,416.6 M-269.4,384.6c-3.8,4-6.2,9.5-6.2,15.5c0,6.1,2.4,11.5,6.2,15.5
							c3.8,4,9.1,6.4,14.9,6.4c5.8,0,11.1-2.4,14.9-6.4c3.8-4,6.2-9.5,6.2-15.5c0-6.1-2.4-11.5-6.2-15.5c-3.8-4-9.1-6.4-14.9-6.4
							C-260.3,378.2-265.6,380.6-269.4,384.6"/>
						<polyline id="Fill-7" class="st3" points="-245.3,400.2 -248.6,400.7 -253.1,401.2 -256,401.3 -258.9,401.2 -261,400.5 
							-262.9,398.4 -264.4,394.1 -264.8,393.2 -266.8,392.5 -267.9,390.6 -268.8,387.8 -267.8,385.3 -265.7,384.6 -263.9,385.4 
							-263.1,387.3 -262.1,387.1 -261.8,386.7 -262.1,384.8 -262.2,382.3 -261.7,378.9 -261.7,377 -260.2,374.6 -257.5,372.6 
							-252.9,370.6 -247.7,371.4 -243.2,374.6 -241.2,378 -239.8,380.5 -239.5,386.5 -240.5,391.7 -242.3,396.4 -244.1,398.8 						
							"/>
						<polygon id="Fill-9" class="st4" points="-248.1,414.7 -260,415.3 -260,417.3 -259,424.4 -259.5,424.9 -267.8,422.1 
							-268.4,421.1 -269.3,411.5 -271.2,405.8 -271.6,404.5 -264.9,399.8 -262.9,399 -261,401.3 -259.4,402.7 -257.6,403.3 
							-256.8,403.5 -255.8,407.9 -255,408.8 -253.1,408.2 -254.5,410.8 -247.2,414.2 						"/>
						<polygon id="Fill-11" class="st5" points="-267.8,385.3 -265.7,384.6 -263.9,385.4 -263.1,387.3 -262.1,387.1 -261.9,386.1 
							-262.4,384.2 -261.9,379.5 -262.3,377 -260.8,375.2 -257.5,372.6 -258.4,371.4 -263,373.6 -264.9,375.1 -266,377.5 
							-267.7,379.8 -268.2,382.5 						"/>
						<path id="Fill-13" class="st6" d="M-264.4,377.4c0,0,1.2-3.1,6.2-4.6c5-1.5,0.2-1.1,0.2-1.1l-5.4,2.1l-2.1,2.1l-0.9,1.7
							L-264.4,377.4"/>
						<path id="Fill-15" class="st6" d="M-266.9,384.8c0,0-1.7-5.9,4.9-6.7l-0.2-1l-4.6,1.1l-1.3,4.4l0.3,2.9L-266.9,384.8"/>
						<path id="Fill-17" class="st7" d="M-264.3,392.6l1.1-1.1c0,0,0.5,0.1,0.6,0.6c0.1,0.6,0.3,5.9,3.9,8.8
							c0.3,0.3-2.7-0.4-2.7-0.4l-2.6-4.2"/>
						<path id="Fill-19" class="st7" d="M-249,391c0,0,0.2-2.6,0.9-2.4c0.7,0.2,0.7,0.9,0.7,0.9S-249.1,390.6-249,391"/>
						<path id="Fill-21" class="st7" d="M-242.1,381.6c0,0-1.4,0.3-1.5,1.5c-0.1,1.2,1.5,0.3,1.7,0.2"/>
						<path id="Fill-23" class="st7" d="M-252.1,381.7c0,0-1.8,0.3-1.8,1.4c0,1.2,2.1,1.1,2.7,0.6"/>
						<path id="Fill-25" class="st7" d="M-263.4,387.2c0,0-3.2-1.9-3.5-0.1c-0.4,1.9-1.1,3.2,0.5,5.2l-1.1-0.3l-1-2.6l-0.3-2.5
							l1.9-2l2.2,0.2l1.2,1L-263.4,387.2"/>
						<path id="Fill-27" class="st7" d="M-261.9,381.9c0,0,1.4-7.4,8.6-8.8c5.9-1.2,9,0.3,10.1,1.6c0,0-5.2-6.3-10.2-4.4
							c-5,1.9-8.6,5.5-8.6,7.8C-261.9,381.9-261.9,381.9-261.9,381.9"/>
						<path id="Fill-29" class="st7" d="M-242.7,375.5c0,0-2.4-0.1-2.5,2.1c0,0,0,0.3,0.2,0.7c0,0,1.9-2.2,3.1-1"/>
						<path id="Fill-31" class="st7" d="M-253.2,378.5c0,0-0.4-3.4-3.2-1.4c-1.8,1.3-1.7,3-1.3,3.4c0.3,0.3,0.2,1,0.5,0.5
							c0.3-0.5,0.2-2,1.1-2.4C-255.3,378.2-253.8,377.7-253.2,378.5"/>
						<path id="Fill-33" class="st8" d="M-261,401.3l-7.8,3.5c0,0,3.2,13.1,1.6,17.1l-1.2-0.4l-0.1-5l-2.2-9.4l-0.9-2.6l8.1-5.6
							L-261,401.3"/>
						<path id="Fill-35" class="st8" d="M-260.2,408.5l1.1,1.4v5.1h-1.3c0,0-0.2-3.5-0.2-4c0-0.4,0.2-1.9,0.2-1.9"/>
						<polyline id="Fill-37" class="st8" points="-260.2,415.7 -263.9,415.8 -262.9,416.6 -260.2,417 						"/>
						<polygon id="Fill-39" class="st4" points="-247.4,414.8 -244.3,414.7 -243.6,422.5 -246.7,422.9 						"/>
						<path id="Fill-41" class="st4" d="M-246.6,414.8l4.7-0.3c0,0,1.9-4.9,1.9-5.1c0-0.3,1.7-7.1,1.7-7.1l-3.7-4l-0.7-0.7l-2,2v7.8
							L-246.6,414.8"/>
						<path id="Fill-43" class="st8" d="M-244.5,414.2l-2.9,0.6l0.4,2.4c1.1,0.5,2.9-0.8,2.9-0.8"/>
						<polygon id="Fill-45" class="st8" points="-244.4,399.5 -238.6,403.9 -238.4,401.9 -242.8,397.7 						"/>
						<polygon id="Fill-47" class="st9" points="-257.3,431.4 -259,424.4 -259.9,419.1 -260,415.3 -252.2,414.8 -247.4,414.8 
							-247.8,423.7 -247.1,430.5 -247.2,431.8 -253.5,432.3 						"/>
						<path id="Fill-49" class="st6" d="M-248.5,414.7c0,0-0.4,8.8,0.8,15c0,0-2.5,1.6-6.2,2l7-0.3l0.9-0.4l-1-13.8l-0.2-2.9"/>
						<polyline id="Fill-51" class="st9" points="-243.4,421.8 -240.2,420.9 -234,420.6 -233.1,417.7 -234.8,412.7 -236.7,412.5 
							-239.4,413.3 -241.9,414.6 -243.3,414.3 -244.3,414.7 						"/>
						<path id="Fill-53" class="st6" d="M-243.5,420.1c0,0,2.2-1,2.5-0.9l-0.9-4.6l1.1-0.4c0,0,0.7,4.4,0.7,4.9c0,0,4.7,0.3,5.1,0.3
							c0,0,1-1.9,0.7-4l0.9,2.7l0.1,1.5l-1.3,2l-1.5,0.3l-2.5-0.1l-0.8-1.1l-2.9,0.4l-0.9,0.3"/>
						<path id="Fill-55" class="st9" d="M-246.8,414.2l-1.8-4.7l-1.9-2.8c0,0,0.4-1.2,1-1.2h1.9l1.8,0.7l-0.2,3.1L-246.8,414.2"/>
						<path id="Fill-57" class="st6" d="M-246.4,412.6c0,0-2.3-4.5-2.3-5.2c0,0,0.4-1,1-0.8c0.6,0.3,1.8,0.9,1.8,0.9v-1.6l-2.8-0.6
							l-1.9,0.3l3.2,7.8l0.7,0.1"/>
						<polyline id="Fill-59" class="st9" points="-256.6,401.4 -258.9,401.2 -261,400.5 -261,401.3 -260,402.4 -256.6,404 						"/>
						<path id="Fill-61" class="st6" d="M-260.3,401.7c0,0,2.6,1.1,3.4,0.8l0.1,1l-2.3-0.5l-1.4-1L-260.3,401.7"/>
						<path id="Fill-63" class="st0" d="M-243.4,405.8c-1.4,0-2.7-0.2-3.8-0.5c0.1-0.5-0.1-0.9,0-1.3c0.3-0.2,0.8-0.2,1.3-0.3
							c-0.4-0.2-1-0.3-1.4-0.2c0-0.3-0.2-0.5-0.2-0.8c0.8-0.3,2.7-2.2,3.7-1.5c0.5,0.3,0.7,2,0.8,2.8
							C-243.1,404.7-243.2,405.4-243.4,405.8"/>
						<path id="Stroke-65" class="st10" d="M-243.4,405.8c-1.4,0-2.7-0.2-3.8-0.5c0.1-0.5-0.1-0.9,0-1.3c0.3-0.2,0.8-0.2,1.3-0.3
							c-0.4-0.2-1-0.3-1.4-0.2c0-0.3-0.2-0.5-0.2-0.8c0.8-0.3,2.7-2.2,3.7-1.5c0.5,0.3,0.7,2,0.8,2.8
							C-243.1,404.7-243.2,405.4-243.4,405.8z"/>
						<path id="Fill-67" class="st0" d="M-250.2,403.4c0,0.1,0,0.2,0,0.3c-0.4,0.3-1.2,0.3-1.6,0.5c0.7,0,1.3,0.2,1.8,0.5
							c0,0.3,0,0.5,0,0.8c-0.8,0.6-1.5,1.4-2.5,1.9c-0.4,0.2-2,0.9-2.5,0.8c-0.3-0.1-0.3-0.4-0.4-0.7c-0.2-0.7-0.8-1.8-0.8-2.8
							c-0.1-1.3-0.2-3.5,1.2-3.2c1.1,0.2,2.4,0.7,3.3,1.2C-251.3,403-251,403.4-250.2,403.4"/>
						<path id="Stroke-69" class="st10" d="M-250.2,403.4c0,0.1,0,0.2,0,0.3c-0.4,0.3-1.2,0.3-1.6,0.5c0.7,0,1.3,0.2,1.8,0.5
							c0,0.3,0,0.5,0,0.8c-0.8,0.6-1.5,1.4-2.5,1.9c-0.4,0.2-2,0.9-2.5,0.8c-0.3-0.1-0.3-0.4-0.4-0.7c-0.2-0.7-0.8-1.8-0.8-2.8
							c-0.1-1.3-0.2-3.5,1.2-3.2c1.1,0.2,2.4,0.7,3.3,1.2C-251.3,403-251,403.4-250.2,403.4z"/>
						<path id="Fill-71" class="st0" d="M-249.4,405c-0.1-0.7-0.3-0.9-0.2-1.5C-247.7,402.2-247.4,405.6-249.4,405"/>
						<path id="Stroke-73" class="st10" d="M-249.4,405c-0.1-0.7-0.3-0.9-0.2-1.5C-247.7,402.2-247.4,405.6-249.4,405z"/>
						<path id="Fill-75" class="st1" d="M-246.7,405.6c0,0-0.6-0.8-0.2-1.1c0.4-0.3,0.8,0,1.1-0.4c0.2-0.4,0-0.7,0.1-1.2
							c0.1-0.5,0.5-0.6,0.9-0.7c0.4-0.1,1.6-0.3,1.7,0.2l-0.5-1.5l-1-0.3l-3.2,1.9l-0.2,0.9v1.9"/>
						<path id="Fill-77" class="st1" d="M-255.4,408.3c-0.1-1.3-0.2-2.6-0.3-3.9c-0.2-2,0.5-1.6,2.1-1.6c0.3,0,1.6,0.3,1.7,0.5
							c0.5,0.9-0.8,0.7,0.5,1.4c1.1,0.6,3-0.4,2.6-1.7c-0.2-0.3-1.3-0.1-1.6-0.3l-1.9-1c-0.8-0.4-2.7-1.1-3.6-0.5
							c-2.2,1.5,0.1,5.4,0.9,7"/>
						<path id="Fill-79" class="st2" d="M-253.2,378.5c-2.3-0.5-3.4,1-4.1,2.5c-0.6-0.2-0.4-1-0.2-1.4c0.4-1.1,2-2.6,3.4-2.4
							C-253.6,377.2-252.8,377.8-253.2,378.5"/>
						<path id="Fill-81" class="st2" d="M-242.2,381.1L-242.2,381.1c0.6,1.1,1.1,2.2,1.7,3.2c-0.4,1-3.3,1.9-3.2,0.1
							c0.6-0.3,1.7-0.1,2.2-0.4C-241.8,383.1-242.2,382.3-242.2,381.1"/>
						<path id="Fill-83" class="st2" d="M-252.1,381.1c0.5,0.9,0.6,1.9,1.3,2.5c0.3,0.3,0.9,0.7,0.6,1.5c-0.1,0.2-0.6,0.7-0.9,0.7
							c-1.1,0.3-3.6,0.1-2.7-1.3c0.9,0,2.1,0.6,2.8-0.1C-251.5,383.7-252.4,382.1-252.1,381.1"/>
						<path id="Fill-85" class="st2" d="M-242.6,390.3c-1.6,1.1-3.4,2.2-6.1,1.9c-0.6-0.5-0.8-1.6-0.2-2.4c0.3,0.5,0.1,1.4,0.9,1.6
							c1.5,0.3,3.3-0.9,4.4-1.4c0.7-1.2-0.1-1.6-0.7-2.3c-1.2-1.5-2.9-3.4-2.9-5.7c0.5-0.4,0.5,0.6,0.6,0.7c0.6,1.5,2.3,3.5,3.5,4.8
							c0.3,0.3,0.8,0.6,0.8,0.9C-242.1,389.1-242.6,389.9-242.6,390.3"/>
						<path id="Fill-87" class="st2" d="M-264,389.2c-0.5-0.3-0.6-1.6-1.2-1.6c-0.9-0.1-0.7,1.7-0.7,2.7c-0.6-0.5-0.7-2.2-0.3-3.1
							c-0.5-0.2-0.7,0.3-1,0.5C-266.8,385.1-263.4,386.5-264,389.2"/>
						<path id="Fill-89" class="st2" d="M-241.5,391.4c-0.8,1.5-1.8,3.1-4,3.1c0-0.5-0.1-1.2,0-1.5
							C-243.9,392.9-242.8,392-241.5,391.4"/>
						<path id="Fill-91" class="st2" d="M-252.2,392.3c1.4,0.8,4,0.8,5.9,0.8c0.1,0.4,0.1,1,0.1,1.5
							C-248.6,394.7-251.5,394.1-252.2,392.3"/>
						<path id="Fill-93" class="st2" d="M-252.4,393.7c1,2.5,4.3,2.2,7.2,2.1c-0.1,0.3-0.4,0.7-0.7,0.8c-0.9,0.4-3.4,0.7-4.7,0
							c-0.8-0.4-1.3-1.4-1.8-2C-252.6,394.4-253.7,393.7-252.4,393.7"/>
						<path id="Fill-95" class="st11" d="M-242.7,407.5c-1.1,2-2.2,4-3.6,5.8c0.6-1.7,0.8-4.6,0.9-6.7
							C-244.2,406-243.2,406.7-242.7,407.5"/>
						<path id="Fill-97" class="st2" d="M-236.5,414.7c-1.3,0.3-2.2,1.5-3.4,1.4C-239.3,415.1-238.1,414.7-236.5,414.7"/>
						<path id="Fill-99" class="st2" d="M-235.9,416.7c-1,0.1-2.3,0.3-3.3,0.2C-238.8,416.1-236.8,416.4-235.9,416.7"/>
						<path id="Fill-101" class="st2" d="M-235.6,418.5c-1.2,0-2.6,0-3.8-0.1C-238.7,417.6-236.3,418.1-235.6,418.5"/>
						<path id="Fill-103" class="st6" d="M-244.9,423.3c0.2,1.5,0.8,3,0.7,4.7c-0.7,0.2-1,0.4-1.9,0.4c-0.1-1.4-0.2-3.5-0.2-4.9
							C-245.9,423.5-245.3,423.2-244.9,423.3"/>
						<path id="Fill-105" class="st3" d="M-246.8,401.2c-0.6,0.4-1.1,0.9-1.7,1.3c-1.3,0.1-1.9-0.1-2.9-0.8c0-0.1,0.1,0,0.1-0.1
							C-249.9,402.1-248.2,401.3-246.8,401.2"/>
						<path id="Fill-107" class="st11" d="M-253.9,410.5c0.4-1.6,1.8-2.5,3.1-3.4c1.4,1.8,2.2,4,3.1,6.2
							C-249.8,412.6-252,411.6-253.9,410.5"/>
						<g id="Group-111" transform="translate(4.000000, 0.223986)">
							<g id="Clip-110">
							</g>
							<path id="Fill-109" class="st2" d="M-245,413c2-1,5.8-2.7,7,0c0.5,1,1,2.7,1.3,3.8c0.3,1.5-0.4,4.6-1.9,5.1
								c-1.3,0.4-2.9,0.4-4.4,0.1c-0.2-0.2-0.4-0.4-0.5-0.7c-1.1,0-2.2,0.1-3.1,0.5c0.1,0.8-0.5,1-1,1.2c-0.4,1.6,0.8,3.6,0.5,5.1
								c-0.2,1-1.4,1.2-2.4,1.4c0,0.6,0,1,0.1,1.5c-0.2,0.8-1.2,1.2-2,1.3c-2.9,0.4-7.4,0.5-10.2-0.5c-0.8-2-1.4-4.3-2.1-6.6
								c-2.8,0.3-5-1.2-7.1-2.2c-0.7-0.3-1.7-0.5-2-1.1c-0.2-0.6-0.1-1.7-0.2-2.7c-0.2-2.6-0.3-5.2-1-7.8c-0.3-1.2-0.8-2.3-1.2-3.4
								c-0.3-1.1-0.9-2.4-1.1-3.5c-0.2-1.7,1.3-1.8,2.2-2.5c1.5-1.1,2.6-1.7,4.2-2.6c0.5-0.3,1.9-1,2-1.3c0.3-0.7-0.5-1.6-0.8-2.1
								c-0.4-0.8-0.6-1.5-0.6-2.3c-1.3-0.2-2.3-1-2.9-1.9c-1-1.5-1.7-4.3-0.8-6.4c0.1-0.2,0.4-0.5,0.5-0.7c0.1-0.5-0.2-1.2-0.2-1.7
								c-0.2-2.8,0.4-5.1,2.2-6c0.7-3,3.4-4,5.9-5.4c0.9-0.6,2-0.9,3-1.3c3.8-1.4,9.6-1.1,12.8,1.3c1.3,1,3.5,3.2,4.2,4.7
								c2,4.1,1.9,11,0.5,16.1c-0.3,0.6-0.6,1.6-0.9,2.4c-0.3,0.6-1.1,1.7-1,2.2s1.9,1.9,2.3,2.3c0.7,0.7,2,1.6,2.1,2.4
								c0.1,0.9-0.4,2.2-0.7,3C-243.2,407.7-244,410.4-245,413 M-249.8,372.7c-2.6-1.5-6.9-2.6-9.7-1.2c-2.2,1.1-5.2,3-6.2,5.3
								c1,2.3-0.3,4.3-0.4,6.6c0,1.2,0.6,2.3,0.6,3.6c-0.3,0.5-1.3,0.6-2,0.6c-0.2-1.2-0.6-2.5-1.8-2.6c-1.7-0.2-2.9,1.2-3,2.7
								c-0.1,1.8,1.3,4.7,3.3,4.5c0.8-0.1,1-0.9,1.8-0.9c0.5,0.9-0.7,1.2-0.8,1.9c0,0.2,0.1,0.8,0.2,1.2c0.4,1.5,1.2,3.5,2,4.7
								c1,1.5,3,1.7,5.1,1.8c0.4-0.8,1.8-0.8,2.7-0.5c-1.1-0.4-2.1-1.5-3-2.5c-1-1.1-2-2.3-2-3.7c1.8,2.6,3.4,4.9,6.7,6
								c2.5,0.9,5.5-0.4,7.4-1.8c0.8-0.6,1.3-1.5,1.9-2.3c2.1-3.1,3.2-7.6,2.9-11.9c-0.1-1.8-0.1-3.6-0.7-4.8
								c-0.6-1.3-2.7-2.4-3.9-1.2c-0.2-1.2,1-2,2.5-1.5C-247.2,375.2-248.3,373.5-249.8,372.7 M-262.7,372c-2.5,0.7-5.7,2.5-6.7,4.8
								c0.8-0.1,1.3-0.5,2.1-0.6c0.3,0,0.7,0.1,1,0c0.7-0.1,1.3-1.6,1.8-2.2s1.1-0.8,1.5-1.3c0.3-0.1,0.7-0.1,0.7-0.5
								C-262.5,372.1-262.6,372-262.7,372 M-270.6,379.1c-1.1,1.2-0.9,3.5-0.7,5.2c2-1.3,4.6,0.1,4.6,2.3c0.9,0,0.4-1.2,0.2-2
								c-0.6-2.5,0.9-5.2,0.1-7.4C-268.2,377.3-269.6,378-270.6,379.1 M-248.6,399.8c2.3-1.1,2.7,4.2,1.8,6c0.1,0.5,0.6,0.7,0.8,1.2
								c-1.3,2.3-2.7,4.5-4,6.8c1-0.6,2.4-0.1,3.5-0.6c0.4-0.2,0.7-1.1,1-1.9c0.9-2.1,1.8-4.8,2.2-6.9c0.1-0.5,0.3-1.5,0.3-1.9
								c-0.1-0.7-1.1-1.3-1.6-1.8c-0.9-0.8-1.5-1.6-2.5-2.4C-247.4,399-248.2,399.3-248.6,399.8 M-265.3,401.7
								c-0.2-0.2-1.8-2.2-2-2.1c-2.8,1.1-5.4,3-7.7,4.8c2.2,4.8,3.1,10.7,3.3,16.3c2.5,1.2,4.7,2.9,8.2,3.1c-0.4-2.8-0.8-5.4-1-8.1
								c-0.9-0.4-2.1,0-2.9-0.1c0-1,1.2-0.4,1.3-1.1c0.1-0.5-0.7-0.5-0.4-1.3c0.6,0.2,1,0.7,1.6,0.9c0.6-1.4,0-3.8,0.1-4.9
								c0-0.2,0.1-1.2,0.6-1c0.4,0.2,0,2.6,0,3.7c0,1-0.1,2,0.3,2.6c3.3-0.5,6.7-0.8,10.3-0.9c-0.8-0.3-1.7-0.7-2.8-1.3
								c-0.6-0.3-2.3-1-2.5-1.5c-0.3-0.9,0.7-1.3,0.8-2c-1.7,0.9-2-0.9-2.4-2.2c-0.4-1.2-0.6-2-0.6-2.7
								C-262.5,403.3-264.1,402.6-265.3,401.7 M-247.1,403.8c0-0.8-0.3-2.5-0.8-2.8c-1.1-0.6-2.9,1.3-3.7,1.5
								c0.1,0.3,0.2,0.5,0.2,0.8c0.5-0.1,1,0,1.4,0.2c-0.5,0.1-1,0-1.3,0.3c-0.1,0.3,0,0.8,0,1.3c1.1,0.3,2.4,0.5,3.8,0.5
								C-247.2,405.2-247.1,404.5-247.1,403.8 M-255.2,401.3c0,0.1-0.1,0-0.1,0.1c0.9,0.7,1.6,0.9,2.9,0.8c0.6-0.4,1.1-0.9,1.7-1.3
								C-252.2,401.1-253.9,401.9-255.2,401.3 M-264.1,401c-0.7,0.7,2,1.8,2.9,1.8c0-0.5,0.3-0.9,0.2-1.2
								C-262,401.3-263.4,401.5-264.1,401 M-255.8,402.5c-0.9-0.5-2.2-1-3.3-1.2c-1.4-0.3-1.3,1.9-1.2,3.2c0,1,0.6,2.1,0.8,2.8
								c0.1,0.3,0.1,0.7,0.4,0.7c0.5,0.1,2.1-0.5,2.5-0.8c0.9-0.5,1.7-1.4,2.5-1.9c0-0.3,0-0.5,0-0.8c-0.5-0.2-1-0.4-1.8-0.5
								c0.5-0.2,1.2-0.2,1.6-0.5c0-0.1,0-0.2,0-0.3C-255,403.1-255.3,402.8-255.8,402.5 M-253.6,403.2c-0.1,0.6,0.1,0.8,0.2,1.5
								C-251.4,405.4-251.7,402-253.6,403.2 M-252,405.4c-0.5-0.1-1,0.6-1.6,0.3c-0.2,0.2-0.3,0.4-0.5,0.5c1.5,1.8,2.2,4.4,3.3,6.5
								c0.6-2,0.5-4.3,0.7-6.5C-250.9,406.3-251.4,405.5-252,405.4 M-249.4,406.3c-0.1,2.2-0.3,5-0.9,6.7c1.4-1.8,2.5-3.8,3.6-5.8
								C-247.2,406.5-248.2,405.8-249.4,406.3 M-251.7,413.1c-0.9-2.2-1.7-4.4-3.1-6.2c-1.3,0.9-2.8,1.7-3.1,3.4
								C-256,411.3-253.8,412.4-251.7,413.1 M-239.6,421.1c1.3-0.3,2.1-1.9,1.8-3.6c-0.2-1.1-0.7-3.2-1.1-3.9
								c-0.3-0.5-1.3-1.2-2-0.7c-1.2,0.8-3.3,1-4.2,2c0.4,1.5,0.6,3.5,0.8,5.4c1.5,0.1,3.4-0.4,4.6,0.1c-0.9,0.3-2,0.3-2.8,0.7
								C-242,421.4-240.5,421.3-239.6,421.1 M-246.3,414.9c-0.4-0.1-0.9,0-1.3,0c0.2,1.9,0.6,3.9,0.8,5.9c0.6,0,1-0.3,1.5-0.4
								C-245.3,418.7-245.5,416.3-246.3,414.9 M-250.7,415.2c0,2.3,0.1,4.6,0.3,6.9c0.9-0.1,1.5-0.2,2.3-0.4
								c-0.3-2.2-0.2-4.7-0.8-6.7C-249.5,415-250.1,415-250.7,415.2 M-263.9,415.7c0.6,5.4,1.4,9.9,2.9,14.6c3.4,1,7.5,1.1,10.5,0.2
								c-0.6-2.7-0.3-5.9-0.6-8.8c-0.2-2.2-0.1-4.3-0.5-6.5C-255.2,414.4-260.3,415-263.9,415.7 M-250.3,423.3
								c-0.1,1.3,0.1,3.5,0.2,4.9c0.9,0,1.2-0.2,1.9-0.4c0.1-1.6-0.5-3.2-0.7-4.7C-249.3,423-249.9,423.3-250.3,423.3"/>
						</g>
						<path id="Fill-112" class="st7" d="M-254.4,393c0.1-0.1,0.7-0.4,1.6,0c0,0-1,0.2-0.9,1.9l-0.4-0.1
							C-254.2,394.8-254.6,393.3-254.4,393"/>
						<path id="Fill-114" class="st12" d="M-247.1,407.5c0,0.3-0.2,0.5-0.5,0.5c-0.3,0-0.5-0.2-0.5-0.5s0.2-0.5,0.5-0.5
							C-247.3,407-247.1,407.2-247.1,407.5"/>
						<path id="Fill-116" class="st12" d="M-246.7,409.6c0,0.3-0.2,0.5-0.5,0.5s-0.5-0.2-0.5-0.5c0-0.3,0.2-0.5,0.5-0.5
							S-246.7,409.4-246.7,409.6"/>
					</g>
				</g>
			</g>
		</g>
	</g>
</g>
</svg>
