<?xml version="1.0" encoding="utf-8"?>
<!-- Generator: Adobe Illustrator 21.1.0, SVG Export Plug-In . SVG Version: 6.00 Build 0)  -->
<svg version="1.1" id="Layer_1" xmlns="http://www.w3.org/2000/svg" xmlns:xlink="http://www.w3.org/1999/xlink" x="0px" y="0px"
	 viewBox="0 0 100 45" style="enable-background:new 0 0 100 45;" xml:space="preserve">
<style type="text/css">
	.st0{fill:#222020;}
	.st1{fill:#88C533;}
	.st2{opacity:0.52;}
	.st3{fill:url(#SVGID_1_);}
	.st4{fill:url(#SVGID_2_);}
	.st5{fill:url(#SVGID_3_);}
	.st6{fill:url(#SVGID_4_);}
	.st7{fill:url(#SVGID_5_);}
</style>
<g>
	<path class="st0" d="M79.6,14.4l4.3-2.1c0.2-0.1,0.5,0,0.6,0.1c0.9,1,1.5,1.6,2,3.1c0,0.1,0.1,0.1,0.1,0c0.8-1.6,5.8-9.9,11.8-11.1
		c0,0-3.2,3-6,7.1c-2,3-3.7,7.5-3.9,7.7c-0.3,0.6-0.8,0.6-0.8,0.6h-5.2c-0.2,0-0.4-0.2-0.4-0.4c-0.1-1-0.4-3.5-2.6-4.9
		C79.5,14.5,79.5,14.4,79.6,14.4z"/>
	<path class="st0" d="M2.7,34.1l-1.5,2.9c-0.2,0.4,0.1,0.8,0.5,0.8h18.7c0.8,0,1.5-0.4,1.9-1.1l3.1-5.3c0.2-0.3,0-0.7-0.4-0.7h-9
		c-0.4,0-0.6-0.4-0.5-0.7l1.9-3.8c0.2-0.5,0.7-0.8,1.3-0.8h1c0.4,0,0.6,0.4,0.4,0.7L19,28c-0.2,0.3,0.1,0.8,0.5,0.8h6.3
		c0.7,0,1.4-0.4,1.8-1l2.2-3.5c0.2-0.4,0-0.9-0.5-0.9h-19c-0.7,0-1.4,0.4-1.7,1l-4,6.8C4.3,31.6,4.6,32,5,32h10.7
		c0.4,0,0.6,0.4,0.4,0.7L14.2,36c-0.1,0.1-0.2,0.2-0.3,0.2h-2.7c-0.3,0-0.5-0.3-0.3-0.5l1.1-1.8c0.2-0.3,0-0.6-0.4-0.6H4.1
		C3.5,33.2,3,33.6,2.7,34.1z"/>
	<path class="st0" d="M32.7,24.3l-2.5,4.2c-0.2,0.4,0,0.8,0.5,0.8H38c0.7,0,1.3-0.4,1.7-1l1.3-2.3c0.3-0.5,0.9-0.9,1.5-0.9h0.2
		c0.4,0,0.6,0.4,0.5,0.8l-1.7,3.5c-0.4,0.7-1.1,1.1-1.9,1.1H29l-3.7,6.3c-0.2,0.4,0.1,0.9,0.5,0.9h18.1c0.7,0,1.4-0.4,1.8-1.1
		l6.7-12.4c0.2-0.4-0.1-0.9-0.5-0.9H34.3C33.6,23.4,33,23.8,32.7,24.3z M37.5,35.9h-0.6c-0.4,0-0.7-0.5-0.5-0.9l0.9-1.9
		c0.3-0.5,0.8-0.8,1.3-0.8h0c0.7,0,1.1,0.7,0.8,1.3l-0.8,1.5C38.4,35.6,38,35.9,37.5,35.9z M61.5,13.8c-0.1,0.2-0.3,0.6-0.3,0.6
		L48.9,36.8c-0.2,0.4,0.1,0.9,0.5,0.9h7c0.6,0,1.1-0.3,1.4-0.8l6.7-11.3c0.4-0.6,1-1,1.7-1l0,0c0.6,0,0.9,0.6,0.7,1.1l-6,11.1
		c-0.2,0.4,0.1,0.9,0.6,0.9h6.5c0.8,0,1.6-0.5,2-1.2l5.3-10.1l1.2-2.4c0,0,0.6-1.2-0.2-1.2c-0.2,0-0.6,0-0.6,0h-8.7
		c-0.2,0-0.4-0.3-0.3-0.5l1-1.9c0.4-0.8,0.3-1.6-0.1-2.4c-1-1.6-2.7-4.4-3.5-4.8C63.5,13.1,62.1,12.7,61.5,13.8z"/>
	<path class="st0" d="M79.8,23.8l-7.5,12.9c-0.3,0.5,0.1,1.1,0.6,1.1h7.9c0.3,0,0.5-0.1,0.6-0.4l7-12.9c0.3-0.5-0.1-1-0.6-1h-7.3
		C80.1,23.4,79.9,23.5,79.8,23.8z"/>
	<path class="st1" d="M80.8,13.8l4.3-2.1c0.2-0.1,0.5,0,0.6,0.1c0.9,1,1.5,1.6,2,3.1c0,0.1,0.1,0.1,0.1,0c0.8-1.6,5.8-9.9,11.8-11.1
		c0,0-3.2,3-6,7.1c-2,3-3.7,7.5-3.9,7.7c-0.3,0.6-0.8,0.6-0.8,0.6h-5.2c-0.2,0-0.4-0.2-0.4-0.4c-0.1-1-0.4-3.5-2.6-4.9
		C80.7,13.9,80.7,13.8,80.8,13.8z"/>
	<path class="st1" d="M80.8,14.4l4.3-2.1c0.2-0.1,0.5,0,0.6,0.1c0.9,1,1.5,1.6,2,3.1c0,0.1,0.1,0.1,0.1,0c0.8-1.6,5.8-9.9,11.8-11.1
		c0,0-3.2,3-6,7.1c-2,3-3.7,7.5-3.9,7.7c-0.3,0.6-0.8,0.6-0.8,0.6h-5.2c-0.2,0-0.4-0.2-0.4-0.4c-0.1-1-0.4-3.5-2.6-4.9
		C80.7,14.5,80.7,14.4,80.8,14.4z"/>
	<g class="st2">
		<linearGradient id="SVGID_1_" gradientUnits="userSpaceOnUse" x1="16.051" y1="29.2214" x2="8.7364" y2="41.8907">
			<stop  offset="0" style="stop-color:#FFFFFF"/>
			<stop  offset="0.1357" style="stop-color:#CBCBCB"/>
			<stop  offset="0.3114" style="stop-color:#8E8E8E"/>
			<stop  offset="0.4805" style="stop-color:#5B5B5B"/>
			<stop  offset="0.6383" style="stop-color:#343434"/>
			<stop  offset="0.7821" style="stop-color:#171717"/>
			<stop  offset="0.9073" style="stop-color:#060606"/>
			<stop  offset="1" style="stop-color:#000000"/>
		</linearGradient>
		<path class="st3" d="M14.2,36c-0.1,0.1-0.2,0.2-0.3,0.2h-2.7c-0.3,0-0.5-0.3-0.3-0.5l0.3-0.5c-4.8,0.6-8.1,1.2-10,1.6l-0.1,0.2
			c-0.2,0.4,0.1,0.8,0.5,0.8h18.7c0.8,0,1.5-0.4,1.9-1.1l1.7-2.9c-3.3,0.3-6.2,0.6-8.9,0.9L14.2,36z"/>
		<linearGradient id="SVGID_2_" gradientUnits="userSpaceOnUse" x1="57.2309" y1="30.0624" x2="51.9216" y2="39.2583">
			<stop  offset="0" style="stop-color:#FFFFFF"/>
			<stop  offset="0.1357" style="stop-color:#CBCBCB"/>
			<stop  offset="0.3114" style="stop-color:#8E8E8E"/>
			<stop  offset="0.4805" style="stop-color:#5B5B5B"/>
			<stop  offset="0.6383" style="stop-color:#343434"/>
			<stop  offset="0.7821" style="stop-color:#171717"/>
			<stop  offset="0.9073" style="stop-color:#060606"/>
			<stop  offset="1" style="stop-color:#000000"/>
		</linearGradient>
		<path class="st4" d="M48.9,36.8c-0.2,0.4,0.1,0.9,0.5,0.9h7c0.6,0,1.1-0.3,1.4-0.8l2.9-4.8c-3.2,0-6.3,0.1-9.3,0.1L48.9,36.8z"/>
		<linearGradient id="SVGID_3_" gradientUnits="userSpaceOnUse" x1="68.9716" y1="30.2301" x2="63.7902" y2="39.2045">
			<stop  offset="0" style="stop-color:#FFFFFF"/>
			<stop  offset="0.1357" style="stop-color:#CBCBCB"/>
			<stop  offset="0.3114" style="stop-color:#8E8E8E"/>
			<stop  offset="0.4805" style="stop-color:#5B5B5B"/>
			<stop  offset="0.6383" style="stop-color:#343434"/>
			<stop  offset="0.7821" style="stop-color:#171717"/>
			<stop  offset="0.9073" style="stop-color:#060606"/>
			<stop  offset="1" style="stop-color:#000000"/>
		</linearGradient>
		<path class="st5" d="M63.4,32l-2.6,4.7c-0.2,0.4,0.1,0.9,0.6,0.9h6.5c0.8,0,1.6-0.5,2-1.2l2.3-4.4C69.2,32,66.2,32,63.4,32z"/>
		<linearGradient id="SVGID_4_" gradientUnits="userSpaceOnUse" x1="40.5865" y1="27.9853" x2="32.659" y2="41.716">
			<stop  offset="0" style="stop-color:#FFFFFF"/>
			<stop  offset="0.1357" style="stop-color:#CBCBCB"/>
			<stop  offset="0.3114" style="stop-color:#8E8E8E"/>
			<stop  offset="0.4805" style="stop-color:#5B5B5B"/>
			<stop  offset="0.6383" style="stop-color:#343434"/>
			<stop  offset="0.7821" style="stop-color:#171717"/>
			<stop  offset="0.9073" style="stop-color:#060606"/>
			<stop  offset="1" style="stop-color:#000000"/>
		</linearGradient>
		<path class="st6" d="M39.4,33.7l-0.8,1.5c-0.2,0.4-0.7,0.7-1.2,0.7h-0.6c-0.4,0-0.7-0.5-0.5-0.9l0.9-1.9c0.1-0.2,0.2-0.3,0.3-0.4
			c-3.7,0.2-7.1,0.4-10.2,0.7l-2,3.4c-0.2,0.4,0.1,0.9,0.5,0.9h18.1c0.7,0,1.4-0.4,1.8-1.1l2.4-4.4c-3.1,0.1-6,0.2-8.8,0.4
			C39.5,32.9,39.6,33.3,39.4,33.7z"/>
		<linearGradient id="SVGID_5_" gradientUnits="userSpaceOnUse" x1="80.588" y1="30.4328" x2="75.4592" y2="39.316">
			<stop  offset="0" style="stop-color:#FFFFFF"/>
			<stop  offset="0.1357" style="stop-color:#CBCBCB"/>
			<stop  offset="0.3114" style="stop-color:#8E8E8E"/>
			<stop  offset="0.4805" style="stop-color:#5B5B5B"/>
			<stop  offset="0.6383" style="stop-color:#343434"/>
			<stop  offset="0.7821" style="stop-color:#171717"/>
			<stop  offset="0.9073" style="stop-color:#060606"/>
			<stop  offset="1" style="stop-color:#000000"/>
		</linearGradient>
		<path class="st7" d="M74.9,32.1l-2.6,4.5c-0.3,0.5,0.1,1.1,0.6,1.1h7.9c0.3,0,0.5-0.1,0.6-0.4l2.7-4.9l-1.1-0.1
			C80.2,32.3,77.5,32.2,74.9,32.1z"/>
	</g>
</g>
</svg>
