<?xml version="1.0" encoding="utf-8"?>
<!-- Generator: Adobe Illustrator 21.1.0, SVG Export Plug-In . SVG Version: 6.00 Build 0)  -->
<svg version="1.1" id="Layer_1" xmlns="http://www.w3.org/2000/svg" xmlns:xlink="http://www.w3.org/1999/xlink" x="0px" y="0px"
	 viewBox="0 0 45 45" style="enable-background:new 0 0 45 45;" xml:space="preserve">
<path d="M4.1,0C1.8,0,0,1.8,0,4.1v36.8C0,43.2,1.8,45,4.1,45h36.8c2.3,0,4.1-1.8,4.1-4.1V4.3L29.7,19.7L19.3,9.3L23.6,5l6,6l11-11
	H4.1z M12.3,22.3c3.7,0,6.3,2,6.4,5h-3.8c-0.1-1.1-1.2-1.9-2.6-1.9c-1.4,0-2.4,0.7-2.4,1.7c0,0.9,0.7,1.4,2.4,1.7l2.1,0.4
	c3.2,0.6,4.6,2,4.6,4.6c0,3.3-2.5,5.3-6.7,5.3c-4,0-6.6-1.9-6.7-5h3.9c0.1,1.2,1.3,1.9,2.9,1.9c1.5,0,2.6-0.7,2.6-1.8
	c0-0.9-0.7-1.4-2.5-1.7l-2.1-0.4c-2.9-0.6-4.4-2.2-4.4-4.7C5.9,24.3,8.4,22.3,12.3,22.3z M28.7,26.4c3.7,0,5.9,2.3,5.9,6.1v1.1h-8.2
	v0.2c0,1.6,0.9,2.6,2.4,2.6c1.1,0,1.9-0.4,2.2-1.1h3.5c-0.4,2.4-2.7,3.9-5.8,3.9c-3.9,0-6.1-2.3-6.1-6.3
	C22.7,28.8,24.9,26.4,28.7,26.4z M28.7,29.1c-1.3,0-2.1,0.9-2.2,2.3h4.4C30.8,30,30,29.1,28.7,29.1z"/>
</svg>
