<?xml version="1.0" encoding="utf-8"?>
<!-- Generator: Adobe Illustrator 21.1.0, SVG Export Plug-In . SVG Version: 6.00 Build 0)  -->
<svg version="1.1" id="Layer_1" xmlns="http://www.w3.org/2000/svg" xmlns:xlink="http://www.w3.org/1999/xlink" x="0px" y="0px"
	 viewBox="0 0 45 45" style="enable-background:new 0 0 45 45;" xml:space="preserve">
<style type="text/css">
	.st0{fill:url(#SVGID_1_);}
	.st1{fill:#0CB0F2;}
	.st2{fill:url(#SVGID_2_);}
	.st3{fill:url(#SVGID_3_);}
	.st4{fill:url(#SVGID_4_);}
	.st5{fill:#FFFFFF;}
</style>
<g>
	
		<linearGradient id="SVGID_1_" gradientUnits="userSpaceOnUse" x1="-887.8208" y1="1175.8833" x2="-888.5467" y2="1174.9865" gradientTransform="matrix(19.5297 0 0 19.5297 17362.3535 -22937.3203)">
		<stop  offset="6.000000e-02" style="stop-color:#0CB0F2"/>
		<stop  offset="0.21" style="stop-color:#10ADF2"/>
		<stop  offset="0.37" style="stop-color:#1EA5F3"/>
		<stop  offset="0.54" style="stop-color:#3497F5"/>
		<stop  offset="0.71" style="stop-color:#5283F7"/>
		<stop  offset="0.88" style="stop-color:#796AF9"/>
		<stop  offset="0.97" style="stop-color:#905CFB"/>
	</linearGradient>
	<path class="st0" d="M16.1,1c-0.6-0.3-1.3-0.5-1.9-0.7C5.2-1.8-1.6,7,2.1,15.1c0,0,6.6,14.4,7.6,16.7c0,0,12-5.5,14.5-11.2
		c2.3-5.3-1.6-14.9-2.3-16.3L16.1,1z"/>
	<path class="st1" d="M43.3,17c-0.8-1.2-1.8-2.1-3-2.8c0,0-8.5-4.6-8.5-4.6s-29,16.8-29,16.8c-3.3,3.7-4,9.6-0.2,14.8
		c1.1,1.5,2.7,2.7,4.6,3.2c3.4,1.1,6.4,0.6,9-0.7c0.1,0,23.8-12.6,23.9-12.7C44.6,28.6,46.7,22.4,43.3,17L43.3,17z"/>
	
		<linearGradient id="SVGID_2_" gradientUnits="userSpaceOnUse" x1="-888.6456" y1="1176.6663" x2="-888.2819" y2="1175.825" gradientTransform="matrix(19.5297 0 0 19.5297 17362.3535 -22937.3203)">
		<stop  offset="6.000000e-02" style="stop-color:#0CB0F2"/>
		<stop  offset="0.2" style="stop-color:#0DB2EE"/>
		<stop  offset="0.35" style="stop-color:#12B7E0"/>
		<stop  offset="0.51" style="stop-color:#19C0CA"/>
		<stop  offset="0.68" style="stop-color:#23CCAC"/>
		<stop  offset="0.85" style="stop-color:#30DC85"/>
		<stop  offset="0.97" style="stop-color:#3BEA62"/>
	</linearGradient>
	<path class="st2" d="M13.5,13.3l-7.7,9.5l-3,3.6c-3.3,3.7-4,9.6-0.2,14.8c1.1,1.5,2.7,2.7,4.6,3.2c3.4,1.1,6.5,0.6,9-0.7
		c0,0,0.6-0.3,1.6-0.9c3.2-1.7,7.6-13.4,10.7-22.4L13.5,13.3z"/>
	
		<linearGradient id="SVGID_3_" gradientUnits="userSpaceOnUse" x1="-888.1468" y1="1175.5608" x2="-887.4358" y2="1174.6488" gradientTransform="matrix(19.5297 0 0 19.5297 17362.3535 -22937.3203)">
		<stop  offset="6.000000e-02" style="stop-color:#0CB0F2"/>
		<stop  offset="0.2" style="stop-color:#0DB2EE"/>
		<stop  offset="0.35" style="stop-color:#12B7E0"/>
		<stop  offset="0.51" style="stop-color:#19C0CA"/>
		<stop  offset="0.68" style="stop-color:#23CCAC"/>
		<stop  offset="0.85" style="stop-color:#30DC85"/>
		<stop  offset="0.97" style="stop-color:#3BEA62"/>
	</linearGradient>
	<path class="st3" d="M25.7,22.5l6.1-13c0,0,0,0,0,0c0-0.1,0.5-1.4,0.6-1.4c0.7-1.9,0.5-3.9-0.6-5.6c-0.7-1.1-1.8-1.9-3.1-2.2
		c-2.2-0.6-4.6,0.2-6,2c0,0-1.4,1.6-1.4,1.6l-9.8,12.1L25.7,22.5z"/>
	
		<linearGradient id="SVGID_4_" gradientUnits="userSpaceOnUse" x1="-887.8702" y1="1174.9309" x2="-887.8702" y2="1176.3708" gradientTransform="matrix(19.5297 0 0 19.5297 17362.3535 -22937.3203)">
		<stop  offset="0" style="stop-color:#000000"/>
		<stop  offset="1" style="stop-color:#000000"/>
	</linearGradient>
	<path class="st4" d="M8.4,8.4h28.1v28.1H8.4L8.4,8.4z"/>
	<path class="st5" d="M15,14.6h-3.8v-2.5h10.3v2.5h-3.8v9.7H15V14.6z M21.5,18.3c0-3.5,2.6-6.4,6.4-6.4c2.3,0,3.7,0.8,4.8,1.9
		l-1.7,2c-0.9-0.8-1.9-1.4-3.1-1.4c-2,0-3.6,1.7-3.6,3.8v0c0,2.1,1.4,3.8,3.6,3.8c1.4,0,2.2-0.6,3.2-1.4l1.7,1.7
		c-1.3,1.3-2.6,2.2-5,2.2c-3.4,0.1-6.2-2.6-6.3-6C21.5,18.5,21.5,18.4,21.5,18.3 M11.2,30.9h10.3v1.9H11.2V30.9z"/>
</g>
</svg>
