<?xml version="1.0" encoding="utf-8"?>
<!-- Generator: Adobe Illustrator 19.1.0, SVG Export Plug-In . SVG Version: 6.00 Build 0)  -->
<svg version="1.1" id="Layer_1" xmlns="http://www.w3.org/2000/svg" xmlns:xlink="http://www.w3.org/1999/xlink" x="0px" y="0px"
	 viewBox="-294.1 360.9 79.2 79.2" style="enable-background:new -294.1 360.9 79.2 79.2;" xml:space="preserve">
<style type="text/css">
	.st0{fill:#0E0F0D;}
	.st1{fill:#E1C5A2;}
	.st2{fill:#A89983;}
	.st3{fill:#FFFFFF;}
	.st4{fill:#E0D896;}
	.st5{fill:#D7C184;}
	.st6{fill:#9F8F78;}
	.st7{fill:#6E6A67;}
	.st8{fill:#93232C;}
	.st9{fill:#731B2A;}
</style>
<g>
	<path class="st0" d="M-219.1,390c0-0.3,0-0.5-0.2-0.8c0-0.3-0.2-0.5-0.2-0.8l-0.2-0.3c-0.8-0.6-1.7-1.1-2.5-1.6
		c-0.8-0.3-1.4-0.6-2.2-1c-2.1-5.9-5.7-11.1-10.6-14.7c-4.9-3.8-10.8-5.7-16.8-5.7c-6,0-11.9,2.1-16.8,5.7
		c-4.8,3.6-8.4,8.9-10.6,14.7c-0.8,0.3-1.6,0.6-2.2,1c-1,0.5-1.7,1-2.5,1.6l-0.2,0.3c0,0.3-0.2,0.5-0.2,0.8s-0.2,0.5-0.2,0.8
		c0,0.5-0.2,1.1-0.2,1.6c0,1.1,0,2.1,0.2,3.2c0.2,1.1,0.3,2.1,0.6,3c0.2,0.5,0.3,1,0.5,1.4c0.2,0.3,0.2,0.5,0.3,0.8
		c0,0.2,0.2,0.3,0.2,0.3c0.2,0.3,0.2,0.3,0.2,0.3l0.3,0.3c0.2,0.2,0.3,0.2,0.5,0.2l0.5,0.2c0.2,0,0.2,0,0.3,0.2
		c-2.1,1.9-4.4,4.4-6.3,7.6l-2.9,4l3.5-3c0,0,3-2.5,7.9-5.5v0.6c-0.3,0.2-1.7,1-2.2,1.3c-0.8,0.6-0.8,1.6-0.6,3.5
		c0.2,1,0.5,2.7,1,4.4c0.8,2.9,1.4,3.3,1.9,3.5c0.2,0,0.5,0.2,1,0.2c1,0,2.2-0.2,2.9-0.5c1,2.9,2.2,5.4,3.8,7.6h-0.2
		c-1-0.5-4.3-2.1-5.4-2.5l-2.4-1l1.4,2.2c0.2,0.2,2.5,4,4.4,6.3c1.9,2.4,4.3,4.8,9,4.8c0.6,0,1.1,0,1.7-0.2c1.4-0.2,2.5-0.3,3.3-0.3
		c4.9,1.9,10.5,1.9,15.7,0c1.4-0.5,2.7-1.1,4-1.9c2.1-0.5,4.1-1,5.2-1.3c0.2,0,0.3-0.2,0.6-0.2c1.6-0.3,4-1,5.4-3.6
		c1.4-2.7,3.5-6.8,3.6-7l1.1-1.9l-2.1,1c-0.2,0-2.7,1.1-4,1.9c1-2.1,1.4-3.8,1.6-4.6c0.8,0.2,1.9,0.2,2.7,0.2c0.5,0,0.8,0,1.1-0.2
		c0.5-0.2,1-0.5,1.7-3.5c0.5-1.7,0.8-3.6,0.8-4.6c0.2-1.9,0.2-2.9-0.6-3.5c-0.3-0.3-1.4-1-2.1-1.3c0.3-0.2,0.5-0.2,0.5-0.2l0.5-1.9
		c0.2,0,0.3-0.2,0.6-0.3c0.3-0.2,0.6-0.3,1-0.3l0.5-0.2c0.2,0,0.3-0.2,0.5-0.2l0.3-0.3c0-0.2,0.2-0.2,0.2-0.2
		c0.2-0.3,0.2-0.5,0.3-0.5c0.2-0.3,0.2-0.5,0.3-0.8c0.2-0.5,0.3-1,0.5-1.4c0.3-1,0.5-2.1,0.6-3c0.2-1.1,0.2-2.1,0.2-3.2
		C-218.9,391-219.1,390.5-219.1,390L-219.1,390z"/>
	<path class="st1" d="M-248.6,430.3c-0.3,0-0.8,0.2-1.1,0.2s-0.5,0-0.8,0h-0.2c0.3-0.6,0.5-1.1,0.6-1.6
		C-249.5,429.4-249,429.8-248.6,430.3"/>
	<path class="st2" d="M-249,401c-0.6,0.5-1.3,1-1.9,1.3l-2.2,1.3c-1.4,0.2-2.5,0.5-2.5,0.5s0,0-0.2,0c-0.2,0-0.2,0.2-0.2,0.3
		l-2.2,7.3l-11.9,2.7l-3.8-2.5l-1.1-8.7c2.1-0.3,4.9-0.8,8.4-1.3c-0.3,0.5-0.8,1-1.1,1.4l-1.9,2.9l3-1.9c0,0,1.9-1.3,4.9-2.7
		c3.3-0.3,6.7-0.3,10-0.3C-250.8,401-249.8,401-249,401L-249,401z M-267.4,411c0.8-0.5,1.7-0.3,3.3-0.3c0.2,0,0.3,0,0.5,0
		c0.2,0,0.3,0,0.5,0c1.6,0,2.9,0.2,2.9-2.2s-1.1-4.3-2.7-4.3s-3,2.1-2.9,4.4c0,0.6,0.2,1.1,0.3,1.4
		C-267.1,410-267.4,410.8-267.4,411L-267.4,411z M-228.6,403l-1.1,7.5l-3.8,2.7l-11.9-1.3l-2.1-7.5c0-0.2-0.2-0.3-0.3-0.3
		c0,0-1.6-0.5-3-0.6h0.3c0.3,0,4.3-0.5,9.2-2.2C-235.9,401.8-231.6,402.6-228.6,403L-228.6,403z M-236,410c0,0-0.3-1-1.7-0.8
		c0.2-0.3,0.2-0.8,0.2-1.4c-0.2-2.4-1.6-4.3-3.2-4.3s-2.5,2.1-2.4,4.4c0.2,2.4,1.4,2.4,2.9,2.4C-238.3,410-237.1,409.4-236,410
		L-236,410z"/>
	<path class="st3" d="M-240.2,405.6c0,0.5-0.3,0.8-0.8,0.8s-0.8-0.3-0.8-0.8l0,0c0-0.5,0.3-0.8,0.8-0.8l0,0
		C-240.5,404.8-240.2,405.3-240.2,405.6L-240.2,405.6 M-262,406.2c0,0.5-0.3,0.8-0.8,0.8c-0.5,0-0.8-0.3-0.8-0.8l0,0
		c0-0.5,0.3-0.8,0.8-0.8l0,0C-262.5,405.4-262,405.7-262,406.2"/>
	<path class="st1" d="M-223.4,406.4c-0.2-0.2-0.8-0.5-1.4-0.8l-1,6.8c0,0.2-0.2,0.3-0.2,0.3l-1.4,1c0,0.2,0,0.3-0.2,0.5
		c1.4,0.3,2.7-0.6,3.5-1.4c0.3-1.4,0.6-3,0.8-4.1C-223,406.8-223.2,406.5-223.4,406.4 M-245.2,432.7c-1-0.3-1.7-0.8-2.5-1.6
		l-0.2-0.2c-0.6,0.2-1.1,0.2-1.7,0.3c-0.3,0-0.5,0-0.8,0h-0.3h-0.2c-1,1.3-2.4,2.1-3.5,2.4C-251.1,434.3-247.3,433.3-245.2,432.7
		 M-275.5,415.7c0-0.2,0-0.2-0.2-0.3l-1.9-1.3c0-0.2-0.2-0.3-0.2-0.3l-1-7.3c-0.6,0.3-1.4,0.8-1.6,1c-0.2,0.2-0.3,0.5-0.2,2.2
		c0.2,1.3,0.6,3.3,1.1,4.8C-278.4,415.2-276.9,416-275.5,415.7 M-248.1,415.4c-0.2,0-0.3-0.2-0.5-0.3l-2.2-7.5c-0.3,0-0.8,0-1,0
		c-0.3,0-0.6,0-1,0l-2.2,7.3c0,0.2-0.2,0.3-0.3,0.3l-1.1,0.2c-0.2,0.3-0.3,1-1.4,1.3c-1.6,0.5-11.6,3.5-12.7,3.3
		c-0.6-0.2-1.9-0.8-2.9-1.4c-0.3-1-0.6-1.4-0.6-1.6l0,0l0,0c0.2,0.3,1.4,4.1,4.1,7.8c2.9-0.8,5.2-1.6,6-1.9c1.6-2.5,3.8-4.9,5.5-5.1
		c0.3,0,0.6,0,0.8,0c0.8,0,1.6,0,2.2,0.2c-0.6-0.5-0.8-1.1-0.8-1.4c0,0,2.1,1.6,4.8,1.3s4.3-1.9,4.3-1.9v-0.5H-248.1"/>
	<path class="st1" d="M-245.9,416.4c-0.5-0.2-1-0.3-1.1-0.6v0.3c0,0,0,1.1-1.1,1.9c2.2-0.6,3.2-1,3.8-1s1,0.3,1.3,0.5l0.2,0.2
		c1.4,1.1,2.9,2.2,4.3,3.5c0.6,0.2,2.9,0.3,4.3,0.5c0.8,0,1.6,0.2,2.2,0.2c0.2,0,0.5,0,0.6,0c0.6-1.4,1.4-3,1.9-4.6
		c-0.8,0.6-2.7,1.9-3.5,2.1C-234.1,419.2-244.3,416.7-245.9,416.4"/>
	<path class="st4" d="M-220.3,390.2c0-0.3,0-0.5,0-0.8c0-0.2,0-0.3,0-0.5c-0.6-0.5-1.4-1-2.1-1.4c-0.8-0.5-1.7-1-2.5-1.3
		c-0.8-0.5-1.7-0.8-2.7-1.1c-0.5-0.2-1-0.3-1.4-0.5c-0.5-0.2-1-0.3-1.4-0.5c1,0.2,1.9,0.3,2.9,0.6c0.6,0.2,1.3,0.3,1.9,0.5
		c-4.4-11.4-14.9-18.9-26.2-18.9s-21.6,7.5-25.8,18.7c0.6-0.2,1.3-0.3,1.9-0.5c1-0.3,1.9-0.5,2.9-0.6c-0.5,0.2-1,0.3-1.4,0.5
		c-0.5,0.2-1,0.3-1.4,0.5c-1,0.3-1.7,0.8-2.7,1.1c-1,0.5-1.7,0.8-2.5,1.3c-0.8,0.5-1.4,1-2.1,1.4c0,0.2,0,0.3,0,0.5
		c0,0.3,0,0.5,0,0.8c0,0.5,0,1,0,1.4c0,1,0,1.9,0.2,2.9c0.2,1,0.3,1.9,0.6,2.9c0.2,0.5,0.3,1,0.5,1.4c0.2,0.2,0.2,0.5,0.3,0.6
		c0,0.2,0.2,0.2,0.2,0.3v0.2c0,0,0.2,0,0.2,0.2l0.5,0.2c0.3,0.2,0.6,0.3,0.8,0.3l0,0l-0.8-3c0.2,0,1.7-0.5,4.3-1
		c-0.2,0-0.5-0.2-0.6-0.2c-0.6-0.2-1.1-0.3-1.7-0.6c-0.3-0.2-0.6-0.3-0.8-0.5c-0.3-0.2-0.5-0.3-0.8-0.5c2.9,1,8.7,0.5,14.1,0
		c4.8-0.5,9.7-0.8,14.4-0.8c4.9,0,9.7,0.3,14.4,0.8c5.2,0.5,11.3,1,14.1,0c-0.2,0.2-0.5,0.5-0.8,0.5c-0.3,0.2-0.5,0.3-0.8,0.5
		c-0.6,0.2-1.1,0.5-1.7,0.6c-0.2,0-0.2,0-0.3,0c2.9,0.5,4.6,1,4.8,1l-0.8,2.9c0.2,0,0.3-0.2,0.5-0.2l0.5-0.2c0,0,0.2,0,0.2-0.2v-0.2
		c0-0.2,0.2-0.2,0.2-0.3c0.2-0.2,0.2-0.5,0.3-0.6c0.2-0.5,0.3-1,0.5-1.4c0.3-1,0.5-1.9,0.6-2.9s0.2-1.9,0.2-2.9
		C-220.3,391.1-220.3,390.7-220.3,390.2"/>
	<path class="st5" d="M-240,384.5c0,1.3,0,3.6-0.6,5.9c0,0.2,0,0.2,0,0.3c-0.8-0.2-1.6-0.2-2.4-0.2c0.8-1.7,1.1-3.6,1.1-4.4
		C-241.1,385.4-240.5,385-240,384.5 M-261.9,385.9c0,0.6,0.2,2.5,1.1,4.4c-0.8,0-1.6,0.2-2.2,0.2c0,0,0-0.2,0-0.3
		c-0.6-2.2-0.6-4.6-0.6-5.9C-263.3,385-262.5,385.4-261.9,385.9 M-230.6,392.4L-230.6,392.4c0,0.2,0.2,0.2,0.2,0.2
		c0.6,0.2,1.4,0.5,2.1,0.8c-1.1-0.8-1.9-2.9-2.2-4.4C-230.3,391-230.5,392.3-230.6,392.4 M-264.7,384.2l-7.3,2.1
		c-0.5,2.9-0.3,5.1-0.2,5.7l0,0c0,0,0.3-3.2,0.8-4.3c0.3-0.6,1.7-1,3-1.3c1.1-0.3,3-0.8,3.3,0.8c0.2,1,0.5,1.9,0.8,2.5
		C-264.7,387.3-264.7,385.1-264.7,384.2 M-239,384.2c0,1.1,0.2,3.5-0.5,5.9c0.3-0.6,0.6-1.6,1-2.7c0.3-1.6,2.2-1.1,3.3-0.8
		s2.7,0.6,3,1.3c0.5,1,0.6,3.3,0.6,4.1c0-1,0.2-3-0.3-5.5L-239,384.2 M-262,384.8c0.3,0.2,0.5,0.5,0.8,0.6c0.2,0.2,0.2,0.2,0.2,0.3
		c0,0,0,2.4,1.1,4.4c0,0,0,0,0,0.2c2.7-0.2,5.2-0.3,7.9-0.3s5.2,0.2,7.9,0.3c0,0,0,0,0-0.2c1.1-2.1,1.1-4.4,1.1-4.4
		c0-0.2,0.2-0.3,0.2-0.3c0.3-0.2,0.5-0.3,0.8-0.6v-0.2c1-5.4-0.2-10.3-0.8-12.8c0,1.7-0.5,16-4,16h-9.8c-3.8,0-4.1-16.2-4.1-16.2
		l-0.2,0.6C-261.6,374.8-262.5,379.6-262,384.8 M-273.1,392.4L-273.1,392.4c0-0.2-0.2-1.4-0.2-3.6c-0.5,1.6-1.1,3.8-2.2,4.4
		c0.6-0.3,1.4-0.6,2.1-0.8C-273.3,392.4-273.1,392.4-273.1,392.4"/>
	<path class="st6" d="M-227.5,414.1c0,0.3-0.2,0.6-0.2,1c0.8,0.2,2.2,0.3,2.9,0.2c0.3-0.3,0.6-1.3,1-2.5
		C-224.8,413.5-226,414.6-227.5,414.1 M-256.6,434.1c1.9,0.5,4,0.8,5.9,0.6c1.9-0.2,4.4-0.6,7.1-1.6c-0.6,0-1.1-0.2-1.7-0.3
		c-2.1,0.6-5.7,1.6-9.2,1c-1,0.3-1.6,0.3-1.7,0.5C-256.3,434.1-256.5,434.1-256.6,434.1 M-275.4,416.2c0-0.2-0.2-0.3-0.2-0.5
		c-1.4,0.3-2.9-0.5-3.6-1.3c0.3,1,0.6,1.7,0.8,1.9C-277.7,416.5-276.2,416.4-275.4,416.2 M-273.3,418.6c1,0.6,2.2,1.3,2.9,1.4
		c1.1,0.2,11.1-2.9,12.7-3.3c1-0.3,1.3-0.8,1.4-1.3l-14.4,3.2c0,0,0,0-0.2,0l0,0c-0.2,0-0.2,0-0.3-0.2l-0.6-0.3l-1.7-1.1l0,0
		l-0.6-0.5c0,0,0,0,0,0.2c0,0.2,0,0.2,0.2,0.3l0,0C-273.9,417-273.8,417.6-273.3,418.6 M-229.1,415.7c0.2-0.3,0.2-0.6,0.3-1.1
		l-0.5,0.3l-1.4,1l-1.4,1c0,0-0.2,0.2-0.3,0.2c0,0,0,0-0.2,0l-14.6-1.6v0.2c0.2,0.2,0.6,0.5,1.1,0.6c1.6,0.5,11.7,3,12.8,2.7
		c0.8-0.2,2.7-1.4,3.5-2.1l0,0C-229.4,416.7-229.2,416.2-229.1,415.7"/>
	<path class="st7" d="M-244.4,396.2c-0.2,0.2-0.3,0.3-0.3,0.5c-0.6,1-1.6,2.1-2.9,3c-1.4,0-2.7,0-4.1,0c-2.4,0-4.4,0-6.7,0.2
		c3-1.3,6.5-2.4,10.5-3.2C-246.8,396.5-245.6,396.2-244.4,396.2 M-261.7,397.5c-1.1,0.8-2.2,1.7-3.5,2.9c-2.5,0.3-5.1,0.6-7.8,1
		C-269.7,399.9-265.8,398.4-261.7,397.5 M-225.6,403.7l-1.3,8.4l-5.7,4.1l-15.1-1.7l-2.2-7.5c0-0.2-0.2-0.3-0.3-0.3
		c-0.6-0.2-1.1-0.2-1.4-0.2c-0.5,0-1,0-1.4,0.2c-0.2,0-0.3,0.2-0.3,0.3l-2.2,7.3l-15.1,3.3l-5.9-4.1l-1.1-9.5
		c0.3-0.2,0.5-0.3,0.8-0.5c0.3-0.2,0.8-0.2,1.3-0.3l1.1,8.9c0,0.2,0.2,0.3,0.2,0.3l4.1,2.9c0.2,0,0.2,0.2,0.3,0.2c0,0,0,0,0.2,0
		l12.4-2.7h0.2c0.2,0,0.2-0.2,0.3-0.3l2.2-7.3c0.6-0.2,2.1-0.5,3.5-0.5c1.3,0,2.9,0.3,3.5,0.5l2.2,7.3c0,0.2,0.2,0.3,0.5,0.3
		l12.4,1.4c0.2,0,0.3,0,0.3-0.2l4.1-2.9c0.2-0.2,0.2-0.2,0.2-0.3l1.1-7.6C-226.7,403.4-226,403.5-225.6,403.7 M-224,398.3l-1.1,4
		c-2.2-0.5-7-1.4-13.5-2.1c2.1-1,4.3-2.1,6.2-3.5C-228.4,397.3-225.6,398-224,398.3 M-279.3,398.3l0.3,1.1c0.8-0.6,1.4-1.1,2.2-1.6
		C-277.9,398-278.7,398.1-279.3,398.3"/>
	<path class="st8" d="M-237.6,396.1c-1.6-0.2-3.2-0.2-4.9-0.2c-0.2,0.3-0.3,0.5-0.6,0.8c-0.8,1.1-2.5,3.3-4.8,5.2
		c1.6-0.5,8.2-2.7,11.6-5.7C-236.8,396.2-237.1,396.1-237.6,396.1 M-249.5,395.6L-249.5,395.6c-0.8,0-1.6,0-2.5,0l0,0
		c-1.3,0-2.4,0-3.6,0l-2.2,1.1l0,0c-0.3,0.2-3.3,1.6-6,4.3c0.3-0.2,0.5-0.3,0.8-0.3c1.6-1,5.5-3.5,11.7-5.1
		C-250.8,395.6-250.1,395.6-249.5,395.6 M-263.3,395.9c-1.1,0-2.1,0.2-3.2,0.2c-1.3,0-2.4,0.2-3.6,0.3c-0.6,0-1.3,0.2-1.7,0.2
		c-0.2,0-0.3,0-0.5,0c-1.6,1-7.6,4.8-11.6,9.7c0-0.2,0.2-0.2,0.2-0.3C-276.2,399.4-267.7,396.9-263.3,395.9 M-228.9,422.5
		L-228.9,422.5c-1,0.5-1.9,0.6-3.2,0.6c-0.8,0-1.6,0-2.4-0.2c-1.7-0.2-4.4-0.5-4.6-0.5h-0.2l-0.2-0.2c0,0-2.5-2.1-4.4-3.5
		c-0.2,0-0.2-0.2-0.2-0.2c-0.2-0.2-0.2-0.2-0.3-0.2c-0.6,0-2.5,0.6-6.7,1.9l-0.3,0.2l-0.3-0.3c0,0-2.7-1-5.9-1c-0.3,0-0.5,0-0.8,0
		s-2.1,1-4.4,4.6l-0.2,0.2l-0.3,0.2c0,0-4,1.3-8.2,2.5h-0.3l-0.2-0.2c0,0-1.7-0.8-3.2-1.4c0.2,0,0.2,0.2,0.3,0.2
		c1.6,1.3,4.4,4,4.9,4.3l0.2,0.2c0-0.2-0.2-0.2-0.2-0.3l0,0l0,0c0.6,0.6,1.4,1.3,2.2,1.6c0.5,0.2,0.8,0.3,1.3,0.5c0.2,0,0.5,0,0.6,0
		c0.2,0,0.5,0,0.6,0c1,0,1.9-0.2,2.9-0.2c1-0.2,1.9-0.2,2.9-0.3c1-0.2,1.9-0.2,2.9-0.3c0.5,0,1-0.2,1.4-0.3c0.2,0,0.5-0.2,0.6-0.2
		s0.3-0.2,0.5-0.3c0.3-0.3,0.6-0.6,1-1c0.3-0.3,0.6-0.6,1-1c0.5-0.6,1-1.1,1.6-1.7l0.2-0.2l0,0l0,0c0.2,0,0.2,0.2,0.3,0.3
		c0.6,0.5,1.3,1,1.9,1.4c0.8,0.6,1.6,1.1,2.5,1.6c0.2,0.2,0.5,0.2,0.6,0.3l0,0l0,0h0.2c0.2,0,0.2,0,0.3,0c0.5,0,1-0.2,1.4-0.2
		c1-0.2,1.9-0.3,2.9-0.5c1-0.2,1.9-0.3,2.9-0.6c1-0.2,1.9-0.5,2.9-0.6c0.5-0.2,1-0.3,1.4-0.5c0.5-0.2,0.8-0.5,1.3-0.8
		c0.8-0.6,1.4-1.4,1.9-2.2l0,0C-229.4,423.6-229.1,423.2-228.9,422.5 M-247.1,376.7h1.7v-3.5h-12.5v3.5h1.7V375h3.5v10.8h-1.4v2.1
		h4.9v-2.1h-1.4V375h3.5V376.7"/>
	<path class="st9" d="M-234.1,396.4L-234.1,396.4c-0.8,0-1.4-0.2-2.2-0.2l0,0c-3.3,2.9-9.8,5.1-11.6,5.7c0,0,0,0-0.2,0.2
		c2.1-0.3,5.4-1.1,8.6-2.5c1.6-0.8,3.3-1.6,4.9-2.7C-234.5,396.5-234.3,396.4-234.1,396.4 M-251.4,395.6c-6.3,1.6-10.3,4-11.7,5.1
		c1.4-0.6,2.9-1.4,4.3-1.9c0.2,0,0.3-0.2,0.5-0.2h0.2c0.2,0,0.3-0.2,0.5-0.2s0.2,0,0.3-0.2c0.2,0,0.3-0.2,0.5-0.2
		c0.2,0,0.2,0,0.3-0.2c0.2,0,0.3-0.2,0.3-0.2c0.2,0,0.2-0.2,0.3-0.2c0.2,0,0.2-0.2,0.3-0.2s0.3-0.2,0.5-0.2s0.2,0,0.3-0.2
		c0.2,0,0.3-0.2,0.5-0.2s0.2,0,0.3-0.2c0.3-0.2,0.5-0.2,0.8-0.3c0.6-0.2,1.1-0.3,1.7-0.5c0.8-0.2,1.6-0.5,2.4-0.6
		C-250.1,395.6-250.8,395.6-251.4,395.6 M-263.3,395.9c-4.4,1-12.8,3.5-20.5,10c0,0-0.2,0.2-0.2,0.3c3.8-2.7,10.5-6.7,18.7-9
		c0.3,0,0.5-0.2,0.8-0.2c1.4-0.3,2.9-0.8,4.3-1C-261.2,395.9-262.4,395.9-263.3,395.9 M-227.5,421.9c0,0-0.2,0-0.2,0.2h-0.2h-0.2
		h-0.2l0,0c0,0-0.2,0-0.2,0.2l0,0c0,0-0.2,0-0.2,0.2l0,0c-0.2,0-0.3,0.2-0.3,0.2c-0.2,0.5-0.5,1-0.6,1.4l0,0l0,0
		c-0.5,0.8-1.1,1.6-1.9,2.2c-0.3,0.3-0.8,0.6-1.3,0.8c-0.5,0.2-1,0.3-1.4,0.5c-1,0.3-1.9,0.5-2.9,0.6c-1,0.2-1.9,0.5-2.9,0.6
		c-1,0.2-1.9,0.3-2.9,0.5c-0.5,0-1,0.2-1.4,0.2c-0.2,0-0.2,0-0.3,0h-0.2l0,0l0,0c-0.2,0-0.5-0.2-0.6-0.3c-0.8-0.5-1.7-1.1-2.5-1.6
		c-0.6-0.5-1.3-1-1.9-1.4l0,0l0,0c0,0,0.2,0,0.2,0.2l0,0c0,0,0,0-0.2,0l0.5,0.6l0,0c0.3,0.3,1.4,1.6,2.7,3c1,1,2.2,1.6,3.6,1.6
		c0.5,0,1,0,1.6-0.2c0.5-0.2,1-0.3,1.6-0.3c1.6-0.3,3.3-0.8,4.4-1.1h0.2c0.2,0,0.3-0.2,0.5-0.2s0.5-0.2,0.6-0.2
		c1.4-0.3,3.3-0.8,4.3-2.9c0.3-0.6,0.6-1.3,1-1.7C-228.3,424-227.8,423-227.5,421.9C-227.3,421.9-227.3,421.9-227.5,421.9l0.3-0.2
		L-227.5,421.9 M-250.5,426.3L-250.5,426.3c-0.6,0.5-1.1,1.1-1.6,1.7c-0.3,0.3-0.6,0.6-1,1s-0.6,0.6-1,1c-0.2,0.2-0.3,0.3-0.5,0.3
		s-0.5,0.2-0.6,0.2c-0.5,0.2-1,0.2-1.4,0.3c-1,0.2-1.9,0.3-2.9,0.3c-1,0.2-1.9,0.2-2.9,0.3c-1,0.2-1.9,0.2-2.9,0.2
		c-0.2,0-0.5,0-0.6,0c-0.2,0-0.5,0-0.6,0c-0.5,0-1-0.2-1.3-0.5c-0.8-0.3-1.6-1-2.2-1.6l0,0c0,0.2,0.2,0.3,0.2,0.3l0,0l-0.2-0.2
		c-0.3-0.3-3.3-2.9-4.9-4.3c-0.2,0-0.2-0.2-0.3-0.2c0.3,0.5,0.6,0.8,1,1.3c0.5,0.6,1,1.3,1.4,1.9c0.2,0.3,0.5,0.5,0.6,0.8
		c1.7,2.2,3.8,4.1,7.9,4.1c0.5,0,1.1,0,1.6-0.2c0.2,0,0.3,0,0.3,0c0.2,0,0.2,0,0.3,0c3.5-0.5,4.4-0.6,5.1-0.6c0.2,0,0.3,0,0.3,0h0.2
		c0,0,1.3-0.2,2.4-0.8c0.8-0.3,1.6-1,2.1-1.9c1-2.2,1.1-2.7,1.1-2.7L-250.5,426.3"/>
	<path class="st0" d="M-241,406.4c0.5,0,0.8-0.3,0.8-0.8s-0.3-0.8-0.8-0.8l0,0c-0.5,0-0.8,0.3-0.8,0.8l0,0
		C-241.7,406-241.3,406.4-241,406.4L-241,406.4z M-236,410c-1.1-0.5-2.2,0.2-4.3,0.2c-1.6,0-2.9,0-2.9-2.4c-0.2-2.4,1-4.4,2.4-4.4
		c1.6,0,2.9,1.9,3.2,4.3c0,0.6,0,1.1-0.2,1.4C-236.5,408.9-236,409.9-236,410L-236,410z M-262.8,407c0.5,0,0.8-0.3,0.8-0.8
		s-0.3-0.8-0.8-0.8c-0.5,0-0.8,0.3-0.8,0.8S-263.3,407-262.8,407L-262.8,407z M-260.5,408.3c0,2.4-1.3,2.2-2.9,2.2
		c-0.2,0-0.3,0-0.5,0c-0.2,0-0.3,0-0.5,0c-1.4,0-2.4,0-3.3,0.3c0,0,0.3-1,1.7-1.3c-0.2-0.3-0.3-0.8-0.3-1.4
		c-0.2-2.4,1.4-4.4,2.9-4.4C-261.6,404-260.5,405.9-260.5,408.3z M-231.4,391.8c0,0.2,0,0.3,0,0.5c-0.6-0.2-1.3-0.3-1.9-0.5
		c-2.1-0.5-4.1-0.8-6.2-1h-0.2c0,0,0,0,0-0.2c0-0.2,0.2-0.5,0.2-0.6c0.5-2.4,0.5-4.8,0.5-5.9l7.3,2.1
		C-231.3,388.8-231.4,390.8-231.4,391.8L-231.4,391.8z M-240.6,390.4c0,0.2,0,0.2,0,0.3c-0.8-0.2-1.6-0.2-2.4-0.2
		c0.8-1.7,1.1-3.6,1.1-4.4c0.6-0.5,1.3-1.1,1.7-1.4C-240,385.8-240,388.1-240.6,390.4L-240.6,390.4z M-263.1,390.5c0,0,0-0.2,0-0.3
		c-0.6-2.2-0.6-4.6-0.6-5.9c0.5,0.5,1.1,1,1.7,1.4c0,0.6,0.2,2.5,1.1,4.4C-261.6,390.4-262.4,390.5-263.1,390.5L-263.1,390.5z
		 M-264.3,390.7c-1,0.2-2.1,0.3-3,0.5c-1,0.2-2.1,0.3-3,0.6c-0.6,0.2-1.3,0.3-1.9,0.5v-0.2c0-0.8-0.2-2.9,0.2-5.7l7.3-2.1
		c0,1.1-0.2,3.3,0.3,5.5c0,0.3,0.2,0.6,0.2,1c0,0,0,0,0,0.2C-264.1,390.7-264.1,390.7-264.3,390.7L-264.3,390.7z M-227.5,393.7
		c0,0-0.2,0-0.2-0.2c-0.2,0-0.2-0.2-0.3-0.2c0,0-0.2,0-0.2-0.2c-0.6-0.3-1.4-0.6-2.1-0.8c-0.2,0-0.2,0-0.3,0l0,0
		c0-0.2,0.2-1.4,0.2-3.5c0-1-0.2-1.9-0.3-3.2c0-0.2-0.2-0.3-0.3-0.3l-1.1-0.3c-0.2-8.1-3.5-11.9-3.6-12.1c3,4.8,3,10.5,2.9,11.7
		l-6.5-1.9l0,0c0,0,0,0-0.2,0l0,0c0,0,0,0-0.2,0l0,0c0,0,0,0-0.2,0l0,0l0,0l0,0l0,0l0,0c0,0-0.2,0.2-0.5,0.5c0-0.6,0-1.6,0-2.7v-0.3
		c-0.2-2.9-1-6.8-2.9-10.3c0,0,0.2,0.6,0.5,1.6c0.6,2.4,1.6,7.5,1.1,12.8l0,0l0,0c-0.3,0.2-0.5,0.3-0.8,0.6
		c-0.3,0.3-0.3,0.5-0.3,0.6c0,0,0,2.4-1.1,4.4c0,0,0,0,0,0.2c-2.7-0.2-5.2-0.3-7.9-0.3s-5.2,0-7.9,0.3c0,0,0,0,0-0.2
		c-1.1-2.1-1.1-4.4-1.1-4.4c0-0.2-0.2-0.3-0.2-0.3c-0.3-0.2-0.5-0.3-0.8-0.6c-0.5-5.1,0.3-9.8,1-12.5c0.3-1.3,0.6-1.9,0.6-2.1
		c-2.9,5.1-3,11.3-3,13.3c-0.3-0.3-0.5-0.5-0.5-0.5l0,0l0,0l0,0l0,0l0,0l0,0l0,0c0,0,0,0-0.2,0l0,0l0,0l0,0l-6.5,1.9
		c0-1.3-0.2-7,2.9-11.7c-0.2,0.2-3.5,4-3.6,12.1l-1.1,0.3c-0.2,0-0.3,0.2-0.3,0.3c-0.2,1-0.3,2.1-0.3,3.2c-0.2,2.1,0,3.5,0.2,3.5
		l0,0c-0.2,0-0.2,0-0.3,0c-0.6,0.2-1.4,0.5-2.1,0.8c0,0-0.2,0-0.2,0.2l0,0c-0.2,0-0.2,0.2-0.3,0.2h-0.2c0,0,0,0-0.2,0
		c0.5-0.2,1-0.3,1.4-0.5c0.5-0.2,1-0.2,1.4-0.3c1-0.2,2.1-0.3,3-0.5c1-0.2,2.1-0.3,3-0.3c1-0.2,2.1-0.2,3-0.2
		c4.1-0.3,8.2-0.3,12.2-0.3c4.1,0,8.2,0,12.2,0.3c1,0,2.1,0.2,3,0.2c1,0.2,2.1,0.2,3,0.3c1,0.2,2.1,0.3,3,0.5c0.5,0.2,1,0.2,1.4,0.3
		C-228.4,393.4-228,393.5-227.5,393.7L-227.5,393.7z"/>
	<path class="st0" d="M-250.8,375v10.8h1.4v2.1h-4.9v-2.1h1.4V375h-3.5v1.7h-1.7v-3.5h12.5v3.5h-1.7V375H-250.8L-250.8,375z
		 M-244.1,378v-6h-15.2v6h4.3v-1.7h1v8.2h-1.4v4.6h7.5v-4.6h-1.4v-8.2h1v1.7H-244.1L-244.1,378z"/>
</g>
</svg>
