<?xml version="1.0" encoding="utf-8"?>
<!-- Generator: Adobe Illustrator 21.1.0, SVG Export Plug-In . SVG Version: 6.00 Build 0)  -->
<svg version="1.1" id="Layer_1" xmlns="http://www.w3.org/2000/svg" xmlns:xlink="http://www.w3.org/1999/xlink" x="0px" y="0px"
	 viewBox="0 0 650 350" style="enable-background:new 0 0 650 350;" xml:space="preserve">
<style type="text/css">
	.st0{fill:#1E1E1E;}
	.st1{fill:#3C3C3C;}
	.st2{clip-path:url(#SVGID_2_);}
	.st3{clip-path:url(#SVGID_4_);fill:#34C749;}
	.st4{clip-path:url(#SVGID_6_);}
	.st5{clip-path:url(#SVGID_8_);fill:#FDBC40;}
	.st6{clip-path:url(#SVGID_10_);}
	.st7{clip-path:url(#SVGID_12_);fill:#FC605C;}
	.st8{clip-path:url(#SVGID_14_);}
	.st9{fill:#66D9EF;}
	.st10{fill:#A6E22E;}
	.st11{fill:#AE81FF;}
</style>
<g id="New_Symbol_6">
</g>
<path class="st0" d="M5,350h640c2.8,0,5-2.2,5-4.9V4.9c0-2.7-2.2-4.9-5-4.9H5C2.2,0,0,2.2,0,4.9v340.3C0,347.8,2.2,350,5,350z"/>
<path class="st1" d="M0,36h650V5c0-2.8-2.2-5-5-5H4C1.8,0,0,1.8,0,4V36z"/>
<g>
	<defs>
		<circle id="SVGID_1_" cx="46" cy="19.5" r="5"/>
	</defs>
	<clipPath id="SVGID_2_">
		<use xlink:href="#SVGID_1_"  style="overflow:visible;"/>
	</clipPath>
	<g class="st2">
		<defs>
			<rect id="SVGID_3_" y="5.5" width="650" height="350"/>
		</defs>
		<clipPath id="SVGID_4_">
			<use xlink:href="#SVGID_3_"  style="overflow:visible;"/>
		</clipPath>
		<rect x="36" y="9.5" class="st3" width="20" height="20"/>
	</g>
</g>
<g>
	<defs>
		<circle id="SVGID_5_" cx="29" cy="19.5" r="5"/>
	</defs>
	<clipPath id="SVGID_6_">
		<use xlink:href="#SVGID_5_"  style="overflow:visible;"/>
	</clipPath>
	<g class="st4">
		<defs>
			<rect id="SVGID_7_" y="5.5" width="650" height="350"/>
		</defs>
		<clipPath id="SVGID_8_">
			<use xlink:href="#SVGID_7_"  style="overflow:visible;"/>
		</clipPath>
		<rect x="19" y="9.5" class="st5" width="20" height="20"/>
	</g>
</g>
<g>
	<defs>
		<circle id="SVGID_9_" cx="12" cy="19.5" r="5"/>
	</defs>
	<clipPath id="SVGID_10_">
		<use xlink:href="#SVGID_9_"  style="overflow:visible;"/>
	</clipPath>
	<g class="st6">
		<defs>
			<rect id="SVGID_11_" y="5.5" width="650" height="350"/>
		</defs>
		<clipPath id="SVGID_12_">
			<use xlink:href="#SVGID_11_"  style="overflow:visible;"/>
		</clipPath>
		<rect x="2" y="9.5" class="st7" width="20" height="20"/>
	</g>
</g>
<g>
	<defs>
		<rect id="SVGID_13_" x="29" y="62.5" width="587" height="221"/>
	</defs>
	<clipPath id="SVGID_14_">
		<use xlink:href="#SVGID_13_"  style="overflow:visible;"/>
	</clipPath>
	<g class="st8">
		<path class="st9" d="M31.1,72.9h-1V72h1.1l0.2-1.8h-1.1v-0.9h1.2l0.3-2.3h0.8l-0.3,2.3h1.6l0.3-2.3H35l-0.3,2.3h1.1v0.9h-1.1
			L34.4,72h1.1v0.9h-1.2L34,75.5h-0.8l0.3-2.6h-1.6l-0.3,2.6h-0.8L31.1,72.9z M33.6,72l0.2-1.8h-1.6L32,72H33.6z"/>
		<path class="st9" d="M45.4,71.3c0-0.7,0.1-1.3,0.3-1.9c0.2-0.5,0.5-1,0.8-1.4c0.3-0.4,0.7-0.7,1.2-0.9c0.5-0.2,1-0.3,1.6-0.3
			c0.5,0,1,0.1,1.4,0.3c0.4,0.2,0.7,0.5,1,0.7l-0.7,0.8c-0.2-0.2-0.5-0.4-0.7-0.5C49.9,68,49.6,68,49.3,68c-0.4,0-0.7,0.1-1,0.2
			s-0.6,0.4-0.8,0.7c-0.2,0.3-0.4,0.6-0.5,1c-0.1,0.4-0.2,0.9-0.2,1.4c0,0.5,0.1,1,0.2,1.4c0.1,0.4,0.3,0.8,0.5,1
			c0.2,0.3,0.5,0.5,0.8,0.7c0.3,0.2,0.7,0.2,1.1,0.2c0.4,0,0.7-0.1,1-0.2c0.3-0.2,0.6-0.4,0.8-0.7l0.7,0.8c-0.3,0.4-0.7,0.7-1.2,0.9
			c-0.4,0.2-0.9,0.3-1.5,0.3c-0.5,0-1-0.1-1.5-0.3c-0.5-0.2-0.9-0.5-1.2-0.9s-0.6-0.8-0.8-1.4C45.5,72.6,45.4,72,45.4,71.3z"/>
		<path class="st9" d="M53.1,72.3c0-0.5,0.1-1,0.3-1.4s0.4-0.8,0.7-1.1c0.3-0.3,0.6-0.5,1-0.7s0.8-0.2,1.2-0.2s0.8,0.1,1.2,0.2
			c0.4,0.1,0.7,0.4,1,0.7c0.3,0.3,0.5,0.6,0.7,1.1s0.3,0.9,0.3,1.4s-0.1,1-0.3,1.4c-0.2,0.4-0.4,0.8-0.7,1s-0.6,0.5-1,0.6
			c-0.4,0.1-0.8,0.2-1.2,0.2s-0.8-0.1-1.2-0.2c-0.4-0.1-0.7-0.4-1-0.6s-0.5-0.6-0.7-1C53.2,73.3,53.1,72.9,53.1,72.3z M54.5,72.3
			c0,0.7,0.2,1.2,0.5,1.7c0.3,0.4,0.8,0.6,1.4,0.6c0.6,0,1-0.2,1.4-0.6c0.3-0.4,0.5-1,0.5-1.7s-0.2-1.2-0.5-1.7
			c-0.3-0.4-0.8-0.6-1.4-0.6c-0.6,0-1,0.2-1.4,0.6C54.6,71.1,54.5,71.6,54.5,72.3z"/>
		<path class="st9" d="M66.8,75.5h-1.1l-0.1-1.1h-0.1c-0.3,0.4-0.7,0.7-1,0.9c-0.4,0.2-0.8,0.3-1.3,0.3c-0.8,0-1.3-0.2-1.7-0.7
			c-0.3-0.4-0.5-1.1-0.5-1.9v-3.9h1.3v3.8c0,0.6,0.1,1,0.3,1.2c0.2,0.3,0.5,0.4,1,0.4c0.3,0,0.6-0.1,0.9-0.2s0.6-0.4,0.9-0.8v-4.4
			h1.3V75.5z"/>
		<path class="st9" d="M69.1,69.1h1.1l0.1,1h0.1c0.3-0.3,0.7-0.6,1-0.8c0.4-0.2,0.8-0.3,1.3-0.3c0.7,0,1.3,0.2,1.6,0.7
			c0.3,0.4,0.5,1.1,0.5,1.9v3.9h-1.3v-3.8c0-0.6-0.1-1-0.3-1.2c-0.2-0.3-0.5-0.4-1-0.4c-0.3,0-0.6,0.1-0.9,0.3
			c-0.3,0.2-0.6,0.4-0.9,0.8v4.4h-1.3V69.1z"/>
		<path class="st9" d="M78.4,70.2h-1.7v-1l1.8-0.1l0.2-1.8h1.1v1.8h3v1h-3V73c0,0.5,0.1,1,0.3,1.2c0.2,0.3,0.6,0.4,1.2,0.4
			c0.3,0,0.5,0,0.8-0.1c0.2,0,0.5-0.1,0.7-0.2l0.3,0.9c-0.3,0.1-0.6,0.2-0.9,0.3c-0.3,0.1-0.7,0.1-1.1,0.1c-0.5,0-0.9-0.1-1.2-0.2
			c-0.3-0.1-0.6-0.3-0.8-0.5s-0.3-0.5-0.4-0.8c-0.1-0.3-0.1-0.7-0.1-1.1V70.2z"/>
		<path class="st9" d="M92,69.1h1.3l1.3,3.5c0.1,0.3,0.2,0.6,0.3,0.9c0.1,0.3,0.2,0.6,0.3,0.9h0.1c0.1-0.3,0.2-0.6,0.3-0.9
			c0.1-0.3,0.2-0.6,0.3-0.9l1.3-3.5h1.2l-2.5,6.4h-1.5L92,69.1z"/>
		<path class="st9" d="M99.9,72.3c0-0.5,0.1-1,0.3-1.4s0.4-0.8,0.7-1.1c0.3-0.3,0.6-0.5,1-0.7s0.8-0.2,1.2-0.2s0.8,0.1,1.2,0.2
			c0.4,0.1,0.7,0.4,1,0.7c0.3,0.3,0.5,0.6,0.7,1.1s0.3,0.9,0.3,1.4s-0.1,1-0.3,1.4c-0.2,0.4-0.4,0.8-0.7,1s-0.6,0.5-1,0.6
			c-0.4,0.1-0.8,0.2-1.2,0.2s-0.8-0.1-1.2-0.2c-0.4-0.1-0.7-0.4-1-0.6s-0.5-0.6-0.7-1C100,73.3,99.9,72.9,99.9,72.3z M101.3,72.3
			c0,0.7,0.2,1.2,0.5,1.7c0.3,0.4,0.8,0.6,1.4,0.6c0.6,0,1-0.2,1.4-0.6c0.3-0.4,0.5-1,0.5-1.7s-0.2-1.2-0.5-1.7
			c-0.3-0.4-0.8-0.6-1.4-0.6c-0.6,0-1,0.2-1.4,0.6C101.4,71.1,101.3,71.6,101.3,72.3z"/>
		<path class="st9" d="M107.1,69.1h1.3l0.7,3.5c0.1,0.3,0.1,0.6,0.2,0.9s0.1,0.6,0.1,0.9h0.1c0.1-0.6,0.2-1.2,0.4-1.8l0.7-3h1l0.7,3
			c0.1,0.3,0.1,0.6,0.2,0.9c0.1,0.3,0.1,0.6,0.2,0.9h0.1c0.1-0.3,0.1-0.6,0.1-0.9c0-0.3,0.1-0.6,0.1-0.9l0.7-3.5h1.2l-1.3,6.4h-1.5
			l-0.6-2.9c-0.1-0.3-0.1-0.6-0.2-0.9c0-0.3-0.1-0.6-0.2-0.9h-0.1c0,0.3-0.1,0.5-0.1,0.8c0,0.3-0.1,0.6-0.2,1l-0.6,2.9h-1.5
			L107.1,69.1z"/>
		<path class="st9" d="M115.6,72.3c0-0.5,0.1-1,0.3-1.4c0.2-0.4,0.4-0.8,0.7-1.1c0.3-0.3,0.6-0.5,1-0.7c0.4-0.2,0.8-0.2,1.2-0.2
			c0.5,0,0.9,0.1,1.2,0.2c0.4,0.1,0.7,0.4,0.9,0.6c0.3,0.3,0.4,0.6,0.6,0.9c0.1,0.4,0.2,0.8,0.2,1.2c0,0.1,0,0.3,0,0.4s0,0.2,0,0.3
			H117c0,0.6,0.3,1.1,0.7,1.5c0.4,0.4,1,0.5,1.6,0.5c0.3,0,0.7,0,1-0.1c0.3-0.1,0.6-0.2,0.9-0.4l0.5,0.8c-0.3,0.2-0.7,0.4-1.1,0.5
			c-0.4,0.1-0.9,0.2-1.4,0.2c-0.5,0-0.9-0.1-1.3-0.2s-0.8-0.4-1.1-0.7c-0.3-0.3-0.6-0.6-0.7-1C115.7,73.3,115.6,72.8,115.6,72.3z
			 M120.6,71.8c0-0.6-0.1-1-0.4-1.3c-0.3-0.3-0.7-0.5-1.3-0.5c-0.5,0-0.9,0.2-1.3,0.5c-0.4,0.3-0.6,0.7-0.7,1.3H120.6z"/>
		<path class="st9" d="M123.6,66.3h3.4v7.1c0,0.4,0.1,0.8,0.3,1s0.5,0.3,0.9,0.3c0.2,0,0.4,0,0.5-0.1s0.4-0.1,0.6-0.2l0.3,1
			c-0.1,0.1-0.3,0.1-0.4,0.1c-0.1,0-0.3,0.1-0.4,0.1c-0.1,0-0.3,0.1-0.4,0.1c-0.2,0-0.3,0-0.5,0c-0.7,0-1.2-0.2-1.6-0.6
			c-0.4-0.4-0.6-1-0.6-1.8v-6h-2.1V66.3z"/>
		<path class="st9" d="M131.9,73.8c0.4,0.3,0.7,0.5,1.1,0.6c0.4,0.2,0.9,0.2,1.4,0.2c0.5,0,0.9-0.1,1.2-0.2c0.3-0.2,0.4-0.4,0.4-0.6
			c0-0.2-0.2-0.4-0.5-0.6c-0.3-0.2-0.8-0.3-1.5-0.5c-0.3-0.1-0.6-0.2-0.9-0.3c-0.3-0.1-0.5-0.2-0.8-0.4s-0.4-0.3-0.5-0.5
			c-0.1-0.2-0.2-0.4-0.2-0.6c0-0.3,0.1-0.5,0.2-0.7c0.1-0.2,0.3-0.4,0.5-0.6c0.2-0.2,0.5-0.3,0.9-0.4c0.3-0.1,0.7-0.1,1.2-0.1
			c0.5,0,1,0.1,1.4,0.3s0.8,0.4,1.2,0.6l-0.6,0.8c-0.3-0.2-0.6-0.3-0.9-0.5c-0.3-0.1-0.7-0.2-1.1-0.2c-0.5,0-0.9,0.1-1.1,0.2
			c-0.2,0.2-0.3,0.3-0.3,0.6c0,0.2,0.2,0.4,0.5,0.6s0.8,0.3,1.3,0.4c0.8,0.2,1.4,0.4,1.8,0.7c0.4,0.3,0.6,0.7,0.6,1.2
			c0,0.3-0.1,0.5-0.2,0.8c-0.1,0.2-0.3,0.4-0.6,0.6s-0.6,0.3-0.9,0.4c-0.4,0.1-0.8,0.1-1.2,0.1c-0.6,0-1.2-0.1-1.7-0.3
			c-0.5-0.2-1-0.4-1.4-0.7L131.9,73.8z"/>
	</g>
	<g class="st8">
		<path class="st10" d="M30.7,107.7l1.4-2.1l-2.1-0.9l0.2-0.7l2.2,0.7l0.1-2.4h0.7l0.1,2.4l2.2-0.7l0.2,0.7l-2.1,0.9l1.4,2.1
			l-0.6,0.4l-1.5-2l-1.5,2L30.7,107.7z"/>
		<path class="st10" d="M45.1,101h1.4l1.3,4.4c0.1,0.5,0.3,1,0.4,1.4c0.1,0.4,0.2,0.9,0.4,1.4h0.1c0.2-0.5,0.3-1,0.4-1.4
			s0.2-0.9,0.4-1.4l1.3-4.4h1.3l-2.7,8.5h-1.5L45.1,101z"/>
		<path class="st10" d="M53.1,106.3c0-0.5,0.1-1,0.3-1.4s0.4-0.8,0.7-1.1c0.3-0.3,0.6-0.5,1-0.7s0.8-0.2,1.2-0.2s0.8,0.1,1.2,0.2
			c0.4,0.1,0.7,0.4,1,0.7c0.3,0.3,0.5,0.6,0.7,1.1s0.3,0.9,0.3,1.4s-0.1,1-0.3,1.4c-0.2,0.4-0.4,0.8-0.7,1s-0.6,0.5-1,0.6
			c-0.4,0.1-0.8,0.2-1.2,0.2s-0.8-0.1-1.2-0.2c-0.4-0.1-0.7-0.4-1-0.6s-0.5-0.6-0.7-1C53.2,107.3,53.1,106.9,53.1,106.3z
			 M54.5,106.3c0,0.7,0.2,1.2,0.5,1.7c0.3,0.4,0.8,0.6,1.4,0.6c0.6,0,1-0.2,1.4-0.6c0.3-0.4,0.5-1,0.5-1.7s-0.2-1.2-0.5-1.7
			c-0.3-0.4-0.8-0.6-1.4-0.6c-0.6,0-1,0.2-1.4,0.6C54.6,105.1,54.5,105.6,54.5,106.3z"/>
		<path class="st10" d="M60.3,103.1h1.3l0.7,3.5c0.1,0.3,0.1,0.6,0.2,0.9s0.1,0.6,0.1,0.9h0.1c0.1-0.6,0.2-1.2,0.4-1.8l0.7-3h1
			l0.7,3c0.1,0.3,0.1,0.6,0.2,0.9c0.1,0.3,0.1,0.6,0.2,0.9h0.1c0.1-0.3,0.1-0.6,0.1-0.9c0-0.3,0.1-0.6,0.1-0.9l0.7-3.5h1.2l-1.3,6.4
			h-1.5l-0.6-2.9c-0.1-0.3-0.1-0.6-0.2-0.9c0-0.3-0.1-0.6-0.2-0.9h-0.1c0,0.3-0.1,0.5-0.1,0.8c0,0.3-0.1,0.6-0.2,1l-0.6,2.9h-1.5
			L60.3,103.1z"/>
		<path class="st10" d="M68.8,106.3c0-0.5,0.1-1,0.3-1.4c0.2-0.4,0.4-0.8,0.7-1.1c0.3-0.3,0.6-0.5,1-0.7c0.4-0.2,0.8-0.2,1.2-0.2
			c0.5,0,0.9,0.1,1.2,0.2c0.4,0.1,0.7,0.4,0.9,0.6c0.3,0.3,0.4,0.6,0.6,0.9c0.1,0.4,0.2,0.8,0.2,1.2c0,0.1,0,0.3,0,0.4s0,0.2,0,0.3
			h-4.8c0,0.6,0.3,1.1,0.7,1.5c0.4,0.4,1,0.5,1.6,0.5c0.3,0,0.7,0,1-0.1c0.3-0.1,0.6-0.2,0.9-0.4l0.5,0.8c-0.3,0.2-0.7,0.4-1.1,0.5
			c-0.4,0.1-0.9,0.2-1.4,0.2c-0.5,0-0.9-0.1-1.3-0.2s-0.8-0.4-1.1-0.7c-0.3-0.3-0.6-0.6-0.7-1C68.9,107.3,68.8,106.8,68.8,106.3z
			 M73.8,105.8c0-0.6-0.1-1-0.4-1.3c-0.3-0.3-0.7-0.5-1.3-0.5c-0.5,0-0.9,0.2-1.3,0.5c-0.4,0.3-0.6,0.7-0.7,1.3H73.8z"/>
		<path class="st10" d="M76.8,100.3h3.4v7.1c0,0.4,0.1,0.8,0.3,1s0.5,0.3,0.9,0.3c0.2,0,0.4,0,0.5-0.1s0.4-0.1,0.6-0.2l0.3,1
			c-0.1,0.1-0.3,0.1-0.4,0.1c-0.1,0-0.3,0.1-0.4,0.1c-0.1,0-0.3,0.1-0.4,0.1c-0.2,0-0.3,0-0.5,0c-0.7,0-1.2-0.2-1.6-0.6
			c-0.4-0.4-0.6-1-0.6-1.8v-6h-2.1V100.3z"/>
		<path class="st10" d="M85.1,107.8c0.4,0.3,0.7,0.5,1.1,0.6c0.4,0.2,0.9,0.2,1.4,0.2c0.5,0,0.9-0.1,1.2-0.2
			c0.3-0.2,0.4-0.4,0.4-0.6c0-0.2-0.2-0.4-0.5-0.6c-0.3-0.2-0.8-0.3-1.5-0.5c-0.3-0.1-0.6-0.2-0.9-0.3c-0.3-0.1-0.5-0.2-0.8-0.4
			s-0.4-0.3-0.5-0.5c-0.1-0.2-0.2-0.4-0.2-0.6c0-0.3,0.1-0.5,0.2-0.7c0.1-0.2,0.3-0.4,0.5-0.6c0.2-0.2,0.5-0.3,0.9-0.4
			c0.3-0.1,0.7-0.1,1.2-0.1c0.5,0,1,0.1,1.4,0.3s0.8,0.4,1.2,0.6l-0.6,0.8c-0.3-0.2-0.6-0.3-0.9-0.5c-0.3-0.1-0.7-0.2-1.1-0.2
			c-0.5,0-0.9,0.1-1.1,0.2c-0.2,0.2-0.3,0.3-0.3,0.6c0,0.2,0.2,0.4,0.5,0.6s0.8,0.3,1.3,0.4c0.8,0.2,1.4,0.4,1.8,0.7
			c0.4,0.3,0.6,0.7,0.6,1.2c0,0.3-0.1,0.5-0.2,0.8c-0.1,0.2-0.3,0.4-0.6,0.6s-0.6,0.3-0.9,0.4c-0.4,0.1-0.8,0.1-1.2,0.1
			c-0.6,0-1.2-0.1-1.7-0.3c-0.5-0.2-1-0.4-1.4-0.7L85.1,107.8z"/>
		<path class="st10" d="M100.3,103.1h4.1v6.4h-1.3v-5.3h-2.8V103.1z M103.7,101.9c-0.3,0-0.5-0.1-0.7-0.2c-0.2-0.2-0.3-0.4-0.3-0.7
			s0.1-0.5,0.3-0.7c0.2-0.2,0.4-0.3,0.7-0.3c0.3,0,0.5,0.1,0.7,0.3c0.2,0.2,0.3,0.4,0.3,0.7s-0.1,0.5-0.3,0.7
			C104.2,101.9,104,101.9,103.7,101.9z"/>
		<path class="st10" d="M108.1,103.1h1.1l0.1,1h0.1c0.3-0.3,0.7-0.6,1-0.8c0.4-0.2,0.8-0.3,1.3-0.3c0.7,0,1.3,0.2,1.6,0.7
			c0.3,0.4,0.5,1.1,0.5,1.9v3.9h-1.3v-3.8c0-0.6-0.1-1-0.3-1.2c-0.2-0.3-0.5-0.4-1-0.4c-0.3,0-0.6,0.1-0.9,0.3
			c-0.3,0.2-0.6,0.4-0.9,0.8v4.4h-1.3V103.1z"/>
		<path class="st10" d="M124,101h5.3v1.1h-4v2.4h3.4v1.1h-3.4v2.8h4.2v1.1H124V101z"/>
		<path class="st10" d="M131.5,103.1h1.1l0.1,1h0.1c0.3-0.3,0.7-0.6,1-0.8c0.4-0.2,0.8-0.3,1.3-0.3c0.7,0,1.3,0.2,1.6,0.7
			c0.3,0.4,0.5,1.1,0.5,1.9v3.9H136v-3.8c0-0.6-0.1-1-0.3-1.2c-0.2-0.3-0.5-0.4-1-0.4c-0.3,0-0.6,0.1-0.9,0.3
			c-0.3,0.2-0.6,0.4-0.9,0.8v4.4h-1.3V103.1z"/>
		<path class="st10" d="M139.1,110.6c0-0.3,0.1-0.5,0.3-0.7c0.2-0.2,0.4-0.5,0.8-0.6v-0.1c-0.2-0.1-0.3-0.2-0.5-0.4
			c-0.1-0.2-0.2-0.4-0.2-0.7c0-0.2,0.1-0.4,0.2-0.6c0.1-0.2,0.3-0.4,0.6-0.6v-0.1c-0.2-0.2-0.4-0.4-0.6-0.7c-0.2-0.3-0.2-0.6-0.2-1
			c0-0.4,0.1-0.7,0.2-1c0.1-0.3,0.3-0.5,0.6-0.7c0.2-0.2,0.5-0.4,0.8-0.5c0.3-0.1,0.6-0.2,1-0.2c0.4,0,0.7,0.1,1,0.2h2.6v1H144
			c0.1,0.1,0.2,0.3,0.4,0.5c0.1,0.2,0.2,0.4,0.2,0.7c0,0.3-0.1,0.7-0.2,0.9c-0.1,0.3-0.3,0.5-0.5,0.7c-0.2,0.2-0.5,0.3-0.8,0.4
			c-0.3,0.1-0.6,0.1-1,0.1c-0.2,0-0.3,0-0.5-0.1c-0.2,0-0.4-0.1-0.5-0.2c-0.3,0.2-0.4,0.4-0.4,0.7c0,0.2,0.1,0.4,0.3,0.5
			c0.2,0.1,0.5,0.2,0.9,0.2h1.4c0.8,0,1.4,0.1,1.9,0.4c0.4,0.2,0.6,0.6,0.6,1.2c0,0.3-0.1,0.6-0.3,0.9s-0.4,0.5-0.7,0.7
			c-0.3,0.2-0.7,0.4-1.1,0.5s-0.9,0.2-1.5,0.2c-0.9,0-1.6-0.1-2.1-0.4C139.3,111.6,139.1,111.2,139.1,110.6z M140.2,110.5
			c0,0.3,0.2,0.5,0.5,0.7s0.8,0.3,1.4,0.3c0.3,0,0.6,0,0.9-0.1c0.3-0.1,0.5-0.2,0.7-0.3c0.2-0.1,0.3-0.2,0.4-0.4
			c0.1-0.1,0.2-0.3,0.2-0.4c0-0.3-0.1-0.5-0.3-0.6c-0.2-0.1-0.6-0.1-1-0.1h-1.1c-0.2,0-0.4,0-0.5,0c-0.2,0-0.3,0-0.4-0.1
			c-0.3,0.1-0.4,0.3-0.5,0.5S140.2,110.3,140.2,110.5z M142,106.7c0.4,0,0.7-0.1,0.9-0.4c0.3-0.2,0.4-0.6,0.4-1c0-0.4-0.1-0.8-0.4-1
			c-0.3-0.3-0.6-0.4-0.9-0.4c-0.4,0-0.7,0.1-0.9,0.4c-0.3,0.3-0.4,0.6-0.4,1c0,0.4,0.1,0.8,0.4,1C141.3,106.5,141.6,106.7,142,106.7
			z"/>
		<path class="st10" d="M147,100.3h3.4v7.1c0,0.4,0.1,0.8,0.3,1s0.5,0.3,0.9,0.3c0.2,0,0.4,0,0.5-0.1s0.4-0.1,0.6-0.2l0.3,1
			c-0.1,0.1-0.3,0.1-0.4,0.1c-0.1,0-0.3,0.1-0.4,0.1c-0.1,0-0.3,0.1-0.4,0.1c-0.2,0-0.3,0-0.5,0c-0.7,0-1.2-0.2-1.6-0.6
			c-0.4-0.4-0.6-1-0.6-1.8v-6H147V100.3z"/>
		<path class="st10" d="M154.9,103.1h4.1v6.4h-1.3v-5.3h-2.8V103.1z M158.3,101.9c-0.3,0-0.5-0.1-0.7-0.2c-0.2-0.2-0.3-0.4-0.3-0.7
			s0.1-0.5,0.3-0.7c0.2-0.2,0.4-0.3,0.7-0.3c0.3,0,0.5,0.1,0.7,0.3c0.2,0.2,0.3,0.4,0.3,0.7s-0.1,0.5-0.3,0.7
			C158.8,101.9,158.6,101.9,158.3,101.9z"/>
		<path class="st10" d="M163.1,107.8c0.4,0.3,0.7,0.5,1.1,0.6c0.4,0.2,0.9,0.2,1.4,0.2c0.5,0,0.9-0.1,1.2-0.2
			c0.3-0.2,0.4-0.4,0.4-0.6c0-0.2-0.2-0.4-0.5-0.6c-0.3-0.2-0.8-0.3-1.5-0.5c-0.3-0.1-0.6-0.2-0.9-0.3c-0.3-0.1-0.5-0.2-0.8-0.4
			s-0.4-0.3-0.5-0.5c-0.1-0.2-0.2-0.4-0.2-0.6c0-0.3,0.1-0.5,0.2-0.7c0.1-0.2,0.3-0.4,0.5-0.6c0.2-0.2,0.5-0.3,0.9-0.4
			c0.3-0.1,0.7-0.1,1.2-0.1c0.5,0,1,0.1,1.4,0.3s0.8,0.4,1.2,0.6l-0.6,0.8c-0.3-0.2-0.6-0.3-0.9-0.5c-0.3-0.1-0.7-0.2-1.1-0.2
			c-0.5,0-0.9,0.1-1.1,0.2c-0.2,0.2-0.3,0.3-0.3,0.6c0,0.2,0.2,0.4,0.5,0.6s0.8,0.3,1.3,0.4c0.8,0.2,1.4,0.4,1.8,0.7
			c0.4,0.3,0.6,0.7,0.6,1.2c0,0.3-0.1,0.5-0.2,0.8c-0.1,0.2-0.3,0.4-0.6,0.6s-0.6,0.3-0.9,0.4c-0.4,0.1-0.8,0.1-1.2,0.1
			c-0.6,0-1.2-0.1-1.7-0.3c-0.5-0.2-1-0.4-1.4-0.7L163.1,107.8z"/>
		<path class="st10" d="M170.5,100.3h1.3v2.4l-0.1,1.4c0.3-0.3,0.7-0.6,1-0.8s0.8-0.3,1.3-0.3c0.7,0,1.3,0.2,1.6,0.7
			c0.3,0.4,0.5,1.1,0.5,1.9v3.9H175v-3.8c0-0.6-0.1-1-0.3-1.2c-0.2-0.3-0.5-0.4-1-0.4c-0.3,0-0.6,0.1-0.9,0.3
			c-0.3,0.2-0.6,0.4-0.9,0.8v4.4h-1.3V100.3z"/>
		<path class="st10" d="M186,100.3h3.4v7.1c0,0.4,0.1,0.8,0.3,1s0.5,0.3,0.9,0.3c0.2,0,0.4,0,0.5-0.1s0.4-0.1,0.6-0.2l0.3,1
			c-0.1,0.1-0.3,0.1-0.4,0.1c-0.1,0-0.3,0.1-0.4,0.1c-0.1,0-0.3,0.1-0.4,0.1c-0.2,0-0.3,0-0.5,0c-0.7,0-1.2-0.2-1.6-0.6
			c-0.4-0.4-0.6-1-0.6-1.8v-6H186V100.3z"/>
		<path class="st10" d="M193.8,107.8c0-0.4,0.1-0.7,0.3-0.9c0.2-0.3,0.4-0.5,0.8-0.7c0.4-0.2,0.8-0.3,1.4-0.5c0.6-0.1,1.2-0.2,2-0.3
			c0-0.4-0.1-0.7-0.4-1s-0.6-0.4-1.2-0.4c-0.4,0-0.8,0.1-1.1,0.2c-0.4,0.1-0.7,0.3-1,0.5l-0.5-0.9c0.2-0.1,0.4-0.2,0.6-0.3
			c0.2-0.1,0.4-0.2,0.7-0.3c0.2-0.1,0.5-0.2,0.8-0.2c0.3-0.1,0.5-0.1,0.8-0.1c0.9,0,1.5,0.2,2,0.7c0.4,0.5,0.7,1.1,0.7,2v3.8h-1.1
			l-0.1-0.8h0c-0.3,0.3-0.7,0.5-1.1,0.7c-0.4,0.2-0.9,0.3-1.3,0.3c-0.3,0-0.6,0-0.9-0.1c-0.3-0.1-0.5-0.2-0.7-0.4
			c-0.2-0.2-0.3-0.4-0.4-0.6S193.8,108.1,193.8,107.8z M195,107.7c0,0.3,0.1,0.5,0.4,0.7s0.5,0.2,0.9,0.2c0.3,0,0.7-0.1,1-0.2
			c0.3-0.1,0.7-0.4,1-0.6v-1.5c-0.6,0.1-1.1,0.1-1.6,0.2s-0.7,0.2-1,0.3c-0.2,0.1-0.4,0.3-0.5,0.4S195,107.5,195,107.7z"/>
		<path class="st10" d="M201.7,103.1h1.1l0.1,1h0.1c0.3-0.3,0.7-0.6,1-0.8c0.4-0.2,0.8-0.3,1.3-0.3c0.7,0,1.3,0.2,1.6,0.7
			c0.3,0.4,0.5,1.1,0.5,1.9v3.9h-1.3v-3.8c0-0.6-0.1-1-0.3-1.2c-0.2-0.3-0.5-0.4-1-0.4c-0.3,0-0.6,0.1-0.9,0.3
			c-0.3,0.2-0.6,0.4-0.9,0.8v4.4h-1.3V103.1z"/>
		<path class="st10" d="M209.3,110.6c0-0.3,0.1-0.5,0.3-0.7c0.2-0.2,0.4-0.5,0.8-0.6v-0.1c-0.2-0.1-0.3-0.2-0.5-0.4
			c-0.1-0.2-0.2-0.4-0.2-0.7c0-0.2,0.1-0.4,0.2-0.6c0.1-0.2,0.3-0.4,0.6-0.6v-0.1c-0.2-0.2-0.4-0.4-0.6-0.7c-0.2-0.3-0.2-0.6-0.2-1
			c0-0.4,0.1-0.7,0.2-1c0.1-0.3,0.3-0.5,0.6-0.7c0.2-0.2,0.5-0.4,0.8-0.5c0.3-0.1,0.6-0.2,1-0.2c0.4,0,0.7,0.1,1,0.2h2.6v1h-1.6
			c0.1,0.1,0.2,0.3,0.4,0.5c0.1,0.2,0.2,0.4,0.2,0.7c0,0.3-0.1,0.7-0.2,0.9c-0.1,0.3-0.3,0.5-0.5,0.7c-0.2,0.2-0.5,0.3-0.8,0.4
			c-0.3,0.1-0.6,0.1-1,0.1c-0.2,0-0.3,0-0.5-0.1c-0.2,0-0.4-0.1-0.5-0.2c-0.3,0.2-0.4,0.4-0.4,0.7c0,0.2,0.1,0.4,0.3,0.5
			c0.2,0.1,0.5,0.2,0.9,0.2h1.4c0.8,0,1.4,0.1,1.9,0.4c0.4,0.2,0.6,0.6,0.6,1.2c0,0.3-0.1,0.6-0.3,0.9s-0.4,0.5-0.7,0.7
			c-0.3,0.2-0.7,0.4-1.1,0.5s-0.9,0.2-1.5,0.2c-0.9,0-1.6-0.1-2.1-0.4C209.5,111.6,209.3,111.2,209.3,110.6z M210.4,110.5
			c0,0.3,0.2,0.5,0.5,0.7s0.8,0.3,1.4,0.3c0.3,0,0.6,0,0.9-0.1c0.3-0.1,0.5-0.2,0.7-0.3c0.2-0.1,0.3-0.2,0.4-0.4
			c0.1-0.1,0.2-0.3,0.2-0.4c0-0.3-0.1-0.5-0.3-0.6c-0.2-0.1-0.6-0.1-1-0.1H212c-0.2,0-0.4,0-0.5,0c-0.2,0-0.3,0-0.4-0.1
			c-0.3,0.1-0.4,0.3-0.5,0.5S210.4,110.3,210.4,110.5z M212.2,106.7c0.4,0,0.7-0.1,0.9-0.4c0.3-0.2,0.4-0.6,0.4-1
			c0-0.4-0.1-0.8-0.4-1c-0.3-0.3-0.6-0.4-0.9-0.4c-0.4,0-0.7,0.1-0.9,0.4c-0.3,0.3-0.4,0.6-0.4,1c0,0.4,0.1,0.8,0.4,1
			C211.5,106.5,211.8,106.7,212.2,106.7z"/>
		<path class="st10" d="M222.8,109.5h-1.1l-0.1-1.1h-0.1c-0.3,0.4-0.7,0.7-1,0.9c-0.4,0.2-0.8,0.3-1.3,0.3c-0.8,0-1.3-0.2-1.7-0.7
			c-0.3-0.4-0.5-1.1-0.5-1.9v-3.9h1.3v3.8c0,0.6,0.1,1,0.3,1.2c0.2,0.3,0.5,0.4,1,0.4c0.3,0,0.6-0.1,0.9-0.2s0.6-0.4,0.9-0.8v-4.4
			h1.3V109.5z"/>
		<path class="st10" d="M225,107.8c0-0.4,0.1-0.7,0.3-0.9c0.2-0.3,0.4-0.5,0.8-0.7c0.4-0.2,0.8-0.3,1.4-0.5c0.6-0.1,1.2-0.2,2-0.3
			c0-0.4-0.1-0.7-0.4-1s-0.6-0.4-1.2-0.4c-0.4,0-0.8,0.1-1.1,0.2c-0.4,0.1-0.7,0.3-1,0.5l-0.5-0.9c0.2-0.1,0.4-0.2,0.6-0.3
			c0.2-0.1,0.4-0.2,0.7-0.3c0.2-0.1,0.5-0.2,0.8-0.2c0.3-0.1,0.5-0.1,0.8-0.1c0.9,0,1.5,0.2,2,0.7c0.4,0.5,0.7,1.1,0.7,2v3.8h-1.1
			l-0.1-0.8h0c-0.3,0.3-0.7,0.5-1.1,0.7c-0.4,0.2-0.9,0.3-1.3,0.3c-0.3,0-0.6,0-0.9-0.1c-0.3-0.1-0.5-0.2-0.7-0.4
			c-0.2-0.2-0.3-0.4-0.4-0.6S225,108.1,225,107.8z M226.2,107.7c0,0.3,0.1,0.5,0.4,0.7s0.5,0.2,0.9,0.2c0.3,0,0.7-0.1,1-0.2
			c0.3-0.1,0.7-0.4,1-0.6v-1.5c-0.6,0.1-1.1,0.1-1.6,0.2s-0.7,0.2-1,0.3c-0.2,0.1-0.4,0.3-0.5,0.4S226.2,107.5,226.2,107.7z"/>
		<path class="st10" d="M232.7,110.6c0-0.3,0.1-0.5,0.3-0.7c0.2-0.2,0.4-0.5,0.8-0.6v-0.1c-0.2-0.1-0.3-0.2-0.5-0.4
			c-0.1-0.2-0.2-0.4-0.2-0.7c0-0.2,0.1-0.4,0.2-0.6c0.1-0.2,0.3-0.4,0.6-0.6v-0.1c-0.2-0.2-0.4-0.4-0.6-0.7c-0.2-0.3-0.2-0.6-0.2-1
			c0-0.4,0.1-0.7,0.2-1c0.1-0.3,0.3-0.5,0.6-0.7c0.2-0.2,0.5-0.4,0.8-0.5c0.3-0.1,0.6-0.2,1-0.2c0.4,0,0.7,0.1,1,0.2h2.6v1h-1.6
			c0.1,0.1,0.2,0.3,0.4,0.5c0.1,0.2,0.2,0.4,0.2,0.7c0,0.3-0.1,0.7-0.2,0.9c-0.1,0.3-0.3,0.5-0.5,0.7c-0.2,0.2-0.5,0.3-0.8,0.4
			c-0.3,0.1-0.6,0.1-1,0.1c-0.2,0-0.3,0-0.5-0.1c-0.2,0-0.4-0.1-0.5-0.2c-0.3,0.2-0.4,0.4-0.4,0.7c0,0.2,0.1,0.4,0.3,0.5
			c0.2,0.1,0.5,0.2,0.9,0.2h1.4c0.8,0,1.4,0.1,1.9,0.4c0.4,0.2,0.6,0.6,0.6,1.2c0,0.3-0.1,0.6-0.3,0.9s-0.4,0.5-0.7,0.7
			c-0.3,0.2-0.7,0.4-1.1,0.5s-0.9,0.2-1.5,0.2c-0.9,0-1.6-0.1-2.1-0.4C232.9,111.6,232.7,111.2,232.7,110.6z M233.8,110.5
			c0,0.3,0.2,0.5,0.5,0.7s0.8,0.3,1.4,0.3c0.3,0,0.6,0,0.9-0.1c0.3-0.1,0.5-0.2,0.7-0.3c0.2-0.1,0.3-0.2,0.4-0.4
			c0.1-0.1,0.2-0.3,0.2-0.4c0-0.3-0.1-0.5-0.3-0.6c-0.2-0.1-0.6-0.1-1-0.1h-1.1c-0.2,0-0.4,0-0.5,0c-0.2,0-0.3,0-0.4-0.1
			c-0.3,0.1-0.4,0.3-0.5,0.5S233.8,110.3,233.8,110.5z M235.6,106.7c0.4,0,0.7-0.1,0.9-0.4c0.3-0.2,0.4-0.6,0.4-1
			c0-0.4-0.1-0.8-0.4-1c-0.3-0.3-0.6-0.4-0.9-0.4c-0.4,0-0.7,0.1-0.9,0.4c-0.3,0.3-0.4,0.6-0.4,1c0,0.4,0.1,0.8,0.4,1
			C234.9,106.5,235.2,106.7,235.6,106.7z"/>
		<path class="st10" d="M240.4,106.3c0-0.5,0.1-1,0.3-1.4c0.2-0.4,0.4-0.8,0.7-1.1c0.3-0.3,0.6-0.5,1-0.7c0.4-0.2,0.8-0.2,1.2-0.2
			c0.5,0,0.9,0.1,1.2,0.2c0.4,0.1,0.7,0.4,0.9,0.6c0.3,0.3,0.4,0.6,0.6,0.9c0.1,0.4,0.2,0.8,0.2,1.2c0,0.1,0,0.3,0,0.4s0,0.2,0,0.3
			h-4.8c0,0.6,0.3,1.1,0.7,1.5c0.4,0.4,1,0.5,1.6,0.5c0.3,0,0.7,0,1-0.1c0.3-0.1,0.6-0.2,0.9-0.4l0.5,0.8c-0.3,0.2-0.7,0.4-1.1,0.5
			c-0.4,0.1-0.9,0.2-1.4,0.2c-0.5,0-0.9-0.1-1.3-0.2s-0.8-0.4-1.1-0.7c-0.3-0.3-0.6-0.6-0.7-1C240.5,107.3,240.4,106.8,240.4,106.3z
			 M245.4,105.8c0-0.6-0.1-1-0.4-1.3c-0.3-0.3-0.7-0.5-1.3-0.5c-0.5,0-0.9,0.2-1.3,0.5c-0.4,0.3-0.6,0.7-0.7,1.3H245.4z"/>
		<path class="st10" d="M256.2,107.8c0-0.4,0.1-0.7,0.3-0.9c0.2-0.3,0.4-0.5,0.8-0.7c0.4-0.2,0.8-0.3,1.4-0.5c0.6-0.1,1.2-0.2,2-0.3
			c0-0.4-0.1-0.7-0.4-1s-0.6-0.4-1.2-0.4c-0.4,0-0.8,0.1-1.1,0.2c-0.4,0.1-0.7,0.3-1,0.5l-0.5-0.9c0.2-0.1,0.4-0.2,0.6-0.3
			c0.2-0.1,0.4-0.2,0.7-0.3c0.2-0.1,0.5-0.2,0.8-0.2c0.3-0.1,0.5-0.1,0.8-0.1c0.9,0,1.5,0.2,2,0.7c0.4,0.5,0.7,1.1,0.7,2v3.8h-1.1
			l-0.1-0.8h0c-0.3,0.3-0.7,0.5-1.1,0.7c-0.4,0.2-0.9,0.3-1.3,0.3c-0.3,0-0.6,0-0.9-0.1c-0.3-0.1-0.5-0.2-0.7-0.4
			c-0.2-0.2-0.3-0.4-0.4-0.6S256.2,108.1,256.2,107.8z M257.4,107.7c0,0.3,0.1,0.5,0.4,0.7s0.5,0.2,0.9,0.2c0.3,0,0.7-0.1,1-0.2
			c0.3-0.1,0.7-0.4,1-0.6v-1.5c-0.6,0.1-1.1,0.1-1.6,0.2s-0.7,0.2-1,0.3c-0.2,0.1-0.4,0.3-0.5,0.4S257.4,107.5,257.4,107.7z"/>
		<path class="st10" d="M264.8,103.1h1.1l0.1,1.5h0c0.3-0.5,0.7-0.9,1.2-1.2c0.5-0.3,1-0.4,1.6-0.4c0.3,0,0.5,0,0.7,0.1
			c0.2,0,0.4,0.1,0.6,0.2l-0.3,1.1c-0.2-0.1-0.4-0.1-0.6-0.2c-0.2,0-0.4-0.1-0.6-0.1c-0.5,0-0.9,0.1-1.3,0.4
			c-0.4,0.3-0.8,0.7-1.2,1.4v3.6h-1.3V103.1z"/>
		<path class="st10" d="M271.6,106.3c0-0.5,0.1-1,0.3-1.4c0.2-0.4,0.4-0.8,0.7-1.1c0.3-0.3,0.6-0.5,1-0.7c0.4-0.2,0.8-0.2,1.2-0.2
			c0.5,0,0.9,0.1,1.2,0.2c0.4,0.1,0.7,0.4,0.9,0.6c0.3,0.3,0.4,0.6,0.6,0.9c0.1,0.4,0.2,0.8,0.2,1.2c0,0.1,0,0.3,0,0.4s0,0.2,0,0.3
			H273c0,0.6,0.3,1.1,0.7,1.5c0.4,0.4,1,0.5,1.6,0.5c0.3,0,0.7,0,1-0.1c0.3-0.1,0.6-0.2,0.9-0.4l0.5,0.8c-0.3,0.2-0.7,0.4-1.1,0.5
			c-0.4,0.1-0.9,0.2-1.4,0.2c-0.5,0-0.9-0.1-1.3-0.2s-0.8-0.4-1.1-0.7c-0.3-0.3-0.6-0.6-0.7-1C271.7,107.3,271.6,106.8,271.6,106.3z
			 M276.6,105.8c0-0.6-0.1-1-0.4-1.3c-0.3-0.3-0.7-0.5-1.3-0.5c-0.5,0-0.9,0.2-1.3,0.5c-0.4,0.3-0.6,0.7-0.7,1.3H276.6z"/>
	</g>
	<g class="st8">
		<path class="st11" d="M288,102.1l0-1.5h1.6l0,1.5l-0.4,3h-0.8L288,102.1z M291.1,102.1l0-1.5h1.6l0,1.5l-0.4,3h-0.8L291.1,102.1z"
			/>
		<path class="st11" d="M295.2,107.8c0-0.4,0.1-0.7,0.3-0.9c0.2-0.3,0.4-0.5,0.8-0.7c0.4-0.2,0.8-0.3,1.4-0.5c0.6-0.1,1.2-0.2,2-0.3
			c0-0.4-0.1-0.7-0.4-1s-0.6-0.4-1.2-0.4c-0.4,0-0.8,0.1-1.1,0.2c-0.4,0.1-0.7,0.3-1,0.5l-0.5-0.9c0.2-0.1,0.4-0.2,0.6-0.3
			c0.2-0.1,0.4-0.2,0.7-0.3c0.2-0.1,0.5-0.2,0.8-0.2c0.3-0.1,0.5-0.1,0.8-0.1c0.9,0,1.5,0.2,2,0.7c0.4,0.5,0.7,1.1,0.7,2v3.8h-1.1
			l-0.1-0.8h0c-0.3,0.3-0.7,0.5-1.1,0.7c-0.4,0.2-0.9,0.3-1.3,0.3c-0.3,0-0.6,0-0.9-0.1c-0.3-0.1-0.5-0.2-0.7-0.4
			c-0.2-0.2-0.3-0.4-0.4-0.6S295.2,108.1,295.2,107.8z M296.4,107.7c0,0.3,0.1,0.5,0.4,0.7s0.5,0.2,0.9,0.2c0.3,0,0.7-0.1,1-0.2
			c0.3-0.1,0.7-0.4,1-0.6v-1.5c-0.6,0.1-1.1,0.1-1.6,0.2s-0.7,0.2-1,0.3c-0.2,0.1-0.4,0.3-0.5,0.4S296.4,107.5,296.4,107.7z"/>
		<path class="st11" d="M302.8,106.3c0-0.5,0.1-1,0.3-1.4c0.2-0.4,0.4-0.8,0.7-1.1c0.3-0.3,0.6-0.5,1-0.7c0.4-0.2,0.8-0.2,1.2-0.2
			c0.5,0,0.9,0.1,1.2,0.2c0.4,0.1,0.7,0.4,0.9,0.6c0.3,0.3,0.4,0.6,0.6,0.9c0.1,0.4,0.2,0.8,0.2,1.2c0,0.1,0,0.3,0,0.4s0,0.2,0,0.3
			h-4.8c0,0.6,0.3,1.1,0.7,1.5c0.4,0.4,1,0.5,1.6,0.5c0.3,0,0.7,0,1-0.1c0.3-0.1,0.6-0.2,0.9-0.4l0.5,0.8c-0.3,0.2-0.7,0.4-1.1,0.5
			c-0.4,0.1-0.9,0.2-1.4,0.2c-0.5,0-0.9-0.1-1.3-0.2s-0.8-0.4-1.1-0.7c-0.3-0.3-0.6-0.6-0.7-1C302.9,107.3,302.8,106.8,302.8,106.3z
			 M307.8,105.8c0-0.6-0.1-1-0.4-1.3c-0.3-0.3-0.7-0.5-1.3-0.5c-0.5,0-0.9,0.2-1.3,0.5c-0.4,0.3-0.6,0.7-0.7,1.3H307.8z"/>
		<path class="st11" d="M310.9,103.1h4.1v6.4h-1.3v-5.3h-2.8V103.1z M314.3,101.9c-0.3,0-0.5-0.1-0.7-0.2c-0.2-0.2-0.3-0.4-0.3-0.7
			s0.1-0.5,0.3-0.7c0.2-0.2,0.4-0.3,0.7-0.3c0.3,0,0.5,0.1,0.7,0.3c0.2,0.2,0.3,0.4,0.3,0.7s-0.1,0.5-0.3,0.7
			C314.8,101.9,314.6,101.9,314.3,101.9z"/>
		<path class="st11" d="M318.3,106.3c0-0.5,0.1-1,0.3-1.4s0.4-0.8,0.7-1.1c0.3-0.3,0.6-0.5,1-0.7s0.8-0.2,1.2-0.2s0.8,0.1,1.2,0.2
			c0.4,0.1,0.7,0.4,1,0.7c0.3,0.3,0.5,0.6,0.7,1.1s0.3,0.9,0.3,1.4s-0.1,1-0.3,1.4c-0.2,0.4-0.4,0.8-0.7,1s-0.6,0.5-1,0.6
			c-0.4,0.1-0.8,0.2-1.2,0.2s-0.8-0.1-1.2-0.2c-0.4-0.1-0.7-0.4-1-0.6s-0.5-0.6-0.7-1C318.4,107.3,318.3,106.9,318.3,106.3z
			 M319.7,106.3c0,0.7,0.2,1.2,0.5,1.7c0.3,0.4,0.8,0.6,1.4,0.6c0.6,0,1-0.2,1.4-0.6c0.3-0.4,0.5-1,0.5-1.7s-0.2-1.2-0.5-1.7
			c-0.3-0.4-0.8-0.6-1.4-0.6c-0.6,0-1,0.2-1.4,0.6C319.8,105.1,319.7,105.6,319.7,106.3z"/>
		<path class="st11" d="M332,109.5H331l-0.1-1.1h-0.1c-0.3,0.4-0.7,0.7-1,0.9c-0.4,0.2-0.8,0.3-1.3,0.3c-0.8,0-1.3-0.2-1.7-0.7
			c-0.3-0.4-0.5-1.1-0.5-1.9v-3.9h1.3v3.8c0,0.6,0.1,1,0.3,1.2c0.2,0.3,0.5,0.4,1,0.4c0.3,0,0.6-0.1,0.9-0.2
			c0.3-0.2,0.6-0.4,0.9-0.8v-4.4h1.3V109.5z"/>
		<path class="st11" d="M334.8,102.1l0-1.5h1.6l0,1.5l-0.4,3h-0.8L334.8,102.1z M337.9,102.1l0-1.5h1.6l0,1.5l-0.4,3h-0.8
			L337.9,102.1z"/>
	</g>
	<g class="st8">
		<path class="st10" d="M31.1,140.9h-1V140h1.1l0.2-1.8h-1.1v-0.9h1.2l0.3-2.3h0.8l-0.3,2.3h1.6l0.3-2.3H35l-0.3,2.3h1.1v0.9h-1.1
			l-0.2,1.8h1.1v0.9h-1.2l-0.3,2.6h-0.8l0.3-2.6h-1.6l-0.3,2.6h-0.8L31.1,140.9z M33.6,140l0.2-1.8h-1.6L32,140H33.6z"/>
		<path class="st10" d="M38.9,140.9h-1V140H39l0.2-1.8h-1.1v-0.9h1.2l0.3-2.3h0.8l-0.3,2.3h1.6l0.3-2.3h0.8l-0.3,2.3h1.1v0.9h-1.1
			l-0.2,1.8h1.1v0.9h-1.2l-0.3,2.6H41l0.3-2.6h-1.6l-0.3,2.6h-0.8L38.9,140.9z M41.4,140l0.2-1.8H40l-0.2,1.8H41.4z"/>
		<path class="st10" d="M53.2,139.3c0-0.7,0.1-1.3,0.3-1.9c0.2-0.5,0.5-1,0.8-1.4c0.3-0.4,0.7-0.7,1.2-0.9c0.5-0.2,1-0.3,1.6-0.3
			c0.5,0,1,0.1,1.4,0.3c0.4,0.2,0.7,0.5,1,0.7l-0.7,0.8c-0.2-0.2-0.5-0.4-0.7-0.5c-0.3-0.1-0.6-0.2-0.9-0.2c-0.4,0-0.7,0.1-1,0.2
			s-0.6,0.4-0.8,0.7c-0.2,0.3-0.4,0.6-0.5,1c-0.1,0.4-0.2,0.9-0.2,1.4c0,0.5,0.1,1,0.2,1.4c0.1,0.4,0.3,0.8,0.5,1
			c0.2,0.3,0.5,0.5,0.8,0.7c0.3,0.2,0.7,0.2,1.1,0.2c0.4,0,0.7-0.1,1-0.2c0.3-0.2,0.6-0.4,0.8-0.7l0.7,0.8c-0.3,0.4-0.7,0.7-1.2,0.9
			c-0.4,0.2-0.9,0.3-1.5,0.3c-0.5,0-1-0.1-1.5-0.3c-0.5-0.2-0.9-0.5-1.2-0.9s-0.6-0.8-0.8-1.4C53.3,140.6,53.2,140,53.2,139.3z"/>
		<path class="st10" d="M60.9,140.3c0-0.5,0.1-1,0.3-1.4s0.4-0.8,0.7-1.1c0.3-0.3,0.6-0.5,1-0.7s0.8-0.2,1.2-0.2s0.8,0.1,1.2,0.2
			c0.4,0.1,0.7,0.4,1,0.7c0.3,0.3,0.5,0.6,0.7,1.1s0.3,0.9,0.3,1.4s-0.1,1-0.3,1.4c-0.2,0.4-0.4,0.8-0.7,1s-0.6,0.5-1,0.6
			c-0.4,0.1-0.8,0.2-1.2,0.2s-0.8-0.1-1.2-0.2c-0.4-0.1-0.7-0.4-1-0.6s-0.5-0.6-0.7-1C61,141.3,60.9,140.9,60.9,140.3z M62.3,140.3
			c0,0.7,0.2,1.2,0.5,1.7c0.3,0.4,0.8,0.6,1.4,0.6c0.6,0,1-0.2,1.4-0.6c0.3-0.4,0.5-1,0.5-1.7s-0.2-1.2-0.5-1.7
			c-0.3-0.4-0.8-0.6-1.4-0.6c-0.6,0-1,0.2-1.4,0.6C62.4,139.1,62.3,139.6,62.3,140.3z"/>
		<path class="st10" d="M74.6,143.5h-1.1l-0.1-1.1h-0.1c-0.3,0.4-0.7,0.7-1,0.9c-0.4,0.2-0.8,0.3-1.3,0.3c-0.8,0-1.3-0.2-1.7-0.7
			c-0.3-0.4-0.5-1.1-0.5-1.9v-3.9h1.3v3.8c0,0.6,0.1,1,0.3,1.2c0.2,0.3,0.5,0.4,1,0.4c0.3,0,0.6-0.1,0.9-0.2s0.6-0.4,0.9-0.8v-4.4
			h1.3V143.5z"/>
		<path class="st10" d="M76.9,137.1H78l0.1,1h0.1c0.3-0.3,0.7-0.6,1-0.8c0.4-0.2,0.8-0.3,1.3-0.3c0.7,0,1.3,0.2,1.6,0.7
			c0.3,0.4,0.5,1.1,0.5,1.9v3.9h-1.3v-3.8c0-0.6-0.1-1-0.3-1.2c-0.2-0.3-0.5-0.4-1-0.4c-0.3,0-0.6,0.1-0.9,0.3
			c-0.3,0.2-0.6,0.4-0.9,0.8v4.4h-1.3V137.1z"/>
		<path class="st10" d="M86.2,138.2h-1.7v-1l1.8-0.1l0.2-1.8h1.1v1.8h3v1h-3v2.8c0,0.5,0.1,1,0.3,1.2c0.2,0.3,0.6,0.4,1.2,0.4
			c0.3,0,0.5,0,0.8-0.1c0.2,0,0.5-0.1,0.7-0.2l0.3,0.9c-0.3,0.1-0.6,0.2-0.9,0.3c-0.3,0.1-0.7,0.1-1.1,0.1c-0.5,0-0.9-0.1-1.2-0.2
			c-0.3-0.1-0.6-0.3-0.8-0.5s-0.3-0.5-0.4-0.8c-0.1-0.3-0.1-0.7-0.1-1.1V138.2z"/>
		<path class="st10" d="M99.8,137.1h1.3l1.3,3.5c0.1,0.3,0.2,0.6,0.3,0.9c0.1,0.3,0.2,0.6,0.3,0.9h0.1c0.1-0.3,0.2-0.6,0.3-0.9
			c0.1-0.3,0.2-0.6,0.3-0.9l1.3-3.5h1.2l-2.5,6.4h-1.5L99.8,137.1z"/>
		<path class="st10" d="M107.7,140.3c0-0.5,0.1-1,0.3-1.4s0.4-0.8,0.7-1.1c0.3-0.3,0.6-0.5,1-0.7s0.8-0.2,1.2-0.2s0.8,0.1,1.2,0.2
			c0.4,0.1,0.7,0.4,1,0.7c0.3,0.3,0.5,0.6,0.7,1.1s0.3,0.9,0.3,1.4s-0.1,1-0.3,1.4c-0.2,0.4-0.4,0.8-0.7,1s-0.6,0.5-1,0.6
			c-0.4,0.1-0.8,0.2-1.2,0.2s-0.8-0.1-1.2-0.2c-0.4-0.1-0.7-0.4-1-0.6s-0.5-0.6-0.7-1C107.8,141.3,107.7,140.9,107.7,140.3z
			 M109.1,140.3c0,0.7,0.2,1.2,0.5,1.7c0.3,0.4,0.8,0.6,1.4,0.6c0.6,0,1-0.2,1.4-0.6c0.3-0.4,0.5-1,0.5-1.7s-0.2-1.2-0.5-1.7
			c-0.3-0.4-0.8-0.6-1.4-0.6c-0.6,0-1,0.2-1.4,0.6C109.2,139.1,109.1,139.6,109.1,140.3z"/>
		<path class="st10" d="M114.9,137.1h1.3l0.7,3.5c0.1,0.3,0.1,0.6,0.2,0.9s0.1,0.6,0.1,0.9h0.1c0.1-0.6,0.2-1.2,0.4-1.8l0.7-3h1
			l0.7,3c0.1,0.3,0.1,0.6,0.2,0.9c0.1,0.3,0.1,0.6,0.2,0.9h0.1c0.1-0.3,0.1-0.6,0.1-0.9c0-0.3,0.1-0.6,0.1-0.9l0.7-3.5h1.2l-1.3,6.4
			h-1.5l-0.6-2.9c-0.1-0.3-0.1-0.6-0.2-0.9c0-0.3-0.1-0.6-0.2-0.9h-0.1c0,0.3-0.1,0.5-0.1,0.8c0,0.3-0.1,0.6-0.2,1l-0.6,2.9h-1.5
			L114.9,137.1z"/>
		<path class="st10" d="M123.4,140.3c0-0.5,0.1-1,0.3-1.4c0.2-0.4,0.4-0.8,0.7-1.1c0.3-0.3,0.6-0.5,1-0.7c0.4-0.2,0.8-0.2,1.2-0.2
			c0.5,0,0.9,0.1,1.2,0.2c0.4,0.1,0.7,0.4,0.9,0.6c0.3,0.3,0.4,0.6,0.6,0.9c0.1,0.4,0.2,0.8,0.2,1.2c0,0.1,0,0.3,0,0.4s0,0.2,0,0.3
			h-4.8c0,0.6,0.3,1.1,0.7,1.5c0.4,0.4,1,0.5,1.6,0.5c0.3,0,0.7,0,1-0.1c0.3-0.1,0.6-0.2,0.9-0.4l0.5,0.8c-0.3,0.2-0.7,0.4-1.1,0.5
			c-0.4,0.1-0.9,0.2-1.4,0.2c-0.5,0-0.9-0.1-1.3-0.2s-0.8-0.4-1.1-0.7c-0.3-0.3-0.6-0.6-0.7-1C123.5,141.3,123.4,140.8,123.4,140.3z
			 M128.4,139.8c0-0.6-0.1-1-0.4-1.3c-0.3-0.3-0.7-0.5-1.3-0.5c-0.5,0-0.9,0.2-1.3,0.5c-0.4,0.3-0.6,0.7-0.7,1.3H128.4z"/>
		<path class="st10" d="M131.4,134.3h3.4v7.1c0,0.4,0.1,0.8,0.3,1s0.5,0.3,0.9,0.3c0.2,0,0.4,0,0.5-0.1s0.4-0.1,0.6-0.2l0.3,1
			c-0.1,0.1-0.3,0.1-0.4,0.1c-0.1,0-0.3,0.1-0.4,0.1c-0.1,0-0.3,0.1-0.4,0.1c-0.2,0-0.3,0-0.5,0c-0.7,0-1.2-0.2-1.6-0.6
			c-0.4-0.4-0.6-1-0.6-1.8v-6h-2.1V134.3z"/>
		<path class="st10" d="M139.7,141.8c0.4,0.3,0.7,0.5,1.1,0.6c0.4,0.2,0.9,0.2,1.4,0.2c0.5,0,0.9-0.1,1.2-0.2
			c0.3-0.2,0.4-0.4,0.4-0.6c0-0.2-0.2-0.4-0.5-0.6c-0.3-0.2-0.8-0.3-1.5-0.5c-0.3-0.1-0.6-0.2-0.9-0.3c-0.3-0.1-0.5-0.2-0.8-0.4
			s-0.4-0.3-0.5-0.5c-0.1-0.2-0.2-0.4-0.2-0.6c0-0.3,0.1-0.5,0.2-0.7c0.1-0.2,0.3-0.4,0.5-0.6c0.2-0.2,0.5-0.3,0.9-0.4
			c0.3-0.1,0.7-0.1,1.2-0.1c0.5,0,1,0.1,1.4,0.3s0.8,0.4,1.2,0.6l-0.6,0.8c-0.3-0.2-0.6-0.3-0.9-0.5c-0.3-0.1-0.7-0.2-1.1-0.2
			c-0.5,0-0.9,0.1-1.1,0.2c-0.2,0.2-0.3,0.3-0.3,0.6c0,0.2,0.2,0.4,0.5,0.6s0.8,0.3,1.3,0.4c0.8,0.2,1.4,0.4,1.8,0.7
			c0.4,0.3,0.6,0.7,0.6,1.2c0,0.3-0.1,0.5-0.2,0.8c-0.1,0.2-0.3,0.4-0.6,0.6s-0.6,0.3-0.9,0.4c-0.4,0.1-0.8,0.1-1.2,0.1
			c-0.6,0-1.2-0.1-1.7-0.3c-0.5-0.2-1-0.4-1.4-0.7L139.7,141.8z"/>
		<path class="st10" d="M154.9,137.1h4.1v6.4h-1.3v-5.3h-2.8V137.1z M158.3,135.9c-0.3,0-0.5-0.1-0.7-0.2c-0.2-0.2-0.3-0.4-0.3-0.7
			s0.1-0.5,0.3-0.7c0.2-0.2,0.4-0.3,0.7-0.3c0.3,0,0.5,0.1,0.7,0.3c0.2,0.2,0.3,0.4,0.3,0.7s-0.1,0.5-0.3,0.7
			C158.8,135.9,158.6,135.9,158.3,135.9z"/>
		<path class="st10" d="M162.7,137.1h1.1l0.1,1h0.1c0.3-0.3,0.7-0.6,1-0.8c0.4-0.2,0.8-0.3,1.3-0.3c0.7,0,1.3,0.2,1.6,0.7
			c0.3,0.4,0.5,1.1,0.5,1.9v3.9h-1.3v-3.8c0-0.6-0.1-1-0.3-1.2c-0.2-0.3-0.5-0.4-1-0.4c-0.3,0-0.6,0.1-0.9,0.3
			c-0.3,0.2-0.6,0.4-0.9,0.8v4.4h-1.3V137.1z"/>
		<path class="st10" d="M178.2,134.3h3.4v7.1c0,0.4,0.1,0.8,0.3,1s0.5,0.3,0.9,0.3c0.2,0,0.4,0,0.5-0.1s0.4-0.1,0.6-0.2l0.3,1
			c-0.1,0.1-0.3,0.1-0.4,0.1c-0.1,0-0.3,0.1-0.4,0.1c-0.1,0-0.3,0.1-0.4,0.1c-0.2,0-0.3,0-0.5,0c-0.7,0-1.2-0.2-1.6-0.6
			c-0.4-0.4-0.6-1-0.6-1.8v-6h-2.1V134.3z"/>
		<path class="st10" d="M186.1,137.1h4.1v6.4H189v-5.3h-2.8V137.1z M189.5,135.9c-0.3,0-0.5-0.1-0.7-0.2c-0.2-0.2-0.3-0.4-0.3-0.7
			s0.1-0.5,0.3-0.7c0.2-0.2,0.4-0.3,0.7-0.3c0.3,0,0.5,0.1,0.7,0.3c0.2,0.2,0.3,0.4,0.3,0.7s-0.1,0.5-0.3,0.7
			C190,135.9,189.8,135.9,189.5,135.9z"/>
		<path class="st10" d="M194.3,141.8c0.4,0.3,0.7,0.5,1.1,0.6c0.4,0.2,0.9,0.2,1.4,0.2c0.5,0,0.9-0.1,1.2-0.2
			c0.3-0.2,0.4-0.4,0.4-0.6c0-0.2-0.2-0.4-0.5-0.6c-0.3-0.2-0.8-0.3-1.5-0.5c-0.3-0.1-0.6-0.2-0.9-0.3c-0.3-0.1-0.5-0.2-0.8-0.4
			s-0.4-0.3-0.5-0.5c-0.1-0.2-0.2-0.4-0.2-0.6c0-0.3,0.1-0.5,0.2-0.7c0.1-0.2,0.3-0.4,0.5-0.6c0.2-0.2,0.5-0.3,0.9-0.4
			c0.3-0.1,0.7-0.1,1.2-0.1c0.5,0,1,0.1,1.4,0.3s0.8,0.4,1.2,0.6l-0.6,0.8c-0.3-0.2-0.6-0.3-0.9-0.5c-0.3-0.1-0.7-0.2-1.1-0.2
			c-0.5,0-0.9,0.1-1.1,0.2c-0.2,0.2-0.3,0.3-0.3,0.6c0,0.2,0.2,0.4,0.5,0.6s0.8,0.3,1.3,0.4c0.8,0.2,1.4,0.4,1.8,0.7
			c0.4,0.3,0.6,0.7,0.6,1.2c0,0.3-0.1,0.5-0.2,0.8c-0.1,0.2-0.3,0.4-0.6,0.6s-0.6,0.3-0.9,0.4c-0.4,0.1-0.8,0.1-1.2,0.1
			c-0.6,0-1.2-0.1-1.7-0.3c-0.5-0.2-1-0.4-1.4-0.7L194.3,141.8z"/>
		<path class="st10" d="M203.2,138.2h-1.7v-1l1.8-0.1l0.2-1.8h1.1v1.8h3v1h-3v2.8c0,0.5,0.1,1,0.3,1.2c0.2,0.3,0.6,0.4,1.2,0.4
			c0.3,0,0.5,0,0.8-0.1c0.2,0,0.5-0.1,0.7-0.2l0.3,0.9c-0.3,0.1-0.6,0.2-0.9,0.3c-0.3,0.1-0.7,0.1-1.1,0.1c-0.5,0-0.9-0.1-1.2-0.2
			c-0.3-0.1-0.6-0.3-0.8-0.5s-0.3-0.5-0.4-0.8c-0.1-0.3-0.1-0.7-0.1-1.1V138.2z"/>
		<path class="st10" d="M216.9,140.3c0-0.5,0.1-1,0.3-1.4s0.4-0.8,0.7-1.1c0.3-0.3,0.6-0.5,1-0.7s0.8-0.2,1.2-0.2s0.8,0.1,1.2,0.2
			c0.4,0.1,0.7,0.4,1,0.7c0.3,0.3,0.5,0.6,0.7,1.1s0.3,0.9,0.3,1.4s-0.1,1-0.3,1.4c-0.2,0.4-0.4,0.8-0.7,1s-0.6,0.5-1,0.6
			c-0.4,0.1-0.8,0.2-1.2,0.2s-0.8-0.1-1.2-0.2c-0.4-0.1-0.7-0.4-1-0.6s-0.5-0.6-0.7-1C217,141.3,216.9,140.9,216.9,140.3z
			 M218.3,140.3c0,0.7,0.2,1.2,0.5,1.7c0.3,0.4,0.8,0.6,1.4,0.6c0.6,0,1-0.2,1.4-0.6c0.3-0.4,0.5-1,0.5-1.7s-0.2-1.2-0.5-1.7
			c-0.3-0.4-0.8-0.6-1.4-0.6c-0.6,0-1,0.2-1.4,0.6C218.4,139.1,218.3,139.6,218.3,140.3z"/>
		<path class="st10" d="M231.3,135.4c-0.2-0.1-0.5-0.2-0.7-0.2c-0.2,0-0.5-0.1-0.7-0.1c-0.5,0-0.9,0.1-1.1,0.4
			c-0.2,0.3-0.4,0.6-0.4,1.1v0.5h2.5v1h-2.5v5.3h-1.3v-5.3h-1.8v-1l1.8-0.1v-0.4c0-0.4,0.1-0.7,0.2-1s0.3-0.6,0.5-0.8
			c0.2-0.2,0.5-0.4,0.8-0.5c0.3-0.1,0.7-0.2,1.2-0.2c0.6,0,1.3,0.1,1.9,0.4L231.3,135.4z"/>
		<path class="st10" d="M239.7,137.1h1.3l0.7,3.5c0.1,0.3,0.1,0.6,0.2,0.9s0.1,0.6,0.1,0.9h0.1c0.1-0.6,0.2-1.2,0.4-1.8l0.7-3h1
			l0.7,3c0.1,0.3,0.1,0.6,0.2,0.9c0.1,0.3,0.1,0.6,0.2,0.9h0.1c0.1-0.3,0.1-0.6,0.1-0.9c0-0.3,0.1-0.6,0.1-0.9l0.7-3.5h1.2l-1.3,6.4
			h-1.5l-0.6-2.9c-0.1-0.3-0.1-0.6-0.2-0.9c0-0.3-0.1-0.6-0.2-0.9h-0.1c0,0.3-0.1,0.5-0.1,0.8c0,0.3-0.1,0.6-0.2,1l-0.6,2.9H241
			L239.7,137.1z"/>
		<path class="st10" d="M248.1,140.3c0-0.5,0.1-1,0.3-1.4s0.4-0.8,0.7-1.1c0.3-0.3,0.6-0.5,1-0.7s0.8-0.2,1.2-0.2s0.8,0.1,1.2,0.2
			c0.4,0.1,0.7,0.4,1,0.7c0.3,0.3,0.5,0.6,0.7,1.1s0.3,0.9,0.3,1.4s-0.1,1-0.3,1.4c-0.2,0.4-0.4,0.8-0.7,1s-0.6,0.5-1,0.6
			c-0.4,0.1-0.8,0.2-1.2,0.2s-0.8-0.1-1.2-0.2c-0.4-0.1-0.7-0.4-1-0.6s-0.5-0.6-0.7-1C248.2,141.3,248.1,140.9,248.1,140.3z
			 M249.5,140.3c0,0.7,0.2,1.2,0.5,1.7c0.3,0.4,0.8,0.6,1.4,0.6c0.6,0,1-0.2,1.4-0.6c0.3-0.4,0.5-1,0.5-1.7s-0.2-1.2-0.5-1.7
			c-0.3-0.4-0.8-0.6-1.4-0.6c-0.6,0-1,0.2-1.4,0.6C249.6,139.1,249.5,139.6,249.5,140.3z"/>
		<path class="st10" d="M257,137.1h1.1l0.1,1.5h0c0.3-0.5,0.7-0.9,1.2-1.2c0.5-0.3,1-0.4,1.6-0.4c0.3,0,0.5,0,0.7,0.1
			c0.2,0,0.4,0.1,0.6,0.2l-0.3,1.1c-0.2-0.1-0.4-0.1-0.6-0.2c-0.2,0-0.4-0.1-0.6-0.1c-0.5,0-0.9,0.1-1.3,0.4
			c-0.4,0.3-0.8,0.7-1.2,1.4v3.6H257V137.1z"/>
		<path class="st10" d="M263.7,140.3c0-0.5,0.1-1,0.2-1.4c0.2-0.4,0.4-0.8,0.6-1c0.3-0.3,0.6-0.5,0.9-0.7c0.3-0.2,0.7-0.2,1.1-0.2
			c0.4,0,0.7,0.1,1,0.2s0.6,0.3,0.8,0.6l-0.1-1.1v-2.4h1.3v9.2h-1.1l-0.1-0.8h0c-0.3,0.3-0.6,0.5-0.9,0.7c-0.3,0.2-0.7,0.3-1.1,0.3
			c-0.4,0-0.8-0.1-1.1-0.2c-0.3-0.1-0.6-0.4-0.9-0.6s-0.4-0.6-0.6-1C263.8,141.3,263.7,140.9,263.7,140.3z M265.1,140.3
			c0,0.7,0.1,1.3,0.4,1.7s0.7,0.6,1.3,0.6c0.6,0,1.1-0.3,1.6-0.9v-3c-0.3-0.2-0.5-0.4-0.8-0.5c-0.3-0.1-0.5-0.1-0.8-0.1
			s-0.5,0.1-0.7,0.2c-0.2,0.1-0.4,0.3-0.6,0.4c-0.2,0.2-0.3,0.4-0.4,0.7C265.1,139.7,265.1,140,265.1,140.3z"/>
		<path class="st10" d="M272.3,141.8c0.4,0.3,0.7,0.5,1.1,0.6c0.4,0.2,0.9,0.2,1.4,0.2c0.5,0,0.9-0.1,1.2-0.2
			c0.3-0.2,0.4-0.4,0.4-0.6c0-0.2-0.2-0.4-0.5-0.6c-0.3-0.2-0.8-0.3-1.5-0.5c-0.3-0.1-0.6-0.2-0.9-0.3c-0.3-0.1-0.5-0.2-0.8-0.4
			s-0.4-0.3-0.5-0.5c-0.1-0.2-0.2-0.4-0.2-0.6c0-0.3,0.1-0.5,0.2-0.7c0.1-0.2,0.3-0.4,0.5-0.6c0.2-0.2,0.5-0.3,0.9-0.4
			c0.3-0.1,0.7-0.1,1.2-0.1c0.5,0,1,0.1,1.4,0.3s0.8,0.4,1.2,0.6l-0.6,0.8c-0.3-0.2-0.6-0.3-0.9-0.5c-0.3-0.1-0.7-0.2-1.1-0.2
			c-0.5,0-0.9,0.1-1.1,0.2c-0.2,0.2-0.3,0.3-0.3,0.6c0,0.2,0.2,0.4,0.5,0.6s0.8,0.3,1.3,0.4c0.8,0.2,1.4,0.4,1.8,0.7
			c0.4,0.3,0.6,0.7,0.6,1.2c0,0.3-0.1,0.5-0.2,0.8c-0.1,0.2-0.3,0.4-0.6,0.6s-0.6,0.3-0.9,0.4c-0.4,0.1-0.8,0.1-1.2,0.1
			c-0.6,0-1.2-0.1-1.7-0.3c-0.5-0.2-1-0.4-1.4-0.7L272.3,141.8z"/>
	</g>
	<g class="st8">
		<path class="st10" d="M30.7,175.7l1.4-2.1l-2.1-0.9l0.2-0.7l2.2,0.7l0.1-2.4h0.7l0.1,2.4l2.2-0.7l0.2,0.7l-2.1,0.9l1.4,2.1
			l-0.6,0.4l-1.5-2l-1.5,2L30.7,175.7z"/>
		<path class="st10" d="M44.7,169H46l0.6,5.1c0,0.4,0,0.7,0.1,1.1s0.1,0.7,0.1,1.1h0c0.1-0.4,0.2-0.7,0.3-1.1
			c0.1-0.3,0.2-0.7,0.3-1.1l0.8-3H49l0.8,3c0.1,0.3,0.1,0.7,0.2,1c0.1,0.4,0.2,0.7,0.3,1.1h0.1c0-0.4,0.1-0.7,0.1-1.1
			c0-0.4,0.1-0.7,0.1-1l0.5-5.1h1.2l-1.2,8.5h-1.4l-0.9-3.3c-0.1-0.3-0.1-0.5-0.2-0.8c0-0.3-0.1-0.5-0.1-0.8h0
			c0,0.3-0.1,0.5-0.1,0.8c0,0.3-0.1,0.5-0.2,0.8l-0.8,3.3H46L44.7,169z"/>
		<path class="st10" d="M53.1,174.3c0-0.5,0.1-1,0.3-1.4s0.4-0.8,0.7-1.1c0.3-0.3,0.6-0.5,1-0.7s0.8-0.2,1.2-0.2s0.8,0.1,1.2,0.2
			c0.4,0.1,0.7,0.4,1,0.7c0.3,0.3,0.5,0.6,0.7,1.1s0.3,0.9,0.3,1.4s-0.1,1-0.3,1.4c-0.2,0.4-0.4,0.8-0.7,1s-0.6,0.5-1,0.6
			c-0.4,0.1-0.8,0.2-1.2,0.2s-0.8-0.1-1.2-0.2c-0.4-0.1-0.7-0.4-1-0.6s-0.5-0.6-0.7-1C53.2,175.3,53.1,174.9,53.1,174.3z
			 M54.5,174.3c0,0.7,0.2,1.2,0.5,1.7c0.3,0.4,0.8,0.6,1.4,0.6c0.6,0,1-0.2,1.4-0.6c0.3-0.4,0.5-1,0.5-1.7s-0.2-1.2-0.5-1.7
			c-0.3-0.4-0.8-0.6-1.4-0.6c-0.6,0-1,0.2-1.4,0.6C54.6,173.1,54.5,173.6,54.5,174.3z"/>
		<path class="st10" d="M62,171.1h1.1l0.1,1.5h0c0.3-0.5,0.7-0.9,1.2-1.2c0.5-0.3,1-0.4,1.6-0.4c0.3,0,0.5,0,0.7,0.1
			c0.2,0,0.4,0.1,0.6,0.2l-0.3,1.1c-0.2-0.1-0.4-0.1-0.6-0.2c-0.2,0-0.4-0.1-0.6-0.1c-0.5,0-0.9,0.1-1.3,0.4
			c-0.4,0.3-0.8,0.7-1.2,1.4v3.6H62V171.1z"/>
		<path class="st10" d="M68.7,174.3c0-0.5,0.1-1,0.2-1.4c0.2-0.4,0.4-0.8,0.6-1c0.3-0.3,0.6-0.5,0.9-0.7c0.3-0.2,0.7-0.2,1.1-0.2
			c0.4,0,0.7,0.1,1,0.2s0.6,0.3,0.8,0.6l-0.1-1.1v-2.4h1.3v9.2h-1.1l-0.1-0.8h0c-0.3,0.3-0.6,0.5-0.9,0.7c-0.3,0.2-0.7,0.3-1.1,0.3
			c-0.4,0-0.8-0.1-1.1-0.2c-0.3-0.1-0.6-0.4-0.9-0.6s-0.4-0.6-0.6-1C68.8,175.3,68.7,174.9,68.7,174.3z M70.1,174.3
			c0,0.7,0.1,1.3,0.4,1.7s0.7,0.6,1.3,0.6c0.6,0,1.1-0.3,1.6-0.9v-3c-0.3-0.2-0.5-0.4-0.8-0.5c-0.3-0.1-0.5-0.1-0.8-0.1
			s-0.5,0.1-0.7,0.2c-0.2,0.1-0.4,0.3-0.6,0.4c-0.2,0.2-0.3,0.4-0.4,0.7C70.1,173.7,70.1,174,70.1,174.3z"/>
		<path class="st10" d="M77.3,175.8c0.4,0.3,0.7,0.5,1.1,0.6c0.4,0.2,0.9,0.2,1.4,0.2c0.5,0,0.9-0.1,1.2-0.2
			c0.3-0.2,0.4-0.4,0.4-0.6c0-0.2-0.2-0.4-0.5-0.6c-0.3-0.2-0.8-0.3-1.5-0.5c-0.3-0.1-0.6-0.2-0.9-0.3c-0.3-0.1-0.5-0.2-0.8-0.4
			s-0.4-0.3-0.5-0.5c-0.1-0.2-0.2-0.4-0.2-0.6c0-0.3,0.1-0.5,0.2-0.7c0.1-0.2,0.3-0.4,0.5-0.6c0.2-0.2,0.5-0.3,0.9-0.4
			c0.3-0.1,0.7-0.1,1.2-0.1c0.5,0,1,0.1,1.4,0.3s0.8,0.4,1.2,0.6l-0.6,0.8c-0.3-0.2-0.6-0.3-0.9-0.5c-0.3-0.1-0.7-0.2-1.1-0.2
			c-0.5,0-0.9,0.1-1.1,0.2c-0.2,0.2-0.3,0.3-0.3,0.6c0,0.2,0.2,0.4,0.5,0.6s0.8,0.3,1.3,0.4c0.8,0.2,1.4,0.4,1.8,0.7
			c0.4,0.3,0.6,0.7,0.6,1.2c0,0.3-0.1,0.5-0.2,0.8c-0.1,0.2-0.3,0.4-0.6,0.6s-0.6,0.3-0.9,0.4c-0.4,0.1-0.8,0.1-1.2,0.1
			c-0.6,0-1.2-0.1-1.7-0.3c-0.5-0.2-1-0.4-1.4-0.7L77.3,175.8z"/>
		<path class="st10" d="M91.5,171.1h1.3l0.7,3.5c0.1,0.3,0.1,0.6,0.2,0.9s0.1,0.6,0.1,0.9h0.1c0.1-0.6,0.2-1.2,0.4-1.8l0.7-3h1
			l0.7,3c0.1,0.3,0.1,0.6,0.2,0.9c0.1,0.3,0.1,0.6,0.2,0.9h0.1c0.1-0.3,0.1-0.6,0.1-0.9c0-0.3,0.1-0.6,0.1-0.9l0.7-3.5h1.2l-1.3,6.4
			h-1.5l-0.6-2.9c-0.1-0.3-0.1-0.6-0.2-0.9c0-0.3-0.1-0.6-0.2-0.9h-0.1c0,0.3-0.1,0.5-0.1,0.8c0,0.3-0.1,0.6-0.2,1l-0.6,2.9h-1.5
			L91.5,171.1z"/>
		<path class="st10" d="M100.3,171.1h4.1v6.4h-1.3v-5.3h-2.8V171.1z M103.7,169.9c-0.3,0-0.5-0.1-0.7-0.2c-0.2-0.2-0.3-0.4-0.3-0.7
			s0.1-0.5,0.3-0.7c0.2-0.2,0.4-0.3,0.7-0.3c0.3,0,0.5,0.1,0.7,0.3c0.2,0.2,0.3,0.4,0.3,0.7s-0.1,0.5-0.3,0.7
			C104.2,169.9,104,169.9,103.7,169.9z"/>
		<path class="st10" d="M109.6,172.2h-1.7v-1l1.8-0.1l0.2-1.8h1.1v1.8h3v1h-3v2.8c0,0.5,0.1,1,0.3,1.2c0.2,0.3,0.6,0.4,1.2,0.4
			c0.3,0,0.5,0,0.8-0.1c0.2,0,0.5-0.1,0.7-0.2l0.3,0.9c-0.3,0.1-0.6,0.2-0.9,0.3c-0.3,0.1-0.7,0.1-1.1,0.1c-0.5,0-0.9-0.1-1.2-0.2
			c-0.3-0.1-0.6-0.3-0.8-0.5s-0.3-0.5-0.4-0.8c-0.1-0.3-0.1-0.7-0.1-1.1V172.2z"/>
		<path class="st10" d="M115.9,168.3h1.3v2.4l-0.1,1.4c0.3-0.3,0.7-0.6,1-0.8s0.8-0.3,1.3-0.3c0.7,0,1.3,0.2,1.6,0.7
			c0.3,0.4,0.5,1.1,0.5,1.9v3.9h-1.3v-3.8c0-0.6-0.1-1-0.3-1.2c-0.2-0.3-0.5-0.4-1-0.4c-0.3,0-0.6,0.1-0.9,0.3
			c-0.3,0.2-0.6,0.4-0.9,0.8v4.4h-1.3V168.3z"/>
		<path class="st10" d="M131,171.1h1.3l1.3,3.5c0.1,0.3,0.2,0.6,0.3,0.9c0.1,0.3,0.2,0.6,0.3,0.9h0.1c0.1-0.3,0.2-0.6,0.3-0.9
			c0.1-0.3,0.2-0.6,0.3-0.9l1.3-3.5h1.2l-2.5,6.4h-1.5L131,171.1z"/>
		<path class="st10" d="M138.9,174.3c0-0.5,0.1-1,0.3-1.4s0.4-0.8,0.7-1.1c0.3-0.3,0.6-0.5,1-0.7s0.8-0.2,1.2-0.2s0.8,0.1,1.2,0.2
			c0.4,0.1,0.7,0.4,1,0.7c0.3,0.3,0.5,0.6,0.7,1.1s0.3,0.9,0.3,1.4s-0.1,1-0.3,1.4c-0.2,0.4-0.4,0.8-0.7,1s-0.6,0.5-1,0.6
			c-0.4,0.1-0.8,0.2-1.2,0.2s-0.8-0.1-1.2-0.2c-0.4-0.1-0.7-0.4-1-0.6s-0.5-0.6-0.7-1C139,175.3,138.9,174.9,138.9,174.3z
			 M140.3,174.3c0,0.7,0.2,1.2,0.5,1.7c0.3,0.4,0.8,0.6,1.4,0.6c0.6,0,1-0.2,1.4-0.6c0.3-0.4,0.5-1,0.5-1.7s-0.2-1.2-0.5-1.7
			c-0.3-0.4-0.8-0.6-1.4-0.6c-0.6,0-1,0.2-1.4,0.6C140.4,173.1,140.3,173.6,140.3,174.3z"/>
		<path class="st10" d="M146.1,171.1h1.3l0.7,3.5c0.1,0.3,0.1,0.6,0.2,0.9s0.1,0.6,0.1,0.9h0.1c0.1-0.6,0.2-1.2,0.4-1.8l0.7-3h1
			l0.7,3c0.1,0.3,0.1,0.6,0.2,0.9c0.1,0.3,0.1,0.6,0.2,0.9h0.1c0.1-0.3,0.1-0.6,0.1-0.9c0-0.3,0.1-0.6,0.1-0.9l0.7-3.5h1.2l-1.3,6.4
			h-1.5l-0.6-2.9c-0.1-0.3-0.1-0.6-0.2-0.9c0-0.3-0.1-0.6-0.2-0.9h-0.1c0,0.3-0.1,0.5-0.1,0.8c0,0.3-0.1,0.6-0.2,1l-0.6,2.9h-1.5
			L146.1,171.1z"/>
		<path class="st10" d="M154.6,174.3c0-0.5,0.1-1,0.3-1.4c0.2-0.4,0.4-0.8,0.7-1.1c0.3-0.3,0.6-0.5,1-0.7c0.4-0.2,0.8-0.2,1.2-0.2
			c0.5,0,0.9,0.1,1.2,0.2c0.4,0.1,0.7,0.4,0.9,0.6c0.3,0.3,0.4,0.6,0.6,0.9c0.1,0.4,0.2,0.8,0.2,1.2c0,0.1,0,0.3,0,0.4s0,0.2,0,0.3
			H156c0,0.6,0.3,1.1,0.7,1.5c0.4,0.4,1,0.5,1.6,0.5c0.3,0,0.7,0,1-0.1c0.3-0.1,0.6-0.2,0.9-0.4l0.5,0.8c-0.3,0.2-0.7,0.4-1.1,0.5
			c-0.4,0.1-0.9,0.2-1.4,0.2c-0.5,0-0.9-0.1-1.3-0.2s-0.8-0.4-1.1-0.7c-0.3-0.3-0.6-0.6-0.7-1C154.7,175.3,154.6,174.8,154.6,174.3z
			 M159.6,173.8c0-0.6-0.1-1-0.4-1.3c-0.3-0.3-0.7-0.5-1.3-0.5c-0.5,0-0.9,0.2-1.3,0.5c-0.4,0.3-0.6,0.7-0.7,1.3H159.6z"/>
		<path class="st10" d="M162.6,168.3h3.4v7.1c0,0.4,0.1,0.8,0.3,1s0.5,0.3,0.9,0.3c0.2,0,0.4,0,0.5-0.1s0.4-0.1,0.6-0.2l0.3,1
			c-0.1,0.1-0.3,0.1-0.4,0.1c-0.1,0-0.3,0.1-0.4,0.1c-0.1,0-0.3,0.1-0.4,0.1c-0.2,0-0.3,0-0.5,0c-0.7,0-1.2-0.2-1.6-0.6
			c-0.4-0.4-0.6-1-0.6-1.8v-6h-2.1V168.3z"/>
		<path class="st10" d="M170.9,175.8c0.4,0.3,0.7,0.5,1.1,0.6c0.4,0.2,0.9,0.2,1.4,0.2c0.5,0,0.9-0.1,1.2-0.2
			c0.3-0.2,0.4-0.4,0.4-0.6c0-0.2-0.2-0.4-0.5-0.6c-0.3-0.2-0.8-0.3-1.5-0.5c-0.3-0.1-0.6-0.2-0.9-0.3c-0.3-0.1-0.5-0.2-0.8-0.4
			s-0.4-0.3-0.5-0.5c-0.1-0.2-0.2-0.4-0.2-0.6c0-0.3,0.1-0.5,0.2-0.7c0.1-0.2,0.3-0.4,0.5-0.6c0.2-0.2,0.5-0.3,0.9-0.4
			c0.3-0.1,0.7-0.1,1.2-0.1c0.5,0,1,0.1,1.4,0.3s0.8,0.4,1.2,0.6l-0.6,0.8c-0.3-0.2-0.6-0.3-0.9-0.5c-0.3-0.1-0.7-0.2-1.1-0.2
			c-0.5,0-0.9,0.1-1.1,0.2c-0.2,0.2-0.3,0.3-0.3,0.6c0,0.2,0.2,0.4,0.5,0.6s0.8,0.3,1.3,0.4c0.8,0.2,1.4,0.4,1.8,0.7
			c0.4,0.3,0.6,0.7,0.6,1.2c0,0.3-0.1,0.5-0.2,0.8c-0.1,0.2-0.3,0.4-0.6,0.6s-0.6,0.3-0.9,0.4c-0.4,0.1-0.8,0.1-1.2,0.1
			c-0.6,0-1.2-0.1-1.7-0.3c-0.5-0.2-1-0.4-1.4-0.7L170.9,175.8z"/>
	</g>
	<g class="st8">
		<path class="st11" d="M47.9,201.8h1.1v13h-1.1V201.8z"/>
		<path class="st11" d="M52.5,203h1.3l0.6,5.1c0,0.4,0,0.7,0.1,1.1s0.1,0.7,0.1,1.1h0c0.1-0.4,0.2-0.7,0.3-1.1
			c0.1-0.3,0.2-0.7,0.3-1.1l0.8-3h0.9l0.8,3c0.1,0.3,0.1,0.7,0.2,1c0.1,0.4,0.2,0.7,0.3,1.1h0.1c0-0.4,0.1-0.7,0.1-1.1
			c0-0.4,0.1-0.7,0.1-1l0.5-5.1h1.2l-1.2,8.5h-1.4l-0.9-3.3c-0.1-0.3-0.1-0.5-0.2-0.8c0-0.3-0.1-0.5-0.1-0.8h0
			c0,0.3-0.1,0.5-0.1,0.8c0,0.3-0.1,0.5-0.2,0.8l-0.8,3.3h-1.4L52.5,203z"/>
		<path class="st11" d="M60.9,208.3c0-0.5,0.1-1,0.3-1.4s0.4-0.8,0.7-1.1c0.3-0.3,0.6-0.5,1-0.7s0.8-0.2,1.2-0.2s0.8,0.1,1.2,0.2
			c0.4,0.1,0.7,0.4,1,0.7c0.3,0.3,0.5,0.6,0.7,1.1s0.3,0.9,0.3,1.4s-0.1,1-0.3,1.4c-0.2,0.4-0.4,0.8-0.7,1s-0.6,0.5-1,0.6
			c-0.4,0.1-0.8,0.2-1.2,0.2s-0.8-0.1-1.2-0.2c-0.4-0.1-0.7-0.4-1-0.6s-0.5-0.6-0.7-1C61,209.3,60.9,208.9,60.9,208.3z M62.3,208.3
			c0,0.7,0.2,1.2,0.5,1.7c0.3,0.4,0.8,0.6,1.4,0.6c0.6,0,1-0.2,1.4-0.6c0.3-0.4,0.5-1,0.5-1.7s-0.2-1.2-0.5-1.7
			c-0.3-0.4-0.8-0.6-1.4-0.6c-0.6,0-1,0.2-1.4,0.6C62.4,207.1,62.3,207.6,62.3,208.3z"/>
		<path class="st11" d="M69.8,205.1h1.1l0.1,1.5h0c0.3-0.5,0.7-0.9,1.2-1.2c0.5-0.3,1-0.4,1.6-0.4c0.3,0,0.5,0,0.7,0.1
			c0.2,0,0.4,0.1,0.6,0.2l-0.3,1.1c-0.2-0.1-0.4-0.1-0.6-0.2c-0.2,0-0.4-0.1-0.6-0.1c-0.5,0-0.9,0.1-1.3,0.4
			c-0.4,0.3-0.8,0.7-1.2,1.4v3.6h-1.3V205.1z"/>
		<path class="st11" d="M76.5,208.3c0-0.5,0.1-1,0.2-1.4c0.2-0.4,0.4-0.8,0.6-1c0.3-0.3,0.6-0.5,0.9-0.7c0.3-0.2,0.7-0.2,1.1-0.2
			c0.4,0,0.7,0.1,1,0.2s0.6,0.3,0.8,0.6l-0.1-1.1v-2.4h1.3v9.2h-1.1l-0.1-0.8h0c-0.3,0.3-0.6,0.5-0.9,0.7c-0.3,0.2-0.7,0.3-1.1,0.3
			c-0.4,0-0.8-0.1-1.1-0.2c-0.3-0.1-0.6-0.4-0.9-0.6s-0.4-0.6-0.6-1C76.6,209.3,76.5,208.9,76.5,208.3z M77.9,208.3
			c0,0.7,0.1,1.3,0.4,1.7s0.7,0.6,1.3,0.6c0.6,0,1.1-0.3,1.6-0.9v-3c-0.3-0.2-0.5-0.4-0.8-0.5c-0.3-0.1-0.5-0.1-0.8-0.1
			s-0.5,0.1-0.7,0.2c-0.2,0.1-0.4,0.3-0.6,0.4c-0.2,0.2-0.3,0.4-0.4,0.7C77.9,207.7,77.9,208,77.9,208.3z"/>
		<path class="st11" d="M133.7,201.8h1.1v13h-1.1V201.8z"/>
		<path class="st11" d="M138.7,203h1.4l1.3,4.4c0.1,0.5,0.3,1,0.4,1.4c0.1,0.4,0.2,0.9,0.4,1.4h0.1c0.2-0.5,0.3-1,0.4-1.4
			s0.2-0.9,0.4-1.4l1.3-4.4h1.3l-2.7,8.5h-1.5L138.7,203z"/>
		<path class="st11" d="M146.7,208.3c0-0.5,0.1-1,0.3-1.4s0.4-0.8,0.7-1.1c0.3-0.3,0.6-0.5,1-0.7s0.8-0.2,1.2-0.2s0.8,0.1,1.2,0.2
			c0.4,0.1,0.7,0.4,1,0.7c0.3,0.3,0.5,0.6,0.7,1.1s0.3,0.9,0.3,1.4s-0.1,1-0.3,1.4c-0.2,0.4-0.4,0.8-0.7,1s-0.6,0.5-1,0.6
			c-0.4,0.1-0.8,0.2-1.2,0.2s-0.8-0.1-1.2-0.2c-0.4-0.1-0.7-0.4-1-0.6s-0.5-0.6-0.7-1C146.8,209.3,146.7,208.9,146.7,208.3z
			 M148.1,208.3c0,0.7,0.2,1.2,0.5,1.7c0.3,0.4,0.8,0.6,1.4,0.6c0.6,0,1-0.2,1.4-0.6c0.3-0.4,0.5-1,0.5-1.7s-0.2-1.2-0.5-1.7
			c-0.3-0.4-0.8-0.6-1.4-0.6c-0.6,0-1,0.2-1.4,0.6C148.2,207.1,148.1,207.6,148.1,208.3z"/>
		<path class="st11" d="M153.9,205.1h1.3l0.7,3.5c0.1,0.3,0.1,0.6,0.2,0.9s0.1,0.6,0.1,0.9h0.1c0.1-0.6,0.2-1.2,0.4-1.8l0.7-3h1
			l0.7,3c0.1,0.3,0.1,0.6,0.2,0.9c0.1,0.3,0.1,0.6,0.2,0.9h0.1c0.1-0.3,0.1-0.6,0.1-0.9c0-0.3,0.1-0.6,0.1-0.9l0.7-3.5h1.2l-1.3,6.4
			h-1.5l-0.6-2.9c-0.1-0.3-0.1-0.6-0.2-0.9c0-0.3-0.1-0.6-0.2-0.9h-0.1c0,0.3-0.1,0.5-0.1,0.8c0,0.3-0.1,0.6-0.2,1l-0.6,2.9h-1.5
			L153.9,205.1z"/>
		<path class="st11" d="M162.4,208.3c0-0.5,0.1-1,0.3-1.4c0.2-0.4,0.4-0.8,0.7-1.1c0.3-0.3,0.6-0.5,1-0.7c0.4-0.2,0.8-0.2,1.2-0.2
			c0.5,0,0.9,0.1,1.2,0.2c0.4,0.1,0.7,0.4,0.9,0.6c0.3,0.3,0.4,0.6,0.6,0.9c0.1,0.4,0.2,0.8,0.2,1.2c0,0.1,0,0.3,0,0.4s0,0.2,0,0.3
			h-4.8c0,0.6,0.3,1.1,0.7,1.5c0.4,0.4,1,0.5,1.6,0.5c0.3,0,0.7,0,1-0.1c0.3-0.1,0.6-0.2,0.9-0.4l0.5,0.8c-0.3,0.2-0.7,0.4-1.1,0.5
			c-0.4,0.1-0.9,0.2-1.4,0.2c-0.5,0-0.9-0.1-1.3-0.2s-0.8-0.4-1.1-0.7c-0.3-0.3-0.6-0.6-0.7-1C162.5,209.3,162.4,208.8,162.4,208.3z
			 M167.4,207.8c0-0.6-0.1-1-0.4-1.3c-0.3-0.3-0.7-0.5-1.3-0.5c-0.5,0-0.9,0.2-1.3,0.5c-0.4,0.3-0.6,0.7-0.7,1.3H167.4z"/>
		<path class="st11" d="M170.4,202.3h3.4v7.1c0,0.4,0.1,0.8,0.3,1s0.5,0.3,0.9,0.3c0.2,0,0.4,0,0.5-0.1s0.4-0.1,0.6-0.2l0.3,1
			c-0.1,0.1-0.3,0.1-0.4,0.1c-0.1,0-0.3,0.1-0.4,0.1c-0.1,0-0.3,0.1-0.4,0.1c-0.2,0-0.3,0-0.5,0c-0.7,0-1.2-0.2-1.6-0.6
			c-0.4-0.4-0.6-1-0.6-1.8v-6h-2.1V202.3z"/>
		<path class="st11" d="M185.8,207.3c0-0.7,0.1-1.3,0.3-1.9c0.2-0.5,0.5-1,0.8-1.4c0.3-0.4,0.7-0.7,1.2-0.9c0.5-0.2,1-0.3,1.6-0.3
			c0.5,0,1,0.1,1.4,0.3c0.4,0.2,0.7,0.5,1,0.7l-0.7,0.8c-0.2-0.2-0.5-0.4-0.7-0.5c-0.3-0.1-0.6-0.2-0.9-0.2c-0.4,0-0.7,0.1-1,0.2
			s-0.6,0.4-0.8,0.7c-0.2,0.3-0.4,0.6-0.5,1c-0.1,0.4-0.2,0.9-0.2,1.4c0,0.5,0.1,1,0.2,1.4c0.1,0.4,0.3,0.8,0.5,1
			c0.2,0.3,0.5,0.5,0.8,0.7c0.3,0.2,0.7,0.2,1.1,0.2c0.4,0,0.7-0.1,1-0.2c0.3-0.2,0.6-0.4,0.8-0.7l0.7,0.8c-0.3,0.4-0.7,0.7-1.2,0.9
			c-0.4,0.2-0.9,0.3-1.5,0.3c-0.5,0-1-0.1-1.5-0.3c-0.5-0.2-0.9-0.5-1.2-0.9s-0.6-0.8-0.8-1.4C185.9,208.6,185.8,208,185.8,207.3z"
			/>
		<path class="st11" d="M193.5,208.3c0-0.5,0.1-1,0.3-1.4s0.4-0.8,0.7-1.1c0.3-0.3,0.6-0.5,1-0.7s0.8-0.2,1.2-0.2s0.8,0.1,1.2,0.2
			c0.4,0.1,0.7,0.4,1,0.7c0.3,0.3,0.5,0.6,0.7,1.1s0.3,0.9,0.3,1.4s-0.1,1-0.3,1.4c-0.2,0.4-0.4,0.8-0.7,1s-0.6,0.5-1,0.6
			c-0.4,0.1-0.8,0.2-1.2,0.2s-0.8-0.1-1.2-0.2c-0.4-0.1-0.7-0.4-1-0.6s-0.5-0.6-0.7-1C193.6,209.3,193.5,208.9,193.5,208.3z
			 M194.9,208.3c0,0.7,0.2,1.2,0.5,1.7c0.3,0.4,0.8,0.6,1.4,0.6c0.6,0,1-0.2,1.4-0.6c0.3-0.4,0.5-1,0.5-1.7s-0.2-1.2-0.5-1.7
			c-0.3-0.4-0.8-0.6-1.4-0.6c-0.6,0-1,0.2-1.4,0.6C195,207.1,194.9,207.6,194.9,208.3z"/>
		<path class="st11" d="M207.2,211.5h-1.1l-0.1-1.1H206c-0.3,0.4-0.7,0.7-1,0.9c-0.4,0.2-0.8,0.3-1.3,0.3c-0.8,0-1.3-0.2-1.7-0.7
			c-0.3-0.4-0.5-1.1-0.5-1.9v-3.9h1.3v3.8c0,0.6,0.1,1,0.3,1.2c0.2,0.3,0.5,0.4,1,0.4c0.3,0,0.6-0.1,0.9-0.2s0.6-0.4,0.9-0.8v-4.4
			h1.3V211.5z"/>
		<path class="st11" d="M209.5,205.1h1.1l0.1,1h0.1c0.3-0.3,0.7-0.6,1-0.8c0.4-0.2,0.8-0.3,1.3-0.3c0.7,0,1.3,0.2,1.6,0.7
			c0.3,0.4,0.5,1.1,0.5,1.9v3.9H214v-3.8c0-0.6-0.1-1-0.3-1.2c-0.2-0.3-0.5-0.4-1-0.4c-0.3,0-0.6,0.1-0.9,0.3
			c-0.3,0.2-0.6,0.4-0.9,0.8v4.4h-1.3V205.1z"/>
		<path class="st11" d="M218.8,206.2H217v-1l1.8-0.1l0.2-1.8h1.1v1.8h3v1h-3v2.8c0,0.5,0.1,1,0.3,1.2c0.2,0.3,0.6,0.4,1.2,0.4
			c0.3,0,0.5,0,0.8-0.1c0.2,0,0.5-0.1,0.7-0.2l0.3,0.9c-0.3,0.1-0.6,0.2-0.9,0.3c-0.3,0.1-0.7,0.1-1.1,0.1c-0.5,0-0.9-0.1-1.2-0.2
			c-0.3-0.1-0.6-0.3-0.8-0.5s-0.3-0.5-0.4-0.8c-0.1-0.3-0.1-0.7-0.1-1.1V206.2z"/>
		<path class="st11" d="M227.3,201.8h1.1v13h-1.1V201.8z"/>
	</g>
	<g class="st8">
		<path class="st11" d="M47.9,218.8h1.1v13h-1.1V218.8z"/>
		<path class="st11" d="M53.5,223.7h5.7v0.9h-5.7V223.7z"/>
		<path class="st11" d="M61.3,223.7h5.7v0.9h-5.7V223.7z"/>
		<path class="st11" d="M69.1,223.7h5.7v0.9h-5.7V223.7z"/>
		<path class="st11" d="M76.9,223.7h5.7v0.9h-5.7V223.7z"/>
		<path class="st11" d="M84.7,223.7h5.7v0.9h-5.7V223.7z"/>
		<path class="st11" d="M92.5,223.7h5.7v0.9h-5.7V223.7z"/>
		<path class="st11" d="M100.3,223.7h5.7v0.9h-5.7V223.7z"/>
		<path class="st11" d="M108.1,223.7h5.7v0.9h-5.7V223.7z"/>
		<path class="st11" d="M115.9,223.7h5.7v0.9h-5.7V223.7z"/>
		<path class="st11" d="M123.7,223.7h5.7v0.9h-5.7V223.7z"/>
		<path class="st11" d="M133.7,218.8h1.1v13h-1.1V218.8z"/>
		<path class="st11" d="M139.3,223.7h5.7v0.9h-5.7V223.7z"/>
		<path class="st11" d="M147.1,223.7h5.7v0.9h-5.7V223.7z"/>
		<path class="st11" d="M154.9,223.7h5.7v0.9h-5.7V223.7z"/>
		<path class="st11" d="M162.7,223.7h5.7v0.9h-5.7V223.7z"/>
		<path class="st11" d="M170.5,223.7h5.7v0.9h-5.7V223.7z"/>
		<path class="st11" d="M178.3,223.7h5.7v0.9h-5.7V223.7z"/>
		<path class="st11" d="M186.1,223.7h5.7v0.9h-5.7V223.7z"/>
		<path class="st11" d="M193.9,223.7h5.7v0.9h-5.7V223.7z"/>
		<path class="st11" d="M201.7,223.7h5.7v0.9h-5.7V223.7z"/>
		<path class="st11" d="M209.5,223.7h5.7v0.9h-5.7V223.7z"/>
		<path class="st11" d="M217.3,223.7h5.7v0.9h-5.7V223.7z"/>
		<path class="st11" d="M227.3,218.8h1.1v13h-1.1V218.8z"/>
	</g>
	<g class="st8">
		<path class="st11" d="M47.9,235.8h1.1v13h-1.1V235.8z"/>
		<path class="st11" d="M53.1,241.3c0-0.7,0.1-1.3,0.3-1.9c0.2-0.5,0.5-1,0.8-1.4c0.3-0.4,0.7-0.7,1.2-0.9c0.5-0.2,1-0.3,1.5-0.3
			c0.6,0,1,0.1,1.4,0.3c0.4,0.2,0.7,0.5,1,0.7l-0.7,0.8c-0.2-0.2-0.4-0.4-0.7-0.5c-0.3-0.1-0.6-0.2-1-0.2c-0.4,0-0.7,0.1-1,0.2
			c-0.3,0.2-0.6,0.4-0.8,0.7c-0.2,0.3-0.4,0.6-0.5,1c-0.1,0.4-0.2,0.9-0.2,1.4c0,1,0.2,1.8,0.6,2.4c0.4,0.6,1,0.9,1.8,0.9
			c0.3,0,0.5,0,0.7-0.1c0.2-0.1,0.4-0.2,0.6-0.3v-2h-1.6V241h2.8v3.7c-0.3,0.3-0.6,0.5-1.1,0.7c-0.4,0.2-0.9,0.3-1.5,0.3
			c-0.5,0-1-0.1-1.5-0.3c-0.5-0.2-0.9-0.5-1.2-0.9c-0.3-0.4-0.6-0.8-0.8-1.4C53.2,242.6,53.1,242,53.1,241.3z"/>
		<path class="st11" d="M61.2,243.8c0-0.4,0.1-0.7,0.3-0.9c0.2-0.3,0.4-0.5,0.8-0.7c0.4-0.2,0.8-0.3,1.4-0.5c0.6-0.1,1.2-0.2,2-0.3
			c0-0.4-0.1-0.7-0.4-1s-0.6-0.4-1.2-0.4c-0.4,0-0.8,0.1-1.1,0.2c-0.4,0.1-0.7,0.3-1,0.5l-0.5-0.9c0.2-0.1,0.4-0.2,0.6-0.3
			c0.2-0.1,0.4-0.2,0.7-0.3c0.2-0.1,0.5-0.2,0.8-0.2c0.3-0.1,0.5-0.1,0.8-0.1c0.9,0,1.5,0.2,2,0.7c0.4,0.5,0.7,1.1,0.7,2v3.8h-1.1
			l-0.1-0.8h0c-0.3,0.3-0.7,0.5-1.1,0.7c-0.4,0.2-0.9,0.3-1.3,0.3c-0.3,0-0.6,0-0.9-0.1c-0.3-0.1-0.5-0.2-0.7-0.4
			c-0.2-0.2-0.3-0.4-0.4-0.6S61.2,244.1,61.2,243.8z M62.4,243.7c0,0.3,0.1,0.5,0.4,0.7s0.5,0.2,0.9,0.2c0.3,0,0.7-0.1,1-0.2
			c0.3-0.1,0.7-0.4,1-0.6v-1.5c-0.6,0.1-1.1,0.1-1.6,0.2s-0.7,0.2-1,0.3c-0.2,0.1-0.4,0.3-0.5,0.4S62.4,243.5,62.4,243.7z"/>
		<path class="st11" d="M74.6,245.5h-1.1l-0.1-1.1h-0.1c-0.3,0.4-0.7,0.7-1,0.9c-0.4,0.2-0.8,0.3-1.3,0.3c-0.8,0-1.3-0.2-1.7-0.7
			c-0.3-0.4-0.5-1.1-0.5-1.9v-3.9h1.3v3.8c0,0.6,0.1,1,0.3,1.2c0.2,0.3,0.5,0.4,1,0.4c0.3,0,0.6-0.1,0.9-0.2s0.6-0.4,0.9-0.8v-4.4
			h1.3V245.5z"/>
		<path class="st11" d="M76.7,246.6c0-0.3,0.1-0.5,0.3-0.7c0.2-0.2,0.4-0.5,0.8-0.6v-0.1c-0.2-0.1-0.3-0.2-0.5-0.4
			c-0.1-0.2-0.2-0.4-0.2-0.7c0-0.2,0.1-0.4,0.2-0.6c0.1-0.2,0.3-0.4,0.6-0.6v-0.1c-0.2-0.2-0.4-0.4-0.6-0.7c-0.2-0.3-0.2-0.6-0.2-1
			c0-0.4,0.1-0.7,0.2-1c0.1-0.3,0.3-0.5,0.6-0.7c0.2-0.2,0.5-0.4,0.8-0.5c0.3-0.1,0.6-0.2,1-0.2c0.4,0,0.7,0.1,1,0.2h2.6v1h-1.6
			c0.1,0.1,0.2,0.3,0.4,0.5c0.1,0.2,0.2,0.4,0.2,0.7c0,0.3-0.1,0.7-0.2,0.9c-0.1,0.3-0.3,0.5-0.5,0.7c-0.2,0.2-0.5,0.3-0.8,0.4
			c-0.3,0.1-0.6,0.1-1,0.1c-0.2,0-0.3,0-0.5-0.1c-0.2,0-0.4-0.1-0.5-0.2c-0.3,0.2-0.4,0.4-0.4,0.7c0,0.2,0.1,0.4,0.3,0.5
			c0.2,0.1,0.5,0.2,0.9,0.2h1.4c0.8,0,1.4,0.1,1.9,0.4c0.4,0.2,0.6,0.6,0.6,1.2c0,0.3-0.1,0.6-0.3,0.9s-0.4,0.5-0.7,0.7
			c-0.3,0.2-0.7,0.4-1.1,0.5s-0.9,0.2-1.5,0.2c-0.9,0-1.6-0.1-2.1-0.4C76.9,247.6,76.7,247.2,76.7,246.6z M77.8,246.5
			c0,0.3,0.2,0.5,0.5,0.7s0.8,0.3,1.4,0.3c0.3,0,0.6,0,0.9-0.1c0.3-0.1,0.5-0.2,0.7-0.3c0.2-0.1,0.3-0.2,0.4-0.4
			c0.1-0.1,0.2-0.3,0.2-0.4c0-0.3-0.1-0.5-0.3-0.6c-0.2-0.1-0.6-0.1-1-0.1h-1.1c-0.2,0-0.4,0-0.5,0c-0.2,0-0.3,0-0.4-0.1
			c-0.3,0.1-0.4,0.3-0.5,0.5S77.8,246.3,77.8,246.5z M79.6,242.7c0.4,0,0.7-0.1,0.9-0.4c0.3-0.2,0.4-0.6,0.4-1c0-0.4-0.1-0.8-0.4-1
			c-0.3-0.3-0.6-0.4-0.9-0.4c-0.4,0-0.7,0.1-0.9,0.4c-0.3,0.3-0.4,0.6-0.4,1c0,0.4,0.1,0.8,0.4,1C78.9,242.5,79.2,242.7,79.6,242.7z
			"/>
		<path class="st11" d="M84.4,242.3c0-0.5,0.1-1,0.3-1.4c0.2-0.4,0.4-0.8,0.7-1.1c0.3-0.3,0.6-0.5,1-0.7c0.4-0.2,0.8-0.2,1.2-0.2
			c0.5,0,0.9,0.1,1.2,0.2c0.4,0.1,0.7,0.4,0.9,0.6c0.3,0.3,0.4,0.6,0.6,0.9c0.1,0.4,0.2,0.8,0.2,1.2c0,0.1,0,0.3,0,0.4s0,0.2,0,0.3
			h-4.8c0,0.6,0.3,1.1,0.7,1.5c0.4,0.4,1,0.5,1.6,0.5c0.3,0,0.7,0,1-0.1c0.3-0.1,0.6-0.2,0.9-0.4l0.5,0.8c-0.3,0.2-0.7,0.4-1.1,0.5
			c-0.4,0.1-0.9,0.2-1.4,0.2c-0.5,0-0.9-0.1-1.3-0.2s-0.8-0.4-1.1-0.7c-0.3-0.3-0.6-0.6-0.7-1C84.5,243.3,84.4,242.8,84.4,242.3z
			 M89.4,241.8c0-0.6-0.1-1-0.4-1.3c-0.3-0.3-0.7-0.5-1.3-0.5c-0.5,0-0.9,0.2-1.3,0.5c-0.4,0.3-0.6,0.7-0.7,1.3H89.4z"/>
		<path class="st11" d="M133.7,235.8h1.1v13h-1.1V235.8z"/>
		<path class="st11" d="M139.5,243.7c0.3,0.3,0.6,0.5,1,0.7s0.8,0.3,1.3,0.3c0.3,0,0.5,0,0.7-0.1c0.2-0.1,0.4-0.2,0.6-0.3
			c0.2-0.1,0.3-0.3,0.4-0.4c0.1-0.2,0.1-0.4,0.1-0.6c0-0.2-0.1-0.4-0.2-0.6s-0.3-0.3-0.5-0.5c-0.2-0.1-0.5-0.2-0.9-0.3
			c-0.4-0.1-0.8-0.1-1.3-0.1v-1c0.5,0,0.9,0,1.2-0.1c0.3-0.1,0.6-0.2,0.8-0.3c0.2-0.1,0.4-0.3,0.5-0.4c0.1-0.2,0.1-0.4,0.1-0.6
			c0-0.4-0.1-0.7-0.4-0.9c-0.3-0.2-0.7-0.3-1.2-0.3c-0.4,0-0.7,0.1-1,0.2c-0.3,0.2-0.6,0.3-0.9,0.6l-0.7-0.8
			c0.4-0.3,0.8-0.6,1.2-0.7c0.4-0.2,0.9-0.3,1.5-0.3c0.4,0,0.8,0,1.1,0.1s0.6,0.2,0.9,0.4s0.4,0.4,0.6,0.7s0.2,0.6,0.2,0.9
			c0,0.5-0.2,0.9-0.5,1.2s-0.7,0.6-1.3,0.7v0.1c0.3,0.1,0.5,0.2,0.8,0.3c0.2,0.1,0.5,0.3,0.6,0.4s0.3,0.4,0.4,0.6s0.2,0.5,0.2,0.8
			c0,0.4-0.1,0.7-0.2,1c-0.2,0.3-0.4,0.5-0.7,0.7c-0.3,0.2-0.6,0.4-1,0.5s-0.8,0.2-1.2,0.2c-0.7,0-1.3-0.1-1.8-0.3
			c-0.5-0.2-0.9-0.5-1.2-0.8L139.5,243.7z"/>
		<path class="st11" d="M227.3,235.8h1.1v13h-1.1V235.8z"/>
	</g>
	<g class="st8">
		<path class="st11" d="M47.9,252.8h1.1v13h-1.1V252.8z"/>
		<path class="st11" d="M55.6,255.1h-2.7V254h6.8v1.1h-2.7v7.4h-1.3V255.1z"/>
		<path class="st11" d="M61,259.3c0-0.5,0.1-1,0.3-1.4c0.2-0.4,0.4-0.8,0.7-1.1c0.3-0.3,0.6-0.5,1-0.7c0.4-0.2,0.8-0.2,1.2-0.2
			c0.5,0,0.9,0.1,1.2,0.2c0.4,0.1,0.7,0.4,0.9,0.6c0.3,0.3,0.4,0.6,0.6,0.9c0.1,0.4,0.2,0.8,0.2,1.2c0,0.1,0,0.3,0,0.4s0,0.2,0,0.3
			h-4.8c0,0.6,0.3,1.1,0.7,1.5c0.4,0.4,1,0.5,1.6,0.5c0.3,0,0.7,0,1-0.1c0.3-0.1,0.6-0.2,0.9-0.4l0.5,0.8c-0.3,0.2-0.7,0.4-1.1,0.5
			c-0.4,0.1-0.9,0.2-1.4,0.2c-0.5,0-0.9-0.1-1.3-0.2s-0.8-0.4-1.1-0.7c-0.3-0.3-0.6-0.6-0.7-1C61.1,260.3,61,259.8,61,259.3z
			 M66,258.8c0-0.6-0.1-1-0.4-1.3c-0.3-0.3-0.7-0.5-1.3-0.5c-0.5,0-0.9,0.2-1.3,0.5c-0.4,0.3-0.6,0.7-0.7,1.3H66z"/>
		<path class="st11" d="M69.5,260.8c0.4,0.3,0.7,0.5,1.1,0.6c0.4,0.2,0.9,0.2,1.4,0.2c0.5,0,0.9-0.1,1.2-0.2
			c0.3-0.2,0.4-0.4,0.4-0.6c0-0.2-0.2-0.4-0.5-0.6c-0.3-0.2-0.8-0.3-1.5-0.5c-0.3-0.1-0.6-0.2-0.9-0.3c-0.3-0.1-0.5-0.2-0.8-0.4
			s-0.4-0.3-0.5-0.5c-0.1-0.2-0.2-0.4-0.2-0.6c0-0.3,0.1-0.5,0.2-0.7c0.1-0.2,0.3-0.4,0.5-0.6c0.2-0.2,0.5-0.3,0.9-0.4
			c0.3-0.1,0.7-0.1,1.2-0.1c0.5,0,1,0.1,1.4,0.3s0.8,0.4,1.2,0.6l-0.6,0.8c-0.3-0.2-0.6-0.3-0.9-0.5c-0.3-0.1-0.7-0.2-1.1-0.2
			c-0.5,0-0.9,0.1-1.1,0.2c-0.2,0.2-0.3,0.3-0.3,0.6c0,0.2,0.2,0.4,0.5,0.6s0.8,0.3,1.3,0.4c0.8,0.2,1.4,0.4,1.8,0.7
			c0.4,0.3,0.6,0.7,0.6,1.2c0,0.3-0.1,0.5-0.2,0.8c-0.1,0.2-0.3,0.4-0.6,0.6s-0.6,0.3-0.9,0.4c-0.4,0.1-0.8,0.1-1.2,0.1
			c-0.6,0-1.2-0.1-1.7-0.3c-0.5-0.2-1-0.4-1.4-0.7L69.5,260.8z"/>
		<path class="st11" d="M78.4,257.2h-1.7v-1l1.8-0.1l0.2-1.8h1.1v1.8h3v1h-3v2.8c0,0.5,0.1,1,0.3,1.2c0.2,0.3,0.6,0.4,1.2,0.4
			c0.3,0,0.5,0,0.8-0.1c0.2,0,0.5-0.1,0.7-0.2l0.3,0.9c-0.3,0.1-0.6,0.2-0.9,0.3c-0.3,0.1-0.7,0.1-1.1,0.1c-0.5,0-0.9-0.1-1.2-0.2
			c-0.3-0.1-0.6-0.3-0.8-0.5s-0.3-0.5-0.4-0.8c-0.1-0.3-0.1-0.7-0.1-1.1V257.2z"/>
		<path class="st11" d="M133.7,252.8h1.1v13h-1.1V252.8z"/>
		<path class="st11" d="M145.1,261.4v1.1h-5.7v-1.1h2.3v-5.8H140v-0.8c0.5-0.1,0.8-0.2,1.2-0.3c0.3-0.1,0.6-0.2,0.9-0.4h1v7.2H145.1
			z"/>
		<path class="st11" d="M227.3,252.8h1.1v13h-1.1V252.8z"/>
	</g>
	<g class="st8">
		<path class="st11" d="M47.9,269.8h1.1v13h-1.1V269.8z"/>
		<path class="st11" d="M57.8,277.1h-3l-0.7,2.4h-1.3l2.8-8.5h1.5l2.8,8.5h-1.4L57.8,277.1z M57.5,276l-0.4-1.2
			c-0.1-0.5-0.3-0.9-0.4-1.4c-0.1-0.5-0.3-0.9-0.4-1.4h-0.1c-0.1,0.5-0.2,1-0.4,1.4s-0.3,0.9-0.4,1.4l-0.4,1.2H57.5z"/>
		<path class="st11" d="M66.8,279.5h-1.1l-0.1-1.1h-0.1c-0.3,0.4-0.7,0.7-1,0.9c-0.4,0.2-0.8,0.3-1.3,0.3c-0.8,0-1.3-0.2-1.7-0.7
			c-0.3-0.4-0.5-1.1-0.5-1.9v-3.9h1.3v3.8c0,0.6,0.1,1,0.3,1.2c0.2,0.3,0.5,0.4,1,0.4c0.3,0,0.6-0.1,0.9-0.2s0.6-0.4,0.9-0.8v-4.4
			h1.3V279.5z"/>
		<path class="st11" d="M70.6,274.2h-1.7v-1l1.8-0.1l0.2-1.8h1.1v1.8h3v1h-3v2.8c0,0.5,0.1,1,0.3,1.2c0.2,0.3,0.6,0.4,1.2,0.4
			c0.3,0,0.5,0,0.8-0.1c0.2,0,0.5-0.1,0.7-0.2l0.3,0.9c-0.3,0.1-0.6,0.2-0.9,0.3c-0.3,0.1-0.7,0.1-1.1,0.1c-0.5,0-0.9-0.1-1.2-0.2
			c-0.3-0.1-0.6-0.3-0.8-0.5s-0.3-0.5-0.4-0.8c-0.1-0.3-0.1-0.7-0.1-1.1V274.2z"/>
		<path class="st11" d="M76.5,276.3c0-0.5,0.1-1,0.3-1.4s0.4-0.8,0.7-1.1c0.3-0.3,0.6-0.5,1-0.7s0.8-0.2,1.2-0.2s0.8,0.1,1.2,0.2
			c0.4,0.1,0.7,0.4,1,0.7c0.3,0.3,0.5,0.6,0.7,1.1s0.3,0.9,0.3,1.4s-0.1,1-0.3,1.4c-0.2,0.4-0.4,0.8-0.7,1s-0.6,0.5-1,0.6
			c-0.4,0.1-0.8,0.2-1.2,0.2s-0.8-0.1-1.2-0.2c-0.4-0.1-0.7-0.4-1-0.6s-0.5-0.6-0.7-1C76.6,277.3,76.5,276.9,76.5,276.3z
			 M77.9,276.3c0,0.7,0.2,1.2,0.5,1.7c0.3,0.4,0.8,0.6,1.4,0.6c0.6,0,1-0.2,1.4-0.6c0.3-0.4,0.5-1,0.5-1.7s-0.2-1.2-0.5-1.7
			c-0.3-0.4-0.8-0.6-1.4-0.6c-0.6,0-1,0.2-1.4,0.6C78,275.1,77.9,275.6,77.9,276.3z"/>
		<path class="st11" d="M84.3,273.1h1l0.1,0.8h0c0.1-0.3,0.3-0.5,0.5-0.7s0.5-0.3,0.9-0.3c0.6,0,1,0.4,1.2,1.1
			c0.2-0.3,0.4-0.6,0.6-0.8c0.2-0.2,0.5-0.3,0.9-0.3c0.4,0,0.8,0.2,1,0.5c0.2,0.3,0.4,0.8,0.4,1.5v4.5h-1.2v-4.4c0-0.7-0.2-1-0.6-1
			c-0.2,0-0.4,0.1-0.5,0.2c-0.1,0.1-0.3,0.4-0.4,0.7v4.5h-1v-4.4c0-0.7-0.2-1-0.6-1c-0.2,0-0.4,0.1-0.5,0.2
			c-0.1,0.1-0.3,0.4-0.4,0.7v4.5h-1.2V273.1z"/>
		<path class="st11" d="M92.4,277.8c0-0.4,0.1-0.7,0.3-0.9c0.2-0.3,0.4-0.5,0.8-0.7c0.4-0.2,0.8-0.3,1.4-0.5c0.6-0.1,1.2-0.2,2-0.3
			c0-0.4-0.1-0.7-0.4-1s-0.6-0.4-1.2-0.4c-0.4,0-0.8,0.1-1.1,0.2c-0.4,0.1-0.7,0.3-1,0.5l-0.5-0.9c0.2-0.1,0.4-0.2,0.6-0.3
			c0.2-0.1,0.4-0.2,0.7-0.3c0.2-0.1,0.5-0.2,0.8-0.2c0.3-0.1,0.5-0.1,0.8-0.1c0.9,0,1.5,0.2,2,0.7c0.4,0.5,0.7,1.1,0.7,2v3.8h-1.1
			l-0.1-0.8h0c-0.3,0.3-0.7,0.5-1.1,0.7c-0.4,0.2-0.9,0.3-1.3,0.3c-0.3,0-0.6,0-0.9-0.1c-0.3-0.1-0.5-0.2-0.7-0.4
			c-0.2-0.2-0.3-0.4-0.4-0.6S92.4,278.1,92.4,277.8z M93.6,277.7c0,0.3,0.1,0.5,0.4,0.7s0.5,0.2,0.9,0.2c0.3,0,0.7-0.1,1-0.2
			c0.3-0.1,0.7-0.4,1-0.6v-1.5c-0.6,0.1-1.1,0.1-1.6,0.2s-0.7,0.2-1,0.3c-0.2,0.1-0.4,0.3-0.5,0.4S93.6,277.5,93.6,277.7z"/>
		<path class="st11" d="M101.8,274.2H100v-1l1.8-0.1l0.2-1.8h1.1v1.8h3v1h-3v2.8c0,0.5,0.1,1,0.3,1.2c0.2,0.3,0.6,0.4,1.2,0.4
			c0.3,0,0.5,0,0.8-0.1c0.2,0,0.5-0.1,0.7-0.2l0.3,0.9c-0.3,0.1-0.6,0.2-0.9,0.3c-0.3,0.1-0.7,0.1-1.1,0.1c-0.5,0-0.9-0.1-1.2-0.2
			c-0.3-0.1-0.6-0.3-0.8-0.5s-0.3-0.5-0.4-0.8c-0.1-0.3-0.1-0.7-0.1-1.1V274.2z"/>
		<path class="st11" d="M108.1,273.1h4.1v6.4H111v-5.3h-2.8V273.1z M111.5,271.9c-0.3,0-0.5-0.1-0.7-0.2c-0.2-0.2-0.3-0.4-0.3-0.7
			s0.1-0.5,0.3-0.7c0.2-0.2,0.4-0.3,0.7-0.3c0.3,0,0.5,0.1,0.7,0.3c0.2,0.2,0.3,0.4,0.3,0.7s-0.1,0.5-0.3,0.7
			C112,271.9,111.8,271.9,111.5,271.9z"/>
		<path class="st11" d="M115.5,276.3c0-0.5,0.1-1,0.3-1.4s0.4-0.8,0.7-1.1c0.3-0.3,0.6-0.5,1-0.7s0.8-0.2,1.2-0.2s0.8,0.1,1.2,0.2
			c0.4,0.1,0.7,0.4,1,0.7c0.3,0.3,0.5,0.6,0.7,1.1s0.3,0.9,0.3,1.4s-0.1,1-0.3,1.4c-0.2,0.4-0.4,0.8-0.7,1s-0.6,0.5-1,0.6
			c-0.4,0.1-0.8,0.2-1.2,0.2s-0.8-0.1-1.2-0.2c-0.4-0.1-0.7-0.4-1-0.6s-0.5-0.6-0.7-1C115.6,277.3,115.5,276.9,115.5,276.3z
			 M116.9,276.3c0,0.7,0.2,1.2,0.5,1.7c0.3,0.4,0.8,0.6,1.4,0.6c0.6,0,1-0.2,1.4-0.6c0.3-0.4,0.5-1,0.5-1.7s-0.2-1.2-0.5-1.7
			c-0.3-0.4-0.8-0.6-1.4-0.6c-0.6,0-1,0.2-1.4,0.6C117,275.1,116.9,275.6,116.9,276.3z"/>
		<path class="st11" d="M123.7,273.1h1.1l0.1,1h0.1c0.3-0.3,0.7-0.6,1-0.8c0.4-0.2,0.8-0.3,1.3-0.3c0.7,0,1.3,0.2,1.6,0.7
			c0.3,0.4,0.5,1.1,0.5,1.9v3.9h-1.3v-3.8c0-0.6-0.1-1-0.3-1.2c-0.2-0.3-0.5-0.4-1-0.4c-0.3,0-0.6,0.1-0.9,0.3
			c-0.3,0.2-0.6,0.4-0.9,0.8v4.4h-1.3V273.1z"/>
		<path class="st11" d="M133.7,269.8h1.1v13h-1.1V269.8z"/>
		<path class="st11" d="M139.5,277.7c0.3,0.2,0.6,0.5,0.9,0.6c0.4,0.2,0.8,0.3,1.3,0.3c0.3,0,0.5,0,0.8-0.1s0.4-0.2,0.6-0.3
			s0.3-0.3,0.4-0.5s0.2-0.5,0.2-0.7c0-0.5-0.2-1-0.5-1.2c-0.4-0.3-0.8-0.4-1.4-0.4c-0.2,0-0.3,0-0.4,0s-0.3,0.1-0.4,0.1
			c-0.1,0-0.2,0.1-0.4,0.1c-0.1,0.1-0.3,0.1-0.4,0.2l-0.6-0.4l0.3-4h4.8v1.1H141l-0.2,2.2c0.2-0.1,0.4-0.2,0.7-0.2
			c0.2-0.1,0.5-0.1,0.8-0.1c0.4,0,0.8,0.1,1.1,0.2c0.3,0.1,0.6,0.3,0.9,0.5c0.3,0.2,0.5,0.5,0.6,0.8c0.2,0.3,0.2,0.7,0.2,1.2
			c0,0.5-0.1,0.9-0.3,1.2c-0.2,0.4-0.4,0.6-0.7,0.9c-0.3,0.2-0.6,0.4-1,0.6c-0.4,0.1-0.8,0.2-1.2,0.2c-0.4,0-0.7,0-1-0.1
			c-0.3-0.1-0.6-0.1-0.8-0.3c-0.2-0.1-0.5-0.2-0.7-0.4s-0.4-0.3-0.5-0.4L139.5,277.7z"/>
		<path class="st11" d="M227.3,269.8h1.1v13h-1.1V269.8z"/>
	</g>
</g>
</svg>
