<?xml version="1.0" encoding="UTF-8"?>
<svg width="650px" height="350px" viewBox="0 0 650 350" version="1.1" xmlns="http://www.w3.org/2000/svg" xmlns:xlink="http://www.w3.org/1999/xlink">
    <!-- Generator: Sketch 49 (51002) - http://www.bohemiancoding.com/sketch -->
    <title>Group 2</title>
    <desc>Created with Sketch.</desc>
    <defs></defs>
    <g id="Page-1" stroke="none" stroke-width="1" fill="none" fill-rule="evenodd">
        <g id="Group-2">
            <g id="gauge_feature-markdown-specs" fill-rule="nonzero">
                <path d="M5,350 L645,350 C647.8,350 650,347.8 650,345.1 L650,4.9 C650,2.2 647.8,0 645,0 L5,0 C2.2,0 0,2.2 0,4.9 L0,345.2 C0,347.8 2.2,350 5,350 Z" id="Shape" fill="#1E1E1E"></path>
                <path d="M0,29.5 L650,29.5 L650,5 C650,2.2 647.8,0 645,0 L4,0 C1.8,0 0,1.8 0,4 L0,29.5 Z" id="Shape" fill="#3C3C3C"></path>
                <g id="Group" transform="translate(30.000000, 66.000000)">
                    <g fill="#66D9EF" id="Shape">
                        <path d="M1.1,6.9 L0.1,6.9 L0.1,6 L1.2,6 L1.4,4.2 L0.3,4.2 L0.3,3.3 L1.5,3.3 L1.8,1 L2.6,1 L2.3,3.3 L3.9,3.3 L4.2,1 L5,1 L4.7,3.3 L5.8,3.3 L5.8,4.2 L4.7,4.2 L4.4,6 L5.5,6 L5.5,6.9 L4.3,6.9 L4,9.5 L3.2,9.5 L3.5,6.9 L1.9,6.9 L1.6,9.5 L0.8,9.5 L1.1,6.9 Z M3.6,6 L3.8,4.2 L2.2,4.2 L2,6 L3.6,6 Z"></path>
                        <path d="M15.4,5.3 C15.4,4.6 15.5,4 15.7,3.4 C15.9,2.9 16.2,2.4 16.5,2 C16.8,1.6 17.2,1.3 17.7,1.1 C18.2,0.9 18.7,0.8 19.3,0.8 C19.8,0.8 20.3,0.9 20.7,1.1 C21.1,1.3 21.4,1.6 21.7,1.8 L21,2.6 C20.8,2.4 20.5,2.2 20.3,2.1 C19.9,2 19.6,2 19.3,2 C18.9,2 18.6,2.1 18.3,2.2 C18,2.3 17.7,2.6 17.5,2.9 C17.3,3.2 17.1,3.5 17,3.9 C16.9,4.3 16.8,4.8 16.8,5.3 C16.8,5.8 16.9,6.3 17,6.7 C17.1,7.1 17.3,7.5 17.5,7.7 C17.7,8 18,8.2 18.3,8.4 C18.6,8.6 19,8.6 19.4,8.6 C19.8,8.6 20.1,8.5 20.4,8.4 C20.7,8.2 21,8 21.2,7.7 L21.9,8.5 C21.6,8.9 21.2,9.2 20.7,9.4 C20.3,9.6 19.8,9.7 19.2,9.7 C18.7,9.7 18.2,9.6 17.7,9.4 C17.2,9.2 16.8,8.9 16.5,8.5 C16.2,8.1 15.9,7.7 15.7,7.1 C15.5,6.6 15.4,6 15.4,5.3 Z"></path>
                        <path d="M23.1,6.3 C23.1,5.8 23.2,5.3 23.4,4.9 C23.6,4.5 23.8,4.1 24.1,3.8 C24.4,3.5 24.7,3.3 25.1,3.1 C25.5,2.9 25.9,2.9 26.3,2.9 C26.7,2.9 27.1,3 27.5,3.1 C27.9,3.2 28.2,3.5 28.5,3.8 C28.8,4.1 29,4.4 29.2,4.9 C29.4,5.4 29.5,5.8 29.5,6.3 C29.5,6.8 29.4,7.3 29.2,7.7 C29,8.1 28.8,8.5 28.5,8.7 C28.2,8.9 27.9,9.2 27.5,9.3 C27.1,9.4 26.7,9.5 26.3,9.5 C25.9,9.5 25.5,9.4 25.1,9.3 C24.7,9.2 24.4,8.9 24.1,8.7 C23.8,8.5 23.6,8.1 23.4,7.7 C23.2,7.3 23.1,6.9 23.1,6.3 Z M24.5,6.3 C24.5,7 24.7,7.5 25,8 C25.3,8.4 25.8,8.6 26.4,8.6 C27,8.6 27.4,8.4 27.8,8 C28.1,7.6 28.3,7 28.3,6.3 C28.3,5.6 28.1,5.1 27.8,4.6 C27.5,4.2 27,4 26.4,4 C25.8,4 25.4,4.2 25,4.6 C24.6,5.1 24.5,5.6 24.5,6.3 Z"></path>
                        <path d="M36.8,9.5 L35.7,9.5 L35.6,8.4 L35.5,8.4 C35.2,8.8 34.8,9.1 34.5,9.3 C34.1,9.5 33.7,9.6 33.2,9.6 C32.4,9.6 31.9,9.4 31.5,8.9 C31.2,8.5 31,7.8 31,7 L31,3.1 L32.3,3.1 L32.3,6.9 C32.3,7.5 32.4,7.9 32.6,8.1 C32.8,8.4 33.1,8.5 33.6,8.5 C33.9,8.5 34.2,8.4 34.5,8.3 C34.8,8.2 35.1,7.9 35.4,7.5 L35.4,3.1 L36.7,3.1 L36.7,9.5 L36.8,9.5 Z"></path>
                        <path d="M39.1,3.1 L40.2,3.1 L40.3,4.1 L40.4,4.1 C40.7,3.8 41.1,3.5 41.4,3.3 C41.8,3.1 42.2,3 42.7,3 C43.4,3 44,3.2 44.3,3.7 C44.6,4.1 44.8,4.8 44.8,5.6 L44.8,9.5 L43.5,9.5 L43.5,5.7 C43.5,5.1 43.4,4.7 43.2,4.5 C43,4.2 42.7,4.1 42.2,4.1 C41.9,4.1 41.6,4.2 41.3,4.4 C41,4.6 40.7,4.8 40.4,5.2 L40.4,9.6 L39.1,9.6 L39.1,3.1 Z"></path>
                        <path d="M48.4,4.2 L46.7,4.2 L46.7,3.2 L48.5,3.1 L48.7,1.3 L49.8,1.3 L49.8,3.1 L52.8,3.1 L52.8,4.1 L49.8,4.1 L49.8,7 C49.8,7.5 49.9,8 50.1,8.2 C50.3,8.5 50.7,8.6 51.3,8.6 C51.6,8.6 51.8,8.6 52.1,8.5 C52.3,8.5 52.6,8.4 52.8,8.3 L53.1,9.2 C52.8,9.3 52.5,9.4 52.2,9.5 C51.9,9.6 51.5,9.6 51.1,9.6 C50.6,9.6 50.2,9.5 49.9,9.4 C49.6,9.3 49.3,9.1 49.1,8.9 C48.9,8.7 48.8,8.4 48.7,8.1 C48.6,7.8 48.6,7.4 48.6,7 L48.6,4.2 L48.4,4.2 Z"></path>
                        <path d="M62,3.1 L63.3,3.1 L64.6,6.6 C64.7,6.9 64.8,7.2 64.9,7.5 C65,7.8 65.1,8.1 65.2,8.4 L65.3,8.4 C65.4,8.1 65.5,7.8 65.6,7.5 C65.7,7.2 65.8,6.9 65.9,6.6 L67.2,3.1 L68.4,3.1 L65.9,9.5 L64.4,9.5 L62,3.1 Z"></path>
                        <path d="M69.9,6.3 C69.9,5.8 70,5.3 70.2,4.9 C70.4,4.5 70.6,4.1 70.9,3.8 C71.2,3.5 71.5,3.3 71.9,3.1 C72.3,2.9 72.7,2.9 73.1,2.9 C73.5,2.9 73.9,3 74.3,3.1 C74.7,3.2 75,3.5 75.3,3.8 C75.6,4.1 75.8,4.4 76,4.9 C76.2,5.4 76.3,5.8 76.3,6.3 C76.3,6.8 76.2,7.3 76,7.7 C75.8,8.1 75.6,8.5 75.3,8.7 C75,8.9 74.7,9.2 74.3,9.3 C73.9,9.4 73.5,9.5 73.1,9.5 C72.7,9.5 72.3,9.4 71.9,9.3 C71.5,9.2 71.2,8.9 70.9,8.7 C70.6,8.5 70.4,8.1 70.2,7.7 C70,7.3 69.9,6.9 69.9,6.3 Z M71.3,6.3 C71.3,7 71.5,7.5 71.8,8 C72.1,8.4 72.6,8.6 73.2,8.6 C73.8,8.6 74.2,8.4 74.6,8 C74.9,7.6 75.1,7 75.1,6.3 C75.1,5.6 74.9,5.1 74.6,4.6 C74.3,4.2 73.8,4 73.2,4 C72.6,4 72.2,4.2 71.8,4.6 C71.4,5.1 71.3,5.6 71.3,6.3 Z"></path>
                        <path d="M77.1,3.1 L78.4,3.1 L79.1,6.6 C79.2,6.9 79.2,7.2 79.3,7.5 C79.4,7.8 79.4,8.1 79.4,8.4 L79.5,8.4 C79.6,7.8 79.7,7.2 79.9,6.6 L80.6,3.6 L81.6,3.6 L82.3,6.6 C82.4,6.9 82.4,7.2 82.5,7.5 C82.6,7.8 82.6,8.1 82.7,8.4 L82.8,8.4 C82.9,8.1 82.9,7.8 82.9,7.5 C82.9,7.2 83,6.9 83,6.6 L83.7,3.1 L84.9,3.1 L83.6,9.5 L82.1,9.5 L81.5,6.6 C81.4,6.3 81.4,6 81.3,5.7 C81.3,5.4 81.2,5.1 81.1,4.8 L81,4.8 C81,5.1 80.9,5.3 80.9,5.6 C80.9,5.9 80.8,6.2 80.7,6.6 L80.1,9.5 L78.6,9.5 L77.1,3.1 Z"></path>
                        <path d="M85.6,6.3 C85.6,5.8 85.7,5.3 85.9,4.9 C86.1,4.5 86.3,4.1 86.6,3.8 C86.9,3.5 87.2,3.3 87.6,3.1 C88,2.9 88.4,2.9 88.8,2.9 C89.3,2.9 89.7,3 90,3.1 C90.4,3.2 90.7,3.5 90.9,3.7 C91.2,4 91.3,4.3 91.5,4.6 C91.6,5 91.7,5.4 91.7,5.8 C91.7,5.9 91.7,6.1 91.7,6.2 C91.7,6.3 91.7,6.4 91.7,6.5 L87,6.5 C87,7.1 87.3,7.6 87.7,8 C88.1,8.4 88.7,8.5 89.3,8.5 C89.6,8.5 90,8.5 90.3,8.4 C90.6,8.3 90.9,8.2 91.2,8 L91.7,8.8 C91.4,9 91,9.2 90.6,9.3 C90.2,9.4 89.7,9.5 89.2,9.5 C88.7,9.5 88.3,9.4 87.9,9.3 C87.5,9.2 87.1,8.9 86.8,8.6 C86.5,8.3 86.2,8 86.1,7.6 C85.7,7.3 85.6,6.8 85.6,6.3 Z M90.6,5.8 C90.6,5.2 90.5,4.8 90.2,4.5 C89.9,4.2 89.5,4 88.9,4 C88.4,4 88,4.2 87.6,4.5 C87.2,4.8 87,5.2 86.9,5.8 L90.6,5.8 Z"></path>
                        <path d="M93.6,0.3 L97,0.3 L97,7.4 C97,7.8 97.1,8.2 97.3,8.4 C97.5,8.6 97.8,8.7 98.2,8.7 C98.4,8.7 98.6,8.7 98.7,8.6 C98.8,8.5 99.1,8.5 99.3,8.4 L99.6,9.4 C99.5,9.5 99.3,9.5 99.2,9.5 C99.1,9.5 98.9,9.6 98.8,9.6 C98.7,9.6 98.5,9.7 98.4,9.7 C98.2,9.7 98.1,9.7 97.9,9.7 C97.2,9.7 96.7,9.5 96.3,9.1 C95.9,8.7 95.7,8.1 95.7,7.3 L95.7,1.3 L93.6,1.3 L93.6,0.3 Z"></path>
                        <path d="M101.9,7.8 C102.3,8.1 102.6,8.3 103,8.4 C103.4,8.6 103.9,8.6 104.4,8.6 C104.9,8.6 105.3,8.5 105.6,8.4 C105.9,8.2 106,8 106,7.8 C106,7.6 105.8,7.4 105.5,7.2 C105.2,7 104.7,6.9 104,6.7 C103.7,6.6 103.4,6.5 103.1,6.4 C102.8,6.3 102.6,6.2 102.3,6 C102,5.8 101.9,5.7 101.8,5.5 C101.7,5.3 101.6,5.1 101.6,4.9 C101.6,4.6 101.7,4.4 101.8,4.2 C101.9,4 102.1,3.8 102.3,3.6 C102.5,3.4 102.8,3.3 103.2,3.2 C103.5,3.1 103.9,3.1 104.4,3.1 C104.9,3.1 105.4,3.2 105.8,3.4 C106.2,3.6 106.6,3.8 107,4 L106.4,4.8 C106.1,4.6 105.8,4.5 105.5,4.3 C105.2,4.2 104.8,4.1 104.4,4.1 C103.9,4.1 103.5,4.2 103.3,4.3 C103.1,4.5 103,4.6 103,4.9 C103,5.1 103.2,5.3 103.5,5.5 C103.8,5.7 104.3,5.8 104.8,5.9 C105.6,6.1 106.2,6.3 106.6,6.6 C107,6.9 107.2,7.3 107.2,7.8 C107.2,8.1 107.1,8.3 107,8.6 C106.9,8.8 106.7,9 106.4,9.2 C106.1,9.4 105.8,9.5 105.5,9.6 C105.1,9.7 104.7,9.7 104.3,9.7 C103.7,9.7 103.1,9.6 102.6,9.4 C102.1,9.2 101.6,9 101.2,8.7 L101.9,7.8 Z"></path>
                    </g>
                    <g transform="translate(0.000000, 34.000000)" fill="#A6E22E" id="Shape">
                        <polygon points="0.7 7.7 2.1 5.6 0 4.7 0.2 4 2.4 4.7 2.5 2.3 3.2 2.3 3.3 4.7 5.5 4 5.7 4.7 3.6 5.6 5 7.7 4.4 8.1 2.9 6.1 1.4 8.1"></polygon>
                        <path d="M15.1,1 L16.5,1 L17.8,5.4 C17.9,5.9 18.1,6.4 18.2,6.8 C18.3,7.2 18.4,7.7 18.6,8.2 L18.7,8.2 C18.9,7.7 19,7.2 19.1,6.8 C19.2,6.4 19.3,5.9 19.5,5.4 L20.8,1 L22.1,1 L19.4,9.5 L17.9,9.5 L15.1,1 Z"></path>
                        <path d="M23.1,6.3 C23.1,5.8 23.2,5.3 23.4,4.9 C23.6,4.5 23.8,4.1 24.1,3.8 C24.4,3.5 24.7,3.3 25.1,3.1 C25.5,2.9 25.9,2.9 26.3,2.9 C26.7,2.9 27.1,3 27.5,3.1 C27.9,3.2 28.2,3.5 28.5,3.8 C28.8,4.1 29,4.4 29.2,4.9 C29.4,5.4 29.5,5.8 29.5,6.3 C29.5,6.8 29.4,7.3 29.2,7.7 C29,8.1 28.8,8.5 28.5,8.7 C28.2,8.9 27.9,9.2 27.5,9.3 C27.1,9.4 26.7,9.5 26.3,9.5 C25.9,9.5 25.5,9.4 25.1,9.3 C24.7,9.2 24.4,8.9 24.1,8.7 C23.8,8.5 23.6,8.1 23.4,7.7 C23.2,7.3 23.1,6.9 23.1,6.3 Z M24.5,6.3 C24.5,7 24.7,7.5 25,8 C25.3,8.4 25.8,8.6 26.4,8.6 C27,8.6 27.4,8.4 27.8,8 C28.1,7.6 28.3,7 28.3,6.3 C28.3,5.6 28.1,5.1 27.8,4.6 C27.5,4.2 27,4 26.4,4 C25.8,4 25.4,4.2 25,4.6 C24.6,5.1 24.5,5.6 24.5,6.3 Z"></path>
                        <path d="M30.3,3.1 L31.6,3.1 L32.3,6.6 C32.4,6.9 32.4,7.2 32.5,7.5 C32.6,7.8 32.6,8.1 32.6,8.4 L32.7,8.4 C32.8,7.8 32.9,7.2 33.1,6.6 L33.8,3.6 L34.8,3.6 L35.5,6.6 C35.6,6.9 35.6,7.2 35.7,7.5 C35.8,7.8 35.8,8.1 35.9,8.4 L36,8.4 C36.1,8.1 36.1,7.8 36.1,7.5 C36.1,7.2 36.2,6.9 36.2,6.6 L36.9,3.1 L38.1,3.1 L36.8,9.5 L35.3,9.5 L34.7,6.6 C34.6,6.3 34.6,6 34.5,5.7 C34.5,5.4 34.4,5.1 34.3,4.8 L34.2,4.8 C34.2,5.1 34.1,5.3 34.1,5.6 C34.1,5.9 34,6.2 33.9,6.6 L33.3,9.5 L31.8,9.5 L30.3,3.1 Z"></path>
                        <path d="M38.8,6.3 C38.8,5.8 38.9,5.3 39.1,4.9 C39.3,4.5 39.5,4.1 39.8,3.8 C40.1,3.5 40.4,3.3 40.8,3.1 C41.2,2.9 41.6,2.9 42,2.9 C42.5,2.9 42.9,3 43.2,3.1 C43.6,3.2 43.9,3.5 44.1,3.7 C44.4,4 44.5,4.3 44.7,4.6 C44.8,5 44.9,5.4 44.9,5.8 C44.9,5.9 44.9,6.1 44.9,6.2 C44.9,6.3 44.9,6.4 44.9,6.5 L40.1,6.5 C40.1,7.1 40.4,7.6 40.8,8 C41.2,8.4 41.8,8.5 42.4,8.5 C42.7,8.5 43.1,8.5 43.4,8.4 C43.7,8.3 44,8.2 44.3,8 L44.8,8.8 C44.5,9 44.1,9.2 43.7,9.3 C43.3,9.4 42.8,9.5 42.3,9.5 C41.8,9.5 41.4,9.4 41,9.3 C40.6,9.2 40.2,8.9 39.9,8.6 C39.6,8.3 39.3,8 39.2,7.6 C38.9,7.3 38.8,6.8 38.8,6.3 Z M43.8,5.8 C43.8,5.2 43.7,4.8 43.4,4.5 C43.1,4.2 42.7,4 42.1,4 C41.6,4 41.2,4.2 40.8,4.5 C40.4,4.8 40.2,5.2 40.1,5.8 L43.8,5.8 Z"></path>
                        <path d="M46.8,0.3 L50.2,0.3 L50.2,7.4 C50.2,7.8 50.3,8.2 50.5,8.4 C50.7,8.6 51,8.7 51.4,8.7 C51.6,8.7 51.8,8.7 51.9,8.6 C52,8.5 52.3,8.5 52.5,8.4 L52.8,9.4 C52.7,9.5 52.5,9.5 52.4,9.5 C52.3,9.5 52.1,9.6 52,9.6 C51.9,9.6 51.7,9.7 51.6,9.7 C51.4,9.7 51.3,9.7 51.1,9.7 C50.4,9.7 49.9,9.5 49.5,9.1 C49.1,8.7 48.9,8.1 48.9,7.3 L48.9,1.3 L46.8,1.3 L46.8,0.3 Z"></path>
                        <path d="M55.1,7.8 C55.5,8.1 55.8,8.3 56.2,8.4 C56.6,8.6 57.1,8.6 57.6,8.6 C58.1,8.6 58.5,8.5 58.8,8.4 C59.1,8.2 59.2,8 59.2,7.8 C59.2,7.6 59,7.4 58.7,7.2 C58.4,7 57.9,6.9 57.2,6.7 C56.9,6.6 56.6,6.5 56.3,6.4 C56,6.3 55.8,6.2 55.5,6 C55.2,5.8 55.1,5.7 55,5.5 C54.9,5.3 54.8,5.1 54.8,4.9 C54.8,4.6 54.9,4.4 55,4.2 C55.1,4 55.3,3.8 55.5,3.6 C55.7,3.4 56,3.3 56.4,3.2 C56.7,3.1 57.1,3.1 57.6,3.1 C58.1,3.1 58.6,3.2 59,3.4 C59.4,3.6 59.8,3.8 60.2,4 L59.6,4.8 C59.3,4.6 59,4.5 58.7,4.3 C58.4,4.2 58,4.1 57.6,4.1 C57.1,4.1 56.7,4.2 56.5,4.3 C56.3,4.5 56.2,4.6 56.2,4.9 C56.2,5.1 56.4,5.3 56.7,5.5 C57,5.7 57.5,5.8 58,5.9 C58.8,6.1 59.4,6.3 59.8,6.6 C60.2,6.9 60.4,7.3 60.4,7.8 C60.4,8.1 60.3,8.3 60.2,8.6 C60.1,8.8 59.9,9 59.6,9.2 C59.3,9.4 59,9.5 58.7,9.6 C58.3,9.7 57.9,9.7 57.5,9.7 C56.9,9.7 56.3,9.6 55.8,9.4 C55.3,9.2 54.8,9 54.4,8.7 L55.1,7.8 Z"></path>
                        <path d="M70.3,3.1 L74.4,3.1 L74.4,9.5 L73.1,9.5 L73.1,4.2 L70.3,4.2 L70.3,3.1 Z M73.7,1.9 C73.4,1.9 73.2,1.8 73,1.7 C72.8,1.5 72.7,1.3 72.7,1 C72.7,0.7 72.8,0.5 73,0.3 C73.2,0.1 73.4,0 73.7,0 C74,0 74.2,0.1 74.4,0.3 C74.6,0.5 74.7,0.7 74.7,1 C74.7,1.3 74.6,1.5 74.4,1.7 C74.2,1.9 74,1.9 73.7,1.9 Z"></path>
                        <path d="M78.1,3.1 L79.2,3.1 L79.3,4.1 L79.4,4.1 C79.7,3.8 80.1,3.5 80.4,3.3 C80.8,3.1 81.2,3 81.7,3 C82.4,3 83,3.2 83.3,3.7 C83.6,4.1 83.8,4.8 83.8,5.6 L83.8,9.5 L82.5,9.5 L82.5,5.7 C82.5,5.1 82.4,4.7 82.2,4.5 C82,4.2 81.7,4.1 81.2,4.1 C80.9,4.1 80.6,4.2 80.3,4.4 C80,4.6 79.7,4.8 79.4,5.2 L79.4,9.6 L78.1,9.6 L78.1,3.1 Z"></path>
                        <polygon points="94 1 99.3 1 99.3 2.1 95.3 2.1 95.3 4.5 98.7 4.5 98.7 5.6 95.3 5.6 95.3 8.4 99.5 8.4 99.5 9.5 94 9.5"></polygon>
                        <path d="M101.5,3.1 L102.6,3.1 L102.7,4.1 L102.8,4.1 C103.1,3.8 103.5,3.5 103.8,3.3 C104.2,3.1 104.6,3 105.1,3 C105.8,3 106.4,3.2 106.7,3.7 C107,4.1 107.2,4.8 107.2,5.6 L107.2,9.5 L106,9.5 L106,5.7 C106,5.1 105.9,4.7 105.7,4.5 C105.5,4.2 105.2,4.1 104.7,4.1 C104.4,4.1 104.1,4.2 103.8,4.4 C103.5,4.6 103.2,4.8 102.9,5.2 L102.9,9.6 L101.6,9.6 L101.6,3.1 L101.5,3.1 Z"></path>
                        <path d="M109.1,10.6 C109.1,10.3 109.2,10.1 109.4,9.9 C109.6,9.7 109.8,9.4 110.2,9.3 L110.2,9.2 C110,9.1 109.9,9 109.7,8.8 C109.6,8.6 109.5,8.4 109.5,8.1 C109.5,7.9 109.6,7.7 109.7,7.5 C109.8,7.3 110,7.1 110.3,6.9 L110.3,6.8 C110.1,6.6 109.9,6.4 109.7,6.1 C109.5,5.8 109.5,5.5 109.5,5.1 C109.5,4.7 109.6,4.4 109.7,4.1 C109.8,3.8 110,3.6 110.3,3.4 C110.5,3.2 110.8,3 111.1,2.9 C111.4,2.8 111.7,2.7 112.1,2.7 C112.5,2.7 112.8,2.8 113.1,2.9 L115.7,2.9 L115.7,3.9 L114,3.9 C114.1,4 114.2,4.2 114.4,4.4 C114.5,4.6 114.6,4.8 114.6,5.1 C114.6,5.4 114.5,5.8 114.4,6 C114.3,6.3 114.1,6.5 113.9,6.7 C113.7,6.9 113.4,7 113.1,7.1 C112.8,7.2 112.5,7.2 112.1,7.2 C111.9,7.2 111.8,7.2 111.6,7.1 C111.4,7.1 111.2,7 111.1,6.9 C110.8,7.1 110.7,7.3 110.7,7.6 C110.7,7.8 110.8,8 111,8.1 C111.2,8.2 111.5,8.3 111.9,8.3 L113.3,8.3 C114.1,8.3 114.7,8.4 115.2,8.7 C115.6,8.9 115.8,9.3 115.8,9.9 C115.8,10.2 115.7,10.5 115.5,10.8 C115.3,11.1 115.1,11.3 114.8,11.5 C114.5,11.7 114.1,11.9 113.7,12 C113.3,12.1 112.8,12.2 112.2,12.2 C111.3,12.2 110.6,12.1 110.1,11.8 C109.3,11.6 109.1,11.2 109.1,10.6 Z M110.2,10.5 C110.2,10.8 110.4,11 110.7,11.2 C111,11.4 111.5,11.5 112.1,11.5 C112.4,11.5 112.7,11.5 113,11.4 C113.3,11.3 113.5,11.2 113.7,11.1 C113.9,11 114,10.9 114.1,10.7 C114.2,10.6 114.3,10.4 114.3,10.3 C114.3,10 114.2,9.8 114,9.7 C113.8,9.6 113.4,9.6 113,9.6 L111.9,9.6 C111.7,9.6 111.5,9.6 111.4,9.6 C111.2,9.6 111.1,9.6 111,9.5 C110.7,9.6 110.6,9.8 110.5,10 C110.4,10.2 110.2,10.3 110.2,10.5 Z M112,6.7 C112.4,6.7 112.7,6.6 112.9,6.3 C113.2,6.1 113.3,5.7 113.3,5.3 C113.3,4.9 113.2,4.5 112.9,4.3 C112.6,4 112.3,3.9 112,3.9 C111.6,3.9 111.3,4 111.1,4.3 C110.8,4.6 110.7,4.9 110.7,5.3 C110.7,5.7 110.8,6.1 111.1,6.3 C111.3,6.5 111.6,6.7 112,6.7 Z"></path>
                        <path d="M117,0.3 L120.4,0.3 L120.4,7.4 C120.4,7.8 120.5,8.2 120.7,8.4 C120.9,8.6 121.2,8.7 121.6,8.7 C121.8,8.7 122,8.7 122.1,8.6 C122.2,8.5 122.5,8.5 122.7,8.4 L123,9.4 C122.9,9.5 122.7,9.5 122.6,9.5 C122.5,9.5 122.3,9.6 122.2,9.6 C122.1,9.6 121.9,9.7 121.8,9.7 C121.6,9.7 121.5,9.7 121.3,9.7 C120.6,9.7 120.1,9.5 119.7,9.1 C119.3,8.7 119.1,8.1 119.1,7.3 L119.1,1.3 L117,1.3 L117,0.3 Z"></path>
                        <path d="M124.9,3.1 L129,3.1 L129,9.5 L127.7,9.5 L127.7,4.2 L124.9,4.2 L124.9,3.1 Z M128.3,1.9 C128,1.9 127.8,1.8 127.6,1.7 C127.4,1.5 127.3,1.3 127.3,1 C127.3,0.7 127.4,0.5 127.6,0.3 C127.8,0.1 128,0 128.3,0 C128.6,0 128.8,0.1 129,0.3 C129.2,0.5 129.3,0.7 129.3,1 C129.3,1.3 129.2,1.5 129,1.7 C128.8,1.9 128.6,1.9 128.3,1.9 Z"></path>
                        <path d="M133.1,7.8 C133.5,8.1 133.8,8.3 134.2,8.4 C134.6,8.6 135.1,8.6 135.6,8.6 C136.1,8.6 136.5,8.5 136.8,8.4 C137.1,8.2 137.2,8 137.2,7.8 C137.2,7.6 137,7.4 136.7,7.2 C136.4,7 135.9,6.9 135.2,6.7 C134.9,6.6 134.6,6.5 134.3,6.4 C134,6.3 133.8,6.2 133.5,6 C133.2,5.8 133.1,5.7 133,5.5 C132.9,5.3 132.8,5.1 132.8,4.9 C132.8,4.6 132.9,4.4 133,4.2 C133.1,4 133.3,3.8 133.5,3.6 C133.7,3.4 134,3.3 134.4,3.2 C134.7,3.1 135.1,3.1 135.6,3.1 C136.1,3.1 136.6,3.2 137,3.4 C137.4,3.6 137.8,3.8 138.2,4 L137.6,4.8 C137.3,4.6 137,4.5 136.7,4.3 C136.4,4.2 136,4.1 135.6,4.1 C135.1,4.1 134.7,4.2 134.5,4.3 C134.3,4.5 134.2,4.6 134.2,4.9 C134.2,5.1 134.4,5.3 134.7,5.5 C135,5.7 135.5,5.8 136,5.9 C136.8,6.1 137.4,6.3 137.8,6.6 C138.2,6.9 138.4,7.3 138.4,7.8 C138.4,8.1 138.3,8.3 138.2,8.6 C138.1,8.8 137.9,9 137.6,9.2 C137.3,9.4 137,9.5 136.7,9.6 C136.3,9.7 135.9,9.7 135.5,9.7 C134.9,9.7 134.3,9.6 133.8,9.4 C133.3,9.2 132.8,9 132.4,8.7 L133.1,7.8 Z"></path>
                        <path d="M140.5,0.3 L141.8,0.3 L141.8,2.7 L141.7,4.1 C142,3.8 142.4,3.5 142.7,3.3 C143,3.1 143.5,3 144,3 C144.7,3 145.3,3.2 145.6,3.7 C145.9,4.1 146.1,4.8 146.1,5.6 L146.1,9.5 L145,9.5 L145,5.7 C145,5.1 144.9,4.7 144.7,4.5 C144.5,4.2 144.2,4.1 143.7,4.1 C143.4,4.1 143.1,4.2 142.8,4.4 C142.5,4.6 142.2,4.8 141.9,5.2 L141.9,9.6 L140.6,9.6 L140.6,0.3 L140.5,0.3 Z"></path>
                        <path d="M156,0.3 L159.4,0.3 L159.4,7.4 C159.4,7.8 159.5,8.2 159.7,8.4 C159.9,8.6 160.2,8.7 160.6,8.7 C160.8,8.7 161,8.7 161.1,8.6 C161.2,8.5 161.5,8.5 161.7,8.4 L162,9.4 C161.9,9.5 161.7,9.5 161.6,9.5 C161.5,9.5 161.3,9.6 161.2,9.6 C161.1,9.6 160.9,9.7 160.8,9.7 C160.6,9.7 160.5,9.7 160.3,9.7 C159.6,9.7 159.1,9.5 158.7,9.1 C158.3,8.7 158.1,8.1 158.1,7.3 L158.1,1.3 L156,1.3 L156,0.3 Z"></path>
                        <path d="M163.8,7.8 C163.8,7.4 163.9,7.1 164.1,6.9 C164.3,6.6 164.5,6.4 164.9,6.2 C165.3,6 165.7,5.9 166.3,5.7 C166.9,5.6 167.5,5.5 168.3,5.4 C168.3,5 168.2,4.7 167.9,4.4 C167.6,4.1 167.3,4 166.7,4 C166.3,4 165.9,4.1 165.6,4.2 C165.2,4.3 164.9,4.5 164.6,4.7 L164.1,3.8 C164.3,3.7 164.5,3.6 164.7,3.5 C164.9,3.4 165.1,3.3 165.4,3.2 C165.6,3.1 165.9,3 166.2,3 C166.5,2.9 166.7,2.9 167,2.9 C167.9,2.9 168.5,3.1 169,3.6 C169.4,4.1 169.7,4.7 169.7,5.6 L169.7,9.4 L168.6,9.4 L168.5,8.6 C168.2,8.9 167.8,9.1 167.4,9.3 C167,9.5 166.5,9.6 166.1,9.6 C165.8,9.6 165.5,9.6 165.2,9.5 C164.9,9.4 164.7,9.3 164.5,9.1 C164.3,8.9 164.2,8.7 164.1,8.5 C164,8.3 163.8,8.1 163.8,7.8 Z M165,7.7 C165,8 165.1,8.2 165.4,8.4 C165.7,8.6 165.9,8.6 166.3,8.6 C166.6,8.6 167,8.5 167.3,8.4 C167.6,8.3 168,8 168.3,7.8 L168.3,6.3 C167.7,6.4 167.2,6.4 166.7,6.5 C166.2,6.6 166,6.7 165.7,6.8 C165.5,6.9 165.3,7.1 165.2,7.2 C165.1,7.3 165,7.5 165,7.7 Z"></path>
                        <path d="M171.7,3.1 L172.8,3.1 L172.9,4.1 L173,4.1 C173.3,3.8 173.7,3.5 174,3.3 C174.4,3.1 174.8,3 175.3,3 C176,3 176.6,3.2 176.9,3.7 C177.2,4.1 177.4,4.8 177.4,5.6 L177.4,9.5 L176.1,9.5 L176.1,5.7 C176.1,5.1 176,4.7 175.8,4.5 C175.6,4.2 175.3,4.1 174.8,4.1 C174.5,4.1 174.2,4.2 173.9,4.4 C173.6,4.6 173.3,4.8 173,5.2 L173,9.6 L171.7,9.6 L171.7,3.1 Z"></path>
                        <path d="M179.3,10.6 C179.3,10.3 179.4,10.1 179.6,9.9 C179.8,9.7 180,9.4 180.4,9.3 L180.4,9.2 C180.2,9.1 180.1,9 179.9,8.8 C179.8,8.6 179.7,8.4 179.7,8.1 C179.7,7.9 179.8,7.7 179.9,7.5 C180,7.3 180.2,7.1 180.5,6.9 L180.5,6.8 C180.3,6.6 180.1,6.4 179.9,6.1 C179.7,5.8 179.7,5.5 179.7,5.1 C179.7,4.7 179.8,4.4 179.9,4.1 C180,3.8 180.2,3.6 180.5,3.4 C180.7,3.2 181,3 181.3,2.9 C181.6,2.8 181.9,2.7 182.3,2.7 C182.7,2.7 183,2.8 183.3,2.9 L185.9,2.9 L185.9,3.9 L184.3,3.9 C184.4,4 184.5,4.2 184.7,4.4 C184.8,4.6 184.9,4.8 184.9,5.1 C184.9,5.4 184.8,5.8 184.7,6 C184.6,6.3 184.4,6.5 184.2,6.7 C184,6.9 183.7,7 183.4,7.1 C183.1,7.2 182.8,7.2 182.4,7.2 C182.2,7.2 182.1,7.2 181.9,7.1 C181.7,7.1 181.5,7 181.4,6.9 C181.1,7.1 181,7.3 181,7.6 C181,7.8 181.1,8 181.3,8.1 C181.5,8.2 181.8,8.3 182.2,8.3 L183.6,8.3 C184.4,8.3 185,8.4 185.5,8.7 C185.9,8.9 186.1,9.3 186.1,9.9 C186.1,10.2 186,10.5 185.8,10.8 C185.6,11.1 185.4,11.3 185.1,11.5 C184.8,11.7 184.4,11.9 184,12 C183.6,12.1 183.1,12.2 182.5,12.2 C181.6,12.2 180.9,12.1 180.4,11.8 C179.5,11.6 179.3,11.2 179.3,10.6 Z M180.4,10.5 C180.4,10.8 180.6,11 180.9,11.2 C181.2,11.4 181.7,11.5 182.3,11.5 C182.6,11.5 182.9,11.5 183.2,11.4 C183.5,11.3 183.7,11.2 183.9,11.1 C184.1,11 184.2,10.9 184.3,10.7 C184.4,10.6 184.5,10.4 184.5,10.3 C184.5,10 184.4,9.8 184.2,9.7 C184,9.6 183.6,9.6 183.2,9.6 L182,9.6 C181.8,9.6 181.6,9.6 181.5,9.6 C181.3,9.6 181.2,9.6 181.1,9.5 C180.8,9.6 180.7,9.8 180.6,10 C180.5,10.2 180.4,10.3 180.4,10.5 Z M182.2,6.7 C182.6,6.7 182.9,6.6 183.1,6.3 C183.4,6.1 183.5,5.7 183.5,5.3 C183.5,4.9 183.4,4.5 183.1,4.3 C182.8,4 182.5,3.9 182.2,3.9 C181.8,3.9 181.5,4 181.3,4.3 C181,4.6 180.9,4.9 180.9,5.3 C180.9,5.7 181,6.1 181.3,6.3 C181.5,6.5 181.8,6.7 182.2,6.7 Z"></path>
                        <path d="M192.8,9.5 L191.7,9.5 L191.6,8.4 L191.5,8.4 C191.2,8.8 190.8,9.1 190.5,9.3 C190.1,9.5 189.7,9.6 189.2,9.6 C188.4,9.6 187.9,9.4 187.5,8.9 C187.2,8.5 187,7.8 187,7 L187,3.1 L188.3,3.1 L188.3,6.9 C188.3,7.5 188.4,7.9 188.6,8.1 C188.8,8.4 189.1,8.5 189.6,8.5 C189.9,8.5 190.2,8.4 190.5,8.3 C190.8,8.2 191.1,7.9 191.4,7.5 L191.4,3.1 L192.7,3.1 L192.7,9.5 L192.8,9.5 Z"></path>
                        <path d="M195,7.8 C195,7.4 195.1,7.1 195.3,6.9 C195.5,6.6 195.7,6.4 196.1,6.2 C196.5,6 196.9,5.9 197.5,5.7 C198.1,5.6 198.7,5.5 199.5,5.4 C199.5,5 199.4,4.7 199.1,4.4 C198.8,4.1 198.5,4 197.9,4 C197.5,4 197.1,4.1 196.8,4.2 C196.4,4.3 196.1,4.5 195.8,4.7 L195.3,3.8 C195.5,3.7 195.7,3.6 195.9,3.5 C196.1,3.4 196.3,3.3 196.6,3.2 C196.8,3.1 197.1,3 197.4,3 C197.7,2.9 197.9,2.9 198.2,2.9 C199.1,2.9 199.7,3.1 200.2,3.6 C200.6,4.1 200.9,4.7 200.9,5.6 L200.9,9.4 L199.8,9.4 L199.7,8.6 C199.4,8.9 199,9.1 198.6,9.3 C198.2,9.5 197.7,9.6 197.3,9.6 C197,9.6 196.7,9.6 196.4,9.5 C196.1,9.4 195.9,9.3 195.7,9.1 C195.5,8.9 195.4,8.7 195.3,8.5 C195.2,8.3 195,8.1 195,7.8 Z M196.2,7.7 C196.2,8 196.3,8.2 196.6,8.4 C196.9,8.6 197.1,8.6 197.5,8.6 C197.8,8.6 198.2,8.5 198.5,8.4 C198.8,8.3 199.2,8 199.5,7.8 L199.5,6.3 C198.9,6.4 198.4,6.4 197.9,6.5 C197.4,6.6 197.2,6.7 196.9,6.8 C196.7,6.9 196.5,7.1 196.4,7.2 C196.3,7.3 196.2,7.5 196.2,7.7 Z"></path>
                        <path d="M202.7,10.6 C202.7,10.3 202.8,10.1 203,9.9 C203.2,9.7 203.4,9.4 203.8,9.3 L203.8,9.2 C203.6,9.1 203.5,9 203.3,8.8 C203.2,8.6 203.1,8.4 203.1,8.1 C203.1,7.9 203.2,7.7 203.3,7.5 C203.4,7.3 203.6,7.1 203.9,6.9 L203.9,6.8 C203.7,6.6 203.5,6.4 203.3,6.1 C203.1,5.8 203.1,5.5 203.1,5.1 C203.1,4.7 203.2,4.4 203.3,4.1 C203.4,3.8 203.6,3.6 203.9,3.4 C204.1,3.2 204.4,3 204.7,2.9 C205,2.8 205.3,2.7 205.7,2.7 C206.1,2.7 206.4,2.8 206.7,2.9 L209.3,2.9 L209.3,3.9 L207.7,3.9 C207.8,4 207.9,4.2 208.1,4.4 C208.2,4.6 208.3,4.8 208.3,5.1 C208.3,5.4 208.2,5.8 208.1,6 C208,6.3 207.8,6.5 207.6,6.7 C207.4,6.9 207.1,7 206.8,7.1 C206.5,7.2 206.2,7.2 205.8,7.2 C205.6,7.2 205.5,7.2 205.3,7.1 C205.1,7.1 204.9,7 204.8,6.9 C204.5,7.1 204.4,7.3 204.4,7.6 C204.4,7.8 204.5,8 204.7,8.1 C204.9,8.2 205.2,8.3 205.6,8.3 L207,8.3 C207.8,8.3 208.4,8.4 208.9,8.7 C209.3,8.9 209.5,9.3 209.5,9.9 C209.5,10.2 209.4,10.5 209.2,10.8 C209,11.1 208.8,11.3 208.5,11.5 C208.2,11.7 207.8,11.9 207.4,12 C207,12.1 206.5,12.2 205.9,12.2 C205,12.2 204.3,12.1 203.8,11.8 C202.9,11.6 202.7,11.2 202.7,10.6 Z M203.8,10.5 C203.8,10.8 204,11 204.3,11.2 C204.6,11.4 205.1,11.5 205.7,11.5 C206,11.5 206.3,11.5 206.6,11.4 C206.9,11.3 207.1,11.2 207.3,11.1 C207.5,11 207.6,10.9 207.7,10.7 C207.8,10.6 207.9,10.4 207.9,10.3 C207.9,10 207.8,9.8 207.6,9.7 C207.4,9.6 207,9.6 206.6,9.6 L205.5,9.6 C205.3,9.6 205.1,9.6 205,9.6 C204.8,9.6 204.7,9.6 204.6,9.5 C204.3,9.6 204.2,9.8 204.1,10 C204,10.2 203.8,10.3 203.8,10.5 Z M205.6,6.7 C206,6.7 206.3,6.6 206.5,6.3 C206.8,6.1 206.9,5.7 206.9,5.3 C206.9,4.9 206.8,4.5 206.5,4.3 C206.2,4 205.9,3.9 205.6,3.9 C205.2,3.9 204.9,4 204.7,4.3 C204.4,4.6 204.3,4.9 204.3,5.3 C204.3,5.7 204.4,6.1 204.7,6.3 C204.9,6.5 205.2,6.7 205.6,6.7 Z"></path>
                        <path d="M210.4,6.3 C210.4,5.8 210.5,5.3 210.7,4.9 C210.9,4.5 211.1,4.1 211.4,3.8 C211.7,3.5 212,3.3 212.4,3.1 C212.8,2.9 213.2,2.9 213.6,2.9 C214.1,2.9 214.5,3 214.8,3.1 C215.2,3.2 215.5,3.5 215.7,3.7 C216,4 216.1,4.3 216.3,4.6 C216.4,5 216.5,5.4 216.5,5.8 C216.5,5.9 216.5,6.1 216.5,6.2 C216.5,6.3 216.5,6.4 216.5,6.5 L211.7,6.5 C211.7,7.1 212,7.6 212.4,8 C212.8,8.4 213.4,8.5 214,8.5 C214.3,8.5 214.7,8.5 215,8.4 C215.3,8.3 215.6,8.2 215.9,8 L216.4,8.8 C216.1,9 215.7,9.2 215.3,9.3 C214.9,9.4 214.4,9.5 213.9,9.5 C213.4,9.5 213,9.4 212.6,9.3 C212.2,9.2 211.8,8.9 211.5,8.6 C211.2,8.3 210.9,8 210.8,7.6 C210.5,7.3 210.4,6.8 210.4,6.3 Z M215.4,5.8 C215.4,5.2 215.3,4.8 215,4.5 C214.7,4.2 214.3,4 213.7,4 C213.2,4 212.8,4.2 212.4,4.5 C212,4.8 211.8,5.2 211.7,5.8 L215.4,5.8 Z"></path>
                        <path d="M226.2,7.8 C226.2,7.4 226.3,7.1 226.5,6.9 C226.7,6.6 226.9,6.4 227.3,6.2 C227.7,6 228.1,5.9 228.7,5.7 C229.3,5.6 229.9,5.5 230.7,5.4 C230.7,5 230.6,4.7 230.3,4.4 C230,4.1 229.7,4 229.1,4 C228.7,4 228.3,4.1 228,4.2 C227.6,4.3 227.3,4.5 227,4.7 L226.5,3.8 C226.7,3.7 226.9,3.6 227.1,3.5 C227.3,3.4 227.5,3.3 227.8,3.2 C228,3.1 228.3,3 228.6,3 C228.9,2.9 229.1,2.9 229.4,2.9 C230.3,2.9 230.9,3.1 231.4,3.6 C231.8,4.1 232.1,4.7 232.1,5.6 L232.1,9.4 L231,9.4 L230.9,8.6 C230.6,8.9 230.2,9.1 229.8,9.3 C229.4,9.5 228.9,9.6 228.5,9.6 C228.2,9.6 227.9,9.6 227.6,9.5 C227.3,9.4 227.1,9.3 226.9,9.1 C226.7,8.9 226.6,8.7 226.5,8.5 C226.4,8.3 226.2,8.1 226.2,7.8 Z M227.4,7.7 C227.4,8 227.5,8.2 227.8,8.4 C228.1,8.6 228.3,8.6 228.7,8.6 C229,8.6 229.4,8.5 229.7,8.4 C230,8.3 230.4,8 230.7,7.8 L230.7,6.3 C230.1,6.4 229.6,6.4 229.1,6.5 C228.6,6.6 228.4,6.7 228.1,6.8 C227.9,6.9 227.7,7.1 227.6,7.2 C227.5,7.3 227.4,7.5 227.4,7.7 Z"></path>
                        <path d="M234.8,3.1 L235.9,3.1 L236,4.6 C236.3,4.1 236.7,3.7 237.2,3.4 C237.7,3.1 238.2,3 238.8,3 C239.1,3 239.3,3 239.5,3.1 C239.7,3.1 239.9,3.2 240.1,3.3 L239.8,4.4 C239.6,4.3 239.4,4.3 239.2,4.2 C239,4.2 238.8,4.1 238.6,4.1 C238.1,4.1 237.7,4.2 237.3,4.5 C236.9,4.8 236.5,5.2 236.1,5.9 L236.1,9.5 L234.8,9.5 L234.8,3.1 Z"></path>
                        <path d="M241.6,6.3 C241.6,5.8 241.7,5.3 241.9,4.9 C242.1,4.5 242.3,4.1 242.6,3.8 C242.9,3.5 243.2,3.3 243.6,3.1 C244,2.9 244.4,2.9 244.8,2.9 C245.3,2.9 245.7,3 246,3.1 C246.4,3.2 246.7,3.5 246.9,3.7 C247.2,4 247.3,4.3 247.5,4.6 C247.6,5 247.7,5.4 247.7,5.8 C247.7,5.9 247.7,6.1 247.7,6.2 C247.7,6.3 247.7,6.4 247.7,6.5 L243,6.5 C243,7.1 243.3,7.6 243.7,8 C244.1,8.4 244.7,8.5 245.3,8.5 C245.6,8.5 246,8.5 246.3,8.4 C246.6,8.3 246.9,8.2 247.2,8 L247.7,8.8 C247.4,9 247,9.2 246.6,9.3 C246.2,9.4 245.7,9.5 245.2,9.5 C244.7,9.5 244.3,9.4 243.9,9.3 C243.5,9.2 243.1,8.9 242.8,8.6 C242.5,8.3 242.2,8 242.1,7.6 C241.7,7.3 241.6,6.8 241.6,6.3 Z M246.6,5.8 C246.6,5.2 246.5,4.8 246.2,4.5 C245.9,4.2 245.5,4 244.9,4 C244.4,4 244,4.2 243.6,4.5 C243.2,4.8 243,5.2 242.9,5.8 L246.6,5.8 Z"></path>
                    </g>
                    <g transform="translate(258.000000, 34.000000)" fill="#AE81FF" id="Shape">
                        <path d="M0,2.1 L0,0.6 L1.6,0.6 L1.6,2.1 L1.2,5.1 L0.4,5.1 L0,2.1 Z M3.1,2.1 L3.1,0.6 L4.7,0.6 L4.7,2.1 L4.3,5.1 L3.5,5.1 L3.1,2.1 Z"></path>
                        <path d="M7.2,7.8 C7.2,7.4 7.3,7.1 7.5,6.9 C7.7,6.6 7.9,6.4 8.3,6.2 C8.7,6 9.1,5.9 9.7,5.7 C10.3,5.6 10.9,5.5 11.7,5.4 C11.7,5 11.6,4.7 11.3,4.4 C11,4.1 10.7,4 10.1,4 C9.7,4 9.3,4.1 9,4.2 C8.6,4.3 8.3,4.5 8,4.7 L7.5,3.8 C7.7,3.7 7.9,3.6 8.1,3.5 C8.3,3.4 8.5,3.3 8.8,3.2 C9,3.1 9.3,3 9.6,3 C9.9,2.9 10.1,2.9 10.4,2.9 C11.3,2.9 11.9,3.1 12.4,3.6 C12.8,4.1 13.1,4.7 13.1,5.6 L13.1,9.4 L12,9.4 L11.9,8.6 C11.6,8.9 11.2,9.1 10.8,9.3 C10.4,9.5 9.9,9.6 9.5,9.6 C9.2,9.6 8.9,9.6 8.6,9.5 C8.3,9.4 8.1,9.3 7.9,9.1 C7.7,8.9 7.6,8.7 7.5,8.5 C7.4,8.3 7.2,8.1 7.2,7.8 Z M8.4,7.7 C8.4,8 8.5,8.2 8.8,8.4 C9.1,8.6 9.3,8.6 9.7,8.6 C10,8.6 10.4,8.5 10.7,8.4 C11,8.3 11.4,8 11.7,7.8 L11.7,6.3 C11.1,6.4 10.6,6.4 10.1,6.5 C9.6,6.6 9.4,6.7 9.1,6.8 C8.9,6.9 8.7,7.1 8.6,7.2 C8.5,7.3 8.4,7.5 8.4,7.7 Z"></path>
                        <path d="M14.8,6.3 C14.8,5.8 14.9,5.3 15.1,4.9 C15.3,4.5 15.5,4.1 15.8,3.8 C16.1,3.5 16.4,3.3 16.8,3.1 C17.2,2.9 17.6,2.9 18,2.9 C18.5,2.9 18.9,3 19.2,3.1 C19.6,3.2 19.9,3.5 20.1,3.7 C20.4,4 20.5,4.3 20.7,4.6 C20.8,5 20.9,5.4 20.9,5.8 C20.9,5.9 20.9,6.1 20.9,6.2 C20.9,6.3 20.9,6.4 20.9,6.5 L16.1,6.5 C16.1,7.1 16.4,7.6 16.8,8 C17.2,8.4 17.8,8.5 18.4,8.5 C18.7,8.5 19.1,8.5 19.4,8.4 C19.7,8.3 20,8.2 20.3,8 L20.8,8.8 C20.5,9 20.1,9.2 19.7,9.3 C19.3,9.4 18.8,9.5 18.3,9.5 C17.8,9.5 17.4,9.4 17,9.3 C16.6,9.2 16.2,8.9 15.9,8.6 C15.6,8.3 15.3,8 15.2,7.6 C14.9,7.3 14.8,6.8 14.8,6.3 Z M19.8,5.8 C19.8,5.2 19.7,4.8 19.4,4.5 C19.1,4.2 18.7,4 18.1,4 C17.6,4 17.2,4.2 16.8,4.5 C16.4,4.8 16.2,5.2 16.1,5.8 L19.8,5.8 Z"></path>
                        <path d="M22.9,3.1 L27,3.1 L27,9.5 L25.7,9.5 L25.7,4.2 L22.9,4.2 L22.9,3.1 Z M26.3,1.9 C26,1.9 25.8,1.8 25.6,1.7 C25.4,1.5 25.3,1.3 25.3,1 C25.3,0.7 25.4,0.5 25.6,0.3 C25.8,0.1 26,0 26.3,0 C26.6,0 26.8,0.1 27,0.3 C27.2,0.5 27.3,0.7 27.3,1 C27.3,1.3 27.2,1.5 27,1.7 C26.8,1.9 26.6,1.9 26.3,1.9 Z"></path>
                        <path d="M30.3,6.3 C30.3,5.8 30.4,5.3 30.6,4.9 C30.8,4.5 31,4.1 31.3,3.8 C31.6,3.5 31.9,3.3 32.3,3.1 C32.7,2.9 33.1,2.9 33.5,2.9 C33.9,2.9 34.3,3 34.7,3.1 C35.1,3.2 35.4,3.5 35.7,3.8 C36,4.1 36.2,4.4 36.4,4.9 C36.6,5.4 36.7,5.8 36.7,6.3 C36.7,6.8 36.6,7.3 36.4,7.7 C36.2,8.1 36,8.5 35.7,8.7 C35.4,8.9 35.1,9.2 34.7,9.3 C34.3,9.4 33.9,9.5 33.5,9.5 C33.1,9.5 32.7,9.4 32.3,9.3 C31.9,9.2 31.6,8.9 31.3,8.7 C31,8.5 30.8,8.1 30.6,7.7 C30.4,7.3 30.3,6.9 30.3,6.3 Z M31.7,6.3 C31.7,7 31.9,7.5 32.2,8 C32.5,8.4 33,8.6 33.6,8.6 C34.2,8.6 34.6,8.4 35,8 C35.3,7.6 35.5,7 35.5,6.3 C35.5,5.6 35.3,5.1 35,4.6 C34.7,4.2 34.2,4 33.6,4 C33,4 32.6,4.2 32.2,4.6 C31.8,5.1 31.7,5.6 31.7,6.3 Z"></path>
                        <path d="M44,9.5 L43,9.5 L42.9,8.4 L42.8,8.4 C42.5,8.8 42.1,9.1 41.8,9.3 C41.4,9.5 41,9.6 40.5,9.6 C39.7,9.6 39.2,9.4 38.8,8.9 C38.5,8.5 38.3,7.8 38.3,7 L38.3,3.1 L39.6,3.1 L39.6,6.9 C39.6,7.5 39.7,7.9 39.9,8.1 C40.1,8.4 40.4,8.5 40.9,8.5 C41.2,8.5 41.5,8.4 41.8,8.3 C42.1,8.1 42.4,7.9 42.7,7.5 L42.7,3.1 L44,3.1 L44,9.5 Z"></path>
                        <path d="M46.8,2.1 L46.8,0.6 L48.4,0.6 L48.4,2.1 L48,5.1 L47.2,5.1 L46.8,2.1 Z M49.9,2.1 L49.9,0.6 L51.5,0.6 L51.5,2.1 L51.1,5.1 L50.3,5.1 L49.9,2.1 Z"></path>
                    </g>
                    <g transform="translate(0.000000, 68.000000)" fill="#A6E22E" id="Shape">
                        <path d="M1.1,6.9 L0.1,6.9 L0.1,6 L1.2,6 L1.4,4.2 L0.3,4.2 L0.3,3.3 L1.5,3.3 L1.8,1 L2.6,1 L2.3,3.3 L3.9,3.3 L4.2,1 L5,1 L4.7,3.3 L5.8,3.3 L5.8,4.2 L4.7,4.2 L4.5,6 L5.6,6 L5.6,6.9 L4.4,6.9 L4.1,9.5 L3.3,9.5 L3.6,6.9 L2,6.9 L1.7,9.5 L0.9,9.5 L1.1,6.9 Z M3.6,6 L3.8,4.2 L2.2,4.2 L2,6 L3.6,6 Z"></path>
                        <path d="M8.9,6.9 L7.9,6.9 L7.9,6 L9,6 L9.2,4.2 L8.1,4.2 L8.1,3.3 L9.3,3.3 L9.6,1 L10.4,1 L10.1,3.3 L11.7,3.3 L12,1 L12.8,1 L12.5,3.3 L13.6,3.3 L13.6,4.2 L12.5,4.2 L12.3,6 L13.4,6 L13.4,6.9 L12.2,6.9 L11.9,9.5 L11,9.5 L11.3,6.9 L9.7,6.9 L9.4,9.5 L8.6,9.5 L8.9,6.9 Z M11.4,6 L11.6,4.2 L10,4.2 L9.8,6 L11.4,6 Z"></path>
                        <path d="M23.2,5.3 C23.2,4.6 23.3,4 23.5,3.4 C23.7,2.9 24,2.4 24.3,2 C24.6,1.6 25,1.3 25.5,1.1 C26,0.9 26.5,0.8 27.1,0.8 C27.6,0.8 28.1,0.9 28.5,1.1 C28.9,1.3 29.2,1.6 29.5,1.8 L28.8,2.6 C28.6,2.4 28.3,2.2 28.1,2.1 C27.8,2 27.5,1.9 27.2,1.9 C26.8,1.9 26.5,2 26.2,2.1 C25.9,2.2 25.6,2.5 25.4,2.8 C25.2,3.1 25,3.4 24.9,3.8 C24.8,4.2 24.7,4.7 24.7,5.2 C24.7,5.7 24.8,6.2 24.9,6.6 C25,7 25.2,7.4 25.4,7.6 C25.6,7.9 25.9,8.1 26.2,8.3 C26.5,8.5 26.9,8.5 27.3,8.5 C27.7,8.5 28,8.4 28.3,8.3 C28.6,8.1 28.9,7.9 29.1,7.6 L29.8,8.4 C29.5,8.8 29.1,9.1 28.6,9.3 C28.2,9.5 27.7,9.6 27.1,9.6 C26.6,9.6 26.1,9.5 25.6,9.3 C25.1,9.1 24.7,8.8 24.4,8.4 C24.1,8 23.8,7.6 23.6,7 C23.3,6.6 23.2,6 23.2,5.3 Z"></path>
                        <path d="M30.9,6.3 C30.9,5.8 31,5.3 31.2,4.9 C31.4,4.5 31.6,4.1 31.9,3.8 C32.2,3.5 32.5,3.3 32.9,3.1 C33.3,2.9 33.7,2.9 34.1,2.9 C34.5,2.9 34.9,3 35.3,3.1 C35.7,3.2 36,3.5 36.3,3.8 C36.6,4.1 36.8,4.4 37,4.9 C37.2,5.4 37.3,5.8 37.3,6.3 C37.3,6.8 37.2,7.3 37,7.7 C36.8,8.1 36.6,8.5 36.3,8.7 C36,8.9 35.7,9.2 35.3,9.3 C34.9,9.4 34.5,9.5 34.1,9.5 C33.7,9.5 33.3,9.4 32.9,9.3 C32.5,9.2 32.2,8.9 31.9,8.7 C31.6,8.5 31.4,8.1 31.2,7.7 C31,7.3 30.9,6.9 30.9,6.3 Z M32.3,6.3 C32.3,7 32.5,7.5 32.8,8 C33.1,8.4 33.6,8.6 34.2,8.6 C34.8,8.6 35.2,8.4 35.6,8 C35.9,7.6 36.1,7 36.1,6.3 C36.1,5.6 35.9,5.1 35.6,4.6 C35.3,4.2 34.8,4 34.2,4 C33.6,4 33.2,4.2 32.8,4.6 C32.4,5.1 32.3,5.6 32.3,6.3 Z"></path>
                        <path d="M44.6,9.5 L43.5,9.5 L43.4,8.4 L43.3,8.4 C43,8.8 42.6,9.1 42.3,9.3 C41.9,9.5 41.5,9.6 41,9.6 C40.2,9.6 39.7,9.4 39.3,8.9 C39,8.5 38.8,7.8 38.8,7 L38.8,3.1 L40.1,3.1 L40.1,6.9 C40.1,7.5 40.2,7.9 40.4,8.1 C40.6,8.4 40.9,8.5 41.4,8.5 C41.7,8.5 42,8.4 42.3,8.3 C42.6,8.2 42.9,7.9 43.2,7.5 L43.2,3.1 L44.5,3.1 L44.5,9.5 L44.6,9.5 Z"></path>
                        <path d="M46.9,3.1 L48,3.1 L48.1,4.1 L48.2,4.1 C48.5,3.8 48.9,3.5 49.2,3.3 C49.6,3.1 50,3 50.5,3 C51.2,3 51.8,3.2 52.1,3.7 C52.4,4.1 52.6,4.8 52.6,5.6 L52.6,9.5 L51.3,9.5 L51.3,5.7 C51.3,5.1 51.2,4.7 51,4.5 C50.8,4.2 50.5,4.1 50,4.1 C49.7,4.1 49.4,4.2 49.1,4.4 C48.8,4.6 48.5,4.8 48.2,5.2 L48.2,9.6 L46.9,9.6 L46.9,3.1 Z"></path>
                        <path d="M56.2,4.2 L54.5,4.2 L54.5,3.2 L56.3,3.1 L56.5,1.3 L57.6,1.3 L57.6,3.1 L60.6,3.1 L60.6,4.1 L57.6,4.1 L57.6,6.9 C57.6,7.4 57.7,7.9 57.9,8.1 C58.1,8.4 58.5,8.5 59.1,8.5 C59.4,8.5 59.6,8.5 59.9,8.4 C60.1,8.4 60.4,8.3 60.6,8.2 L60.9,9.1 C60.6,9.2 60.3,9.3 60,9.4 C59.7,9.5 59.3,9.5 58.9,9.5 C58.4,9.5 58,9.4 57.7,9.3 C57.4,9.2 57.1,9 56.9,8.8 C56.7,8.6 56.6,8.3 56.5,8 C56.4,7.7 56.4,7.3 56.4,6.9 L56.4,4.2 L56.2,4.2 Z"></path>
                        <path d="M69.8,3.1 L71.1,3.1 L72.4,6.6 C72.5,6.9 72.6,7.2 72.7,7.5 C72.8,7.8 72.9,8.1 73,8.4 L73.1,8.4 C73.2,8.1 73.3,7.8 73.4,7.5 C73.5,7.2 73.6,6.9 73.7,6.6 L75,3.1 L76.2,3.1 L73.7,9.5 L72.2,9.5 L69.8,3.1 Z"></path>
                        <path d="M77.7,6.3 C77.7,5.8 77.8,5.3 78,4.9 C78.2,4.5 78.4,4.1 78.7,3.8 C79,3.5 79.3,3.3 79.7,3.1 C80.1,2.9 80.5,2.9 80.9,2.9 C81.3,2.9 81.7,3 82.1,3.1 C82.5,3.2 82.8,3.5 83.1,3.8 C83.4,4.1 83.6,4.4 83.8,4.9 C84,5.4 84.1,5.8 84.1,6.3 C84.1,6.8 84,7.3 83.8,7.7 C83.6,8.1 83.4,8.5 83.1,8.7 C82.8,8.9 82.5,9.2 82.1,9.3 C81.7,9.4 81.3,9.5 80.9,9.5 C80.5,9.5 80.1,9.4 79.7,9.3 C79.3,9.2 79,8.9 78.7,8.7 C78.4,8.5 78.2,8.1 78,7.7 C77.8,7.3 77.7,6.9 77.7,6.3 Z M79.1,6.3 C79.1,7 79.3,7.5 79.6,8 C79.9,8.4 80.4,8.6 81,8.6 C81.6,8.6 82,8.4 82.4,8 C82.7,7.6 82.9,7 82.9,6.3 C82.9,5.6 82.7,5.1 82.4,4.6 C82.1,4.2 81.6,4 81,4 C80.4,4 80,4.2 79.6,4.6 C79.2,5.1 79.1,5.6 79.1,6.3 Z"></path>
                        <path d="M84.9,3.1 L86.2,3.1 L86.9,6.6 C87,6.9 87,7.2 87.1,7.5 C87.2,7.8 87.2,8.1 87.2,8.4 L87.3,8.4 C87.4,7.8 87.5,7.2 87.7,6.6 L88.4,3.6 L89.4,3.6 L90.1,6.6 C90.2,6.9 90.2,7.2 90.3,7.5 C90.4,7.8 90.4,8.1 90.5,8.4 L90.6,8.4 C90.7,8.1 90.7,7.8 90.7,7.5 C90.7,7.2 90.8,6.9 90.8,6.6 L91.5,3.1 L92.7,3.1 L91.4,9.5 L89.9,9.5 L89.3,6.6 C89.2,6.3 89.2,6 89.1,5.7 C89.1,5.4 89,5.1 88.9,4.8 L88.8,4.8 C88.8,5.1 88.7,5.3 88.7,5.6 C88.7,5.9 88.6,6.2 88.5,6.6 L87.9,9.5 L86.4,9.5 L84.9,3.1 Z"></path>
                        <path d="M93.4,6.3 C93.4,5.8 93.5,5.3 93.7,4.9 C93.9,4.5 94.1,4.1 94.4,3.8 C94.7,3.5 95,3.3 95.4,3.1 C95.8,2.9 96.2,2.9 96.6,2.9 C97.1,2.9 97.5,3 97.8,3.1 C98.2,3.2 98.5,3.5 98.7,3.7 C99,4 99.1,4.3 99.3,4.6 C99.4,5 99.5,5.4 99.5,5.8 C99.5,5.9 99.5,6.1 99.5,6.2 C99.5,6.3 99.5,6.4 99.5,6.5 L94.7,6.5 C94.7,7.1 95,7.6 95.4,8 C95.8,8.4 96.4,8.5 97,8.5 C97.3,8.5 97.7,8.5 98,8.4 C98.3,8.3 98.6,8.2 98.9,8 L99.4,8.8 C99.1,9 98.7,9.2 98.3,9.3 C97.9,9.4 97.4,9.5 96.9,9.5 C96.4,9.5 96,9.4 95.6,9.3 C95.2,9.2 94.8,8.9 94.5,8.6 C94.2,8.3 93.9,8 93.8,7.6 C93.5,7.3 93.4,6.8 93.4,6.3 Z M98.4,5.8 C98.4,5.2 98.3,4.8 98,4.5 C97.7,4.2 97.3,4 96.7,4 C96.2,4 95.8,4.2 95.4,4.5 C95,4.8 94.8,5.2 94.7,5.8 L98.4,5.8 Z"></path>
                        <path d="M101.4,0.3 L104.8,0.3 L104.8,7.4 C104.8,7.8 104.9,8.2 105.1,8.4 C105.3,8.6 105.6,8.7 106,8.7 C106.2,8.7 106.4,8.7 106.5,8.6 C106.6,8.5 106.9,8.5 107.1,8.4 L107.4,9.4 C107.3,9.5 107.1,9.5 107,9.5 C106.9,9.5 106.7,9.6 106.6,9.6 C106.5,9.6 106.3,9.7 106.2,9.7 C106,9.7 105.9,9.7 105.7,9.7 C105,9.7 104.5,9.5 104.1,9.1 C103.7,8.7 103.5,8.1 103.5,7.3 L103.5,1.3 L101.4,1.3 L101.4,0.3 Z"></path>
                        <path d="M109.7,7.8 C110.1,8.1 110.4,8.3 110.8,8.4 C111.2,8.6 111.7,8.6 112.2,8.6 C112.7,8.6 113.1,8.5 113.4,8.4 C113.7,8.2 113.8,8 113.8,7.8 C113.8,7.6 113.6,7.4 113.3,7.2 C113,7 112.5,6.9 111.8,6.7 C111.5,6.6 111.2,6.5 110.9,6.4 C110.6,6.3 110.4,6.2 110.1,6 C109.8,5.8 109.7,5.7 109.6,5.5 C109.5,5.3 109.4,5.1 109.4,4.9 C109.4,4.6 109.5,4.4 109.6,4.2 C109.7,4 109.9,3.8 110.1,3.6 C110.3,3.4 110.6,3.3 111,3.2 C111.3,3.1 111.7,3.1 112.2,3.1 C112.7,3.1 113.2,3.2 113.6,3.4 C114,3.6 114.4,3.8 114.8,4 L114.2,4.8 C113.9,4.6 113.6,4.5 113.3,4.3 C113,4.2 112.6,4.1 112.2,4.1 C111.7,4.1 111.3,4.2 111.1,4.3 C110.9,4.5 110.8,4.6 110.8,4.9 C110.8,5.1 111,5.3 111.3,5.5 C111.6,5.7 112.1,5.8 112.6,5.9 C113.4,6.1 114,6.3 114.4,6.6 C114.8,6.9 115,7.3 115,7.8 C115,8.1 114.9,8.3 114.8,8.6 C114.7,8.8 114.5,9 114.2,9.2 C113.9,9.4 113.6,9.5 113.3,9.6 C112.9,9.7 112.5,9.7 112.1,9.7 C111.5,9.7 110.9,9.6 110.4,9.4 C109.9,9.2 109.4,9 109,8.7 L109.7,7.8 Z"></path>
                        <path d="M124.9,3.1 L129,3.1 L129,9.5 L127.7,9.5 L127.7,4.2 L124.9,4.2 L124.9,3.1 Z M128.3,1.9 C128,1.9 127.8,1.8 127.6,1.7 C127.4,1.5 127.3,1.3 127.3,1 C127.3,0.7 127.4,0.5 127.6,0.3 C127.8,0.1 128,2.84217094e-14 128.3,2.84217094e-14 C128.6,2.84217094e-14 128.8,0.1 129,0.3 C129.2,0.5 129.3,0.7 129.3,1 C129.3,1.3 129.2,1.5 129,1.7 C128.8,1.9 128.6,1.9 128.3,1.9 Z"></path>
                        <path d="M132.7,3.1 L133.8,3.1 L133.9,4.1 L134,4.1 C134.3,3.8 134.7,3.5 135,3.3 C135.4,3.1 135.8,3 136.3,3 C137,3 137.6,3.2 137.9,3.7 C138.2,4.1 138.4,4.8 138.4,5.6 L138.4,9.5 L137.1,9.5 L137.1,5.7 C137.1,5.1 137,4.7 136.8,4.5 C136.6,4.2 136.3,4.1 135.8,4.1 C135.5,4.1 135.2,4.2 134.9,4.4 C134.6,4.6 134.3,4.8 134,5.2 L134,9.6 L132.7,9.6 L132.7,3.1 Z"></path>
                        <path d="M148.2,0.3 L151.6,0.3 L151.6,7.4 C151.6,7.8 151.7,8.2 151.9,8.4 C152.1,8.6 152.4,8.7 152.8,8.7 C153,8.7 153.2,8.7 153.3,8.6 C153.4,8.5 153.7,8.5 153.9,8.4 L154.2,9.4 C154.1,9.5 153.9,9.5 153.8,9.5 C153.7,9.5 153.5,9.6 153.4,9.6 C153.3,9.6 153.1,9.7 153,9.7 C152.8,9.7 152.7,9.7 152.5,9.7 C151.8,9.7 151.3,9.5 150.9,9.1 C150.5,8.7 150.3,8.1 150.3,7.3 L150.3,1.3 L148.2,1.3 L148.2,0.3 Z"></path>
                        <path d="M156.1,3.1 L160.2,3.1 L160.2,9.5 L159,9.5 L159,4.2 L156.2,4.2 L156.2,3.1 L156.1,3.1 Z M159.5,1.9 C159.2,1.9 159,1.8 158.8,1.7 C158.6,1.5 158.5,1.3 158.5,1 C158.5,0.7 158.6,0.5 158.8,0.3 C159,0.1 159.2,2.84217094e-14 159.5,2.84217094e-14 C159.8,2.84217094e-14 160,0.1 160.2,0.3 C160.4,0.5 160.5,0.7 160.5,1 C160.5,1.3 160.4,1.5 160.2,1.7 C160,1.9 159.8,1.9 159.5,1.9 Z"></path>
                        <path d="M164.3,7.8 C164.7,8.1 165,8.3 165.4,8.4 C165.8,8.6 166.3,8.6 166.8,8.6 C167.3,8.6 167.7,8.5 168,8.4 C168.3,8.2 168.4,8 168.4,7.8 C168.4,7.6 168.2,7.4 167.9,7.2 C167.6,7 167.1,6.9 166.4,6.7 C166.1,6.6 165.8,6.5 165.5,6.4 C165.2,6.3 165,6.2 164.7,6 C164.4,5.8 164.3,5.7 164.2,5.5 C164.1,5.3 164,5.1 164,4.9 C164,4.6 164.1,4.4 164.2,4.2 C164.3,4 164.5,3.8 164.7,3.6 C164.9,3.4 165.2,3.3 165.6,3.2 C165.9,3.1 166.3,3.1 166.8,3.1 C167.3,3.1 167.8,3.2 168.2,3.4 C168.6,3.6 169,3.8 169.4,4 L168.8,4.8 C168.5,4.6 168.2,4.5 167.9,4.3 C167.6,4.2 167.2,4.1 166.8,4.1 C166.3,4.1 165.9,4.2 165.7,4.3 C165.5,4.5 165.4,4.6 165.4,4.9 C165.4,5.1 165.6,5.3 165.9,5.5 C166.2,5.7 166.7,5.8 167.2,5.9 C168,6.1 168.6,6.3 169,6.6 C169.4,6.9 169.6,7.3 169.6,7.8 C169.6,8.1 169.5,8.3 169.4,8.6 C169.3,8.8 169.1,9 168.8,9.2 C168.5,9.4 168.2,9.5 167.9,9.6 C167.5,9.7 167.1,9.7 166.7,9.7 C166.1,9.7 165.5,9.6 165,9.4 C164.5,9.2 164,9 163.6,8.7 L164.3,7.8 Z"></path>
                        <path d="M173.2,4.2 L171.5,4.2 L171.5,3.2 L173.3,3.1 L173.5,1.3 L174.6,1.3 L174.6,3.1 L177.6,3.1 L177.6,4.1 L174.6,4.1 L174.6,6.9 C174.6,7.4 174.7,7.9 174.9,8.1 C175.1,8.4 175.5,8.5 176.1,8.5 C176.4,8.5 176.6,8.5 176.9,8.4 C177.1,8.4 177.4,8.3 177.6,8.2 L177.9,9.1 C177.6,9.2 177.3,9.3 177,9.4 C176.7,9.5 176.3,9.5 175.9,9.5 C175.4,9.5 175,9.4 174.7,9.3 C174.4,9.2 174.1,9 173.9,8.8 C173.7,8.6 173.6,8.3 173.5,8 C173.4,7.7 173.4,7.3 173.4,6.9 L173.4,4.2 L173.2,4.2 Z"></path>
                        <path d="M186.9,6.3 C186.9,5.8 187,5.3 187.2,4.9 C187.4,4.5 187.6,4.1 187.9,3.8 C188.2,3.5 188.5,3.3 188.9,3.1 C189.3,2.9 189.7,2.9 190.1,2.9 C190.5,2.9 190.9,3 191.3,3.1 C191.7,3.2 192,3.5 192.3,3.8 C192.6,4.1 192.8,4.4 193,4.9 C193.2,5.4 193.3,5.8 193.3,6.3 C193.3,6.8 193.2,7.3 193,7.7 C192.8,8.1 192.6,8.5 192.3,8.7 C192,8.9 191.7,9.2 191.3,9.3 C190.9,9.4 190.5,9.5 190.1,9.5 C189.7,9.5 189.3,9.4 188.9,9.3 C188.5,9.2 188.2,8.9 187.9,8.7 C187.6,8.5 187.4,8.1 187.2,7.7 C187,7.3 186.9,6.9 186.9,6.3 Z M188.3,6.3 C188.3,7 188.5,7.5 188.8,8 C189.1,8.4 189.6,8.6 190.2,8.6 C190.8,8.6 191.2,8.4 191.6,8 C191.9,7.6 192.1,7 192.1,6.3 C192.1,5.6 191.9,5.1 191.6,4.6 C191.3,4.2 190.8,4 190.2,4 C189.6,4 189.2,4.2 188.8,4.6 C188.4,5.1 188.3,5.6 188.3,6.3 Z"></path>
                        <path d="M201.3,1.4 C201.1,1.3 200.8,1.2 200.6,1.2 C200.4,1.2 200.1,1.1 199.9,1.1 C199.4,1.1 199,1.2 198.8,1.5 C198.6,1.8 198.4,2.1 198.4,2.6 L198.4,3.1 L200.9,3.1 L200.9,4.1 L198.4,4.1 L198.4,9.4 L197.1,9.4 L197.1,4.1 L195.3,4.1 L195.3,3.1 L197.1,3 L197.1,2.6 C197.1,2.2 197.2,1.9 197.3,1.6 C197.4,1.3 197.6,1 197.8,0.8 C198,0.6 198.3,0.4 198.6,0.3 C198.9,0.2 199.3,0.1 199.8,0.1 C200.4,0.1 201.1,0.2 201.7,0.5 L201.3,1.4 Z"></path>
                        <path d="M209.7,3.1 L211,3.1 L211.7,6.6 C211.8,6.9 211.8,7.2 211.9,7.5 C212,7.8 212,8.1 212,8.4 L212.1,8.4 C212.2,7.8 212.3,7.2 212.5,6.6 L213.2,3.6 L214.2,3.6 L214.9,6.6 C215,6.9 215,7.2 215.1,7.5 C215.2,7.8 215.2,8.1 215.3,8.4 L215.4,8.4 C215.5,8.1 215.5,7.8 215.5,7.5 C215.5,7.2 215.6,6.9 215.6,6.6 L216.3,3.1 L217.5,3.1 L216.2,9.5 L214.7,9.5 L214.1,6.6 C214,6.3 214,6 213.9,5.7 C213.9,5.4 213.8,5.1 213.7,4.8 L213.6,4.8 C213.6,5.1 213.5,5.3 213.5,5.6 C213.5,5.9 213.4,6.2 213.3,6.6 L212.7,9.5 L211,9.5 L209.7,3.1 Z"></path>
                        <path d="M218.1,6.3 C218.1,5.8 218.2,5.3 218.4,4.9 C218.6,4.5 218.8,4.1 219.1,3.8 C219.4,3.5 219.7,3.3 220.1,3.1 C220.5,2.9 220.9,2.9 221.3,2.9 C221.7,2.9 222.1,3 222.5,3.1 C222.9,3.2 223.2,3.5 223.5,3.8 C223.8,4.1 224,4.4 224.2,4.9 C224.4,5.4 224.5,5.8 224.5,6.3 C224.5,6.8 224.4,7.3 224.2,7.7 C224,8.1 223.8,8.5 223.5,8.7 C223.2,8.9 222.9,9.2 222.5,9.3 C222.1,9.4 221.7,9.5 221.3,9.5 C220.9,9.5 220.5,9.4 220.1,9.3 C219.7,9.2 219.4,8.9 219.1,8.7 C218.8,8.5 218.6,8.1 218.4,7.7 C218.2,7.3 218.1,6.9 218.1,6.3 Z M219.5,6.3 C219.5,7 219.7,7.5 220,8 C220.3,8.4 220.8,8.6 221.4,8.6 C222,8.6 222.4,8.4 222.8,8 C223.1,7.6 223.3,7 223.3,6.3 C223.3,5.6 223.1,5.1 222.8,4.6 C222.5,4.2 222,4 221.4,4 C220.8,4 220.4,4.2 220,4.6 C219.6,5.1 219.5,5.6 219.5,6.3 Z"></path>
                        <path d="M227,3.1 L228.1,3.1 L228.2,4.6 C228.5,4.1 228.9,3.7 229.4,3.4 C229.9,3.1 230.4,3 231,3 C231.3,3 231.5,3 231.7,3.1 C231.9,3.1 232.1,3.2 232.3,3.3 L232,4.4 C231.8,4.3 231.6,4.3 231.4,4.2 C231.2,4.2 231,4.1 230.8,4.1 C230.3,4.1 229.9,4.2 229.5,4.5 C229.1,4.8 228.7,5.2 228.3,5.9 L228.3,9.5 L227,9.5 L227,3.1 Z"></path>
                        <path d="M233.7,6.3 C233.7,5.8 233.8,5.3 233.9,4.9 C234.1,4.5 234.3,4.1 234.5,3.9 C234.8,3.6 235.1,3.4 235.4,3.2 C235.7,3 236.1,3 236.5,3 C236.9,3 237.2,3.1 237.5,3.2 C237.8,3.3 238.1,3.5 238.3,3.8 L238.2,2.7 L238.2,0.3 L239.5,0.3 L239.5,9.5 L238.4,9.5 L238.3,8.7 C238,9 237.7,9.2 237.4,9.4 C237.1,9.6 236.7,9.7 236.3,9.7 C235.9,9.7 235.5,9.6 235.2,9.5 C234.9,9.4 234.6,9.1 234.3,8.9 C234,8.7 233.9,8.3 233.7,7.9 C233.8,7.3 233.7,6.9 233.7,6.3 Z M235.1,6.3 C235.1,7 235.2,7.6 235.5,8 C235.8,8.4 236.2,8.6 236.8,8.6 C237.4,8.6 237.9,8.3 238.4,7.7 L238.4,4.7 C238.1,4.5 237.9,4.3 237.6,4.2 C237.3,4.1 237.1,4.1 236.8,4.1 C236.5,4.1 236.3,4.2 236.1,4.3 C235.9,4.4 235.7,4.6 235.5,4.7 C235.3,4.9 235.2,5.1 235.1,5.4 C235.1,5.7 235.1,6 235.1,6.3 Z"></path>
                        <path d="M242.3,7.8 C242.7,8.1 243,8.3 243.4,8.4 C243.8,8.6 244.3,8.6 244.8,8.6 C245.3,8.6 245.7,8.5 246,8.4 C246.3,8.2 246.4,8 246.4,7.8 C246.4,7.6 246.2,7.4 245.9,7.2 C245.6,7 245.1,6.9 244.4,6.7 C244.1,6.6 243.8,6.5 243.5,6.4 C243.2,6.3 243,6.2 242.7,6 C242.4,5.8 242.3,5.7 242.2,5.5 C242.1,5.3 242,5.1 242,4.9 C242,4.6 242.1,4.4 242.2,4.2 C242.3,4 242.5,3.8 242.7,3.6 C242.9,3.4 243.2,3.3 243.6,3.2 C243.9,3.1 244.3,3.1 244.8,3.1 C245.3,3.1 245.8,3.2 246.2,3.4 C246.6,3.6 247,3.8 247.4,4 L246.8,4.8 C246.5,4.6 246.2,4.5 245.9,4.3 C245.6,4.2 245.2,4.1 244.8,4.1 C244.3,4.1 243.9,4.2 243.7,4.3 C243.5,4.5 243.4,4.6 243.4,4.9 C243.4,5.1 243.6,5.3 243.9,5.5 C244.2,5.7 244.7,5.8 245.2,5.9 C246,6.1 246.6,6.3 247,6.6 C247.4,6.9 247.6,7.3 247.6,7.8 C247.6,8.1 247.5,8.3 247.4,8.6 C247.3,8.8 247.1,9 246.8,9.2 C246.5,9.4 246.2,9.5 245.9,9.6 C245.5,9.7 245.1,9.7 244.7,9.7 C244.1,9.7 243.5,9.6 243,9.4 C242.5,9.2 242,9 241.6,8.7 L242.3,7.8 Z"></path>
                    </g>
                    <g transform="translate(0.000000, 102.000000)" fill="#A6E22E" id="Shape">
                        <polygon points="0.7 7.7 2.1 5.6 0 4.7 0.2 4 2.4 4.7 2.5 2.3 3.2 2.3 3.3 4.7 5.5 4 5.7 4.7 3.6 5.6 5 7.7 4.4 8.1 2.9 6.1 1.4 8.1"></polygon>
                        <path d="M14.7,1 L16,1 L16.6,6.1 C16.6,6.5 16.6,6.8 16.7,7.2 C16.8,7.6 16.8,7.9 16.8,8.3 C16.9,7.9 17,7.6 17.1,7.2 C17.2,6.9 17.3,6.5 17.4,6.1 L18.2,3.1 L19,3.1 L19.8,6.1 C19.9,6.4 19.9,6.8 20,7.1 C20.1,7.5 20.2,7.8 20.3,8.2 L20.4,8.2 C20.4,7.8 20.5,7.5 20.5,7.1 C20.5,6.7 20.6,6.4 20.6,6.1 L21.1,1 L22.3,1 L21.1,9.5 L19.7,9.5 L18.8,6.2 C18.7,5.9 18.7,5.7 18.6,5.4 C18.6,5.1 18.5,4.9 18.5,4.6 C18.5,4.9 18.4,5.1 18.4,5.4 C18.4,5.7 18.3,5.9 18.2,6.2 L17.4,9.5 L16,9.5 L14.7,1 Z"></path>
                        <path d="M23.1,6.3 C23.1,5.8 23.2,5.3 23.4,4.9 C23.6,4.5 23.8,4.1 24.1,3.8 C24.4,3.5 24.7,3.3 25.1,3.1 C25.5,2.9 25.9,2.9 26.3,2.9 C26.7,2.9 27.1,3 27.5,3.1 C27.9,3.2 28.2,3.5 28.5,3.8 C28.8,4.1 29,4.4 29.2,4.9 C29.4,5.4 29.5,5.8 29.5,6.3 C29.5,6.8 29.4,7.3 29.2,7.7 C29,8.1 28.8,8.5 28.5,8.7 C28.2,8.9 27.9,9.2 27.5,9.3 C27.1,9.4 26.7,9.5 26.3,9.5 C25.9,9.5 25.5,9.4 25.1,9.3 C24.7,9.2 24.4,8.9 24.1,8.7 C23.8,8.5 23.6,8.1 23.4,7.7 C23.2,7.3 23.1,6.9 23.1,6.3 Z M24.5,6.3 C24.5,7 24.7,7.5 25,8 C25.3,8.4 25.8,8.6 26.4,8.6 C27,8.6 27.4,8.4 27.8,8 C28.1,7.6 28.3,7 28.3,6.3 C28.3,5.6 28.1,5.1 27.8,4.6 C27.5,4.2 27,4 26.4,4 C25.8,4 25.4,4.2 25,4.6 C24.6,5.1 24.5,5.6 24.5,6.3 Z"></path>
                        <path d="M32,3.1 L33.1,3.1 L33.2,4.6 C33.5,4.1 33.9,3.7 34.4,3.4 C34.9,3.1 35.4,3 36,3 C36.3,3 36.5,3 36.7,3.1 C36.9,3.1 37.1,3.2 37.3,3.3 L37,4.4 C36.8,4.3 36.6,4.3 36.4,4.2 C36.2,4.2 36,4.1 35.8,4.1 C35.3,4.1 34.9,4.2 34.5,4.5 C34.1,4.8 33.7,5.2 33.3,5.9 L33.3,9.5 L32,9.5 L32,3.1 Z"></path>
                        <path d="M38.7,6.3 C38.7,5.8 38.8,5.3 38.9,4.9 C39.1,4.5 39.3,4.1 39.5,3.9 C39.8,3.6 40.1,3.4 40.4,3.2 C40.7,3 41.1,3 41.5,3 C41.9,3 42.2,3.1 42.5,3.2 C42.8,3.3 43.1,3.5 43.3,3.8 L43.2,2.7 L43.2,0.3 L44.5,0.3 L44.5,9.5 L43.4,9.5 L43.3,8.7 C43,9 42.7,9.2 42.4,9.4 C42.1,9.6 41.7,9.7 41.3,9.7 C40.9,9.7 40.5,9.6 40.2,9.5 C39.9,9.4 39.6,9.1 39.3,8.9 C39,8.7 38.9,8.3 38.7,7.9 C38.8,7.3 38.7,6.9 38.7,6.3 Z M40.1,6.3 C40.1,7 40.2,7.6 40.5,8 C40.8,8.4 41.2,8.6 41.8,8.6 C42.4,8.6 42.9,8.3 43.4,7.7 L43.4,4.7 C43.1,4.5 42.9,4.3 42.6,4.2 C42.3,4.1 42.1,4.1 41.8,4.1 C41.5,4.1 41.3,4.2 41.1,4.3 C40.9,4.4 40.7,4.6 40.5,4.7 C40.3,4.9 40.2,5.1 40.1,5.4 C40.1,5.7 40.1,6 40.1,6.3 Z"></path>
                        <path d="M47.3,7.8 C47.7,8.1 48,8.3 48.4,8.4 C48.8,8.6 49.3,8.6 49.8,8.6 C50.3,8.6 50.7,8.5 51,8.4 C51.3,8.2 51.4,8 51.4,7.8 C51.4,7.6 51.2,7.4 50.9,7.2 C50.6,7 50.1,6.9 49.4,6.7 C49.1,6.6 48.8,6.5 48.5,6.4 C48.2,6.3 48,6.2 47.7,6 C47.4,5.8 47.3,5.7 47.2,5.5 C47.1,5.3 47,5.1 47,4.9 C47,4.6 47.1,4.4 47.2,4.2 C47.3,4 47.5,3.8 47.7,3.6 C47.9,3.4 48.2,3.3 48.6,3.2 C48.9,3.1 49.3,3.1 49.8,3.1 C50.3,3.1 50.8,3.2 51.2,3.4 C51.6,3.6 52,3.8 52.4,4 L51.8,4.8 C51.5,4.6 51.2,4.5 50.9,4.3 C50.6,4.2 50.2,4.1 49.8,4.1 C49.3,4.1 48.9,4.2 48.7,4.3 C48.5,4.5 48.4,4.6 48.4,4.9 C48.4,5.1 48.6,5.3 48.9,5.5 C49.2,5.7 49.7,5.8 50.2,5.9 C51,6.1 51.6,6.3 52,6.6 C52.4,6.9 52.6,7.3 52.6,7.8 C52.6,8.1 52.5,8.3 52.4,8.6 C52.3,8.8 52.1,9 51.8,9.2 C51.5,9.4 51.2,9.5 50.9,9.6 C50.5,9.7 50.1,9.7 49.7,9.7 C49.1,9.7 48.5,9.6 48,9.4 C47.5,9.2 47,9 46.6,8.7 L47.3,7.8 Z"></path>
                        <path d="M61.5,3.1 L62.8,3.1 L63.5,6.6 C63.6,6.9 63.6,7.2 63.7,7.5 C63.8,7.8 63.8,8.1 63.8,8.4 L63.9,8.4 C64,7.8 64.1,7.2 64.3,6.6 L65,3.6 L66,3.6 L66.7,6.6 C66.8,6.9 66.8,7.2 66.9,7.5 C67,7.8 67,8.1 67.1,8.4 L67.2,8.4 C67.3,8.1 67.3,7.8 67.3,7.5 C67.3,7.2 67.4,6.9 67.4,6.6 L68.1,3.1 L69.3,3.1 L68,9.5 L66.5,9.5 L65.9,6.6 C65.8,6.3 65.8,6 65.7,5.7 C65.7,5.4 65.6,5.1 65.5,4.8 L65.4,4.8 C65.4,5.1 65.3,5.3 65.3,5.6 C65.3,5.9 65.2,6.2 65.1,6.6 L64.5,9.5 L63,9.5 L61.5,3.1 Z"></path>
                        <path d="M70.3,3.1 L74.4,3.1 L74.4,9.5 L73.1,9.5 L73.1,4.2 L70.3,4.2 L70.3,3.1 Z M73.7,1.9 C73.4,1.9 73.2,1.8 73,1.7 C72.8,1.5 72.7,1.3 72.7,1 C72.7,0.7 72.8,0.5 73,0.3 C73.2,0.1 73.4,2.84217094e-14 73.7,2.84217094e-14 C74,2.84217094e-14 74.2,0.1 74.4,0.3 C74.6,0.5 74.7,0.7 74.7,1 C74.7,1.3 74.6,1.5 74.4,1.7 C74.2,1.9 74,1.9 73.7,1.9 Z"></path>
                        <path d="M79.6,4.2 L77.9,4.2 L77.9,3.2 L79.7,3.1 L79.9,1.3 L81,1.3 L81,3.1 L84,3.1 L84,4.1 L81,4.1 L81,6.9 C81,7.4 81.1,7.9 81.3,8.1 C81.5,8.4 81.9,8.5 82.5,8.5 C82.8,8.5 83,8.5 83.3,8.4 C83.5,8.4 83.8,8.3 84,8.2 L84.3,9.1 C84,9.2 83.7,9.3 83.4,9.4 C83.1,9.5 82.7,9.5 82.3,9.5 C81.8,9.5 81.4,9.4 81.1,9.3 C80.8,9.2 80.5,9 80.3,8.8 C80.1,8.6 80,8.3 79.9,8 C79.8,7.7 79.8,7.3 79.8,6.9 L79.8,4.2 L79.6,4.2 Z"></path>
                        <path d="M85.9,0.3 L87.2,0.3 L87.2,2.7 L87.1,4.1 C87.4,3.8 87.8,3.5 88.1,3.3 C88.4,3.1 88.9,3 89.4,3 C90.1,3 90.7,3.2 91,3.7 C91.3,4.1 91.5,4.8 91.5,5.6 L91.5,9.5 L90.2,9.5 L90.2,5.7 C90.2,5.1 90.1,4.7 89.9,4.5 C89.7,4.2 89.4,4.1 88.9,4.1 C88.6,4.1 88.3,4.2 88,4.4 C87.7,4.6 87.4,4.8 87.1,5.2 L87.1,9.6 L85.8,9.6 L85.8,0.3 L85.9,0.3 Z"></path>
                        <path d="M101,3.1 L102.3,3.1 L103.6,6.6 C103.7,6.9 103.8,7.2 103.9,7.5 C104,7.8 104.1,8.1 104.2,8.4 L104.3,8.4 C104.4,8.1 104.5,7.8 104.6,7.5 C104.7,7.2 104.8,6.9 104.9,6.6 L106.2,3.1 L107.4,3.1 L104.9,9.5 L103.4,9.5 L101,3.1 Z"></path>
                        <path d="M108.9,6.3 C108.9,5.8 109,5.3 109.2,4.9 C109.4,4.5 109.6,4.1 109.9,3.8 C110.2,3.5 110.5,3.3 110.9,3.1 C111.3,2.9 111.7,2.9 112.1,2.9 C112.5,2.9 112.9,3 113.3,3.1 C113.7,3.2 114,3.5 114.3,3.8 C114.6,4.1 114.8,4.4 115,4.9 C115.2,5.4 115.3,5.8 115.3,6.3 C115.3,6.8 115.2,7.3 115,7.7 C114.8,8.1 114.6,8.5 114.3,8.7 C114,8.9 113.7,9.2 113.3,9.3 C112.9,9.4 112.5,9.5 112.1,9.5 C111.7,9.5 111.3,9.4 110.9,9.3 C110.5,9.2 110.2,8.9 109.9,8.7 C109.6,8.5 109.4,8.1 109.2,7.7 C109,7.3 108.9,6.9 108.9,6.3 Z M110.3,6.3 C110.3,7 110.5,7.5 110.8,8 C111.1,8.4 111.6,8.6 112.2,8.6 C112.8,8.6 113.2,8.4 113.6,8 C113.9,7.6 114.1,7 114.1,6.3 C114.1,5.6 113.9,5.1 113.6,4.6 C113.3,4.2 112.8,4 112.2,4 C111.6,4 111.2,4.2 110.8,4.6 C110.4,5.1 110.3,5.6 110.3,6.3 Z"></path>
                        <path d="M116.1,3.1 L117.4,3.1 L118.1,6.6 C118.2,6.9 118.2,7.2 118.3,7.5 C118.4,7.8 118.4,8.1 118.4,8.4 L118.5,8.4 C118.6,7.8 118.7,7.2 118.9,6.6 L119.6,3.6 L120.6,3.6 L121.3,6.6 C121.4,6.9 121.4,7.2 121.5,7.5 C121.6,7.8 121.6,8.1 121.7,8.4 L121.8,8.4 C121.9,8.1 121.9,7.8 121.9,7.5 C121.9,7.2 122,6.9 122,6.6 L122.7,3.1 L123.9,3.1 L122.6,9.5 L121.1,9.5 L120.5,6.6 C120.4,6.3 120.4,6 120.3,5.7 C120.3,5.4 120.2,5.1 120.1,4.8 L120,4.8 C120,5.1 119.9,5.3 119.9,5.6 C119.9,5.9 119.8,6.2 119.7,6.6 L119.1,9.5 L117.6,9.5 L116.1,3.1 Z"></path>
                        <path d="M124.6,6.3 C124.6,5.8 124.7,5.3 124.9,4.9 C125.1,4.5 125.3,4.1 125.6,3.8 C125.9,3.5 126.2,3.3 126.6,3.1 C127,2.9 127.4,2.9 127.8,2.9 C128.3,2.9 128.7,3 129,3.1 C129.4,3.2 129.7,3.5 129.9,3.7 C130.2,4 130.3,4.3 130.5,4.6 C130.6,5 130.7,5.4 130.7,5.8 C130.7,5.9 130.7,6.1 130.7,6.2 C130.7,6.3 130.7,6.4 130.7,6.5 L126,6.5 C126,7.1 126.3,7.6 126.7,8 C127.1,8.4 127.7,8.5 128.3,8.5 C128.6,8.5 129,8.5 129.3,8.4 C129.6,8.3 129.9,8.2 130.2,8 L130.7,8.8 C130.4,9 130,9.2 129.6,9.3 C129.2,9.4 128.7,9.5 128.2,9.5 C127.7,9.5 127.3,9.4 126.9,9.3 C126.5,9.2 126.1,8.9 125.8,8.6 C125.5,8.3 125.2,8 125.1,7.6 C124.7,7.3 124.6,6.8 124.6,6.3 Z M129.6,5.8 C129.6,5.2 129.5,4.8 129.2,4.5 C128.9,4.2 128.5,4 127.9,4 C127.4,4 127,4.2 126.6,4.5 C126.2,4.8 126,5.2 125.9,5.8 L129.6,5.8 Z"></path>
                        <path d="M132.6,0.3 L136,0.3 L136,7.4 C136,7.8 136.1,8.2 136.3,8.4 C136.5,8.6 136.8,8.7 137.2,8.7 C137.4,8.7 137.6,8.7 137.7,8.6 C137.8,8.5 138.1,8.5 138.3,8.4 L138.6,9.4 C138.5,9.5 138.3,9.5 138.2,9.5 C138.1,9.5 137.9,9.6 137.8,9.6 C137.7,9.6 137.5,9.7 137.4,9.7 C137.2,9.7 137.1,9.7 136.9,9.7 C136.2,9.7 135.7,9.5 135.3,9.1 C134.9,8.7 134.7,8.1 134.7,7.3 L134.7,1.3 L132.6,1.3 L132.6,0.3 Z"></path>
                        <path d="M140.9,7.8 C141.3,8.1 141.6,8.3 142,8.4 C142.4,8.6 142.9,8.6 143.4,8.6 C143.9,8.6 144.3,8.5 144.6,8.4 C144.9,8.2 145,8 145,7.8 C145,7.6 144.8,7.4 144.5,7.2 C144.2,7 143.7,6.9 143,6.7 C142.7,6.6 142.4,6.5 142.1,6.4 C141.8,6.3 141.6,6.2 141.3,6 C141,5.8 140.9,5.7 140.8,5.5 C140.7,5.3 140.6,5.1 140.6,4.9 C140.6,4.6 140.7,4.4 140.8,4.2 C140.9,4 141.1,3.8 141.3,3.6 C141.5,3.4 141.8,3.3 142.2,3.2 C142.5,3.1 142.9,3.1 143.4,3.1 C143.9,3.1 144.4,3.2 144.8,3.4 C145.2,3.6 145.6,3.8 146,4 L145.4,4.8 C145.1,4.6 144.8,4.5 144.5,4.3 C144.2,4.2 143.8,4.1 143.4,4.1 C142.9,4.1 142.5,4.2 142.3,4.3 C142.1,4.5 142,4.6 142,4.9 C142,5.1 142.2,5.3 142.5,5.5 C142.8,5.7 143.3,5.8 143.8,5.9 C144.6,6.1 145.2,6.3 145.6,6.6 C146,6.9 146.2,7.3 146.2,7.8 C146.2,8.1 146.1,8.3 146,8.6 C145.9,8.8 145.7,9 145.4,9.2 C145.1,9.4 144.8,9.5 144.5,9.6 C144.1,9.7 143.7,9.7 143.3,9.7 C142.7,9.7 142.1,9.6 141.6,9.4 C141.1,9.2 140.6,9 140.2,8.7 L140.9,7.8 Z"></path>
                    </g>
                    <g transform="translate(17.000000, 135.000000)" fill="#AE81FF" id="Shape">
                        <polygon points="0.9 0.8 2 0.8 2 13.8 0.9 13.8"></polygon>
                        <path d="M5.5,2 L6.8,2 L7.4,7.1 C7.4,7.5 7.4,7.8 7.5,8.2 C7.6,8.6 7.6,8.9 7.6,9.3 C7.7,8.9 7.8,8.6 7.9,8.2 C8,7.9 8.1,7.5 8.2,7.1 L9,4.1 L9.9,4.1 L10.7,7.1 C10.8,7.4 10.8,7.8 10.9,8.1 C11,8.5 11.1,8.8 11.2,9.2 L11.3,9.2 C11.3,8.8 11.4,8.5 11.4,8.1 C11.4,7.7 11.5,7.4 11.5,7.1 L12,2 L13.2,2 L12,10.5 L10.6,10.5 L9.7,7.2 C9.6,6.9 9.6,6.7 9.5,6.4 C9.5,6.1 9.4,5.9 9.4,5.6 C9.4,5.9 9.3,6.1 9.3,6.4 C9.3,6.7 9.2,6.9 9.1,7.2 L8.3,10.5 L6.9,10.5 L5.5,2 Z"></path>
                        <path d="M13.9,7.3 C13.9,6.8 14,6.3 14.2,5.9 C14.4,5.5 14.6,5.1 14.9,4.8 C15.2,4.5 15.5,4.3 15.9,4.1 C16.3,3.9 16.7,3.9 17.1,3.9 C17.5,3.9 17.9,4 18.3,4.1 C18.7,4.2 19,4.5 19.3,4.8 C19.6,5.1 19.8,5.4 20,5.9 C20.2,6.4 20.3,6.8 20.3,7.3 C20.3,7.8 20.2,8.3 20,8.7 C19.8,9.1 19.6,9.5 19.3,9.7 C19,9.9 18.7,10.2 18.3,10.3 C17.9,10.4 17.5,10.5 17.1,10.5 C16.7,10.5 16.3,10.4 15.9,10.3 C15.5,10.2 15.2,9.9 14.9,9.7 C14.6,9.5 14.4,9.1 14.2,8.7 C14,8.3 13.9,7.9 13.9,7.3 Z M15.3,7.3 C15.3,8 15.5,8.5 15.8,9 C16.1,9.4 16.6,9.6 17.2,9.6 C17.8,9.6 18.2,9.4 18.6,9 C18.9,8.6 19.1,8 19.1,7.3 C19.1,6.6 18.9,6.1 18.6,5.6 C18.3,5.2 17.8,5 17.2,5 C16.6,5 16.2,5.2 15.8,5.6 C15.4,6.1 15.3,6.6 15.3,7.3 Z"></path>
                        <path d="M22.8,4.1 L23.9,4.1 L24,5.6 C24.3,5.1 24.7,4.7 25.2,4.4 C25.7,4.1 26.2,4 26.8,4 C27.1,4 27.3,4 27.5,4.1 C27.7,4.1 27.9,4.2 28.1,4.3 L27.8,5.4 C27.6,5.3 27.4,5.3 27.2,5.2 C27,5.2 26.8,5.1 26.6,5.1 C26.1,5.1 25.7,5.2 25.3,5.5 C24.9,5.8 24.5,6.2 24.1,6.9 L24.1,10.5 L22.8,10.5 L22.8,4.1 Z"></path>
                        <path d="M29.5,7.3 C29.5,6.8 29.6,6.3 29.7,5.9 C29.9,5.5 30.1,5.1 30.3,4.9 C30.6,4.6 30.9,4.4 31.2,4.2 C31.5,4 31.9,4 32.3,4 C32.7,4 33,4.1 33.3,4.2 C33.6,4.3 33.9,4.5 34.1,4.8 L34,3.7 L34,1.3 L35.3,1.3 L35.3,10.5 L34.2,10.5 L34.1,9.7 C33.8,10 33.5,10.2 33.2,10.4 C32.9,10.6 32.5,10.7 32.1,10.7 C31.7,10.7 31.3,10.6 31,10.5 C30.7,10.4 30.4,10.1 30.1,9.9 C29.8,9.7 29.7,9.3 29.5,8.9 C29.6,8.3 29.5,7.9 29.5,7.3 Z M30.9,7.3 C30.9,8 31,8.6 31.3,9 C31.6,9.4 32,9.6 32.6,9.6 C33.2,9.6 33.7,9.3 34.2,8.7 L34.2,5.7 C33.9,5.5 33.7,5.3 33.4,5.2 C33.1,5.1 32.9,5.1 32.6,5.1 C32.3,5.1 32.1,5.2 31.9,5.3 C31.7,5.4 31.5,5.6 31.3,5.7 C31.1,5.9 31,6.1 30.9,6.4 C30.9,6.7 30.9,7 30.9,7.3 Z"></path>
                        <polygon points="86.7 0.8 87.8 0.8 87.8 13.8 86.7 13.8"></polygon>
                        <path d="M91.7,2 L93.1,2 L94.4,6.4 C94.5,6.9 94.7,7.4 94.8,7.8 C94.9,8.2 95,8.7 95.2,9.2 L95.3,9.2 C95.5,8.7 95.6,8.2 95.7,7.8 C95.8,7.4 95.9,6.9 96.1,6.4 L97.4,2 L98.7,2 L96,10.5 L94.5,10.5 L91.7,2 Z"></path>
                        <path d="M99.7,7.3 C99.7,6.8 99.8,6.3 100,5.9 C100.2,5.5 100.4,5.1 100.7,4.8 C101,4.5 101.3,4.3 101.7,4.1 C102.1,3.9 102.5,3.9 102.9,3.9 C103.3,3.9 103.7,4 104.1,4.1 C104.5,4.2 104.8,4.5 105.1,4.8 C105.4,5.1 105.6,5.4 105.8,5.9 C106,6.4 106.1,6.8 106.1,7.3 C106.1,7.8 106,8.3 105.8,8.7 C105.6,9.1 105.4,9.5 105.1,9.7 C104.8,9.9 104.5,10.2 104.1,10.3 C103.7,10.4 103.3,10.5 102.9,10.5 C102.5,10.5 102.1,10.4 101.7,10.3 C101.3,10.2 101,9.9 100.7,9.7 C100.4,9.5 100.2,9.1 100,8.7 C99.8,8.3 99.7,7.9 99.7,7.3 Z M101.1,7.3 C101.1,8 101.3,8.5 101.6,9 C101.9,9.4 102.4,9.6 103,9.6 C103.6,9.6 104,9.4 104.4,9 C104.7,8.6 104.9,8 104.9,7.3 C104.9,6.6 104.7,6.1 104.4,5.6 C104.1,5.2 103.6,5 103,5 C102.4,5 102,5.2 101.6,5.6 C101.2,6.1 101.1,6.6 101.1,7.3 Z"></path>
                        <path d="M106.9,4.1 L108.2,4.1 L108.9,7.6 C109,7.9 109,8.2 109.1,8.5 C109.2,8.8 109.2,9.1 109.2,9.4 L109.3,9.4 C109.4,8.8 109.5,8.2 109.7,7.6 L110.4,4.6 L111.4,4.6 L112.1,7.6 C112.2,7.9 112.2,8.2 112.3,8.5 C112.4,8.8 112.4,9.1 112.5,9.4 L112.6,9.4 C112.7,9.1 112.7,8.8 112.7,8.5 C112.7,8.2 112.8,7.9 112.8,7.6 L113.5,4.1 L114.7,4.1 L113.4,10.5 L111.9,10.5 L111.3,7.6 C111.2,7.3 111.2,7 111.1,6.7 C111.1,6.4 111,6.1 110.9,5.8 L110.8,5.8 C110.8,6.1 110.7,6.3 110.7,6.6 C110.7,6.9 110.6,7.2 110.5,7.6 L109.9,10.5 L108.4,10.5 L106.9,4.1 Z"></path>
                        <path d="M115.4,7.3 C115.4,6.8 115.5,6.3 115.7,5.9 C115.9,5.5 116.1,5.1 116.4,4.8 C116.7,4.5 117,4.3 117.4,4.1 C117.8,3.9 118.2,3.9 118.6,3.9 C119.1,3.9 119.5,4 119.8,4.1 C120.2,4.2 120.5,4.5 120.7,4.7 C121,5 121.1,5.3 121.3,5.6 C121.4,6 121.5,6.4 121.5,6.8 C121.5,6.9 121.5,7.1 121.5,7.2 C121.5,7.3 121.5,7.4 121.5,7.5 L116.7,7.5 C116.7,8.1 117,8.6 117.4,9 C117.8,9.4 118.4,9.5 119,9.5 C119.3,9.5 119.7,9.5 120,9.4 C120.3,9.3 120.6,9.2 120.9,9 L121.4,9.8 C121.1,10 120.7,10.2 120.3,10.3 C119.9,10.4 119.4,10.5 118.9,10.5 C118.4,10.5 118,10.4 117.6,10.3 C117.2,10.2 116.8,9.9 116.5,9.6 C116.2,9.3 115.9,9 115.8,8.6 C115.5,8.3 115.4,7.8 115.4,7.3 Z M120.4,6.8 C120.4,6.2 120.3,5.8 120,5.5 C119.7,5.2 119.3,5 118.7,5 C118.2,5 117.8,5.2 117.4,5.5 C117,5.8 116.8,6.2 116.7,6.8 L120.4,6.8 Z"></path>
                        <path d="M123.4,1.3 L126.8,1.3 L126.8,8.4 C126.8,8.8 126.9,9.2 127.1,9.4 C127.3,9.6 127.6,9.7 128,9.7 C128.2,9.7 128.4,9.7 128.5,9.6 C128.6,9.5 128.9,9.5 129.1,9.4 L129.4,10.4 C129.3,10.5 129.1,10.5 129,10.5 C128.9,10.5 128.7,10.6 128.6,10.6 C128.5,10.6 128.3,10.7 128.2,10.7 C128,10.7 127.9,10.7 127.7,10.7 C127,10.7 126.5,10.5 126.1,10.1 C125.7,9.7 125.5,9.1 125.5,8.3 L125.5,2.3 L123.4,2.3 L123.4,1.3 Z"></path>
                        <path d="M138.8,6.3 C138.8,5.6 138.9,5 139.1,4.4 C139.3,3.9 139.6,3.4 139.9,3 C140.2,2.6 140.6,2.3 141.1,2.1 C141.6,1.9 142.1,1.8 142.7,1.8 C143.2,1.8 143.7,1.9 144.1,2.1 C144.5,2.3 144.8,2.6 145.1,2.8 L144.4,3.6 C144.2,3.4 143.9,3.2 143.7,3.1 C143.4,3 143.1,2.9 142.8,2.9 C142.4,2.9 142.1,3 141.8,3.1 C141.5,3.2 141.2,3.5 141,3.8 C140.8,4.1 140.6,4.4 140.5,4.8 C140.4,5.2 140.3,5.7 140.3,6.2 C140.3,6.7 140.4,7.2 140.5,7.6 C140.6,8 140.8,8.4 141,8.6 C141.2,8.9 141.5,9.1 141.8,9.3 C142.1,9.5 142.5,9.5 142.9,9.5 C143.3,9.5 143.6,9.4 143.9,9.3 C144.2,9.1 144.5,8.9 144.7,8.6 L145.4,9.4 C145.1,9.8 144.7,10.1 144.2,10.3 C143.8,10.5 143.3,10.6 142.7,10.6 C142.2,10.6 141.7,10.5 141.2,10.3 C140.7,10.1 140.3,9.8 140,9.4 C139.7,9 139.4,8.6 139.2,8 C138.9,7.6 138.8,7 138.8,6.3 Z"></path>
                        <path d="M146.5,7.3 C146.5,6.8 146.6,6.3 146.8,5.9 C147,5.5 147.2,5.1 147.5,4.8 C147.8,4.5 148.1,4.3 148.5,4.1 C148.9,3.9 149.3,3.9 149.7,3.9 C150.1,3.9 150.5,4 150.9,4.1 C151.3,4.2 151.6,4.5 151.9,4.8 C152.2,5.1 152.4,5.4 152.6,5.9 C152.8,6.4 152.9,6.8 152.9,7.3 C152.9,7.8 152.8,8.3 152.6,8.7 C152.4,9.1 152.2,9.5 151.9,9.7 C151.6,9.9 151.3,10.2 150.9,10.3 C150.5,10.4 150.1,10.5 149.7,10.5 C149.3,10.5 148.9,10.4 148.5,10.3 C148.1,10.2 147.8,9.9 147.5,9.7 C147.2,9.5 147,9.1 146.8,8.7 C146.6,8.3 146.5,7.9 146.5,7.3 Z M147.9,7.3 C147.9,8 148.1,8.5 148.4,9 C148.7,9.4 149.2,9.6 149.8,9.6 C150.4,9.6 150.8,9.4 151.2,9 C151.5,8.6 151.7,8 151.7,7.3 C151.7,6.6 151.5,6.1 151.2,5.6 C150.9,5.2 150.4,5 149.8,5 C149.2,5 148.8,5.2 148.4,5.6 C148,6.1 147.9,6.6 147.9,7.3 Z"></path>
                        <path d="M160.2,10.5 L159.1,10.5 L159,9.4 C158.7,9.8 158.3,10.1 158,10.3 C157.6,10.5 157.2,10.6 156.7,10.6 C155.9,10.6 155.4,10.4 155,9.9 C154.7,9.5 154.5,8.8 154.5,8 L154.5,4.1 L155.8,4.1 L155.8,7.9 C155.8,8.5 155.9,8.9 156.1,9.1 C156.3,9.4 156.6,9.5 157.1,9.5 C157.4,9.5 157.7,9.4 158,9.3 C158.3,9.2 158.6,8.9 158.9,8.5 L158.9,4.1 L160.2,4.1 L160.2,10.5 Z"></path>
                        <path d="M162.5,4.1 L163.6,4.1 L163.7,5.1 L163.8,5.1 C164.1,4.8 164.5,4.5 164.8,4.3 C165.2,4.1 165.6,4 166.1,4 C166.8,4 167.4,4.2 167.7,4.7 C168,5.1 168.2,5.8 168.2,6.6 L168.2,10.5 L167,10.5 L167,6.7 C167,6.1 166.9,5.7 166.7,5.5 C166.5,5.2 166.2,5.1 165.7,5.1 C165.4,5.1 165.1,5.2 164.8,5.4 C164.5,5.6 164.2,5.8 163.9,6.2 L163.9,10.6 L162.6,10.6 L162.6,4.1 L162.5,4.1 Z"></path>
                        <path d="M171.8,5.2 L170,5.2 L170,4.2 L171.8,4.1 L172,2.3 L173.1,2.3 L173.1,4.1 L176.1,4.1 L176.1,5.1 L173.1,5.1 L173.1,7.9 C173.1,8.4 173.2,8.9 173.4,9.1 C173.6,9.4 174,9.5 174.6,9.5 C174.9,9.5 175.1,9.5 175.4,9.4 C175.6,9.4 175.9,9.3 176.1,9.2 L176.4,10.1 C176.1,10.2 175.8,10.3 175.5,10.4 C175.2,10.5 174.8,10.5 174.4,10.5 C173.9,10.5 173.5,10.4 173.2,10.3 C172.9,10.2 172.6,10 172.4,9.8 C172.2,9.6 172.1,9.3 172,9 C171.9,8.7 171.9,8.3 171.9,7.9 L171.9,5.2 L171.8,5.2 Z"></path>
                        <polygon points="180.3 0.8 181.4 0.8 181.4 13.8 180.3 13.8"></polygon>
                    </g>
                    <g transform="translate(17.000000, 152.000000)" fill="#AE81FF" id="Shape">
                        <polygon points="0.9 0.8 2 0.8 2 13.8 0.9 13.8"></polygon>
                        <polygon points="6.5 5.7 12.2 5.7 12.2 6.6 6.5 6.6"></polygon>
                        <polygon points="14.3 5.7 20 5.7 20 6.6 14.3 6.6"></polygon>
                        <polygon points="22.1 5.7 27.8 5.7 27.8 6.6 22.1 6.6"></polygon>
                        <polygon points="29.9 5.7 35.6 5.7 35.6 6.6 29.9 6.6"></polygon>
                        <polygon points="37.7 5.7 43.4 5.7 43.4 6.6 37.7 6.6"></polygon>
                        <polygon points="45.5 5.7 51.2 5.7 51.2 6.6 45.5 6.6"></polygon>
                        <polygon points="53.3 5.7 59 5.7 59 6.6 53.3 6.6"></polygon>
                        <polygon points="61.1 5.7 66.8 5.7 66.8 6.6 61.1 6.6"></polygon>
                        <polygon points="68.9 5.7 74.6 5.7 74.6 6.6 68.9 6.6"></polygon>
                        <polygon points="76.7 5.7 82.4 5.7 82.4 6.6 76.7 6.6"></polygon>
                        <polygon points="86.7 0.8 87.8 0.8 87.8 13.8 86.7 13.8"></polygon>
                        <polygon points="92.3 5.7 98 5.7 98 6.6 92.3 6.6"></polygon>
                        <polygon points="100.1 5.7 105.8 5.7 105.8 6.6 100.1 6.6"></polygon>
                        <polygon points="107.9 5.7 113.6 5.7 113.6 6.6 107.9 6.6"></polygon>
                        <polygon points="115.7 5.7 121.4 5.7 121.4 6.6 115.7 6.6"></polygon>
                        <polygon points="123.5 5.7 129.2 5.7 129.2 6.6 123.5 6.6"></polygon>
                        <polygon points="131.3 5.7 137 5.7 137 6.6 131.3 6.6"></polygon>
                        <polygon points="139.1 5.7 144.8 5.7 144.8 6.6 139.1 6.6"></polygon>
                        <polygon points="146.9 5.7 152.6 5.7 152.6 6.6 146.9 6.6"></polygon>
                        <polygon points="154.7 5.7 160.4 5.7 160.4 6.6 154.7 6.6"></polygon>
                        <polygon points="162.5 5.7 168.2 5.7 168.2 6.6 162.5 6.6"></polygon>
                        <polygon points="170.3 5.7 176 5.7 176 6.6 170.3 6.6"></polygon>
                        <polygon points="180.3 0.8 181.4 0.8 181.4 13.8 180.3 13.8"></polygon>
                    </g>
                    <g transform="translate(17.000000, 169.000000)" fill="#AE81FF" id="Shape">
                        <polygon points="0.9 0.8 2 0.8 2 13.8 0.9 13.8"></polygon>
                        <path d="M6.1,6.3 C6.1,5.6 6.2,5 6.4,4.4 C6.6,3.9 6.9,3.4 7.2,3 C7.5,2.6 7.9,2.3 8.4,2.1 C8.9,1.9 9.4,1.8 9.9,1.8 C10.5,1.8 10.9,1.9 11.3,2.1 C11.7,2.3 12,2.6 12.3,2.8 L11.6,3.6 C11.4,3.4 11.2,3.2 10.9,3.1 C10.6,3 10.3,2.9 9.9,2.9 C9.5,2.9 9.2,3 8.9,3.1 C8.6,3.3 8.3,3.5 8.1,3.8 C7.9,4.1 7.7,4.4 7.6,4.8 C7.5,5.2 7.4,5.7 7.4,6.2 C7.4,7.2 7.6,8 8,8.6 C8.4,9.2 9,9.5 9.8,9.5 C10.1,9.5 10.3,9.5 10.5,9.4 C10.7,9.3 10.9,9.2 11.1,9.1 L11.1,7.1 L9.5,7.1 L9.5,6 L12.3,6 L12.3,9.7 C12,10 11.7,10.2 11.2,10.4 C10.8,10.6 10.3,10.7 9.7,10.7 C9.2,10.7 8.7,10.6 8.2,10.4 C7.7,10.2 7.3,9.9 7,9.5 C6.7,9.1 6.4,8.7 6.2,8.1 C6.2,7.6 6.1,7 6.1,6.3 Z"></path>
                        <path d="M14.2,8.8 C14.2,8.4 14.3,8.1 14.5,7.9 C14.7,7.6 14.9,7.4 15.3,7.2 C15.7,7 16.1,6.9 16.7,6.7 C17.3,6.6 17.9,6.5 18.7,6.4 C18.7,6 18.6,5.7 18.3,5.4 C18,5.1 17.7,5 17.1,5 C16.7,5 16.3,5.1 16,5.2 C15.6,5.3 15.3,5.5 15,5.7 L14.5,4.8 C14.7,4.7 14.9,4.6 15.1,4.5 C15.3,4.4 15.5,4.3 15.8,4.2 C16,4.1 16.3,4 16.6,4 C16.9,3.9 17.1,3.9 17.4,3.9 C18.3,3.9 18.9,4.1 19.4,4.6 C19.8,5.1 20.1,5.7 20.1,6.6 L20.1,10.4 L19,10.4 L18.9,9.6 C18.6,9.9 18.2,10.1 17.8,10.3 C17.4,10.5 16.9,10.6 16.5,10.6 C16.2,10.6 15.9,10.6 15.6,10.5 C15.3,10.4 15.1,10.3 14.9,10.1 C14.7,9.9 14.6,9.7 14.5,9.5 C14.4,9.3 14.2,9.1 14.2,8.8 Z M15.4,8.7 C15.4,9 15.5,9.2 15.8,9.4 C16.1,9.6 16.3,9.6 16.7,9.6 C17,9.6 17.4,9.5 17.7,9.4 C18,9.3 18.4,9 18.7,8.8 L18.7,7.3 C18.1,7.4 17.6,7.4 17.1,7.5 C16.6,7.6 16.4,7.7 16.1,7.8 C15.9,7.9 15.7,8.1 15.6,8.2 C15.5,8.3 15.4,8.5 15.4,8.7 Z"></path>
                        <path d="M27.6,10.5 L26.5,10.5 L26.4,9.4 L26.3,9.4 C26,9.8 25.6,10.1 25.3,10.3 C24.9,10.5 24.5,10.6 24,10.6 C23.2,10.6 22.7,10.4 22.3,9.9 C22,9.5 21.8,8.8 21.8,8 L21.8,4.1 L23.1,4.1 L23.1,7.9 C23.1,8.5 23.2,8.9 23.4,9.1 C23.6,9.4 23.9,9.5 24.4,9.5 C24.7,9.5 25,9.4 25.3,9.3 C25.6,9.2 25.9,8.9 26.2,8.5 L26.2,4.1 L27.5,4.1 L27.5,10.5 L27.6,10.5 Z"></path>
                        <path d="M29.7,11.6 C29.7,11.3 29.8,11.1 30,10.9 C30.2,10.7 30.4,10.4 30.8,10.3 L30.8,10.2 C30.6,10.1 30.5,10 30.3,9.8 C30.2,9.6 30.1,9.4 30.1,9.1 C30.1,8.9 30.2,8.7 30.3,8.5 C30.4,8.3 30.6,8.1 30.9,7.9 L30.9,7.8 C30.7,7.6 30.5,7.4 30.3,7.1 C30.1,6.8 30.1,6.5 30.1,6.1 C30.1,5.7 30.2,5.4 30.3,5.1 C30.4,4.8 30.6,4.6 30.9,4.4 C31.1,4.2 31.4,4 31.7,3.9 C32,3.8 32.3,3.7 32.7,3.7 C33.1,3.7 33.4,3.8 33.7,3.9 L36.3,3.9 L36.3,4.9 L34.7,4.9 C34.8,5 34.9,5.2 35.1,5.4 C35.2,5.6 35.3,5.8 35.3,6.1 C35.3,6.4 35.2,6.8 35.1,7 C35,7.3 34.8,7.5 34.6,7.7 C34.4,7.9 34.1,8 33.8,8.1 C33.5,8.2 33.2,8.2 32.8,8.2 C32.6,8.2 32.5,8.2 32.3,8.1 C32.1,8.1 31.9,8 31.8,7.9 C31.5,8.1 31.4,8.3 31.4,8.6 C31.4,8.8 31.5,9 31.7,9.1 C31.9,9.2 32.2,9.3 32.6,9.3 L34,9.3 C34.8,9.3 35.4,9.4 35.9,9.7 C36.3,9.9 36.5,10.3 36.5,10.9 C36.5,11.2 36.4,11.5 36.2,11.8 C36,12.1 35.8,12.3 35.5,12.5 C35.2,12.7 34.8,12.9 34.4,13 C34,13.1 33.5,13.2 32.9,13.2 C32,13.2 31.3,13.1 30.8,12.8 C29.9,12.6 29.7,12.2 29.7,11.6 Z M30.8,11.5 C30.8,11.8 31,12 31.3,12.2 C31.6,12.4 32.1,12.5 32.7,12.5 C33,12.5 33.3,12.5 33.6,12.4 C33.9,12.3 34.1,12.2 34.3,12.1 C34.5,12 34.6,11.9 34.7,11.7 C34.8,11.6 34.9,11.4 34.9,11.3 C34.9,11 34.8,10.8 34.6,10.7 C34.4,10.6 34,10.6 33.6,10.6 L32.5,10.6 C32.3,10.6 32.1,10.6 32,10.6 C31.8,10.6 31.7,10.6 31.6,10.5 C31.3,10.6 31.2,10.8 31.1,11 C31,11.2 30.8,11.3 30.8,11.5 Z M32.6,7.7 C33,7.7 33.3,7.6 33.5,7.3 C33.8,7.1 33.9,6.7 33.9,6.3 C33.9,5.9 33.8,5.5 33.5,5.3 C33.2,5 32.9,4.9 32.6,4.9 C32.2,4.9 31.9,5 31.7,5.3 C31.4,5.6 31.3,5.9 31.3,6.3 C31.3,6.7 31.4,7.1 31.7,7.3 C31.9,7.5 32.2,7.7 32.6,7.7 Z"></path>
                        <path d="M37.4,7.3 C37.4,6.8 37.5,6.3 37.7,5.9 C37.9,5.5 38.1,5.1 38.4,4.8 C38.7,4.5 39,4.3 39.4,4.1 C39.8,3.9 40.2,3.9 40.6,3.9 C41.1,3.9 41.5,4 41.8,4.1 C42.2,4.2 42.5,4.5 42.7,4.7 C43,5 43.1,5.3 43.3,5.6 C43.4,6 43.5,6.4 43.5,6.8 C43.5,6.9 43.5,7.1 43.5,7.2 C43.5,7.3 43.5,7.4 43.5,7.5 L38.7,7.5 C38.7,8.1 39,8.6 39.4,9 C39.8,9.4 40.4,9.5 41,9.5 C41.3,9.5 41.7,9.5 42,9.4 C42.3,9.3 42.6,9.2 42.9,9 L43.4,9.8 C43.1,10 42.7,10.2 42.3,10.3 C41.9,10.4 41.4,10.5 40.9,10.5 C40.4,10.5 40,10.4 39.6,10.3 C39.2,10.2 38.8,9.9 38.5,9.6 C38.2,9.3 37.9,9 37.8,8.6 C37.5,8.3 37.4,7.8 37.4,7.3 Z M42.4,6.8 C42.4,6.2 42.3,5.8 42,5.5 C41.7,5.2 41.3,5 40.7,5 C40.2,5 39.8,5.2 39.4,5.5 C39,5.8 38.8,6.2 38.7,6.8 L42.4,6.8 Z"></path>
                        <polygon points="86.7 0.8 87.8 0.8 87.8 13.8 86.7 13.8"></polygon>
                        <path d="M92.5,8.7 C92.8,9 93.1,9.2 93.5,9.4 C93.9,9.6 94.3,9.7 94.8,9.7 C95.1,9.7 95.3,9.7 95.5,9.6 C95.7,9.5 95.9,9.4 96.1,9.3 C96.3,9.2 96.4,9 96.5,8.9 C96.6,8.7 96.6,8.5 96.6,8.3 C96.6,8.1 96.5,7.9 96.4,7.7 C96.3,7.5 96.1,7.4 95.9,7.2 C95.7,7.1 95.4,7 95,6.9 C94.6,6.8 94.2,6.8 93.7,6.8 L93.7,5.8 C94.2,5.8 94.6,5.8 94.9,5.7 C95.2,5.6 95.5,5.5 95.7,5.4 C95.9,5.3 96.1,5.1 96.2,5 C96.3,4.8 96.3,4.6 96.3,4.4 C96.3,4 96.2,3.7 95.9,3.5 C95.6,3.3 95.2,3.2 94.7,3.2 C94.3,3.2 94,3.3 93.7,3.4 C93.4,3.6 93.1,3.7 92.8,4 L92.1,3.2 C92.5,2.9 92.9,2.6 93.3,2.5 C93.7,2.3 94.2,2.2 94.8,2.2 C95.2,2.2 95.6,2.2 95.9,2.3 C96.2,2.4 96.5,2.5 96.8,2.7 C97.1,2.9 97.2,3.1 97.4,3.4 C97.6,3.7 97.6,4 97.6,4.3 C97.6,4.8 97.4,5.2 97.1,5.5 C96.8,5.8 96.4,6.1 95.8,6.2 L95.8,6.3 C96.1,6.4 96.3,6.5 96.6,6.6 C96.8,6.7 97.1,6.9 97.2,7 C97.3,7.1 97.5,7.4 97.6,7.6 C97.7,7.8 97.8,8.1 97.8,8.4 C97.8,8.8 97.7,9.1 97.6,9.4 C97.4,9.7 97.2,9.9 96.9,10.1 C96.6,10.3 96.3,10.5 95.9,10.6 C95.5,10.7 95.1,10.8 94.7,10.8 C94,10.8 93.4,10.7 92.9,10.5 C92.4,10.3 92,10 91.7,9.7 L92.5,8.7 Z"></path>
                        <polygon points="180.3 0.8 181.4 0.8 181.4 13.8 180.3 13.8"></polygon>
                    </g>
                    <g transform="translate(17.000000, 186.000000)" fill="#AE81FF" id="Shape">
                        <polygon points="0.9 0.8 2 0.8 2 13.8 0.9 13.8"></polygon>
                        <polygon points="8.6 3.1 5.9 3.1 5.9 2 12.7 2 12.7 3.1 10 3.1 10 10.5 8.7 10.5 8.7 3.1"></polygon>
                        <path d="M14,7.3 C14,6.8 14.1,6.3 14.3,5.9 C14.5,5.5 14.7,5.1 15,4.8 C15.3,4.5 15.6,4.3 16,4.1 C16.4,3.9 16.8,3.9 17.2,3.9 C17.7,3.9 18.1,4 18.4,4.1 C18.8,4.2 19.1,4.5 19.3,4.7 C19.6,5 19.7,5.3 19.9,5.6 C20,6 20.1,6.4 20.1,6.8 C20.1,6.9 20.1,7.1 20.1,7.2 C20.1,7.3 20.1,7.4 20.1,7.5 L15.3,7.5 C15.3,8.1 15.6,8.6 16,9 C16.4,9.4 17,9.5 17.6,9.5 C17.9,9.5 18.3,9.5 18.6,9.4 C18.9,9.3 19.2,9.2 19.5,9 L20,9.8 C19.7,10 19.3,10.2 18.9,10.3 C18.5,10.4 18,10.5 17.5,10.5 C17,10.5 16.6,10.4 16.2,10.3 C15.8,10.2 15.4,9.9 15.1,9.6 C14.8,9.3 14.5,9 14.4,8.6 C14.1,8.3 14,7.8 14,7.3 Z M19,6.8 C19,6.2 18.9,5.8 18.6,5.5 C18.3,5.2 17.9,5 17.3,5 C16.8,5 16.4,5.2 16,5.5 C15.6,5.8 15.4,6.2 15.3,6.8 L19,6.8 Z"></path>
                        <path d="M22.5,8.8 C22.9,9.1 23.2,9.3 23.6,9.4 C24,9.6 24.5,9.6 25,9.6 C25.5,9.6 25.9,9.5 26.2,9.4 C26.5,9.2 26.6,9 26.6,8.8 C26.6,8.6 26.4,8.4 26.1,8.2 C25.8,8 25.3,7.9 24.6,7.7 C24.3,7.6 24,7.5 23.7,7.4 C23.4,7.3 23.2,7.2 22.9,7 C22.6,6.8 22.5,6.7 22.4,6.5 C22.3,6.3 22.2,6.1 22.2,5.9 C22.2,5.6 22.3,5.4 22.4,5.2 C22.5,5 22.7,4.8 22.9,4.6 C23.1,4.4 23.4,4.3 23.8,4.2 C24.1,4.1 24.5,4.1 25,4.1 C25.5,4.1 26,4.2 26.4,4.4 C26.8,4.6 27.2,4.8 27.6,5 L27,5.8 C26.7,5.6 26.4,5.5 26.1,5.3 C25.8,5.2 25.4,5.1 25,5.1 C24.5,5.1 24.1,5.2 23.9,5.3 C23.7,5.5 23.6,5.6 23.6,5.9 C23.6,6.1 23.8,6.3 24.1,6.5 C24.4,6.7 24.9,6.8 25.4,6.9 C26.2,7.1 26.8,7.3 27.2,7.6 C27.6,7.9 27.8,8.3 27.8,8.8 C27.8,9.1 27.7,9.3 27.6,9.6 C27.5,9.8 27.3,10 27,10.2 C26.7,10.4 26.4,10.5 26.1,10.6 C25.7,10.7 25.3,10.7 24.9,10.7 C24.3,10.7 23.7,10.6 23.2,10.4 C22.7,10.2 22.2,10 21.8,9.7 L22.5,8.8 Z"></path>
                        <path d="M31.4,5.2 L29.7,5.2 L29.7,4.2 L31.5,4.1 L31.7,2.3 L32.8,2.3 L32.8,4.1 L35.8,4.1 L35.8,5.1 L32.8,5.1 L32.8,7.9 C32.8,8.4 32.9,8.9 33.1,9.1 C33.3,9.4 33.7,9.5 34.3,9.5 C34.6,9.5 34.8,9.5 35.1,9.4 C35.3,9.4 35.6,9.3 35.8,9.2 L36.1,10.1 C35.8,10.2 35.5,10.3 35.2,10.4 C34.9,10.5 34.5,10.5 34.1,10.5 C33.6,10.5 33.2,10.4 32.9,10.3 C32.6,10.2 32.3,10 32.1,9.8 C31.9,9.6 31.8,9.3 31.7,9 C31.6,8.7 31.6,8.3 31.6,7.9 L31.6,5.2 L31.4,5.2 Z"></path>
                        <polygon points="86.7 0.8 87.8 0.8 87.8 13.8 86.7 13.8"></polygon>
                        <path d="M98.1,9.4 L98.1,10.5 L92.4,10.5 L92.4,9.4 L94.7,9.4 L94.7,3.6 L93,3.6 L93,2.8 C93.5,2.7 93.8,2.6 94.2,2.5 C94.5,2.4 94.8,2.3 95.1,2.1 L96.1,2.1 L96.1,9.3 L98.1,9.3 L98.1,9.4 Z"></path>
                        <polygon points="180.3 0.8 181.4 0.8 181.4 13.8 180.3 13.8"></polygon>
                    </g>
                    <g transform="translate(17.000000, 203.000000)" fill="#AE81FF" id="Shape">
                        <polygon points="0.9 0.8 2 0.8 2 13.8 0.9 13.8"></polygon>
                        <path d="M10.8,8.1 L7.8,8.1 L7.1,10.5 L5.8,10.5 L8.6,2 L10.1,2 L12.9,10.5 L11.5,10.5 L10.8,8.1 Z M10.5,7 L10.1,5.8 C10,5.3 9.8,4.9 9.7,4.4 C9.6,3.9 9.4,3.5 9.3,3 L9.2,3 C9.1,3.5 9,4 8.8,4.4 C8.6,4.8 8.5,5.3 8.4,5.8 L8,7 L10.5,7 Z"></path>
                        <path d="M19.8,10.5 L18.7,10.5 L18.6,9.4 L18.5,9.4 C18.2,9.8 17.8,10.1 17.5,10.3 C17.1,10.5 16.7,10.6 16.2,10.6 C15.4,10.6 14.9,10.4 14.5,9.9 C14.2,9.5 14,8.8 14,8 L14,4.1 L15.3,4.1 L15.3,7.9 C15.3,8.5 15.4,8.9 15.6,9.1 C15.8,9.4 16.1,9.5 16.6,9.5 C16.9,9.5 17.2,9.4 17.5,9.3 C17.8,9.2 18.1,8.9 18.4,8.5 L18.4,4.1 L19.7,4.1 L19.7,10.5 L19.8,10.5 Z"></path>
                        <path d="M23.6,5.2 L21.9,5.2 L21.9,4.2 L23.7,4.1 L23.9,2.3 L25,2.3 L25,4.1 L28,4.1 L28,5.1 L25,5.1 L25,7.9 C25,8.4 25.1,8.9 25.3,9.1 C25.5,9.4 25.9,9.5 26.5,9.5 C26.8,9.5 27,9.5 27.3,9.4 C27.5,9.4 27.8,9.3 28,9.2 L28.3,10.1 C28,10.2 27.7,10.3 27.4,10.4 C27.1,10.5 26.7,10.5 26.3,10.5 C25.8,10.5 25.4,10.4 25.1,10.3 C24.8,10.2 24.5,10 24.3,9.8 C24.1,9.6 24,9.3 23.9,9 C23.8,8.7 23.8,8.3 23.8,7.9 L23.8,5.2 L23.6,5.2 Z"></path>
                        <path d="M29.5,7.3 C29.5,6.8 29.6,6.3 29.8,5.9 C30,5.5 30.2,5.1 30.5,4.8 C30.8,4.5 31.1,4.3 31.5,4.1 C31.9,3.9 32.3,3.9 32.7,3.9 C33.1,3.9 33.5,4 33.9,4.1 C34.3,4.2 34.6,4.5 34.9,4.8 C35.2,5.1 35.4,5.4 35.6,5.9 C35.8,6.4 35.9,6.8 35.9,7.3 C35.9,7.8 35.8,8.3 35.6,8.7 C35.4,9.1 35.2,9.5 34.9,9.7 C34.6,9.9 34.3,10.2 33.9,10.3 C33.5,10.4 33.1,10.5 32.7,10.5 C32.3,10.5 31.9,10.4 31.5,10.3 C31.1,10.2 30.8,9.9 30.5,9.7 C30.2,9.5 30,9.1 29.8,8.7 C29.6,8.3 29.5,7.9 29.5,7.3 Z M30.9,7.3 C30.9,8 31.1,8.5 31.4,9 C31.7,9.4 32.2,9.6 32.8,9.6 C33.4,9.6 33.8,9.4 34.2,9 C34.5,8.6 34.7,8 34.7,7.3 C34.7,6.6 34.5,6.1 34.2,5.6 C33.9,5.2 33.4,5 32.8,5 C32.2,5 31.8,5.2 31.4,5.6 C31,6.1 30.9,6.6 30.9,7.3 Z"></path>
                        <path d="M37.3,4.1 L38.3,4.1 L38.4,4.9 C38.5,4.6 38.7,4.4 38.9,4.2 C39.1,4 39.4,3.9 39.8,3.9 C40.4,3.9 40.8,4.3 41,5 C41.2,4.7 41.4,4.4 41.6,4.2 C41.8,4 42.1,3.9 42.5,3.9 C42.9,3.9 43.3,4.1 43.5,4.4 C43.7,4.7 43.9,5.2 43.9,5.9 L43.9,10.4 L42.7,10.4 L42.7,6 C42.7,5.3 42.5,5 42.1,5 C41.9,5 41.7,5.1 41.6,5.2 C41.5,5.3 41.3,5.6 41.2,5.9 L41.2,10.4 L40.2,10.4 L40.2,6 C40.2,5.3 40,5 39.6,5 C39.4,5 39.2,5.1 39.1,5.2 C39,5.3 38.8,5.6 38.7,5.9 L38.7,10.4 L37.5,10.4 L37.5,4.1 L37.3,4.1 Z"></path>
                        <path d="M45.4,8.8 C45.4,8.4 45.5,8.1 45.7,7.9 C45.9,7.6 46.1,7.4 46.5,7.2 C46.9,7 47.3,6.9 47.9,6.7 C48.5,6.6 49.1,6.5 49.9,6.4 C49.9,6 49.8,5.7 49.5,5.4 C49.2,5.1 48.9,5 48.3,5 C47.9,5 47.5,5.1 47.2,5.2 C46.8,5.3 46.5,5.5 46.2,5.7 L45.7,4.8 C45.9,4.7 46.1,4.6 46.3,4.5 C46.5,4.4 46.7,4.3 47,4.2 C47.2,4.1 47.5,4 47.8,4 C48.1,3.9 48.3,3.9 48.6,3.9 C49.5,3.9 50.1,4.1 50.6,4.6 C51,5.1 51.3,5.7 51.3,6.6 L51.3,10.4 L50.2,10.4 L50.1,9.6 C49.8,9.9 49.4,10.1 49,10.3 C48.6,10.5 48.1,10.6 47.7,10.6 C47.4,10.6 47.1,10.6 46.8,10.5 C46.5,10.4 46.3,10.3 46.1,10.1 C45.9,9.9 45.8,9.7 45.7,9.5 C45.6,9.3 45.4,9.1 45.4,8.8 Z M46.6,8.7 C46.6,9 46.7,9.2 47,9.4 C47.3,9.6 47.5,9.6 47.9,9.6 C48.2,9.6 48.6,9.5 48.9,9.4 C49.2,9.3 49.6,9 49.9,8.8 L49.9,7.3 C49.3,7.4 48.8,7.4 48.3,7.5 C47.8,7.6 47.6,7.7 47.3,7.8 C47.1,7.9 46.9,8.1 46.8,8.2 C46.7,8.3 46.6,8.5 46.6,8.7 Z"></path>
                        <path d="M54.8,5.2 L53,5.2 L53,4.2 L54.8,4.1 L55,2.3 L56.1,2.3 L56.1,4.1 L59.1,4.1 L59.1,5.1 L56.1,5.1 L56.1,7.9 C56.1,8.4 56.2,8.9 56.4,9.1 C56.6,9.4 57,9.5 57.6,9.5 C57.9,9.5 58.1,9.5 58.4,9.4 C58.6,9.4 58.9,9.3 59.1,9.2 L59.4,10.1 C59.1,10.2 58.8,10.3 58.5,10.4 C58.2,10.5 57.8,10.5 57.4,10.5 C56.9,10.5 56.5,10.4 56.2,10.3 C55.9,10.2 55.6,10 55.4,9.8 C55.2,9.6 55.1,9.3 55,9 C54.9,8.7 54.9,8.3 54.9,7.9 L54.9,5.2 L54.8,5.2 Z"></path>
                        <path d="M61.1,4.1 L65.2,4.1 L65.2,10.5 L64,10.5 L64,5.2 L61.2,5.2 L61.2,4.1 L61.1,4.1 Z M64.5,2.9 C64.2,2.9 64,2.8 63.8,2.7 C63.6,2.5 63.5,2.3 63.5,2 C63.5,1.7 63.6,1.5 63.8,1.3 C64,1.1 64.2,1 64.5,1 C64.8,1 65,1.1 65.2,1.3 C65.4,1.5 65.5,1.7 65.5,2 C65.5,2.3 65.4,2.5 65.2,2.7 C65,2.9 64.8,2.9 64.5,2.9 Z"></path>
                        <path d="M68.5,7.3 C68.5,6.8 68.6,6.3 68.8,5.9 C69,5.5 69.2,5.1 69.5,4.8 C69.8,4.5 70.1,4.3 70.5,4.1 C70.9,3.9 71.3,3.9 71.7,3.9 C72.1,3.9 72.5,4 72.9,4.1 C73.3,4.2 73.6,4.5 73.9,4.8 C74.2,5.1 74.4,5.4 74.6,5.9 C74.8,6.4 74.9,6.8 74.9,7.3 C74.9,7.8 74.8,8.3 74.6,8.7 C74.4,9.1 74.2,9.5 73.9,9.7 C73.6,9.9 73.3,10.2 72.9,10.3 C72.5,10.4 72.1,10.5 71.7,10.5 C71.3,10.5 70.9,10.4 70.5,10.3 C70.1,10.2 69.8,9.9 69.5,9.7 C69.2,9.5 69,9.1 68.8,8.7 C68.6,8.3 68.5,7.9 68.5,7.3 Z M69.9,7.3 C69.9,8 70.1,8.5 70.4,9 C70.7,9.4 71.2,9.6 71.8,9.6 C72.4,9.6 72.8,9.4 73.2,9 C73.5,8.6 73.7,8 73.7,7.3 C73.7,6.6 73.5,6.1 73.2,5.6 C72.9,5.2 72.4,5 71.8,5 C71.2,5 70.8,5.2 70.4,5.6 C70,6.1 69.9,6.6 69.9,7.3 Z"></path>
                        <path d="M76.7,4.1 L77.8,4.1 L77.9,5.1 L78,5.1 C78.3,4.8 78.7,4.5 79,4.3 C79.4,4.1 79.8,4 80.3,4 C81,4 81.6,4.2 81.9,4.7 C82.2,5.1 82.4,5.8 82.4,6.6 L82.4,10.5 L81.1,10.5 L81.1,6.7 C81.1,6.1 81,5.7 80.8,5.5 C80.6,5.2 80.3,5.1 79.8,5.1 C79.5,5.1 79.2,5.2 78.9,5.4 C78.6,5.6 78.3,5.8 78,6.2 L78,10.6 L76.7,10.6 L76.7,4.1 Z"></path>
                        <polygon points="86.7 0.8 87.8 0.8 87.8 13.8 86.7 13.8"></polygon>
                        <polygon points="180.3 0.8 181.4 0.8 181.4 13.8 180.3 13.8"></polygon>
                    </g>
                </g>
            </g>
            <path d="M142.147,280.155 C142.372334,280.155 142.582499,280.116 142.7775,280.038 C142.972501,279.96 143.143666,279.849501 143.291,279.7065 C143.438334,279.563499 143.555333,279.385834 143.642,279.1735 C143.728667,278.961166 143.772,278.725001 143.772,278.465 C143.772,277.936331 143.631168,277.535501 143.3495,277.2625 C143.067832,276.989499 142.667003,276.853 142.147,276.853 C141.843665,276.853 141.523002,276.930999 141.185,277.087 C140.846998,277.243001 140.513335,277.511665 140.184,277.893 C140.270667,278.664337 140.485165,279.234165 140.8275,279.6025 C141.169835,279.970835 141.609664,280.155 142.147,280.155 Z M144.136,274.266 C143.927999,274.066666 143.683168,273.908501 143.4015,273.7915 C143.119832,273.674499 142.827335,273.616 142.524,273.616 C142.211998,273.616 141.915168,273.674499 141.6335,273.7915 C141.351832,273.908501 141.102668,274.096999 140.886,274.357 C140.669332,274.617001 140.493834,274.959331 140.3595,275.384 C140.225166,275.808669 140.153667,276.328664 140.145,276.944 C140.474335,276.614665 140.836165,276.359001 141.2305,276.177 C141.624835,275.994999 142.016998,275.904 142.407,275.904 C142.779669,275.904 143.124165,275.955999 143.4405,276.06 C143.756835,276.164001 144.029832,276.324332 144.2595,276.541 C144.489168,276.757668 144.666833,277.026332 144.7925,277.347 C144.918167,277.667668 144.981,278.040331 144.981,278.465 C144.981,278.872335 144.905167,279.240665 144.7535,279.57 C144.601833,279.899335 144.396001,280.180999 144.136,280.415 C143.875999,280.649001 143.574835,280.830999 143.2325,280.961 C142.890165,281.091001 142.532669,281.156 142.16,281.156 C141.717998,281.156 141.302002,281.075834 140.912,280.9155 C140.521998,280.755166 140.181835,280.508168 139.8915,280.1745 C139.601165,279.840832 139.371501,279.422669 139.2025,278.92 C139.033499,278.417331 138.949,277.82367 138.949,277.139 C138.949,276.324329 139.046499,275.62667 139.2415,275.046 C139.436501,274.46533 139.694332,273.990835 140.015,273.6225 C140.335668,273.254165 140.706165,272.985501 141.1265,272.8165 C141.546835,272.647499 141.982331,272.563 142.433,272.563 C142.961669,272.563 143.425331,272.651832 143.824,272.8295 C144.222669,273.007168 144.560665,273.221665 144.838,273.473 L144.136,274.266 Z" id="6" fill="#AE81FF"></path>
            <circle id="Oval" fill="#34C749" cx="53" cy="15" r="5"></circle>
            <circle id="Oval" fill="#FDBC40" cx="36" cy="15" r="5"></circle>
            <circle id="Oval" fill="#FC605C" cx="19" cy="15" r="5"></circle>
        </g>
    </g>
</svg>